<svg width="20" height="23" viewBox="0 0 20 23" fill="none" xmlns="http://www.w3.org/2000/svg">
<path d="M18.3985 19.1722V17.0472C18.3985 15.9197 17.9506 14.8384 17.1533 14.0411C16.356 13.2438 15.2747 12.7959 14.1472 12.7959H5.64584C4.51832 12.7959 3.43698 13.2438 2.63971 14.0411C1.84244 14.8384 1.39453 15.9197 1.39453 17.0472V19.1722" stroke="#32334A" stroke-linecap="round" stroke-linejoin="round"/>
<path d="M10.3378 9.79667C12.7669 9.79667 14.7361 7.82747 14.7361 5.39834C14.7361 2.9692 12.7669 1 10.3378 1C7.90866 1 5.93945 2.9692 5.93945 5.39834C5.93945 7.82747 7.90866 9.79667 10.3378 9.79667Z" stroke="#32334A" stroke-linecap="round" stroke-linejoin="round"/>
<path d="M7.43164 12.7673L10.219 16.5612L10.2591 16.6153L12.8516 12.7673" stroke="#32334A" stroke-linecap="round" stroke-linejoin="round"/>
<path d="M10.1406 16.0862V19.1739" stroke="#32334A" stroke-linecap="round"/>
<path d="M3.09145 12.4755L4.47607 19.6755C4.51228 19.8639 4.67708 20 4.86887 20H14.9835C15.1725 20 15.3357 19.8677 15.3748 19.6828L16.8979 12.4828C16.9505 12.2341 16.7608 12 16.5065 12H3.48425C3.23304 12 3.04401 12.2288 3.09145 12.4755Z" fill="#F8F8F8" stroke="#32334A"/>
<rect x="0.435547" y="21.0869" width="19.1304" height="1.91304" fill="#32334A"/>
</svg>
