<svg xmlns="http://www.w3.org/2000/svg" width="35" height="35" viewBox="0 0 35 35">
  <g id="Group_51632" data-name="Group 51632" transform="translate(-1808 -898.75)">
    <g id="favorite_border-24px" transform="translate(1808 898.75)">
      <path id="Path_12" data-name="Path 12" d="M0,0H35V35H0Z" fill="none"/>
      <path id="Path_13" data-name="Path 13" d="M24.131,3a9.054,9.054,0,0,0-6.868,3.267A9.054,9.054,0,0,0,10.395,3,8.415,8.415,0,0,0,2,11.6C2,17.5,7.189,22.318,15.05,29.633l2.213,2.047,2.213-2.063c7.86-7.3,13.05-12.113,13.05-18.021A8.415,8.415,0,0,0,24.131,3ZM17.415,27.3l-.153.156L17.11,27.3C9.845,20.567,5.053,16.113,5.053,11.6a5.28,5.28,0,0,1,5.342-5.47,5.966,5.966,0,0,1,5.449,3.689H18.7a5.929,5.929,0,0,1,5.434-3.689,5.28,5.28,0,0,1,5.342,5.47C29.473,16.113,24.681,20.567,17.415,27.3Z" transform="translate(0.237 0.356)" fill="#ff2e2e"/>
    </g>
    <path id="Path_78845" data-name="Path 78845" d="M-13196.814-10594.965h-3.967l-4.614,5.181,3,8.662,11.5,11.09,10.038-11.09,3.724-8.662-4.372-5.181h-4.371l-5.019,3.643-3.967-2.833Z" transform="translate(15017 11499)" fill="#ff2e2e"/>
  </g>
</svg>
