<svg xmlns="http://www.w3.org/2000/svg" width="18" height="16" viewBox="0 0 18 16"><defs><style>.a{fill:#fff;stroke:#fff;}.b{stroke:none;}.c{fill:none;}</style></defs><g transform="translate(-190 -224)"><g transform="translate(12 2)"><g class="a" transform="translate(178 222)"><rect class="b" width="4" height="4" rx="2"/><rect class="c" x="0.5" y="0.5" width="3" height="3" rx="1.5"/></g><g class="a" transform="translate(184 223)"><rect class="b" width="12" height="2" rx="1"/><rect class="c" x="0.5" y="0.5" width="11" height="1" rx="0.5"/></g></g><g transform="translate(12 -2)"><g class="a" transform="translate(184 239)"><rect class="b" width="12" height="2" rx="1"/><rect class="c" x="0.5" y="0.5" width="11" height="1" rx="0.5"/></g><g class="a" transform="translate(178 238)"><rect class="b" width="4" height="4" rx="2"/><rect class="c" x="0.5" y="0.5" width="3" height="3" rx="1.5"/></g></g><g transform="translate(12)"><g class="a" transform="translate(184 231)"><rect class="b" width="12" height="2" rx="1"/><rect class="c" x="0.5" y="0.5" width="11" height="1" rx="0.5"/></g><g class="a" transform="translate(178 230)"><rect class="b" width="4" height="4" rx="2"/><rect class="c" x="0.5" y="0.5" width="3" height="3" rx="1.5"/></g></g></g></svg>