<svg xmlns="http://www.w3.org/2000/svg" width="92.656" height="74.648" viewBox="0 0 92.656 74.648"><defs><style>.a{fill:#d82755;}.b{fill:#ff7040;}.c{fill:#f3c527;}.d{fill:#97d93a;}.e{fill:none;stroke:#707070;stroke-width:5px;}.f{fill:#fff;}.g,.h,.i,.j,.k{stroke:none;}.h{fill:#d82755;}.i{fill:#ff7040;}.j{fill:#f3c527;}.k{fill:#97d93a;}</style></defs><g transform="translate(-35.787 -94.743)"><path class="a" d="M45.422,113.326a6,6,0,0,0-6,6V163.39a6,6,0,0,0,12,0V119.326A6,6,0,0,0,45.422,113.326Z"/><path class="b" d="M69.883,120.619a6,6,0,0,0-6,6V163.39a6,6,0,0,0,12,0V126.619A6,6,0,0,0,69.883,120.619Z"/><path class="c" d="M94.344,98.817a6,6,0,0,0-6,6V163.39a6,6,0,1,0,12,0V104.817A6,6,0,0,0,94.344,98.817Z"/><path class="d" d="M118.805,111.849a6,6,0,0,0-6,6v45.542a6,6,0,0,0,12,0V117.849a6,6,0,0,0-6-6Z"/><path class="e" d="M44.44,117.743,69.8,127.921l25.27-24.928,25.611,17.757"/><g class="f" transform="translate(34.94 109.743)"><path class="g" d="M 10.347412109375 18.01251220703125 C 5.660491943359375 18.01251220703125 1.847412109375 14.19943237304688 1.847412109375 9.51251220703125 C 1.847412109375 4.825592041015625 5.660491943359375 1.01251220703125 10.347412109375 1.01251220703125 C 15.03433227539063 1.01251220703125 18.847412109375 4.825592041015625 18.847412109375 9.51251220703125 C 18.847412109375 14.19943237304688 15.03433227539063 18.01251220703125 10.347412109375 18.01251220703125 Z"/><path class="h" d="M 10.347412109375 2.01251220703125 C 6.211901664733887 2.01251220703125 2.847412109375 5.377001762390137 2.847412109375 9.51251220703125 C 2.847412109375 13.64802169799805 6.211901664733887 17.01251220703125 10.347412109375 17.01251220703125 C 14.4829216003418 17.01251220703125 17.847412109375 13.64802169799805 17.847412109375 9.51251220703125 C 17.847412109375 5.377001762390137 14.4829216003418 2.01251220703125 10.347412109375 2.01251220703125 M 10.347412109375 0.01251220703125 C 15.59411239624023 0.01251220703125 19.847412109375 4.265811920166016 19.847412109375 9.51251220703125 C 19.847412109375 14.75921249389648 15.59411239624023 19.01251220703125 10.347412109375 19.01251220703125 C 5.100711822509766 19.01251220703125 0.847412109375 14.75921249389648 0.847412109375 9.51251220703125 C 0.847412109375 4.265811920166016 5.100711822509766 0.01251220703125 10.347412109375 0.01251220703125 Z"/></g><g class="f" transform="translate(59.94 117.743)"><path class="g" d="M 9.5 18 C 4.813079833984375 18 1 14.18692016601563 1 9.5 C 1 4.813079833984375 4.813079833984375 1 9.5 1 C 14.18692016601563 1 18 4.813079833984375 18 9.5 C 18 14.18692016601563 14.18692016601563 18 9.5 18 Z"/><path class="i" d="M 9.5 2 C 5.364489555358887 2 2 5.364489555358887 2 9.5 C 2 13.6355094909668 5.364489555358887 17 9.5 17 C 13.6355094909668 17 17 13.6355094909668 17 9.5 C 17 5.364489555358887 13.6355094909668 2 9.5 2 M 9.5 0 C 14.74670028686523 0 19 4.253299713134766 19 9.5 C 19 14.74670028686523 14.74670028686523 19 9.5 19 C 4.253299713134766 19 0 14.74670028686523 0 9.5 C 0 4.253299713134766 4.253299713134766 0 9.5 0 Z"/></g><g class="f" transform="translate(84.94 94.743)"><path class="g" d="M 9.5 18 C 4.813079833984375 18 1 14.18692016601563 1 9.5 C 1 4.813079833984375 4.813079833984375 1 9.5 1 C 14.18692016601563 1 18 4.813079833984375 18 9.5 C 18 14.18692016601563 14.18692016601563 18 9.5 18 Z"/><path class="j" d="M 9.5 2 C 5.364489555358887 2 2 5.364489555358887 2 9.5 C 2 13.6355094909668 5.364489555358887 17 9.5 17 C 13.6355094909668 17 17 13.6355094909668 17 9.5 C 17 5.364489555358887 13.6355094909668 2 9.5 2 M 9.5 0 C 14.74670028686523 0 19 4.253299713134766 19 9.5 C 19 14.74670028686523 14.74670028686523 19 9.5 19 C 4.253299713134766 19 0 14.74670028686523 0 9.5 C 0 4.253299713134766 4.253299713134766 0 9.5 0 Z"/></g><g class="f" transform="translate(109.94 109.743)"><path class="g" d="M 9.00341796875 18.03359985351563 C 4.316497802734375 18.03359985351563 0.50341796875 14.22052001953125 0.50341796875 9.533599853515625 C 0.50341796875 4.8466796875 4.316497802734375 1.033599853515625 9.00341796875 1.033599853515625 C 13.69033813476563 1.033599853515625 17.50341796875 4.8466796875 17.50341796875 9.533599853515625 C 17.50341796875 14.22052001953125 13.69033813476563 18.03359985351563 9.00341796875 18.03359985351563 Z"/><path class="k" d="M 9.00341796875 2.033599853515625 C 4.867907524108887 2.033599853515625 1.50341796875 5.398089408874512 1.50341796875 9.533599853515625 C 1.50341796875 13.66910934448242 4.867907524108887 17.03359985351563 9.00341796875 17.03359985351563 C 13.1389274597168 17.03359985351563 16.50341796875 13.66910934448242 16.50341796875 9.533599853515625 C 16.50341796875 5.398089408874512 13.1389274597168 2.033599853515625 9.00341796875 2.033599853515625 M 9.00341796875 0.033599853515625 C 14.25011825561523 0.033599853515625 18.50341796875 4.286899566650391 18.50341796875 9.533599853515625 C 18.50341796875 14.78030014038086 14.25011825561523 19.03359985351563 9.00341796875 19.03359985351563 C 3.756717681884766 19.03359985351563 -0.49658203125 14.78030014038086 -0.49658203125 9.533599853515625 C -0.49658203125 4.286899566650391 3.756717681884766 0.033599853515625 9.00341796875 0.033599853515625 Z"/></g></g></svg>