<svg xmlns="http://www.w3.org/2000/svg" width="76" height="49.203" viewBox="0 0 76 49.203"><defs><style>.a{fill:#042955;font-size:17px;font-family:OpenSans-Semibold, Open Sans;font-weight:600;}.b{fill:#78b5f3;}</style></defs><g transform="translate(24.799 0.044)"><text class="a" transform="translate(-24.799 44.159)"><tspan x="0" y="0">2 Answer</tspan></text><g transform="translate(0 -0.044)"><g transform="translate(0 0)"><path class="b" d="M23.4,0H2.807A2.807,2.807,0,0,0,0,2.809V17.783A2.807,2.807,0,0,0,2.807,20.59H6.13l-.509,4.576a.936.936,0,0,0,1.556.8l5.972-5.374H23.4A2.807,2.807,0,0,0,26.2,17.783V2.809A2.807,2.807,0,0,0,23.4,0Z" transform="translate(0 -0.002)"/></g></g></g></svg>