<svg xmlns="http://www.w3.org/2000/svg" width="152.63" height="35" viewBox="0 0 152.63 35"><defs><style>.a{fill:#042955;font-size:24px;font-family:OpenSans-Semibold, Open Sans;font-weight:600;}.b{fill:#78b5f3;}</style></defs><g transform="translate(0 0.841)"><text class="a" transform="translate(45.63 25.159)"><tspan x="0" y="0">2 Answer</tspan></text><g transform="translate(0 0.192)"><g transform="translate(0 0)"><path class="b" d="M30.328,0H3.639A3.639,3.639,0,0,0,0,3.641v19.41A3.639,3.639,0,0,0,3.639,26.69H7.946l-.66,5.932A1.213,1.213,0,0,0,9.3,33.657l7.742-6.967H30.328a3.639,3.639,0,0,0,3.639-3.639V3.641A3.639,3.639,0,0,0,30.328,0Z" transform="translate(0 -0.002)"/></g></g></g></svg>