<svg id="Layer_1" data-name="Layer 1" xmlns="http://www.w3.org/2000/svg" viewBox="0 0 69.18 26.82"><defs><style>.cls-1{fill:#10b4cc;}</style></defs><title>arc</title><path class="cls-1" d="M35.82,16.72l-13.33,3L9.84,22.48l-.3.1a2.75,2.75,0,0,1,.61-1A47.93,47.93,0,0,1,24.7,8.42,29.19,29.19,0,0,1,45.06,4.75,32.54,32.54,0,0,1,52.8,7.3l.58.26A17,17,0,0,1,57,9.39c.8.43,1.47,1.07,2.27,1.5.19.1.41.23.38.46s-.32.26-.52.31c-1.62.4-3.26.74-4.89,1.11L41.9,15.51c-1.84.41-3.68.84-5.53,1.21-.18,0-.36.12-.55,0"/></svg>