<svg xmlns="http://www.w3.org/2000/svg" width="11.38" height="16.099" viewBox="0 0 11.38 16.099"><defs><style>.a{fill:#ff6b6b;}</style></defs><g transform="translate(-142.61)"><path class="a" d="M397.06,788.2h-.778a.993.993,0,0,0-.993.993v1.074a.993.993,0,0,0,.993.993h.778a.993.993,0,0,0,.993-.993v-1.074A.992.992,0,0,0,397.06,788.2Z" transform="translate(-248.5 -775.159)"/><path class="a" d="M143.078,4.728l1.434.179a.993.993,0,0,0,1.051-.634,3.06,3.06,0,0,1,.864-1.279,2.926,2.926,0,0,1,1.951-.662,2.8,2.8,0,0,1,1.924.634,1.966,1.966,0,0,1,.713,1.524,1.9,1.9,0,0,1-.4,1.171,13.272,13.272,0,0,1-1.6,1.421,6.74,6.74,0,0,0-1.785,1.954,4.521,4.521,0,0,0-.437,1.908.993.993,0,0,0,.993,1.034h.811a1,1,0,0,0,.989-.908,2.506,2.506,0,0,1,.187-.839,4.661,4.661,0,0,1,1.2-1.292,12.488,12.488,0,0,0,2.445-2.454,3.513,3.513,0,0,0,.572-1.911,4.16,4.16,0,0,0-1.555-3.2A6.09,6.09,0,0,0,148.249,0a5.877,5.877,0,0,0-4.038,1.357,4.68,4.68,0,0,0-1.592,2.738A.535.535,0,0,0,143.078,4.728Z" transform="translate(0)"/></g></svg>