<svg xmlns="http://www.w3.org/2000/svg" width="145.34" height="170.695" viewBox="0 0 145.34 170.695"><defs><style>.a{fill:#62b7af;}.b{fill:#239288;}.c{fill:#f4b394;}.d{fill:#697fee;}.e{fill:#bfdfdf;}.f{fill:#de9d7e;}.g{fill:#f8c1a7;}.h{fill:#7d3928;}.i{fill:#5b1800;}.j{fill:#a2461f;}.k{fill:#fff;}.l{fill:#e47445;}.m{fill:#32425c;}</style></defs><g transform="translate(0)"><path class="a" d="M88.7.117s.188-.612-2.692.964C80.652,4.013,67.77,9.968,52.873,9.2,30.438,8.033,17.852,10.7,0,22.876c5.061.068,19.767.547,31.19,13.612,3.215,4.036,7.045,10.4,1.573,20.93-1.5,2.394-5.951,9.029,1.573,12.449,2.12,1.368,9.712,7.866,0,26.2,1.915.684,17.511,3.283,39.74-20.451C84.131,64.326,93.091,49,106.156,43.738c1.3-1.094-6.976-33.174-6.976-33.174Z" transform="matrix(0.985, 0.174, -0.174, 0.985, 16.757, 57.206)"/><path class="b" d="M65.927,2.156S14.153-4.263,0,5.05c3.683.894,11.891,4.472,11.891,4.472L64.664,5.05Z" transform="matrix(0.985, 0.174, -0.174, 0.985, 28.587, 73.787)"/><path class="b" d="M38.372,0S4.447,6.019,0,41.245c3.831-3.9,35.089-26.129,49.247-27.018-9.37-.342-23.734-2.189-36.662,6.84A45.477,45.477,0,0,1,38.372,0Z" transform="matrix(0.985, 0.174, -0.174, 0.985, 49.818, 85.153)"/><path class="b" d="M60.794,0S37.552,2.326,6.977,35.841c-.958,1.3-2.531,3.557,2.394,4.651,1.368.616,3.146,1.231-.752,5.472S2.12,53.078,0,53.83C5.882,52.8,13.2,51.984,26.813,35.841c13.2-16.347,20.724-28.317,33.31-32.285C61.081,2.394,60.794,0,60.794,0Z" transform="matrix(0.985, 0.174, -0.174, 0.985, 49.793, 101.054)"/><path class="c" d="M8299.927,569.9s2.476,5.983,1.817,18.262c.688-2.85,5.418-7.988,6.14-.94.219-2.1,1.878-6.672,1.847-16.664C8309.7,564.888,8299.927,569.9,8299.927,569.9Z" transform="translate(-8192.058 -444.501)"/><path class="d" d="M8305.671,618.306a63,63,0,0,0-1.159-14.472c-.03-.846-.5-5.482,1.159-6.609s5.544-1.5,5.105,6.609c-.438,3.978-2.067,14.315-.752,15.411a13.729,13.729,0,0,1,1.942,1.911s.846,3.1-1.942,1.785C8309.618,622.567,8305.264,619.309,8305.671,618.306Z" transform="translate(-8194.701 -461.395)"/><path d="M8306.242,648.095s-.592,2.15,4.653,4.979c.627.271,1.556.265,1.6-.362s-.373-1.481-1.6-2.65c.826.328,5.009,4.613,5.375,5.96.186.214.613,2.167-2.11,1.554-3.18-1.269-6.6-3.864-8.683-5.375C8304.575,651.188,8305.259,649.221,8306.242,648.095Z" transform="translate(-8195.069 -491.625)"/><path class="c" d="M8357.1,365.6s9.185-10.845,9.714-34.666c-.053-.423-4.551-.59-6.21-1.905-.346-.564.155-.971,1.44-.626a4.629,4.629,0,0,0,2.663-.251l-1.5-1.566-2.6-2.694s-1.253-1.159.752-2.757,6.8-2.725,9.178,0c.595,1.1-.282,3.446-.438,5.45s-.5,3.07-.283,4.761,3.649,23.674-6.608,39.238C8360.73,372.491,8355.168,368.293,8357.1,365.6Z" transform="translate(-8225.4 -298.637)"/><path class="c" d="M8267.24,467.631s-4.377,7.33-4.847,11.277,1.566,6.359,7.111,10.776a1.378,1.378,0,0,0,2.1-.815v-3.446l-3.258-3.164a3.818,3.818,0,0,1-.626-4.385,76.215,76.215,0,0,1,5.232-8.238S8269.581,465.595,8267.24,467.631Z" transform="translate(-8169.977 -385.303)"/><path class="e" d="M8291.572,435.317a17.148,17.148,0,0,0-7.221,3.156A5.249,5.249,0,0,0,8279,437.2c-.795.41-4.434,1.181-4.771,9.084-.1.675,2.7,3.373,4.771,3.132s3.156-.482,4.217.651,13.372,5.952,13.372,5.952,8.338-2.723,8.6-2.867,2.844-4.361,2.844-4.361-.892-4.843,1.808-7.036a27.477,27.477,0,0,0,4.7-5.132s-5.157-3.446-5.855-5.4a5.96,5.96,0,0,0-3.928,3.614c-.675.1-5.711,0-5.711,0s-.048,7.662-3.855,7.566C8294.4,442.329,8291.251,442.281,8291.572,435.317Z" transform="translate(-8176.967 -364.257)"/><path class="f" d="M8316.258,429.767v4.085s-.337,6.771,3.76,6.433c1.831-.217,3.54-1.95,3.684-7.443a3.487,3.487,0,0,0-2.168-.371l-.287-4.354-3.35-.458Z" transform="translate(-8201.645 -362.165)"/><path class="g" d="M8247.605,330.336s-5.78-.688-3.578,7.226c1.1,1.927,2.753,4.06,7.707,4.542.62,1.858,9.016,12.387,21.334,11.218,4.611-.757,14.865-3.234,18.168-14.727.551-2.34,0-9.91,0-9.91s4.336-1.1,3.1-8.189c-.688-1.789-2.2-4.748-7.157-3.51.274-.138.895-6.607.895-6.607l-11.079-9.084-16.518-3.647-9.7,6.125-6.744,8.946.757,13.42Z" transform="translate(-8158.935 -285.81)"/><path class="h" d="M8228.728,313.492s-4.129-3.234-3.716-18.994c-.069-.688-4.405-4.886-7.64,2.89.069.895-1.17-2.2,0-4.129-1.515.344-2.891.826-2.821,2.477.206-2.477-.414-5.161,5.16-6.675a8.1,8.1,0,0,1-.687-6.056c.275,1.583-.068,7.02,7.846,8.258.688-2,5.5-11.217,15.278-13.488,3.716-.826,13.694-2.684,21.2,2,1.856-.551,5.161-2.822,3.509-10.8.895.069,1.927,1.927,1.858,4.336,1.308.413,6.676-.757,7.639,3.51-1.309-1.1-1.721-1.652-4.061-1.17,1.239.826,3.373,2.133,2.96,5.093-.895-1.308-6.883-5.987-9.222,1.514,1.445,1.514,6.881,6.675,6.95,17.342a10.908,10.908,0,0,1-3.166,0s-1.307-8.327-6.468-8.327a39.867,39.867,0,0,0,1.17,6.125s-6.538-8.671-15.829-8.327c.757.206-.138,4.129,7.227,8.327-3.786-.963-13.214.275-18.513-9.7-1.583,5.3-.414,7.226-4.336,15.415-1.169-1.652-4.2-3.1-4.335-6.607s-1.858,10.6,1.514,16.035A6.934,6.934,0,0,0,8228.728,313.492Z" transform="translate(-8141.916 -268.966)"/><path class="c" d="M8337.958,570.856s.313,7.592,2.162,12.541c.344.5,0,3.6,0,3.6s5.449,1.5,6.045-1.6.155-10.462.878-16.57C8345.319,567.265,8337.958,570.856,8337.958,570.856Z" transform="translate(-8214.394 -444.842)"/><path class="d" d="M1.081,17.929S1.664,12.579.067,3.558C.036,2.712-.375,1.616,1.285.488c.8-.511,4.941-1.587,4.9,2.969C5.748,7.436,4.12,17.773,5.435,18.869A13.714,13.714,0,0,1,7.377,20.78s.846,3.1-1.942,1.785C5.028,22.189.674,18.932,1.081,17.929Z" transform="matrix(0.921, 0.391, -0.391, 0.921, 126.3, 137.071)"/><path d="M1.186,0S.594,2.15,5.839,4.979c.627.271,1.556.265,1.6-.362s-.373-1.481-1.6-2.65c.827.328,5.01,4.613,5.375,5.96.185.214.613,2.167-2.11,1.554C5.925,8.212,2.5,5.617.421,4.106-.481,3.093.2,1.126,1.186,0Z" transform="translate(119.399 153.167) rotate(20)"/><path class="i" d="M8330.711,365.327s.814-5.009,4.968-3.054c.529-.407.692-1.385,1.1-1.344s0,1.344,0,1.344v1.466s-3.3-1.3-4.846,1.181C8331.892,364.8,8330.915,366.63,8330.711,365.327Z" transform="translate(-8210.137 -322.974)"/><path class="i" d="M5.968,4.4S5.19-.61,1.223,1.345C.717.938.562-.039.173,0s0,1.344,0,1.344V2.811s3.15-1.3,4.628,1.181C4.84,3.87,5.774,5.7,5.968,4.4Z" transform="translate(94.763 48.897) rotate(-43)"/><path class="j" d="M0,1.772A10.326,10.326,0,0,0,6.028.015C6.476-.229,7.9,2.54,6.935,7.287c-.265,1.446-2.626,2.7-5.06-.267C.735,5.146-.039,3.9,0,1.772Z" transform="translate(111.642 50.386) rotate(5)"/><path class="k" d="M.313,4.269s4.506.6,6.65-2.024A7.753,7.753,0,0,0,6.148,0S2.867,2.1,0,1.835A8.81,8.81,0,0,0,.313,4.269Z" transform="translate(111.692 50.323) rotate(5)"/><path class="l" d="M3.518.215A2.544,2.544,0,0,0,0,1.926C.362,1.974,2.868,3.516,3.518.215Z" transform="translate(114.557 57.11) rotate(5)"/><path class="a" d="M8285.62,442.738a5.957,5.957,0,0,1,3.265,1.506,17.025,17.025,0,0,1,5.072-2.523c.687-.178,2.123-.543,2.123-.543a13.893,13.893,0,0,0,.337,3.889c-6.39,5.946-10.795-2.2-14.5-1.187A5.578,5.578,0,0,1,8285.62,442.738Z" transform="translate(-8181.479 -370.105)"/><path class="a" d="M8334.021,440.06a8.9,8.9,0,0,1-.181,2.892c-.36,1.5,4.388-.356,6.022-2.892C8338.876,440.024,8334.021,440.06,8334.021,440.06Z" transform="translate(-8211.963 -369.439)"/><path class="m" d="M8282.423,443.03c-.162,1.588.016,10.93.016,10.93l-3.421,2.24-.407.611s1.914,2.932,1.059,5.131-6.76,8.551-10.181,29.808c1.589.9,28.221,9.447,48.174-2.85-.2-1.914-4.886-20.361-11.4-27.772a18.663,18.663,0,0,1-.406-6.638,7.351,7.351,0,0,1-3.707-6.556c-.081-2.606-.993-7.85-.993-7.85h-2.3s1.745,4.8,1.337,8.257c-.366.122-.978,5.294-6.312,5.62-2.321.163-5.945-.244-7.33-3.746-1.018-.652-1.222,0-1.222,0l-.725-8.39A2.866,2.866,0,0,0,8282.423,443.03Z" transform="translate(-8174.182 -369.461)"/></g></svg>