<svg xmlns="http://www.w3.org/2000/svg" width="21" height="22" viewBox="0 0 21 22"><defs><style>.a{fill:#feac00;stroke:#da9a13;}.b{fill:#fff;stroke:#fff;stroke-width:0.25px;}.c{stroke:none;}.d{fill:none;}</style></defs><g transform="translate(-0.373 0.458)"><g class="a" transform="translate(0.373 -0.458)"><rect class="c" width="21" height="22" rx="5"/><rect class="d" x="0.5" y="0.5" width="20" height="21" rx="4.5"/></g><g transform="translate(5.243 5.043)"><g transform="translate(0 0)"><path class="b" d="M38.112.9a3.071,3.071,0,0,0-4.339,0L29.2,5.465a.361.361,0,0,0,.51.51l4.568-4.568a2.4,2.4,0,0,1,3.318,0,2.349,2.349,0,0,1,0,3.318l-6.379,6.451a1.478,1.478,0,0,1-2.042,0,1.445,1.445,0,0,1,0-2.042l6.124-6.2a.555.555,0,0,1,.766,0,.542.542,0,0,1,0,.766L30.2,9.645a.4.4,0,0,0,0,.51.361.361,0,0,0,.51,0L36.58,4.215a1.264,1.264,0,0,0,0-1.787,1.294,1.294,0,0,0-1.786,0l-6.124,6.2a2.18,2.18,0,0,0,0,3.062,2.177,2.177,0,0,0,3.063,0l6.379-6.451A3.071,3.071,0,0,0,38.112.9Z" transform="translate(-28.042 0)"/></g></g></g></svg>