<svg xmlns="http://www.w3.org/2000/svg" width="20.531" height="20.573" viewBox="0 0 20.531 20.573"><defs><style>.a{fill:#fff;}</style></defs><g transform="translate(0 0.05)"><g transform="translate(0 -0.05)"><path class="a" d="M5.2,27.871l.378-.106a.684.684,0,0,0,.475-.843L1.728,11.445a.855.855,0,0,0-1.054-.593l-.049.014a.855.855,0,0,0-.593,1.054L4.357,27.4A.684.684,0,0,0,5.2,27.871Z" transform="translate(0 -7.323)"/><path class="a" d="M24.608,10.681a16.387,16.387,0,0,1-3.769-2.593.337.337,0,0,1-.1-.344A48.482,48.482,0,0,0,21.987,1.3c.043-.361-.152-.468-.358-.22C17.6,5.906,10.622.2,6.47,4.584a1.414,1.414,0,0,1,.117.294L9.393,14.925c4.159-4.329,11.11,1.339,15.134-3.472.205-.248.244-.7.081-.772Z" transform="translate(-4.178 -0.95)"/></g></g></svg>