<svg xmlns="http://www.w3.org/2000/svg" width="34" height="34" viewBox="0 0 34 34"><defs><style>.a{fill:#feac00;stroke:#da9a13;}.b{fill:#fff;stroke:#fff;stroke-width:0.25px;}.c{stroke:none;}.d{fill:none;}</style></defs><g transform="translate(-285 -476)"><g class="a" transform="translate(285 476)"><rect class="c" width="34" height="34" rx="5"/><rect class="d" x="0.5" y="0.5" width="33" height="33" rx="4.5"/></g><g transform="translate(261.912 481.701)"><g transform="translate(31.486 1.869)"><path class="b" d="M44.173,1.437a4.92,4.92,0,0,0-6.95,0L29.9,8.755a.578.578,0,0,0,.818.818L38.04,2.255a3.85,3.85,0,0,1,5.315,0,3.763,3.763,0,0,1,0,5.315L33.136,17.9a2.368,2.368,0,0,1-3.271,0,2.315,2.315,0,0,1,0-3.27l9.81-9.925a.888.888,0,0,1,1.226,0,.869.869,0,0,1,0,1.227L31.5,15.45a.644.644,0,0,0,0,.818.578.578,0,0,0,.818,0l9.4-9.516a2.026,2.026,0,0,0,0-2.862,2.073,2.073,0,0,0-2.861,0l-9.81,9.925a3.492,3.492,0,0,0,0,4.905,3.487,3.487,0,0,0,4.906,0L44.173,8.387A4.919,4.919,0,0,0,44.173,1.437Z" transform="translate(-28.042 0)"/></g></g></g></svg>