<svg xmlns="http://www.w3.org/2000/svg" width="25" height="25" viewBox="0 0 25 25"><defs><style>.a{fill:#014b7e;}.b{fill:#fff;stroke:#fff;stroke-width:0.25px;}</style></defs><g transform="translate(-634 -350.418)"><rect class="a" width="25" height="25" rx="5" transform="translate(634 350.418)"/><g transform="translate(641.233 357.666)"><path class="b" d="M37.452.838a2.87,2.87,0,0,0-4.055,0L29.128,5.107a.337.337,0,1,0,.477.477l4.269-4.269a2.246,2.246,0,0,1,3.1,0,2.195,2.195,0,0,1,0,3.1l-5.961,6.028a1.381,1.381,0,0,1-1.908,0,1.35,1.35,0,0,1,0-1.908l5.723-5.79a.518.518,0,0,1,.715,0,.507.507,0,0,1,0,.716L30.06,9.013a.376.376,0,0,0,0,.477.337.337,0,0,0,.477,0l5.484-5.551a1.182,1.182,0,0,0,0-1.67,1.209,1.209,0,0,0-1.669,0l-5.723,5.79a2.037,2.037,0,0,0,0,2.862,2.034,2.034,0,0,0,2.862,0l5.961-6.028A2.87,2.87,0,0,0,37.452.838Z" transform="translate(-28.042 0)"/></g></g></svg>