<svg xmlns="http://www.w3.org/2000/svg" width="34" height="34" viewBox="0 0 34 34"><defs><style>.a{fill:#feac00;stroke:#da9a13;}.b,.d{fill:none;}.c,.e{stroke:none;}.e{fill:#fff;}</style></defs><g transform="translate(-285 -476)"><g class="a" transform="translate(285 476)"><rect class="c" width="34" height="34" rx="5"/><rect class="d" x="0.5" y="0.5" width="33" height="33" rx="4.5"/></g><g class="b" transform="translate(291.5 483)"><path class="c" d="M11,0l3.355,6.974L22,8.021l-5.571,5.358L17.8,21,11,17.337,4.2,21l1.37-7.621L0,8.021,7.645,6.974Z"/><path class="e" d="M 11 3.459997177124023 L 8.996709823608398 7.624099731445313 L 8.647250175476074 8.350500106811523 L 7.848620414733887 8.459930419921875 L 3.272323608398438 9.08695125579834 L 6.611189842224121 12.2975902557373 L 7.189849853515625 12.85404014587402 L 7.047829627990723 13.64416980743408 L 6.228167533874512 18.204345703125 L 10.28855037689209 16.01678085327148 L 11 15.63348007202148 L 11.71144962310791 16.01678085327148 L 15.77182769775391 18.20434379577637 L 14.9521598815918 13.64416980743408 L 14.81014060974121 12.85404014587402 L 15.38881015777588 12.2975902557373 L 18.72768020629883 9.086952209472656 L 14.15138053894043 8.459930419921875 L 13.35274982452393 8.350500106811523 L 13.0032901763916 7.624099731445313 L 11 3.459997177124023 M 11 0 L 14.35499954223633 6.973810195922852 L 22 8.021289825439453 L 16.42850112915039 13.37880992889404 L 17.79837036132813 21 L 11 17.33732032775879 L 4.201629638671875 21 L 5.571489334106445 13.37880992889404 L 0 8.021289825439453 L 7.645000457763672 6.973810195922852 L 11 0 Z"/></g></g></svg>