<svg xmlns="http://www.w3.org/2000/svg" width="63.893" height="35.514" viewBox="0 0 63.893 35.514"><defs><style>.a{fill:#042955;font-size:25px;font-family:OpenSans-Semibold, Open Sans;font-weight:600;}.b{fill:#f9ab5d;}</style></defs><g transform="translate(0 1.841)"><text class="a" transform="translate(48.893 25.159)"><tspan x="0" y="0">5</tspan></text><g transform="translate(0 0.642)"><g transform="translate(0 14.361)"><path class="b" d="M3.59,224A3.6,3.6,0,0,0,0,227.59v11.489a3.6,3.6,0,0,0,3.59,3.59H7.9a3.564,3.564,0,0,0,2.154-.727V224Z" transform="translate(0 -224)"/></g><g transform="translate(11.489)"><path class="b" d="M193.645,30.414a3.184,3.184,0,0,0-.935-2.261,3.566,3.566,0,0,0,.919-2.742,3.712,3.712,0,0,0-3.745-3.256h-8.871a20.649,20.649,0,0,0,1.143-5.745c0-3.115-2.647-5.745-4.308-5.745a4.517,4.517,0,0,0-2.6.875.722.722,0,0,0-.268.562v4.87l-4.136,8.96-.172.088V41.413a9.409,9.409,0,0,0,3.59.849H187.44a3.3,3.3,0,0,0,3.254-2.509,3.231,3.231,0,0,0-.26-2.157,3.217,3.217,0,0,0,1.438-4.31A3.215,3.215,0,0,0,193.645,30.414Z" transform="translate(-170.667 -10.667)"/></g></g></g></svg>