<svg xmlns="http://www.w3.org/2000/svg" width="125.252" height="166.844" viewBox="0 0 125.252 166.844"><defs><style>.a{fill:#62b7af;}.b{fill:#239288;}.c{fill:#de9d7e;}.d{fill:#ffb07b;}.e{fill:#86481c;}.f{fill:#5b1800;}.g{fill:#a2461f;}.h{fill:#fff;}.i{fill:#e47445;}.j{fill:#d4dadd;}.k{fill:#24324b;}.l{fill:#212121;}.m{fill:#32415c;}</style></defs><g transform="translate(0)"><path class="a" d="M72.716.1s.154-.5-2.207.79c-4.394,2.4-14.954,7.285-27.166,6.652C24.951,6.585,14.634,8.772,0,18.753c4.149.056,16.2.449,25.568,11.158,2.636,3.308,5.775,8.523,1.29,17.158-1.233,1.962-4.878,7.4,1.29,10.2,1.738,1.121,7.962,6.448,0,21.475,1.57.561,14.354,2.691,32.577-16.765,8.242-9.252,15.588-21.812,26.3-26.129C88.088,34.957,81.3,8.66,81.3,8.66Z" transform="matrix(0.985, 0.174, -0.174, 0.985, 13.737, 49.843)"/><path class="b" d="M54.044,1.768S11.6-3.494,0,4.14A91.341,91.341,0,0,1,9.748,7.806L53.009,4.14Z" transform="matrix(0.985, 0.174, -0.174, 0.985, 23.435, 63.435)"/><path class="b" d="M31.456,0S3.645,4.934,0,33.811c3.14-3.2,28.764-21.419,40.371-22.148-7.682-.28-19.456-1.794-30.054,5.607A37.28,37.28,0,0,1,31.456,0Z" transform="matrix(0.985, 0.174, -0.174, 0.985, 40.839, 72.753)"/><path class="b" d="M49.837,0S30.783,1.906,5.719,29.381c-.785,1.065-2.075,2.916,1.963,3.813,1.121.5,2.579,1.009-.617,4.486S1.738,43.511,0,44.128c4.822-.841,10.822-1.514,21.98-14.747C32.8,15.98,38.969,6.168,49.286,2.916A4.7,4.7,0,0,0,49.837,0Z" transform="matrix(0.985, 0.174, -0.174, 0.985, 40.818, 85.788)"/><path class="c" d="M.006,1.889V5.551s-.3,6.069,3.369,5.767c1.642-.194,3.174-1.748,3.3-6.672a3.128,3.128,0,0,0-1.944-.332L4.477.41l-3-.41Z" transform="translate(92.133 58.46) rotate(-31)"/><path class="d" d="M3.79,30.378s-5.372-.639-3.325,6.715c1.023,1.791,2.25,3.832,6.855,4.279.575,1.727,7.345,9.587,18.792,8.5,4.285-.7,12.92-.58,15.99-11.261.512-2.174,1.461-10.655,1.461-10.655s4.547-1.2,3.4-7.784c-.64-1.663-1.631-4.324-6.236-3.173.256-.128.672-5.169.672-5.169l-3.553-9.5L15.75,0,6.732,5.692.465,14.006l.7,12.471Z" transform="translate(52.569 20.226) rotate(-19)"/><path class="e" d="M9467.186-241.552s-2.274-.073-2.86,2.934c-.513-5.354.953-10.121,9.315-16.355,1.318-.367,2.125-.587,2.785-3.227s10.194-8.214,23.689-7.481c-.587.807-3.08,1.027-4.254,3.667,2.861-.073,10.488-.66,17.089,1.98-2.421,1.027-4.621.733-4.328,1.834s5.94,2.42,6.381,13.935c-1.393.66-3.446,1.393-3.739-1.247s-2.42-6.674-8.582-6.674c.807.807,3.08,2.567,1.907,5.647-.367.367-4.254,1.32-10.121-1.76-1.173-.733-3.814-.953-4.767,0a9.855,9.855,0,0,1,6.16,6.747c-.88.147-5.206,2.494-15.182-.66-.44,1.027,1.395,6.674-3.08,11.954.074,1.687-.588,5.721,4.18,11.294a17.852,17.852,0,0,0-2.933,2.567C9476.06-217.2,9462.2-223.8,9467.186-241.552Z" transform="translate(-9415.626 265.747)"/><path class="f" d="M0,4.122S.763-.571,4.655,1.26C5.151.879,5.3-.037,5.686,0s0,1.259,0,1.259V2.634S2.6,1.413,1.145,3.741C1.107,3.626.191,5.343,0,4.122Z" transform="matrix(0.978, -0.208, 0.208, 0.978, 89.539, 29.02)"/><path class="f" d="M5.593,4.122S4.863-.571,1.146,1.26C.672.879.527-.037.162,0s0,1.259,0,1.259V2.634S3.114,1.413,4.5,3.741C4.535,3.626,5.41,5.343,5.593,4.122Z" transform="matrix(0.574, -0.819, 0.819, 0.574, 70.043, 44.079)"/><path class="g" d="M0,1.891S2.739,2.232,6.433.016c.478-.261,2,2.694.967,7.759C7.117,9.318,4.6,10.655,2,7.49.784,5.491-.042,4.158,0,1.891Z" transform="matrix(0.94, -0.342, 0.342, 0.94, 82.373, 42.092)"/><path class="h" d="M.334,4.572s4.808.643,7.1-2.16A8.272,8.272,0,0,0,6.56.016S2.062-.313,0,1.975A9.41,9.41,0,0,0,.334,4.572Z" transform="matrix(0.94, -0.342, 0.342, 0.94, 82.386, 41.994)"/><path class="i" d="M3.754.229A2.714,2.714,0,0,0,0,2.055C.386,2.106,3.06,3.752,3.754.229Z" transform="matrix(0.94, -0.342, 0.342, 0.94, 88.224, 47.282)"/><path class="j" d="M9545.583-165.161s-5.812.607-7.616,3.2c-.9,1.636-12.863,8.97-18.393,16.756-1.3,2.031-2.876,8.462,4.515,10.719,2.764.9,7.969,2.176,9.51,2.458-.026-4.751,0-5.059,0-5.059s-5.906-1.541-8.063-3.081a.935.935,0,0,1,0-1.772c.848-.488,11.838-6.985,14.432-9.065s5.264.8,5.264.8l13.841,16.742,3.313-4.9-.54-18.335.54-3.236,2.361.924a119.854,119.854,0,0,0,11.454-23.059c.692-1.746.821-5.161,0-8.859s-5.188-15.9-5.188-15.9-2,1.592-3.646,1.258a150.947,150.947,0,0,0,2.414,20.492,3.138,3.138,0,0,1-1.13,2.568c-1.259,1.31-8.834,9.527-11.915,13.507-.359.565-2.722-.822-4.981,1.335.41.462,3.59,5.59.311,7.565C9551.59-159.767,9548.041-159.183,9545.583-165.161Z" transform="translate(-9451.517 226.761)"/><path class="d" d="M9647.749-229.557s.035-2.7-1.568-4.073-4.706-1.035-4.706-1.035l-1.169-1.569s-.534-4.774.5-5.875c.9-.9,4.507-1.2,5.375,0s1.2.3,1.568,2.4a9.945,9.945,0,0,0,1.436,4.373,30.5,30.5,0,0,1,2,4.507A4,4,0,0,1,9647.749-229.557Z" transform="translate(-9532.037 250.63)"/><path class="d" d="M9555.952,81.195l-11.488,36.41s-1.6,2.3-3.645,2.213c.607.781,3.688,1.476,6.423.955.39-1.085.087-2.213.521-2.734s18.1-35.759,18.1-35.759l-6.942-3.906Z" transform="translate(-9466.301 38.05)"/><path class="k" d="M9583.44,40.271s-.636,7.143-3.84,12.651c-.167-.267-1,.8,1.869,1.269s12.652.734,12.652.734.534-4.44,2.27-5.975c1.035-.334,1.3-.267,1.3,1.3v5.007s9.581,1.1,13.285,0c.5-1.269,3.772-5.408,2.9-18.06C9608.644,37.8,9593.455,40.072,9583.44,40.271Z" transform="translate(-9491.802 65.294)"/><path class="d" d="M9563.114-10.7a7.859,7.859,0,0,0,4.828,2.234c.437.077.539-.719.539-.719a3.189,3.189,0,0,1,0-3.03c.9-1.438,2.928-3.338,4.468-3.492.514.334.514,2.337-.771,3.492.386.437,5.033-.411,5.471,0s1.026,1.618.308,1.952-1.387.462-1.516,1.079a6.344,6.344,0,0,1-.514,2.157c-.436.8-1.1,1.13-1.13,1.643s-.1.95-.462,1.027-2.131,1.207-5.572-.8c-.385-.257-5.649-.231-5.649-.231Z" transform="translate(-9481.053 100.304)"/><path class="d" d="M9631.992,90.974v2.537l-.734.567-2.636,33.115s-.733,1.506,2.972,4.11c.568.367,2.338.89,2.176-.575-.664-1.124-2.043-1.331-1.811-2.867s8.88-35.786,8.88-35.786v-1.1Z" transform="translate(-9524.359 29.712)"/><path class="l" d="M9526.425,199a12.506,12.506,0,0,0-6.176-1.068,1.152,1.152,0,0,0-.867,1.936c.834,1.135,4.706,3.772,12.552,4.941.8-.167,1.937-1.536,1.368-5.208C9532.468,199.867,9530.331,200.968,9526.425,199Z" transform="translate(-9451.907 -41.025)"/><path class="l" d="M9626.184,197.743a5.778,5.778,0,0,0-1.133,1.825c-.1.477-.575,2.814.875,4.125,1.8,1.438,6.5,5.315,11.76,3.7a1.626,1.626,0,0,0,0-2.337c-1-.77-6.777-3.878-7.42-4.879,1.309,1.078,1.053,1.618,1.053,1.618s-.847,1.489-2.979-.462S9626.031,198.633,9626.184,197.743Z" transform="translate(-9521.934 -40.934)"/><path class="a" d="M8284.953,442.457a4.884,4.884,0,0,1,2.677,1.234,13.938,13.938,0,0,1,4.158-2.068c.562-.146,1.74-.445,1.74-.445a11.388,11.388,0,0,0,.276,3.188c-5.239,4.874-8.85-1.8-11.889-.973A4.572,4.572,0,0,1,8284.953,442.457Z" transform="translate(-8199.583 -379.967)"/><path class="m" d="M9576.738-88.259s1.755,12.581,3.221,19.463c.452,1.354.4,10.381-1.016,14.612s-.79,6.149,2.879,6.826,28.771-2.821,30.521-3.159,2.482-2.482,1.748-4.626-2.27-27.619-19.76-39.861a4.876,4.876,0,0,0-1.915,0s6.134,7.844,6.247,9.142c-1.072.621-2.437-.367-2.437-.367s5.455,13.654,1.279,24.711c-.508-2.6-8.574-13.145-11.734-17.94a6.745,6.745,0,0,1-1.806,1.467s-2.538-9.76-4.006-12.412A10.579,10.579,0,0,0,9576.738-88.259Z" transform="translate(-9490.067 152.837)"/><path class="h" d="M9592.951-91.178l-1.4.456,2.192,12.827s3.036-.668,4.973-6.376a14.083,14.083,0,0,1,1.637-1.569,55.219,55.219,0,0,1,9.111,1c-.433-.9-7.2-9.879-7.2-9.879a3.255,3.255,0,0,0-2.1,1.14c.434,1.1,2.723,4.6,1.021,7-.367.5-3.222,1.332-5.091-1.039a15.183,15.183,0,0,1-2.353-3.732Z" transform="translate(-9499.87 152.581)"/></g></svg>