<svg xmlns="http://www.w3.org/2000/svg" width="139.109" height="145.73" viewBox="0 0 139.109 145.73"><defs><style>.a{fill:#013e56;}</style></defs><g transform="translate(0 -67.102)"><g transform="translate(0 67.101)"><path class="a" d="M134.058,181.524a227.512,227.512,0,0,0-40.776-26.152,1.217,1.217,0,0,1-.692-1.141V140.708a31.6,31.6,0,0,0,3.951-10.835c1.507-.122,3.5-2.24,5.662-9.817,2.77-9.736.2-11.691-2.322-11.691a18.21,18.21,0,0,0,.57-2.485C104.933,79.035,91.694,78.1,91.694,78.1a20.662,20.662,0,0,0-7.943-7.414,26.9,26.9,0,0,0-16.335-3.462A26.018,26.018,0,0,0,60.9,68.444h0a29.03,29.03,0,0,0-7.169,3.666,37.467,37.467,0,0,0-7.373,6.11,29.96,29.96,0,0,0-7.984,13.972c-1.141,4.318-.9,8.8.081,13.646h0c.163.815.367,1.67.57,2.485-2.485.041-4.929,2.077-2.2,11.65,2.159,7.577,4.155,9.695,5.662,9.817a32.217,32.217,0,0,0,3.951,10.835V154.15a1.289,1.289,0,0,1-.692,1.141A227.511,227.511,0,0,0,4.97,181.443,13.8,13.8,0,0,0,0,192.115v20.716H139.109V192.115A14.172,14.172,0,0,0,134.058,181.524Z" transform="translate(0 -67.101)"/></g></g></svg>