<svg xmlns="http://www.w3.org/2000/svg" width="26" height="26.185" viewBox="0 0 26 26.185"><defs><style>.a,.c{fill:#ff6b6b;}.b{fill:none;stroke-linecap:round;stroke-width:2px;}.b,.c{stroke:#ff6b6b;}.c{stroke-width:0.5px;}</style></defs><g transform="translate(-1554 -510.917)"><rect class="a" width="11" height="11" rx="2" transform="translate(1554 526.102)"/><path class="b" d="M9697.982,12711.8v-7.363a2.36,2.36,0,0,1,2.57-2.574h18.457a2.372,2.372,0,0,1,2.571,2.574v18.842a2.579,2.579,0,0,1-2.571,2.574h-8.018" transform="translate(-8142.581 -12189.941)"/><path class="c" d="M216.859,84.489v3.756a.709.709,0,0,0,1.418,0V82.776a.706.706,0,0,0-.709-.709H212.1a.709.709,0,1,0,0,1.418h3.756l-6.766,6.767a.712.712,0,0,0,.5,1.214.692.692,0,0,0,.5-.21Z" transform="translate(1356.862 433.953)"/></g></svg>