<svg xmlns="http://www.w3.org/2000/svg" width="25.606" height="25.998" viewBox="0 0 25.606 25.998"><defs><style>.a{fill:none;stroke:#ff6b6b;stroke-linecap:round;stroke-width:2px;}.b{fill:#ff6b6b;}</style></defs><g transform="translate(-1034.001 -624.108)"><path class="a" d="M9697.982,12711.8v-7.363a2.36,2.36,0,0,1,2.57-2.574h18.457a2.372,2.372,0,0,1,2.571,2.574v18.842a2.579,2.579,0,0,1-2.571,2.574h-8.018" transform="translate(10756.582 13350.965) rotate(180)"/><path class="b" d="M219.859,85.4v5.169a.976.976,0,0,0,1.952,0V83.043a.972.972,0,0,0-.976-.976H213.31a.976.976,0,1,0,0,1.952h5.169l-9.311,9.311a.98.98,0,0,0,.687,1.67.952.952,0,0,0,.687-.289Z" transform="translate(1267.668 720.073) rotate(180)"/><rect class="b" width="7" height="7" rx="1" transform="translate(1038 639.102)"/></g></svg>