<svg xmlns="http://www.w3.org/2000/svg" width="24.722" height="20.618" viewBox="0 0 24.722 20.618"><defs><style>.a,.b,.c,.e,.f,.g{fill:none;}.b,.c,.e,.f,.g{stroke:#014b7e;}.b{stroke-linecap:round;}.c,.e,.f,.g{stroke-miterlimit:10;}.c{stroke-width:1.2px;}.d{fill:#014b7e;}.e{stroke-width:0.8px;}.f{stroke-width:0.5px;}.g{stroke-width:0.6px;}</style></defs><g transform="translate(-4.809 -6.619)"><rect class="a" width="20.118" height="20.118" transform="translate(6.337 6.619)"/><path class="b" d="M0,0H11.606" transform="translate(11.289 26.737)"/><rect class="a" width="20.118" height="20.118" transform="translate(6.337 6.619)"/><rect class="a" width="20.118" height="20.118" transform="translate(6.182 6.619)"/><path class="c" d="M24.373,22.159H7.2a3.1,3.1,0,0,1-3.1-3.1V8.7A3.1,3.1,0,0,1,7.2,5.6H24.527a3.1,3.1,0,0,1,3.1,3.1V19.064A3.35,3.35,0,0,1,24.373,22.159Z" transform="translate(1.309 1.947)"/><path class="d" d="M15.135,18.631H10.648A1.365,1.365,0,0,1,9.1,17.315h0A1.365,1.365,0,0,1,10.648,16h4.488a1.365,1.365,0,0,1,1.548,1.315h0A1.365,1.365,0,0,1,15.135,18.631Z" transform="translate(4.046 8.106)"/><path class="e" d="M7.464,7.318,7,15.674A10.34,10.34,0,0,1,13.809,18h.31a8.7,8.7,0,0,1,6.654-2.321c0-.31-.464-8.357-.464-8.357a9.252,9.252,0,0,0-6.345,2.321C13.809,9.794,11.488,6.853,7.464,7.318Z" transform="translate(2.897 2.86)"/><line class="f" y2="8.202" transform="translate(17.015 12.654)"/><path class="g" d="M20.956,8.623a3.72,3.72,0,0,1,1.238-.31s.155,4.333.464,8.357c-3.714-1.393-8.047,1.238-8.357,1.393-3.559-2.476-8.2-1.393-8.2-1.393l.464-8.357A1.964,1.964,0,0,1,7.8,8.468" transform="translate(2.404 3.412)"/><path class="d" d="M6,14.15l7.583.929s.155.464,1.083.464a1.293,1.293,0,0,0,1.083-.464l7.583-.929s-2.631-2.167-8.511,1.083C9.869,11.984,6,14.15,6,14.15Z" transform="translate(2.349 6.241)"/></g></svg>