<svg xmlns="http://www.w3.org/2000/svg" width="33.385" height="33.951" viewBox="0 0 33.385 33.951"><defs><style>.a{fill:#014b7e;}</style></defs><g transform="translate(-1 -38.547)"><g transform="translate(1 33.547)"><path class="a" d="M11.2,20.548A10.2,10.2,0,1,1,1,30.75,10.2,10.2,0,0,1,11.2,20.548ZM30.211,7a4.173,4.173,0,0,1,4.173,4.173v23.75A4.173,4.173,0,0,1,30.211,39.1H19.9a12.089,12.089,0,0,0,2-2.782l8.313,0A1.391,1.391,0,0,0,31.6,34.923V11.173a1.391,1.391,0,0,0-1.391-1.391H10.738a1.391,1.391,0,0,0-1.391,1.391v7.662a11.978,11.978,0,0,0-2.782.782V11.173A4.173,4.173,0,0,1,10.738,7ZM11.2,35.164a1.158,1.158,0,1,0,1.158,1.158A1.158,1.158,0,0,0,11.2,35.164Zm0-10.9a3.43,3.43,0,0,0-3.438,3.625.927.927,0,1,0,1.855-.018A1.582,1.582,0,0,1,11.2,26.119a1.64,1.64,0,0,1,1.583,1.761,1.816,1.816,0,0,1-.59,1.256l-.184.21-.492.538a3.68,3.68,0,0,0-1.245,2.722.927.927,0,0,0,1.855,0,1.852,1.852,0,0,1,.6-1.288l.187-.214.493-.539a3.638,3.638,0,0,0,1.23-2.685A3.49,3.49,0,0,0,11.2,24.264Zm16.227-12.7a1.391,1.391,0,0,1,1.391,1.391V17.59a1.391,1.391,0,0,1-1.391,1.391H13.52a1.391,1.391,0,0,1-1.391-1.391V12.956a1.391,1.391,0,0,1,1.391-1.391Zm-1.391,2.782H14.911V16.2H26.038Z" transform="translate(-1 -2)"/></g></g></svg>