<svg xmlns="http://www.w3.org/2000/svg" width="22.052" height="28.319" viewBox="0 0 22.052 28.319"><defs><style>.a{fill:#c9c4e1;}.b{fill:#004572;}</style></defs><g transform="translate(0 -11.84)"><path class="a" d="M22.538,27.224v5.363a1.407,1.407,0,0,1-1.407,1.407H15.639a.148.148,0,0,1-.146-.167,3.335,3.335,0,0,1,.951-1.942l3.841-3.841a3.333,3.333,0,0,1,2.092-.967A.148.148,0,0,1,22.538,27.224Z" transform="translate(-14.593 -14.353)"/><g transform="translate(0 11.84)"><path class="b" d="M6.946,20.68H1.454A1.021,1.021,0,0,1,.441,19.531a4.228,4.228,0,0,1,1.2-2.451l3.841-3.841a4.209,4.209,0,0,1,2.639-1.22,1.022,1.022,0,0,1,1.1,1.017V18.4A2.283,2.283,0,0,1,6.946,20.68ZM2.427,18.933H6.946A.535.535,0,0,0,7.48,18.4V13.956a2.46,2.46,0,0,0-.761.518L2.877,18.316A2.462,2.462,0,0,0,2.427,18.933Z" transform="translate(-0.408 -12.005)"/><path class="b" d="M18.392,40.159H3.661A3.665,3.665,0,0,1,0,36.5V19.892c0-.1,0-.207.012-.315a4.21,4.21,0,0,1,1.222-2.663l3.841-3.841a4.191,4.191,0,0,1,2.842-1.231h.009l.126,0H18.392A3.665,3.665,0,0,1,22.052,15.5v21A3.665,3.665,0,0,1,18.392,40.159ZM8.052,13.587l-.084,0a2.448,2.448,0,0,0-1.658.72L2.469,18.15a2.461,2.461,0,0,0-.715,1.557c0,.064-.007.127-.007.186V36.5a1.916,1.916,0,0,0,1.914,1.914H18.392A1.916,1.916,0,0,0,20.306,36.5v-21a1.916,1.916,0,0,0-1.914-1.914H8.052Z" transform="translate(0 -11.84)"/><path class="b" d="M76.167,212.539a.873.873,0,0,1-.873-.873V196.594a.873.873,0,0,1,1.747,0v15.071A.873.873,0,0,1,76.167,212.539Z" transform="translate(-70.927 -185.057)"/></g></g></svg>