<svg xmlns="http://www.w3.org/2000/svg" width="31.787" height="30" viewBox="0 0 31.787 30"><defs><style>.a,.e{fill:#004572;}.b{fill:#fff;}.c{fill:#0089e4;}.d,.e{stroke:none;}</style></defs><g transform="translate(-1565.209 -347)"><g transform="translate(1565.209 347)"><path class="a" d="M7.332,21.194H1.514A1.082,1.082,0,0,1,.442,19.977a4.479,4.479,0,0,1,1.272-2.6l4.069-4.069a4.459,4.459,0,0,1,2.8-1.292A1.082,1.082,0,0,1,9.748,13.1v5.682A2.419,2.419,0,0,1,7.332,21.194Zm-4.787-1.85H7.332a.566.566,0,0,0,.566-.566V14.071a2.606,2.606,0,0,0-.806.549l-4.07,4.07A2.608,2.608,0,0,0,2.545,19.344Z" transform="translate(-0.407 -12.005)"/><path class="a" d="M19.483,41.84H3.878A3.883,3.883,0,0,1,0,37.962V20.37c0-.107,0-.219.013-.333a4.46,4.46,0,0,1,1.295-2.821l4.069-4.069a4.439,4.439,0,0,1,3.011-1.3H8.4l.133,0H19.483a3.883,3.883,0,0,1,3.878,3.878V37.962A3.882,3.882,0,0,1,19.483,41.84ZM8.53,13.69l-.089,0a2.593,2.593,0,0,0-1.757.763l-4.07,4.07a2.607,2.607,0,0,0-.757,1.649c0,.068-.007.135-.007.2V37.962A2.03,2.03,0,0,0,3.878,39.99H19.483a2.03,2.03,0,0,0,2.028-2.028V15.718a2.03,2.03,0,0,0-2.028-2.028H8.53Z" transform="translate(0 -11.84)"/><path class="a" d="M76.219,213.537a.925.925,0,0,1-.925-.925V196.646a.925.925,0,0,1,1.85,0v15.966A.925.925,0,0,1,76.219,213.537Z" transform="translate(-70.668 -184.424)"/></g><g transform="translate(1575.809 355.775)"><g class="b" transform="translate(1.785 0.717)"><path class="d" d="M 8.808448791503906 19.47029685974121 C 3.518518686294556 19.47029685974121 -0.7851511836051941 15.16661739349365 -0.7851511836051941 9.876687049865723 C -0.7851511836051941 4.586757183074951 3.518518686294556 0.2830770611763 8.808448791503906 0.2830770611763 C 14.09837913513184 0.2830770611763 18.40205955505371 4.586757183074951 18.40205955505371 9.876687049865723 C 18.40205955505371 15.16661739349365 14.09837913513184 19.47029685974121 8.808448791503906 19.47029685974121 Z"/><path class="e" d="M 8.808448791503906 1.283077239990234 C 4.069918632507324 1.283077239990234 0.2148380279541016 5.138156890869141 0.2148380279541016 9.876687049865723 C 0.2148380279541016 14.6152172088623 4.069918632507324 18.47029685974121 8.808448791503906 18.47029685974121 C 13.54697895050049 18.47029685974121 17.40204811096191 14.6152172088623 17.40204811096191 9.876687049865723 C 17.40204811096191 5.138156890869141 13.54697895050049 1.283077239990234 8.808448791503906 1.283077239990234 M 8.808448791503906 -0.7169227600097656 C 14.65913867950439 -0.7169227600097656 19.40204811096191 4.025997161865234 19.40204811096191 9.876687049865723 C 19.40204811096191 15.72737693786621 14.65913867950439 20.47029685974121 8.808448791503906 20.47029685974121 C 2.957758903503418 20.47029685974121 -1.785161972045898 15.72737693786621 -1.785161972045898 9.876687049865723 C -1.785161972045898 4.025997161865234 2.957758903503418 -0.7169227600097656 8.808448791503906 -0.7169227600097656 Z"/></g><path class="c" d="M.232,6.986,2.584,8.979l-.731,3a.647.647,0,0,0,.975.7l2.624-1.621,2.624,1.62a.653.653,0,0,0,.975-.7l-.731-3L10.67,6.985A.651.651,0,0,0,10.3,5.838l-3.083-.23L6.053,2.756a.655.655,0,0,0-1.2,0L3.688,5.609.6,5.838A.652.652,0,0,0,.232,6.986Z" transform="translate(5.069 3.186)"/></g></g></svg>