<svg xmlns="http://www.w3.org/2000/svg" width="28" height="28.667" viewBox="0 0 28 28.667"><defs><style>.a{fill:#004572;}.b{fill:#fff;stroke:#004572;stroke-width:2px;}.c{fill:#0089e4;}.d{stroke:none;}.e{fill:none;}</style></defs><g transform="translate(-1307 -346)"><path class="a" d="M26.6,20.492,22.032,18.21a1.257,1.257,0,0,1-.7-1.13V15.465c.109-.134.225-.286.344-.454a10.935,10.935,0,0,0,1.411-2.771A1.9,1.9,0,0,0,24.2,10.511V8.6a1.905,1.905,0,0,0-.478-1.254V4.8a4.283,4.283,0,0,0-1-3.118C21.742.568,20.149,0,17.989,0s-3.753.568-4.734,1.687a4.284,4.284,0,0,0-1,3.118V7.346A1.905,1.905,0,0,0,11.778,8.6v1.911A1.9,1.9,0,0,0,12.493,12a10.028,10.028,0,0,0,1.674,3.458v1.581a1.263,1.263,0,0,1-.658,1.108L9.247,20.469A4.309,4.309,0,0,0,7,24.254V25.8c0,2.268,7.188,2.867,10.989,2.867s10.989-.6,10.989-2.867V24.347A4.287,4.287,0,0,0,26.6,20.492Z" transform="translate(1300 346)"/><g class="b" transform="translate(1320 359)"><circle class="d" cx="7.5" cy="7.5" r="7.5"/><circle class="e" cx="7.5" cy="7.5" r="6.5"/></g><path class="c" d="M8.04,54.272H1.732l1.682-1.682a.279.279,0,0,0,0-.4l-.527-.527a.279.279,0,0,0-.4,0L-.567,54.727a.279.279,0,0,0-.082.2.279.279,0,0,0,.082.2l3.059,3.059a.28.28,0,0,0,.4,0l.527-.527a.279.279,0,0,0,0-.4L1.732,55.577H8.04a.28.28,0,0,0,.28-.28v-.745A.28.28,0,0,0,8.04,54.272Z" transform="translate(1323.682 311.721)"/></g></svg>