<svg xmlns="http://www.w3.org/2000/svg" width="34" height="34" viewBox="0 0 34 34"><defs><style>.a{fill:#079dfe;stroke:#2797d6;}.b{fill:#fff;}.c{stroke:none;}.d{fill:none;}</style></defs><g transform="translate(-285 -476)"><g class="a" transform="translate(285 476)"><rect class="c" width="34" height="34" rx="5"/><rect class="d" x="0.5" y="0.5" width="33" height="33" rx="4.5"/></g><g transform="translate(236 481)"><path class="b" d="M277.76,350.161h-4.067a.693.693,0,1,0,0,1.386h4.067a.693.693,0,1,0,0-1.386Z" transform="translate(-206.018 -333.98)"/><path class="b" d="M277.76,232.95h-4.067a.693.693,0,1,0,0,1.386h4.067a.693.693,0,1,0,0-1.386Z" transform="translate(-206.018 -222.185)"/><path class="b" d="M124.723,209.161a.693.693,0,0,0-.976.088l-1.17,1.4-.266-.53a.693.693,0,1,0-1.239.621l.739,1.476a.693.693,0,0,0,1.152.134l1.848-2.214A.693.693,0,0,0,124.723,209.161Z" transform="translate(-61.04 -199.341)"/><path class="b" d="M123.943,321.028a.693.693,0,0,0-.967.161l-.36.5-.36-.5a.693.693,0,1,0-1.128.806l.636.891-.636.891a.693.693,0,1,0,1.128.806l.36-.5.36.5a.693.693,0,0,0,1.128-.806l-.636-.891.636-.891A.693.693,0,0,0,123.943,321.028Z" transform="translate(-61.041 -306.07)"/><path class="b" d="M72.8,2.377v-.3A2.082,2.082,0,0,0,70.725,0H61.667a2.082,2.082,0,0,0-2.08,2.08v.3A3.475,3.475,0,0,0,57,5.73V20.194a3.47,3.47,0,0,0,3.466,3.466h11.46a3.47,3.47,0,0,0,3.466-3.466V5.73A3.475,3.475,0,0,0,72.8,2.377Zm-11.83-.3a.694.694,0,0,1,.693-.693h9.057a.694.694,0,0,1,.693.693v1.71a.694.694,0,0,1-.693.693H61.667a.694.694,0,0,1-.693-.693ZM74.006,20.194a2.082,2.082,0,0,1-2.08,2.08H60.466a2.082,2.082,0,0,1-2.08-2.08V5.73a2.085,2.085,0,0,1,1.2-1.885,2.081,2.081,0,0,0,2.078,2.024h9.057A2.081,2.081,0,0,0,72.8,3.845a2.085,2.085,0,0,1,1.2,1.885Z" transform="translate(0)"/></g></g></svg>