<svg xmlns="http://www.w3.org/2000/svg" width="34" height="34" viewBox="0 0 34 34"><defs><style>.a{fill:#079dfe;stroke:#2797d6;}.b,.c,.e{fill:none;}.b{stroke:#fff;stroke-width:1.5px;}.d,.f{stroke:none;}.f{fill:#fff;}</style></defs><g transform="translate(-283 -476)"><g class="a" transform="translate(283 476)"><rect class="d" width="34" height="34" rx="5"/><rect class="e" x="0.5" y="0.5" width="33" height="33" rx="4.5"/></g><g transform="translate(-1693 6733)"><g class="b" transform="translate(1988 -6249)"><circle class="d" cx="5" cy="5" r="5"/><circle class="e" cx="5" cy="5" r="4.25"/></g><g class="c" transform="translate(1986 -6236.777)"><path class="d" d="M14.667,7.334H0a7.334,7.334,0,0,1,14.667,0Z"/><path class="f" d="M 12.97155380249023 5.834063053131104 C 12.30792427062988 3.341697692871094 10.03178310394287 1.500002980232239 7.334066390991211 1.500002980232239 C 4.635498046875 1.500002980232239 2.359014987945557 3.341579675674438 1.695438504219055 5.834063053131104 L 12.97155380249023 5.834063053131104 M 14.66703701019287 7.334063053131104 L 14.66580677032471 7.334063053131104 L -3.402252104933723e-06 7.334063053131104 C -3.402252104933723e-06 3.289492845535278 3.290596485137939 2.957076958409743e-06 7.334066390991211 2.957076958409743e-06 C 11.37666702270508 2.957076958409743e-06 14.66622638702393 3.289492845535278 14.66703701019287 7.332842826843262 L 14.66703701019287 7.334063053131104 Z"/></g></g></g></svg>