<svg xmlns="http://www.w3.org/2000/svg" width="31.546" height="29" viewBox="0 0 31.546 29"><defs><style>.a{fill:#b7e3f6;}.b{fill:#004572;}.c{fill:#fff;stroke:#004572;stroke-width:2px;}.d,.f{fill:none;}.d{stroke:#0089e4;stroke-linecap:round;stroke-linejoin:round;stroke-width:1.5px;}.e{stroke:none;}</style></defs><g transform="translate(-1485.484 -351.705)"><g transform="translate(1485.484 351.705)"><path class="a" d="M19,1H7.522A2.522,2.522,0,0,0,5,3.522V27.478A2.522,2.522,0,0,0,7.522,30H26.435a2.522,2.522,0,0,0,2.522-2.522V9.826Z" transform="translate(-5 -1)"/><path class="b" d="M37.087,9.826H28.261A1.261,1.261,0,0,1,27,8.565V1Z" transform="translate(-13.13 -1)"/><path class="b" d="M25.609,28.522H14.261a1.261,1.261,0,1,1,0-2.522H25.609a1.261,1.261,0,1,1,0,2.522Z" transform="translate(-7.957 -10.239)"/><path class="b" d="M25.609,38.522H14.261a1.261,1.261,0,0,1,0-2.522H25.609a1.261,1.261,0,0,1,0,2.522Z" transform="translate(-7.957 -13.935)"/></g><g class="c" transform="translate(1500.03 363.705)"><circle class="e" cx="8.5" cy="8.5" r="8.5"/><circle class="f" cx="8.5" cy="8.5" r="7.5"/></g><path class="d" d="M20210.137-564.512l2.883,2.882,5.2-5.269" transform="translate(-18705.561 937.401)"/></g></svg>