<svg xmlns="http://www.w3.org/2000/svg" width="80.206" height="82.499" viewBox="0 0 80.206 82.499"><defs><style>.a{fill:#acb3ba;}.b{fill:#ffdefc;}.c{fill:#ced5e0;}.d{fill:#54c0eb;}.e{fill:#f7b239;}.f{fill:#e6e6e6;}.g{fill:#e09b2d;}.h{fill:none;stroke:#333;stroke-linejoin:round;stroke-miterlimit:10;stroke-width:15px;}.i{fill:#666;}.j{fill:#e54728;}.k{fill:#f95428;}</style></defs><g transform="translate(-752.76 -967.353)"><g transform="translate(778.907 967.353)"><path class="a" d="M134.861,103.1v9.961H124.9V156.3h45.058V103.1Z" transform="translate(-121.182 -98.991)"/><path class="b" d="M113.961,133.2v-9.961H104V80h45.058v53.2Z" transform="translate(-104 -80)"/><g transform="translate(0 21.026)"><path class="c" d="M113.961,333.061,104,323.1h9.961Z" transform="translate(-104 -300.882)"/><rect class="c" width="31.805" height="1.903" transform="translate(6.617 0)"/><rect class="c" width="31.805" height="1.903" transform="translate(6.617 5.034)"/><rect class="c" width="31.805" height="1.903" transform="translate(6.617 10.086)"/><rect class="c" width="18.962" height="1.903" transform="translate(6.617 15.138)"/></g><g transform="translate(6.368 7.133)"><path class="d" d="M144.265,122.732a1.651,1.651,0,0,1-1.05,1.725l1.405,1.975h-1.512l-1.227-1.761h-.854v1.761H139.8V120.9h2.1a3.016,3.016,0,0,1,1.832.427A1.769,1.769,0,0,1,144.265,122.732Zm-1.494.658a.825.825,0,0,0,.231-.658.666.666,0,0,0-.231-.6,1.561,1.561,0,0,0-.836-.16h-.925V123.6h.907A1.508,1.508,0,0,0,142.771,123.39Z" transform="translate(-139.8 -120.758)"/><path class="d" d="M175.985,120.818v1.1h-2.757v1.138H175.7v1.05h-2.473v1.138h2.846v1.085H172V120.8h3.985Z" transform="translate(-166.272 -120.675)"/><path class="d" d="M204.907,121.3a1.881,1.881,0,0,1,.587,1.512,1.775,1.775,0,0,1-.6,1.494,2.893,2.893,0,0,1-1.832.48h-.729v1.548H201.1V120.8h1.957A3.024,3.024,0,0,1,204.907,121.3ZM204,123.486a1.082,1.082,0,0,0,.213-.729.741.741,0,0,0-.285-.676,1.536,1.536,0,0,0-.889-.2h-.712v1.868h.836A1.189,1.189,0,0,0,204,123.486Z" transform="translate(-190.196 -120.675)"/><path class="d" d="M234.363,125.01a2.921,2.921,0,1,1,.836-2.046A2.71,2.71,0,0,1,234.363,125.01Zm-.409-2.046a1.8,1.8,0,0,0-.48-1.263,1.5,1.5,0,0,0-1.174-.516,1.564,1.564,0,0,0-1.174.516,1.9,1.9,0,0,0,0,2.526,1.594,1.594,0,0,0,2.348,0A1.775,1.775,0,0,0,233.954,122.964Z" transform="translate(-213.462 -120.1)"/><path class="d" d="M272.465,122.732a1.651,1.651,0,0,1-1.049,1.725l1.405,1.975h-1.512l-1.227-1.761h-.854v1.761H268V120.9h2.1a3.015,3.015,0,0,1,1.832.427A1.712,1.712,0,0,1,272.465,122.732Zm-1.476.658a.825.825,0,0,0,.231-.658.666.666,0,0,0-.231-.6,1.561,1.561,0,0,0-.836-.16h-.925V123.6h.907A1.555,1.555,0,0,0,270.988,123.39Z" transform="translate(-245.195 -120.758)"/><path class="d" d="M299.893,121.967v4.465h-1.227v-4.465H297.1V120.9h4.358v1.067Z" transform="translate(-269.119 -120.758)"/></g></g><g transform="translate(752.76 986.293)"><path class="e" d="M61.591,140.261,40.1,137.784l-1.763.717-16.549-.717H18.613L10.9,140.261H0v6.962H5.146v40.859h4.54V175.068H70.521v13.015h4.54V147.224h5.146v-6.962Z" transform="translate(0 -124.524)"/><path class="f" d="M162.048,109.165a5.281,5.281,0,0,0-4.978,3.517,5.432,5.432,0,0,0-5.084-3.517H139.109v6.96h39.145v-6.96Z" transform="translate(-117.317 -100.388)"/><g transform="translate(0 15.738)"><path class="g" d="M2.493,153.6H4.987v6.962H0V153.6H2.493Z" transform="translate(0 -153.597)"/><rect class="g" width="69.914" height="4.424" transform="translate(5.146 6.962)"/></g><line class="h" x2="0.002" transform="translate(40.101 15.738)"/><g transform="translate(9.685 24.403)"><rect class="g" width="2.534" height="26.141" transform="translate(58.303)"/><rect class="g" width="2.534" height="26.141"/></g><path class="i" d="M126.67,141.96h41.336a.912.912,0,0,1,.912.912h0a.912.912,0,0,1-.912.912H126.67a.912.912,0,0,1-.912-.912h0A.911.911,0,0,1,126.67,141.96Z" transform="translate(-106.058 -128.045)"/><path class="j" d="M35.686,80.332H33.613a5.155,5.155,0,0,1-5.148-5.15v-.21a5.155,5.155,0,0,1,5.148-5.15h2.074v2.943H33.613a2.208,2.208,0,0,0-2.205,2.207v.21a2.209,2.209,0,0,0,2.205,2.207h2.074Z" transform="translate(-24.006 -67.209)"/><path class="k" d="M80.45,61.913v6.96h-10.9v-14.7a1.036,1.036,0,0,1,1.036-1.036h8.824a1.036,1.036,0,0,1,1.036,1.036Z" transform="translate(-58.658 -53.136)"/><path class="j" d="M73.387,61.913v6.96H69.554v-14.7a1.036,1.036,0,0,1,1.036-1.036h2.8Z" transform="translate(-58.658 -53.136)"/></g></g></svg>