<svg xmlns="http://www.w3.org/2000/svg" width="292.624" height="162.407" viewBox="0 0 292.624 162.407"><defs><style>.a{fill:#fff;}.b{fill:#87a5bb;}.c,.d,.e{fill:#f1b4b4;}.c,.d{stroke:#fff;}.c{stroke-width:4px;}.d{stroke-width:5px;}</style></defs><g transform="translate(-819 -595.266)"><g transform="translate(400 -44.036)"><path class="a" d="M-574.413,3307.72l-3.365,3.635-1.526,5.025h-3.231l-4.711,3.5-1.032,4.576,1.705,4.936,4.038,2.782h25.486l5.16-4.173,1.077-4.846-2.288-4.262-3.32-2.513h-3.724l-.942-4.083-2.872-3.32-3.1-1.7-3.679-.9Z" transform="translate(1230.516 -2665.262)"/><g transform="translate(641 640.893)"><g transform="translate(0 0)"><path class="b" d="M30.533,78.444q-.16,0-.321.006a10.483,10.483,0,0,0-20.861,0q-.161-.006-.321-.006a9.029,9.029,0,0,0,0,18.059h21.5a9.029,9.029,0,0,0,0-18.059Zm0,15.96H9.029a6.93,6.93,0,1,1,0-13.861,7.025,7.025,0,0,1,1.149.1A1.05,1.05,0,0,0,11.4,79.59v-.041c0-.018,0-.037,0-.055a8.383,8.383,0,0,1,16.766,0c0,.018,0,.037,0,.055v.041a1.05,1.05,0,0,0,1.222,1.049,7.01,7.01,0,0,1,1.148-.1,6.93,6.93,0,1,1,0,13.861Z" transform="translate(0 -69.012)"/><path class="b" d="M151.493,109.012a6.619,6.619,0,0,0-6.611,6.611,1.049,1.049,0,1,0,2.1,0,4.517,4.517,0,0,1,4.512-4.512,1.049,1.049,0,0,0,0-2.1Z" transform="translate(-132.211 -105.514)"/></g></g></g><g transform="translate(869 559.346)"><path class="c" d="M172.356,44.654H8.841A8.851,8.851,0,0,0,0,53.495V153.672a8.851,8.851,0,0,0,8.841,8.841H70.624L68.05,182.089H57.039a4,4,0,1,0,0,8.007h67.119a4,4,0,0,0,0-8.007H113.146l-2.573-19.576h61.783a8.851,8.851,0,0,0,8.841-8.841V53.495a8.85,8.85,0,0,0-8.841-8.841ZM8.841,52.661H172.356a.835.835,0,0,1,.834.834v84.618H8.007V53.495A.834.834,0,0,1,8.841,52.661ZM105.07,182.089H76.126L78.7,162.513h23.8l2.573,19.576Zm67.286-27.583H8.841a.834.834,0,0,1-.834-.834v-7.553H173.189v7.553A.835.835,0,0,1,172.356,154.506Z"/><path class="d" d="M80.3,209.871H96.315a4,4,0,0,0,4-4V181.046a4,4,0,0,0-4-4H80.3a4,4,0,0,0-4,4v24.822A4,4,0,0,0,80.3,209.871Zm4-24.822h8.007v16.815H84.3Z" transform="translate(-58.563 -78.986)"/><path class="d" d="M160.3,175.813h16.014a4,4,0,0,0,4-4V124.249a4,4,0,0,0-4-4H160.3a4,4,0,0,0-4,4v47.561A4,4,0,0,0,160.3,175.813Zm4-47.561h8.007v39.553H164.3Z" transform="translate(-106.535 -44.928)"/><path class="d" d="M160.3,175.813h16.014a4,4,0,0,0,4-4V124.249a4,4,0,0,0-4-4H160.3a4,4,0,0,0-4,4v47.561A4,4,0,0,0,160.3,175.813Zm4-47.561h8.007v39.553H164.3Z" transform="translate(-74.506 -44.928)"/><g transform="translate(116.102 76.647)"><g transform="translate(0)"><path class="e" d="M82.764,0H55.024a4.328,4.328,0,0,0-3.632,1.98h2.557a2.583,2.583,0,0,1,1.075-.246h27.74a2.6,2.6,0,0,1,2.6,2.6V40.353a2.573,2.573,0,0,1-2.279,2.536,4.237,4.237,0,0,1-.648,1.8h.328A4.337,4.337,0,0,0,87.1,40.353V4.331A4.339,4.339,0,0,0,82.764,0Z" transform="translate(-38.81)"/><path class="e" d="M62.054,13.8H34.315a4.333,4.333,0,0,0-3.633,1.981H33.24a2.584,2.584,0,0,1,1.075-.247H62.054a2.6,2.6,0,0,1,2.6,2.6v36.02a2.571,2.571,0,0,1-2.279,2.533,4.294,4.294,0,0,1-.648,1.8h.327a4.34,4.34,0,0,0,4.338-4.335V18.138A4.344,4.344,0,0,0,62.054,13.8Z" transform="translate(-24.04 -9.845)"/><path class="e" d="M39.6,27.611H11.861a4.337,4.337,0,0,0-4.335,4.333v36.02A4.338,4.338,0,0,0,11.861,72.3H39.6a4.339,4.339,0,0,0,4.339-4.333V31.944A4.341,4.341,0,0,0,39.6,27.611Zm2.6,40.353a2.6,2.6,0,0,1-2.6,2.6H11.861a2.6,2.6,0,0,1-2.6-2.6V31.944a2.6,2.6,0,0,1,2.6-2.6H39.6a2.6,2.6,0,0,1,2.6,2.6Z" transform="translate(-7.526 -19.691)"/><path class="e" d="M46.932,77.549a7.9,7.9,0,0,0,3.283-6.208,5.934,5.934,0,1,0-11.867,0,7.914,7.914,0,0,0,3.278,6.208c-4.642,1.179-8.089,5.219-8.089,8.211,0,3.535,21.493,3.535,21.493,0C55.027,82.767,51.583,78.727,46.932,77.549Zm-2.65,10.859L41.268,85.4,43.8,79.273h-.027l-.983-1.132a4.386,4.386,0,0,0,1.488.276,4.446,4.446,0,0,0,1.486-.27l-.985,1.125h-.022L47.294,85.4Z" transform="translate(-26.076 -46.643)"/></g></g></g><g transform="matrix(0.978, -0.208, 0.208, 0.978, 949.162, 623.747)"><path class="b" d="M131.832,106.878a17.41,17.41,0,0,0-4.617-3.314C117.3,98.675,110.083,93.8,104.5,88.214L90.541,74.256a48.786,48.786,0,1,0-16.2,16.193l10.184,10.185c8.217,8.217,14.276,18.02,19.6,27.391a16.674,16.674,0,0,0,5.263,5.754,17.466,17.466,0,0,0,19.521.336,17.6,17.6,0,0,0,2.92-27.237ZM5.833,48.8A43.067,43.067,0,1,1,48.9,91.867,43.067,43.067,0,0,1,5.833,48.8ZM131.089,120.52a11.755,11.755,0,0,1-5.374,8.721c-5.159,3.406-10.88,1.3-12.977-.239a12.413,12.413,0,0,1-3.539-3.858c-5.527-9.726-11.842-19.925-20.548-28.632l-9.385-9.385a47.608,47.608,0,0,0,4.217-3.733,48.124,48.124,0,0,0,3.733-4.217l13.161,13.16c6.049,6.048,13.758,11.278,24.257,16.454A11.6,11.6,0,0,1,127.709,111,11.716,11.716,0,0,1,131.089,120.52Z" transform="translate(0)"/></g><g transform="translate(178 29)"><path class="a" d="M-557.788,3309.334l-7.4,7.992-3.355,11.051h-7.1l-10.36,7.7-2.269,10.064,3.75,10.854,8.88,6.118H-519.6l11.347-9.177,2.368-10.656-5.032-9.374-7.3-5.525h-8.19l-2.072-8.979-6.315-7.3-6.808-3.75-8.091-1.973Z" transform="translate(1232 -2665)"/><g transform="translate(641 571.881)"><g transform="translate(0 69.012)"><path class="b" d="M67.144,89.755q-.353,0-.706.012a23.052,23.052,0,0,0-45.875,0q-.354-.013-.707-.013a19.856,19.856,0,0,0,0,39.713H67.144a19.856,19.856,0,0,0,0-39.712Zm0,35.1H19.856a15.241,15.241,0,1,1,0-30.481,15.449,15.449,0,0,1,2.526.209,2.308,2.308,0,0,0,2.686-2.307l0-.089c0-.04,0-.081,0-.121a18.435,18.435,0,0,1,36.87,0c0,.04,0,.08,0,.12v.09a2.308,2.308,0,0,0,2.687,2.306,15.415,15.415,0,0,1,2.525-.209,15.241,15.241,0,1,1,0,30.481Z" transform="translate(0 -69.012)"/><path class="b" d="M159.421,109.012a14.555,14.555,0,0,0-14.539,14.539,2.308,2.308,0,1,0,4.616,0,9.934,9.934,0,0,1,9.923-9.923,2.308,2.308,0,0,0,0-4.616Z" transform="translate(-117.018 -101.319)"/></g></g></g></g></svg>