<svg xmlns="http://www.w3.org/2000/svg" width="23.611" height="23.611" viewBox="0 0 23.611 23.611"><defs><style>.a{fill:#042955;}</style></defs><g transform="translate(0 15.179)"><path class="a" d="M19.035,308.44l-3.59-1.2a.845.845,0,0,0-.266-.044H8.433a.845.845,0,0,0-.266.044l-3.59,1.2A6.684,6.684,0,0,0,0,314.788a.843.843,0,0,0,.843.843H22.768a.843.843,0,0,0,.843-.843A6.684,6.684,0,0,0,19.035,308.44Z" transform="translate(0 -307.199)"/></g><g transform="translate(6.746)"><path class="a" d="M141.593,0a5.06,5.06,0,0,0-5.06,5.06V8.433a5.06,5.06,0,1,0,10.119,0V5.06A5.06,5.06,0,0,0,141.593,0Z" transform="translate(-136.533)"/></g></svg>