<svg xmlns="http://www.w3.org/2000/svg" width="32.311" height="32.425" viewBox="0 0 32.311 32.425"><defs><style>.a{fill:#fcd09f;}.b{fill:#0087a7;}.c{fill:#ef806f;}.d{fill:#efc59c;}</style></defs><g transform="translate(0 -11.122)"><g transform="translate(0 11.122)"><g transform="translate(7.556 1.782)"><g transform="translate(5.63)"><path class="a" d="M168.767,33.005a6.881,6.881,0,0,1,6.882,6.881c0,3.8-3.081,9-6.882,9s-6.882-5.2-6.882-9A6.881,6.881,0,0,1,168.767,33.005Z" transform="translate(-161.885 -33.005)"/></g><path class="b" d="M17.687,19.48s7.171,1.745,6.979,13.184C21.693,34.6,8.381,37.9-.086,30.4c1.164-3.3,1.1-7.238,7.368-10.922C7.669,19.8,12.776,24.65,17.687,19.48Z" transform="translate(0.086 -4.439)"/></g><g transform="translate(0 0)"><path class="c" d="M14.267,180.3q.316.451.655.847l-.687.327a13.582,13.582,0,0,0-7.654,10.647A16.1,16.1,0,0,1,0,188.5V188.5A10.842,10.842,0,0,1,6.187,178.7a6.6,6.6,0,0,0,4.654,2.11A6.032,6.032,0,0,0,14,179.891C14.083,180.028,14.174,180.163,14.267,180.3Z" transform="translate(0 -165.053)"/><path class="d" d="M66.681,19.785a11.221,11.221,0,0,0,1.033,4.478,4.17,4.17,0,0,1-2.237.7c-3.312,0-6-4.529-6-7.842a6,6,0,0,1,10.577-3.869A8.019,8.019,0,0,0,66.681,19.785Z" transform="translate(-54.635 -11.122)"/></g></g></g></svg>