<svg xmlns="http://www.w3.org/2000/svg" xmlns:xlink="http://www.w3.org/1999/xlink" width="25.923" height="24.77" viewBox="0 0 25.923 24.77"><defs><style>.a{fill:url(#a);}</style><linearGradient id="a" x1="0.5" x2="0.5" y2="1" gradientUnits="objectBoundingBox"><stop offset="0" stop-color="#ffae67"/><stop offset="1" stop-color="#d8cc29"/></linearGradient></defs><path class="a" d="M25.867,16.711a1.178,1.178,0,0,0-.951-.8l-7.529-1.094L14.02,7.993a1.178,1.178,0,0,0-2.114,0L8.539,14.815,1.011,15.909a1.179,1.179,0,0,0-.653,2.01l5.448,5.31-1.287,7.5a1.179,1.179,0,0,0,1.71,1.242l6.734-3.54,6.734,3.54a1.193,1.193,0,0,0,.552.135A1.18,1.18,0,0,0,21.4,30.664L20.12,23.229l5.448-5.31A1.178,1.178,0,0,0,25.867,16.711Z" transform="translate(-0.002 -7.336)"/></svg>