<svg xmlns="http://www.w3.org/2000/svg" width="294.092" height="211.223" viewBox="0 0 294.092 211.223">
  <g id="Group_219" data-name="Group 219" transform="translate(7522.092 -7241)">
    <path id="Path_263" data-name="Path 263" d="M1294.96-749.86c-.181,11.406,0,59.165,0,59.165h294v-62.416s.582-8.3-8.774-8.3h-167.7l-20.865,2.817s-2.324-2.993-10.432-2.81h-76.141S1295.14-761.267,1294.96-749.86Z" transform="translate(-8816.971 8015)" fill="#ff9363"/>
    <g id="Path_265" data-name="Path 265" transform="translate(-7507 7241)" fill="#969696">
      <path d="M 262 102.5 L 5 102.5 C 2.518678665161133 102.5 0.5 100.4813232421875 0.5 98 L 0.5 5 C 0.5 2.518678665161133 2.518678665161133 0.5 5 0.5 L 228.4476928710938 0.5284039974212646 C 232.8686218261719 4.547826290130615 236.4714660644531 7.760619640350342 240.63671875 11.474928855896 C 247.468017578125 17.56667709350586 255.9654693603516 25.14420700073242 272.5 40.22073364257813 L 272.5 98 C 272.5 98.94532012939453 270.9521484375 100.0920715332031 268.3594665527344 101.0675735473633 C 265.8866577148438 101.9979629516602 263.2373352050781 102.5 262 102.5 Z" stroke="none"/>
      <path d="M 4.999847412109375 1 L 5 1 C 2.794403076171875 1 1 2.794395446777344 1 5 L 1 98 C 1 100.2056045532227 2.794403076171875 102 5 102 L 262 102 C 263.2098999023438 102 265.8535766601563 101.4761810302734 268.183349609375 100.599609375 C 270.8056335449219 99.61296081542969 272 98.5604248046875 272 98 L 272 40.44147872924805 C 255.5726318359375 25.46379089355469 247.111572265625 17.91873168945313 240.3033142089844 11.8475341796875 C 236.1825561523438 8.172927856445313 232.6114196777344 4.988395690917969 228.2543640136719 1.02838134765625 L 4.999847412109375 1 M 5 0 L 228.6410369873047 0.0284271240234375 C 240.3687896728516 10.69464111328125 246.0502166748047 15.42478942871094 273 40 L 273 98 C 273 100.7614288330078 264.7613830566406 103 262 103 L 5 103 C 2.23858642578125 103 0 100.7614288330078 0 98 L 0 5 C 0 2.238571166992188 2.23858642578125 0 5 0 Z" stroke="none" fill="#707070"/>
    </g>
    <path id="Path_267" data-name="Path 267" d="M790.158-895.594s-29.172.149-40.623.019c-2.964.051-3.3-3.207-3.3-3.207L745.6-936Z" transform="translate(-8024 8177)" fill="#6b6b6b"/>
    <path id="Path_262" data-name="Path 262" d="M1295.061-704.772v-31.551s-.343-10.974,11.66-10.631,157.719,0,157.719,0,35.9.193,46.674.193H1578.3s10.665-.795,10.665,11.317v130.057s1.392,14.814-12.689,14.814H1306.721s-11.317.309-11.66-12.037S1295.061-704.772,1295.061-704.772Z" transform="translate(-8817 8042.794)" fill="#ffde91"/>
  </g>
</svg>
