<?xml version="1.0" standalone="no"?>
<svg xmlns:xlink="http://www.w3.org/1999/xlink" xmlns="http://www.w3.org/2000/svg" class="vtree" width="960" height="800"><style>
.vtree-node text { font: 14px sans-serif; }
.vtree-link { fill: none; stroke: #888; stroke-width: 2px; }
.vtree-table { stroke-width: 2px; stroke: steelblue; }
path.vtree-table { fill: white; }
g.vtree-node rect { fill: white; stroke: black; stroke-width: 1px; }
g.vtree-node rect.number-text { fill: #d8f0ed; }
g.vtree-node rect.string-text { fill: #e7f0db; }
g.vtree-node rect.boolean-text { fill: #e1d8f0; }
g.vtree-node rect.null-text { fill: #888; }
</style><g class="vtree-root" transform="translate(-257.8530757572328,436.0357088369859)scale(0.6933970038083634)"><g class="vtree-node" transform="translate(480,20)"><g class="vtree-node" transform="translate(-170,0)"><path class="vtree-link" d="M170,99C170,232.5 584,232.5 584,366"/><path class="vtree-link" d="M170,99C170,488.5 92,488.5 92,878"/><path class="vtree-link" d="M170,99C170,288.5 -321,288.5 -321,478"/><g class="vtree-node" transform="translate(-500,247)"><path class="vtree-link" d="M179,231C179,373 179,373 179,515"/><g class="vtree-node" transform="translate(179,491)"><g class="vtree-node" transform="translate(-32,0)"><g transform="translate(28,20)"><rect class="null-text" x="0" y="0" width="8" height="8"/><text x="4" y="4"/></g><g><text x="32" y="16" text-anchor="middle">media[]</text></g></g></g><g transform="translate(0,21)"><g transform="translate(0,0)"><rect class="string-text" x="0" y="0" width="136" height="24"/><text x="4" y="20">id</text></g><g transform="translate(136,0)"><rect class="number-text" x="0" y="0" width="221" height="24"/><text x="4" y="20">555186</text></g><g transform="translate(0,24)"><rect class="string-text" x="0" y="0" width="136" height="25"/><text x="4" y="21">recap</text></g><g transform="translate(136,24)"><rect class="string-text" x="0" y="0" width="221" height="25"/><text x="4" y="20">test</text></g><g transform="translate(0,49)"><rect class="string-text" x="0" y="0" width="136" height="24"/><text x="4" y="20">classswork</text></g><g transform="translate(136,49)"><rect class="string-text" x="0" y="0" width="221" height="24"/><text x="4" y="20">test</text></g><g transform="translate(0,73)"><rect class="string-text" x="0" y="0" width="136" height="25"/><text x="4" y="21">summary</text></g><g transform="translate(136,73)"><rect class="string-text" x="0" y="0" width="221" height="25"/><text x="4" y="20">test</text></g><g transform="translate(0,98)"><rect class="string-text" x="0" y="0" width="136" height="25"/><text x="4" y="21">support_materials</text></g><g transform="translate(136,98)"><rect class="string-text" x="0" y="0" width="221" height="25"/><text x="4" y="20">test</text></g><g transform="translate(0,123)"><rect class="string-text" x="0" y="0" width="136" height="24"/><text x="4" y="20">homework</text></g><g transform="translate(136,123)"><rect class="string-text" x="0" y="0" width="221" height="24"/><text x="4" y="20">test</text></g><g transform="translate(0,147)"><rect class="string-text" x="0" y="0" width="136" height="25"/><text x="4" y="21">which_day</text></g><g transform="translate(136,147)"><rect class="string-text" x="0" y="0" width="221" height="25"/><text x="4" y="20">2020-03-29T17:33:19.521238</text></g><g transform="translate(0,172)"><rect class="string-text" x="0" y="0" width="136" height="24"/><text x="4" y="20">createdAt</text></g><g transform="translate(136,172)"><rect class="string-text" x="0" y="0" width="221" height="24"/><text x="4" y="20">2020-03-29T17:33:19.521516</text></g><g transform="translate(0,196)"><rect class="string-text" x="0" y="0" width="136" height="25"/><text x="4" y="21">updatedAt</text></g><g transform="translate(136,196)"><rect class="string-text" x="0" y="0" width="221" height="25"/><text x="4" y="20">2020-03-29T17:33:19.521522</text></g><g transform="translate(0,221)"><rect class="string-text" x="0" y="0" width="136" height="25"/><text x="4" y="21">is_deleted</text></g><g transform="translate(136,221)"><rect class="boolean-text" x="0" y="0" width="221" height="25"/><text x="4" y="20">false</text></g><g transform="translate(0,246)"><rect class="string-text" x="0" y="0" width="136" height="25"/><text x="4" y="21">branch_grade</text></g><g transform="translate(136,246)"><rect class="number-text" x="0" y="0" width="221" height="25"/><text x="4" y="20">1150</text></g><g transform="translate(0,271)"><rect class="string-text" x="0" y="0" width="136" height="25"/><text x="4" y="21">sectionmapping</text></g><g transform="translate(136,271)"><rect class="number-text" x="0" y="0" width="221" height="25"/><text x="4" y="20">5285</text></g><g transform="translate(0,296)"><rect class="string-text" x="0" y="0" width="136" height="25"/><text x="4" y="21">subjectmapping</text></g><g transform="translate(136,296)"><rect class="number-text" x="0" y="0" width="221" height="25"/><text x="4" y="20">17347</text></g><g transform="translate(0,321)"><rect class="string-text" x="0" y="0" width="136" height="25"/><text x="4" y="21">added_by</text></g><g transform="translate(136,321)"><rect class="number-text" x="0" y="0" width="221" height="25"/><text x="4" y="20">48</text></g><g transform="translate(0,346)"><rect class="string-text" x="0" y="0" width="136" height="25"/><text x="4" y="21">updated_by</text></g><g transform="translate(136,346)"><rect class="null-text" x="0" y="0" width="221" height="25"/><text x="4" y="4"/></g><g transform="translate(0,371)"><rect class="string-text" x="0" y="0" width="136" height="24"/><text x="4" y="20">student</text></g><g transform="translate(136,371)"><rect class="null-text" x="0" y="0" width="221" height="24"/><text x="4" y="4"/></g><g transform="translate(0,395)"><rect class="string-text" x="0" y="0" width="136" height="25"/><text x="4" y="21">chapter</text></g><g transform="translate(136,395)"><rect class="number-text" x="0" y="0" width="221" height="25"/><text x="4" y="20">4869</text></g></g><g><text x="179" y="17" text-anchor="middle">teacher_report</text></g></g><g class="vtree-node" transform="translate(-133,247)"><path class="vtree-link" d="M225,631C225,973 283,973 283,1315"/><path class="vtree-link" d="M225,631C225,973 122,973 122,1315"/><g class="vtree-node" transform="translate(122,1290)"><g class="vtree-node" transform="translate(-53,0)"><g transform="translate(49,21)"><rect class="null-text" x="0" y="0" width="8" height="8"/><text x="4" y="4"/></g><g><text x="53" y="17" text-anchor="middle">opt_subjects[]</text></g></g></g><g class="vtree-node" transform="translate(283,1290)"><g class="vtree-node" transform="translate(-98,0)"><g transform="translate(94,21)"><rect class="null-text" x="0" y="0" width="8" height="8"/><text x="4" y="4"/></g><g><text x="98" y="17" text-anchor="middle">student_approved_status[]</text></g></g></g><g transform="translate(0,21)"><g transform="translate(0,0)"><rect class="string-text" x="0" y="0" width="189" height="24"/><text x="4" y="20">id</text></g><g transform="translate(189,0)"><rect class="number-text" x="0" y="0" width="261" height="24"/><text x="4" y="20">26649</text></g><g transform="translate(0,24)"><rect class="string-text" x="0" y="0" width="189" height="24"/><text x="4" y="20">name</text></g><g transform="translate(189,24)"><rect class="string-text" x="0" y="0" width="261" height="24"/><text x="4" y="20">Chirakala Lahari</text></g><g transform="translate(0,48)"><rect class="string-text" x="0" y="0" width="189" height="25"/><text x="4" y="21">erp</text></g><g transform="translate(189,48)"><rect class="string-text" x="0" y="0" width="261" height="25"/><text x="4" y="20">1906010014</text></g><g transform="translate(0,73)"><rect class="string-text" x="0" y="0" width="189" height="25"/><text x="4" y="21">contact_no</text></g><g transform="translate(189,73)"><rect class="null-text" x="0" y="0" width="261" height="25"/><text x="4" y="4"/></g><g transform="translate(0,98)"><rect class="string-text" x="0" y="0" width="189" height="25"/><text x="4" y="21">roll_no</text></g><g transform="translate(189,98)"><rect class="string-text" x="0" y="0" width="261" height="25"/><text x="4" y="20">1</text></g><g transform="translate(0,123)"><rect class="string-text" x="0" y="0" width="189" height="25"/><text x="4" y="21">admission_year</text></g><g transform="translate(189,123)"><rect class="null-text" x="0" y="0" width="261" height="25"/><text x="4" y="4"/></g><g transform="translate(0,148)"><rect class="string-text" x="0" y="0" width="189" height="25"/><text x="4" y="21">board_no</text></g><g transform="translate(189,148)"><rect class="null-text" x="0" y="0" width="261" height="25"/><text x="4" y="4"/></g><g transform="translate(0,173)"><rect class="string-text" x="0" y="0" width="189" height="25"/><text x="4" y="21">admission_number</text></g><g transform="translate(189,173)"><rect class="string-text" x="0" y="0" width="261" height="25"/><text x="4" y="20">14/2019</text></g><g transform="translate(0,198)"><rect class="string-text" x="0" y="0" width="189" height="25"/><text x="4" y="21">gr_number</text></g><g transform="translate(189,198)"><rect class="string-text" x="0" y="0" width="261" height="25"/><text x="4" y="4"/></g><g transform="translate(0,223)"><rect class="string-text" x="0" y="0" width="189" height="25"/><text x="4" y="21">admission_date</text></g><g transform="translate(189,223)"><rect class="string-text" x="0" y="0" width="261" height="25"/><text x="4" y="20">2019-04-08</text></g><g transform="translate(0,248)"><rect class="string-text" x="0" y="0" width="189" height="25"/><text x="4" y="21">gender</text></g><g transform="translate(189,248)"><rect class="string-text" x="0" y="0" width="261" height="25"/><text x="4" y="20">female</text></g><g transform="translate(0,273)"><rect class="string-text" x="0" y="0" width="189" height="25"/><text x="4" y="21">stay_category</text></g><g transform="translate(189,273)"><rect class="string-text" x="0" y="0" width="261" height="25"/><text x="4" y="21">Day Scholar</text></g><g transform="translate(0,298)"><rect class="string-text" x="0" y="0" width="189" height="25"/><text x="4" y="21">date_of_birth</text></g><g transform="translate(189,298)"><rect class="string-text" x="0" y="0" width="261" height="25"/><text x="4" y="20">2012-01-03</text></g><g transform="translate(0,323)"><rect class="string-text" x="0" y="0" width="189" height="25"/><text x="4" y="21">aadhar_number</text></g><g transform="translate(189,323)"><rect class="string-text" x="0" y="0" width="261" height="25"/><text x="4" y="4"/></g><g transform="translate(0,348)"><rect class="string-text" x="0" y="0" width="189" height="25"/><text x="4" y="20">address</text></g><g transform="translate(189,348)"><rect class="string-text" x="0" y="0" width="261" height="25"/><text x="4" y="21">F,No: 510, Kondapaneni Towers, N...</text></g><g transform="translate(0,373)"><rect class="string-text" x="0" y="0" width="189" height="25"/><text x="4" y="21">using_transport</text></g><g transform="translate(189,373)"><rect class="boolean-text" x="0" y="0" width="261" height="25"/><text x="4" y="20">false</text></g><g transform="translate(0,398)"><rect class="string-text" x="0" y="0" width="189" height="25"/><text x="4" y="21">student_photo</text></g><g transform="translate(189,398)"><rect class="string-text" x="0" y="0" width="261" height="25"/><text x="4" y="21">https://letseduvate.s3.amazonaws...</text></g><g transform="translate(0,423)"><rect class="string-text" x="0" y="0" width="189" height="25"/><text x="4" y="21">is_rte</text></g><g transform="translate(189,423)"><rect class="boolean-text" x="0" y="0" width="261" height="25"/><text x="4" y="20">false</text></g><g transform="translate(0,448)"><rect class="string-text" x="0" y="0" width="189" height="25"/><text x="4" y="21">is_specialchild</text></g><g transform="translate(189,448)"><rect class="boolean-text" x="0" y="0" width="261" height="25"/><text x="4" y="20">false</text></g><g transform="translate(0,473)"><rect class="string-text" x="0" y="0" width="189" height="25"/><text x="4" y="21">is_dayscholar</text></g><g transform="translate(189,473)"><rect class="boolean-text" x="0" y="0" width="261" height="25"/><text x="4" y="20">true</text></g><g transform="translate(0,498)"><rect class="string-text" x="0" y="0" width="189" height="25"/><text x="4" y="21">is_afternoonbatch</text></g><g transform="translate(189,498)"><rect class="boolean-text" x="0" y="0" width="261" height="25"/><text x="4" y="20">false</text></g><g transform="translate(0,523)"><rect class="string-text" x="0" y="0" width="189" height="25"/><text x="4" y="21">admisssion_type</text></g><g transform="translate(189,523)"><rect class="string-text" x="0" y="0" width="261" height="25"/><text x="4" y="20">New Student</text></g><g transform="translate(0,548)"><rect class="string-text" x="0" y="0" width="189" height="25"/><text x="4" y="21">is_active</text></g><g transform="translate(189,548)"><rect class="boolean-text" x="0" y="0" width="261" height="25"/><text x="4" y="20">true</text></g><g transform="translate(0,573)"><rect class="string-text" x="0" y="0" width="189" height="25"/><text x="4" y="21">student_photo_mcb_url</text></g><g transform="translate(189,573)"><rect class="null-text" x="0" y="0" width="261" height="25"/><text x="4" y="4"/></g><g transform="translate(0,598)"><rect class="string-text" x="0" y="0" width="189" height="25"/><text x="4" y="21">temporary_inactive_date</text></g><g transform="translate(189,598)"><rect class="null-text" x="0" y="0" width="261" height="25"/><text x="4" y="4"/></g><g transform="translate(0,623)"><rect class="string-text" x="0" y="0" width="189" height="25"/><text x="4" y="21">permanent_inactive_date</text></g><g transform="translate(189,623)"><rect class="null-text" x="0" y="0" width="261" height="25"/><text x="4" y="4"/></g><g transform="translate(0,648)"><rect class="string-text" x="0" y="0" width="189" height="25"/><text x="4" y="21">is_delete</text></g><g transform="translate(189,648)"><rect class="boolean-text" x="0" y="0" width="261" height="25"/><text x="4" y="20">false</text></g><g transform="translate(0,673)"><rect class="string-text" x="0" y="0" width="189" height="25"/><text x="4" y="21">deleted_at</text></g><g transform="translate(189,673)"><rect class="null-text" x="0" y="0" width="261" height="25"/><text x="4" y="4"/></g><g transform="translate(0,698)"><rect class="string-text" x="0" y="0" width="189" height="25"/><text x="4" y="21">is_temporary_inactive</text></g><g transform="translate(189,698)"><rect class="boolean-text" x="0" y="0" width="261" height="25"/><text x="4" y="20">false</text></g><g transform="translate(0,723)"><rect class="string-text" x="0" y="0" width="189" height="25"/><text x="4" y="21">flag</text></g><g transform="translate(189,723)"><rect class="boolean-text" x="0" y="0" width="261" height="25"/><text x="4" y="20">false</text></g><g transform="translate(0,748)"><rect class="string-text" x="0" y="0" width="189" height="25"/><text x="4" y="21">is_shuffle</text></g><g transform="translate(189,748)"><rect class="boolean-text" x="0" y="0" width="261" height="25"/><text x="4" y="20">false</text></g><g transform="translate(0,773)"><rect class="string-text" x="0" y="0" width="189" height="25"/><text x="4" y="21">created_at</text></g><g transform="translate(189,773)"><rect class="string-text" x="0" y="0" width="261" height="25"/><text x="4" y="20">2020-03-15T21:15:42.006213</text></g><g transform="translate(0,798)"><rect class="string-text" x="0" y="0" width="189" height="25"/><text x="4" y="21">updated_at</text></g><g transform="translate(189,798)"><rect class="string-text" x="0" y="0" width="261" height="25"/><text x="4" y="20">2020-03-18T15:55:10.883879</text></g><g transform="translate(0,823)"><rect class="string-text" x="0" y="0" width="189" height="24"/><text x="4" y="20">user</text></g><g transform="translate(189,823)"><rect class="number-text" x="0" y="0" width="261" height="24"/><text x="4" y="20">62371</text></g><g transform="translate(0,847)"><rect class="string-text" x="0" y="0" width="189" height="25"/><text x="4" y="21">parent_fk</text></g><g transform="translate(189,847)"><rect class="number-text" x="0" y="0" width="261" height="25"/><text x="4" y="20">22114</text></g><g transform="translate(0,872)"><rect class="string-text" x="0" y="0" width="189" height="24"/><text x="4" y="20">session</text></g><g transform="translate(189,872)"><rect class="null-text" x="0" y="0" width="261" height="24"/><text x="4" y="4"/></g><g transform="translate(0,896)"><rect class="string-text" x="0" y="0" width="189" height="25"/><text x="4" y="21">grade</text></g><g transform="translate(189,896)"><rect class="number-text" x="0" y="0" width="261" height="25"/><text x="4" y="20">7</text></g><g transform="translate(0,921)"><rect class="string-text" x="0" y="0" width="189" height="24"/><text x="4" y="20">branch</text></g><g transform="translate(189,921)"><rect class="number-text" x="0" y="0" width="261" height="24"/><text x="4" y="20">19</text></g><g transform="translate(0,945)"><rect class="string-text" x="0" y="0" width="189" height="25"/><text x="4" y="21">acad_branch_mapping</text></g><g transform="translate(189,945)"><rect class="number-text" x="0" y="0" width="261" height="25"/><text x="4" y="20">1150</text></g><g transform="translate(0,970)"><rect class="string-text" x="0" y="0" width="189" height="25"/><text x="4" y="21">acad_section_mapping</text></g><g transform="translate(189,970)"><rect class="number-text" x="0" y="0" width="261" height="25"/><text x="4" y="20">5285</text></g><g transform="translate(0,995)"><rect class="string-text" x="0" y="0" width="189" height="24"/><text x="4" y="20">section</text></g><g transform="translate(189,995)"><rect class="number-text" x="0" y="0" width="261" height="24"/><text x="4" y="20">1</text></g><g transform="translate(0,1019)"><rect class="string-text" x="0" y="0" width="189" height="25"/><text x="4" y="21">first_lang</text></g><g transform="translate(189,1019)"><rect class="number-text" x="0" y="0" width="261" height="25"/><text x="4" y="20">2</text></g><g transform="translate(0,1044)"><rect class="string-text" x="0" y="0" width="189" height="25"/><text x="4" y="21">second_lang</text></g><g transform="translate(189,1044)"><rect class="null-text" x="0" y="0" width="261" height="25"/><text x="4" y="4"/></g><g transform="translate(0,1069)"><rect class="string-text" x="0" y="0" width="189" height="25"/><text x="4" y="21">third_lang</text></g><g transform="translate(189,1069)"><rect class="null-text" x="0" y="0" width="261" height="25"/><text x="4" y="4"/></g><g transform="translate(0,1094)"><rect class="string-text" x="0" y="0" width="189" height="25"/><text x="4" y="21">fourth_lang</text></g><g transform="translate(189,1094)"><rect class="null-text" x="0" y="0" width="261" height="25"/><text x="4" y="4"/></g><g transform="translate(0,1119)"><rect class="string-text" x="0" y="0" width="189" height="25"/><text x="4" y="21">class_group</text></g><g transform="translate(189,1119)"><rect class="null-text" x="0" y="0" width="261" height="25"/><text x="4" y="4"/></g><g transform="translate(0,1144)"><rect class="string-text" x="0" y="0" width="189" height="25"/><text x="4" y="21">deleted_by</text></g><g transform="translate(189,1144)"><rect class="null-text" x="0" y="0" width="261" height="25"/><text x="4" y="4"/></g><g transform="translate(0,1169)"><rect class="string-text" x="0" y="0" width="189" height="25"/><text x="4" y="21">created_by</text></g><g transform="translate(189,1169)"><rect class="null-text" x="0" y="0" width="261" height="25"/><text x="4" y="4"/></g><g transform="translate(0,1194)"><rect class="string-text" x="0" y="0" width="189" height="25"/><text x="4" y="21">updated_by</text></g><g transform="translate(189,1194)"><rect class="number-text" x="0" y="0" width="261" height="25"/><text x="4" y="20">93069</text></g></g><g><text x="225" y="17" text-anchor="middle">submitted_by</text></g></g><g class="vtree-node" transform="translate(584,247)"><g class="vtree-node" transform="translate(-257,0)"><g transform="translate(0,20)"><g transform="translate(0,0)"><rect class="string-text" x="0" y="0" width="252" height="24"/><text x="4" y="20">id</text></g><g transform="translate(252,0)"><rect class="number-text" x="0" y="0" width="261" height="24"/><text x="4" y="20">481</text></g><g transform="translate(0,24)"><rect class="string-text" x="0" y="0" width="252" height="25"/><text x="4" y="20">submission</text></g><g transform="translate(252,24)"><rect class="string-text" x="0" y="0" width="261" height="25"/><text x="4" y="21">https://letseduvate.s3.amazonaws...</text></g><g transform="translate(0,49)"><rect class="string-text" x="0" y="0" width="252" height="25"/><text x="4" y="21">sequence</text></g><g transform="translate(252,49)"><rect class="number-text" x="0" y="0" width="261" height="25"/><text x="4" y="20">0</text></g><g transform="translate(0,74)"><rect class="string-text" x="0" y="0" width="252" height="25"/><text x="4" y="21">submission_type</text></g><g transform="translate(252,74)"><rect class="string-text" x="0" y="0" width="261" height="25"/><text x="4" y="20">0</text></g><g transform="translate(0,99)"><rect class="string-text" x="0" y="0" width="252" height="24"/><text x="4" y="20">corrected</text></g><g transform="translate(252,99)"><rect class="boolean-text" x="0" y="0" width="261" height="24"/><text x="4" y="20">true</text></g><g transform="translate(0,123)"><rect class="string-text" x="0" y="0" width="252" height="25"/><text x="4" y="21">is_delete</text></g><g transform="translate(252,123)"><rect class="boolean-text" x="0" y="0" width="261" height="25"/><text x="4" y="20">false</text></g><g transform="translate(0,148)"><rect class="string-text" x="0" y="0" width="252" height="25"/><text x="4" y="21">homework_submission_meta_data</text></g><g transform="translate(252,148)"><rect class="null-text" x="0" y="0" width="261" height="25"/><text x="4" y="4"/></g><g transform="translate(0,173)"><rect class="string-text" x="0" y="0" width="252" height="24"/><text x="4" y="20">homework</text></g><g transform="translate(252,173)"><rect class="number-text" x="0" y="0" width="261" height="24"/><text x="4" y="20">193</text></g></g><g><text x="257" y="16" text-anchor="middle">submissions[0]</text></g></g></g><g transform="translate(0,0)"><rect class="string-text" x="0" y="0" width="118" height="24"/><text x="4" y="20">id</text></g><g transform="translate(118,0)"><rect class="number-text" x="0" y="0" width="221" height="24"/><text x="4" y="20">193</text></g><g transform="translate(0,24)"><rect class="string-text" x="0" y="0" width="118" height="24"/><text x="4" y="20">onlineclass</text></g><g transform="translate(118,24)"><rect class="null-text" x="0" y="0" width="221" height="24"/><text x="4" y="4"/></g><g transform="translate(0,48)"><rect class="string-text" x="0" y="0" width="118" height="25"/><text x="4" y="21">submitted_at</text></g><g transform="translate(118,48)"><rect class="string-text" x="0" y="0" width="221" height="25"/><text x="4" y="20">2020-03-29T17:34:01.056798</text></g><g transform="translate(0,73)"><rect class="string-text" x="0" y="0" width="118" height="25"/><text x="4" y="21">edited_at</text></g><g transform="translate(118,73)"><rect class="string-text" x="0" y="0" width="221" height="25"/><text x="4" y="20">2020-03-29T17:37:17.387075</text></g><g transform="translate(0,98)"><rect class="string-text" x="0" y="0" width="118" height="25"/><text x="4" y="21">corrected_at</text></g><g transform="translate(118,98)"><rect class="string-text" x="0" y="0" width="221" height="25"/><text x="4" y="20">2020-03-29T17:37:17.387084</text></g><g transform="translate(0,123)"><rect class="string-text" x="0" y="0" width="118" height="25"/><text x="4" y="21">is_delete</text></g><g transform="translate(118,123)"><rect class="boolean-text" x="0" y="0" width="221" height="25"/><text x="4" y="20">false</text></g><g transform="translate(0,148)"><rect class="string-text" x="0" y="0" width="118" height="24"/><text x="4" y="20">corrected</text></g><g transform="translate(118,148)"><rect class="boolean-text" x="0" y="0" width="221" height="24"/><text x="4" y="20">true</text></g><g transform="translate(0,172)"><rect class="string-text" x="0" y="0" width="118" height="25"/><text x="4" y="21">over_all_review</text></g><g transform="translate(118,172)"><rect class="string-text" x="0" y="0" width="221" height="25"/><text x="4" y="21">good</text></g></g></g></g></svg> 
