<svg xmlns="http://www.w3.org/2000/svg" width="398.148" height="315.991" viewBox="0 0 398.148 315.991">
  <g id="Group_287" data-name="Group 287" transform="translate(11643 -7047)">
    <g id="Group_285" data-name="Group 285" transform="translate(-11693.926 6955.265)">
      <path id="Path_328" data-name="Path 328" d="M96.526,159.568c-17.628,5.689-38.044,14.549-41.311,32.781-2.129,11.879,4.772,24.313,15.163,30.45,5.072,3,11.3,5.1,13.952,10.364,4.123,8.173-3.285,17.545-11.109,22.3s-17.365,8.522-20.927,16.955c-2.347,5.558-1.427,12.031.9,17.6,8.522,20.418,33.37,29.36,55.468,28.268s43.057-9.7,64.734-14.134c74.439-15.221,152.486,19.327,226.8,3.495,11.564-2.464,23.212-6.32,32.143-14.067,10.067-8.732,15.783-21.907,16.645-35.206.823-12.687-3.675-26.973-15.031-32.69-6.636-3.342-14.567-3.2-21.771-1.388-4.6,1.161-9.121,2.979-13.866,3.01s-9.965-2.346-11.34-6.888c-1.446-4.775,1.849-9.7,5.627-12.962,7.685-6.626,17.961-9.936,24.94-17.3a29.466,29.466,0,0,0-11.533-48.036c-23.451-8.324-49,14.369-72.98,7.72-1.781-.494-3.654-1.255-4.591-2.847a6.642,6.642,0,0,1-.181-5.251c2.938-9.656,14.348-15.8,14.848-25.884.272-5.48-2.968-10.607-7.052-14.272-28.062-25.18-68.723,4.772-97.335,14.227C191.664,131.356,143.7,144.342,96.526,159.568Z" fill="#494089"/>
      <g id="Group_278" data-name="Group 278" transform="translate(39 7)">
        <circle id="Ellipse_124" data-name="Ellipse 124" cx="34.469" cy="34.469" r="34.469" transform="translate(201.254 218.337) rotate(-45)" fill="#a37dff"/>
        <path id="Path_331" data-name="Path 331" d="M215.807,214.046c10.226,1.454,27.417-5.849,32.928-6.919,11.2-2.173,22.71.415,34.128.793a34.288,34.288,0,0,0-3.169-7.082c-4.2.173-8.625-.555-12.861-.678-8.043-.234-16.041,1.879-24.073,1.393-3.712-.225-12.065-3.475-19.662-4.754A34.286,34.286,0,0,0,215.807,214.046Z" fill="#cbf" fill-rule="evenodd"/>
        <path id="Path_332" data-name="Path 332" d="M250,183.868a34.451,34.451,0,0,0-10.065,1.5c4.318,2.466,12.973,3.35,14.982,3.619,3.61.483,7.532.657,10.631-1.256.043-.027.085-.058.128-.086A34.312,34.312,0,0,0,250,183.868Z" fill="#cbf" fill-rule="evenodd"/>
        <path id="Path_333" data-name="Path 333" d="M284.457,218.817A66.742,66.742,0,0,0,254,218.291c-5.437,1.187-10.7,3.055-16.108,4.387a84.232,84.232,0,0,1-20.8,2.432c-.295,0-.6-.012-.9-.026a34.391,34.391,0,0,0,9.607,17.794A118.727,118.727,0,0,0,249.4,231.447c6.482-4.083,12.968-8.945,20.6-9.643,4.736-.433,9.39.8,14.079,1.771A34.7,34.7,0,0,0,284.457,218.817Z" fill="#cbf" fill-rule="evenodd"/>
        <path id="Path_334" data-name="Path 334" d="M282.631,229.439c-4.675-.692-13.033,3.419-15.079,5.153-1.827,1.547-3.366,3.436-5.338,4.794-2.5,1.722-5.528,2.471-8.47,3.231q-8.909,2.3-17.676,5.1a3.126,3.126,0,0,0-1.908,1.232,34.457,34.457,0,0,0,27.243,1.919c3.577-5.107,5.714-11.723,11.375-14.123.957-.4,4.319-.886,7.356-1.673A34.275,34.275,0,0,0,282.631,229.439Z" fill="#cbf" fill-rule="evenodd"/>
      </g>
      <path id="Path_335" data-name="Path 335" d="M352.925,320.837a98.763,98.763,0,0,0-194.12,0Z" fill="#fff" fill-rule="evenodd"/>
      <path id="Path_336" data-name="Path 336" d="M273.959,296.892c-.456,3.461-5.817,5.608-11.975,4.8s-10.779-4.275-10.323-7.735,5.818-5.608,11.976-4.8S274.416,293.432,273.959,296.892Z" fill="#90c9ea" fill-rule="evenodd"/>
      <g id="Group_280" data-name="Group 280">
        <circle id="Ellipse_125" data-name="Ellipse 125" cx="12.75" cy="12.75" r="12.75" transform="translate(171.093 146.837)" fill="#abc3ff"/>
        <path id="Path_337" data-name="Path 337" d="M183.843,146.837a12.684,12.684,0,0,0-6.236,1.635,2.176,2.176,0,0,0,.312.419c1.288,1.3,4.358,1.356,6.071,1.437a20.9,20.9,0,0,0,7.42-.985A12.671,12.671,0,0,0,183.843,146.837Z" fill="#79a1f2" fill-rule="evenodd"/>
        <path id="Path_338" data-name="Path 338" d="M193.593,153.656a6.81,6.81,0,0,0,1.232-.524,12.8,12.8,0,0,0-1.1-1.6l-3.815,1.708a19.758,19.758,0,0,1-3.025,1.161,18.08,18.08,0,0,1-4.744.416,96.149,96.149,0,0,1-9.8-.7,12.633,12.633,0,0,0-.953,8.169,11.458,11.458,0,0,0,1.877-1.092,25.277,25.277,0,0,1,5.288-2.305Z" fill="#79a1f2" fill-rule="evenodd"/>
        <path id="Path_339" data-name="Path 339" d="M195.56,154.561c-.987.882-1.719,2.053-2.8,2.895a14.992,14.992,0,0,1-3.733,2.136c-.945.37-1.93.646-2.836,1.105a1.308,1.308,0,0,0-.775.774c-.146.651.62,1.12,1.27,1.271a14.646,14.646,0,0,0,3.959.188l4.711-.2c.279-.012.565-.035.847-.069a12.59,12.59,0,0,0-.645-8.1Z" fill="#79a1f2" fill-rule="evenodd"/>
        <path id="Path_340" data-name="Path 340" d="M184.177,159.242a29.6,29.6,0,0,0-6.583,2.147,33.705,33.705,0,0,1-4.237,1.856,7.451,7.451,0,0,1-1.664.207,12.765,12.765,0,0,0,4.05,5.981c.131-.156.259-.314.38-.476,1.907-2.534,3.2-5.728,5.955-7.3a8.812,8.812,0,0,0,1.478-.89A1.622,1.622,0,0,0,184.177,159.242Z" fill="#79a1f2" fill-rule="evenodd"/>
        <path id="Path_341" data-name="Path 341" d="M195.357,165.034a2.648,2.648,0,0,0-.424-.014l-8.166.453a7.085,7.085,0,0,0-7.37,4.156c-.234.376-.655.9-1.046,1.451a12.66,12.66,0,0,0,5.161,1.24c.333-.418.635-.869.958-1.3a11.226,11.226,0,0,1,7.671-4.339c.8-.085,1.6-.087,2.4-.172A12.572,12.572,0,0,0,195.357,165.034Z" fill="#79a1f2" fill-rule="evenodd"/>
        <path id="Path_342" data-name="Path 342" d="M195.543,164.649a12.7,12.7,0,0,0,.76-2.373,84.91,84.91,0,0,1-23.031,4.442,12.846,12.846,0,0,0,1.6,1.922,88.924,88.924,0,0,0,20.675-3.991Z" fill="#618de5" fill-rule="evenodd"/>
        <g id="Group_279" data-name="Group 279">
          <path id="Path_343" data-name="Path 343" d="M171.339,167.748c-4.569,0-8.3-.728-8.723-2.925-.4-2.069,2.3-4.218,8.034-6.385a1,1,0,0,1,.707,1.871c-5.8,2.195-6.834,3.844-6.777,4.134.212,1.094,7.414,2.361,20.419-.159a70.378,70.378,0,0,0,14.159-4.127c4.2-1.838,4.89-3.109,4.843-3.35-.058-.3-1.7-1.483-8.24-1.294a1,1,0,1,1-.059-2c6.393-.191,9.852.792,10.263,2.913.353,1.823-1.611,3.642-6.006,5.562a72.4,72.4,0,0,1-14.58,4.259A80.545,80.545,0,0,1,171.339,167.748Z" fill="#fff"/>
        </g>
      </g>
      <g id="Group_281" data-name="Group 281">
        <circle id="Ellipse_126" data-name="Ellipse 126" cx="10.27" cy="10.27" r="10.27" transform="translate(369.12 175.196) rotate(-10.903)" fill="#7b91ff"/>
        <path id="Path_344" data-name="Path 344" d="M386.037,174.306a10.222,10.222,0,0,0-5.044-1.233,1.712,1.712,0,0,0,.06.417c.414,1.415,2.567,2.631,3.749,3.346a16.845,16.845,0,0,0,5.635,2.147A10.212,10.212,0,0,0,386.037,174.306Z" fill="#80c3ff" fill-rule="evenodd"/>
        <path id="Path_345" data-name="Path 345" d="M390.329,182.876a5.554,5.554,0,0,0,1.073.1,10.253,10.253,0,0,0-.167-1.557l-3.357-.252a16.066,16.066,0,0,1-2.589-.338,14.615,14.615,0,0,1-3.52-1.524,77.544,77.544,0,0,1-6.674-4.253,10.164,10.164,0,0,0-3.807,5.421,9.305,9.305,0,0,0,1.748-.053,20.279,20.279,0,0,1,4.63.394Z" fill="#80c3ff" fill-rule="evenodd"/>
        <path id="Path_346" data-name="Path 346" d="M391.376,184.271c-1.038.246-2.006.795-3.092.978a12.078,12.078,0,0,1-3.464.081c-.812-.1-1.616-.282-2.433-.3a1.053,1.053,0,0,0-.845.251c-.354.405.009,1.031.411,1.387a11.813,11.813,0,0,0,2.733,1.651l3.415,1.662c.2.1.414.192.627.276a10.146,10.146,0,0,0,2.648-5.982Z" fill="#80c3ff" fill-rule="evenodd"/>
        <path id="Path_347" data-name="Path 347" d="M381.516,183.222a23.8,23.8,0,0,0-5.486-1,27.213,27.213,0,0,1-3.713-.31,6.061,6.061,0,0,1-1.258-.492,10.286,10.286,0,0,0,.575,5.79c.153-.06.3-.123.452-.191,2.322-1.064,4.465-2.83,7.019-2.889a7.215,7.215,0,0,0,1.388-.064A1.307,1.307,0,0,0,381.516,183.222Z" fill="#80c3ff" fill-rule="evenodd"/>
        <path id="Path_348" data-name="Path 348" d="M387.216,191.612a2.136,2.136,0,0,0-.3-.173l-5.959-2.81a5.707,5.707,0,0,0-6.815.118c-.309.177-.808.385-1.3.627a10.192,10.192,0,0,0,3.181,2.857c.4-.168.783-.372,1.176-.551a9.052,9.052,0,0,1,7.1-.132c.6.246,1.167.553,1.763.8A10.279,10.279,0,0,0,387.216,191.612Z" fill="#80c3ff" fill-rule="evenodd"/>
      </g>
      <path id="Rectangle_590" data-name="Rectangle 590" d="M3.936,0H24.064A3.937,3.937,0,0,1,28,3.937V8a0,0,0,0,1,0,0H0A0,0,0,0,1,0,8V3.936A3.936,3.936,0,0,1,3.936,0Z" transform="translate(160.048 300.356) rotate(-62.204)" fill="#fff"/>
      <path id="Rectangle_591" data-name="Rectangle 591" d="M3.937,0H17.063A3.937,3.937,0,0,1,21,3.937V8a0,0,0,0,1,0,0H0A0,0,0,0,1,0,8V3.937A3.937,3.937,0,0,1,3.937,0Z" transform="matrix(0.371, 0.929, -0.929, 0.371, 343.436, 281.102)" fill="#fff"/>
      <path id="Rectangle_592" data-name="Rectangle 592" d="M3.937,0H24.064A3.936,3.936,0,0,1,28,3.936V8a0,0,0,0,1,0,0H0A0,0,0,0,1,0,8V3.937A3.937,3.937,0,0,1,3.937,0Z" transform="matrix(0.812, -0.583, 0.583, 0.812, 195.41, 258.754)" fill="#fff"/>
      <path id="Rectangle_593" data-name="Rectangle 593" d="M3.937,0H24.063A3.937,3.937,0,0,1,28,3.937V8a0,0,0,0,1,0,0H0A0,0,0,0,1,0,8V3.937A3.937,3.937,0,0,1,3.937,0Z" transform="translate(308.36 252.703) rotate(37.09)" fill="#fff"/>
      <g id="Group_282" data-name="Group 282">
        <ellipse id="Ellipse_127" data-name="Ellipse 127" cx="15.75" cy="7" rx="15.75" ry="7" transform="matrix(0.892, -0.453, 0.453, 0.892, 192.653, 273.725)" fill="#90c9ea"/>
        <path id="Path_349" data-name="Path 349" d="M207.7,269.6c7.006-3.556,13.955-4.214,16.527-1.77a3.582,3.582,0,0,0-.314-2.118c-1.75-3.447-9.456-3.05-17.213.888s-12.625,9.924-10.875,13.372a3.314,3.314,0,0,0,.686.882C196.952,277.4,201.358,272.813,207.7,269.6Z" fill="#494089" fill-rule="evenodd"/>
      </g>
      <g id="Group_283" data-name="Group 283">
        <path id="Path_350" data-name="Path 350" d="M318.773,277.575c-1.376,2.2-6.505,1.474-11.456-1.621s-7.85-7.39-6.474-9.59,6.505-1.475,11.456,1.621S320.149,275.374,318.773,277.575Z" fill="#90c9ea" fill-rule="evenodd"/>
        <path id="Path_351" data-name="Path 351" d="M310.921,269.6c4.472,2.8,7.257,6.564,6.743,8.89a2.407,2.407,0,0,0,1.109-.914c1.376-2.2-1.522-6.494-6.474-9.59s-10.08-3.822-11.456-1.621a2.2,2.2,0,0,0-.269.7C302.712,266.124,306.874,267.069,310.921,269.6Z" fill="#494089" fill-rule="evenodd"/>
      </g>
      <path id="Path_352" data-name="Path 352" d="M263.637,289.157c-6.158-.812-11.519,1.335-11.976,4.8a3.628,3.628,0,0,0-.013.751c1.337-2.793,6.167-4.407,11.634-3.686,5.711.753,10.094,3.787,10.336,6.984a3.677,3.677,0,0,0,.341-1.11C274.416,293.432,269.794,289.969,263.637,289.157Z" fill="#494089" fill-rule="evenodd"/>
      <circle id="Ellipse_128" data-name="Ellipse 128" cx="3.25" cy="3.25" r="3.25" transform="translate(107.365 200.505)" fill="#90c9ea"/>
      <path id="Path_353" data-name="Path 353" d="M299.49,114.754a1.458,1.458,0,1,1,1.457-1.458A1.458,1.458,0,0,1,299.49,114.754Z" fill="#90c9ea" fill-rule="evenodd"/>
      <circle id="Ellipse_129" data-name="Ellipse 129" cx="1.458" cy="1.458" r="1.458" transform="translate(318.7 138.88)" fill="#90c9ea"/>
      <circle id="Ellipse_130" data-name="Ellipse 130" cx="1.458" cy="1.458" r="1.458" transform="translate(75.157 186.338)" fill="#90c9ea"/>
      <path id="Path_354" data-name="Path 354" d="M285.119,165.964a1.877,1.877,0,1,1-1.877-1.877A1.877,1.877,0,0,1,285.119,165.964Z" fill="#fff" fill-rule="evenodd"/>
      <path id="Path_355" data-name="Path 355" d="M363.992,252.214a1.877,1.877,0,1,1-1.877-1.877A1.877,1.877,0,0,1,363.992,252.214Z" fill="#fff" fill-rule="evenodd"/>
      <path id="Path_356" data-name="Path 356" d="M419.369,255.337a1.877,1.877,0,1,1-1.877-1.877A1.877,1.877,0,0,1,419.369,255.337Z" fill="#fff" fill-rule="evenodd"/>
      <path id="Path_357" data-name="Path 357" d="M123.992,282.714a1.877,1.877,0,1,1-1.877-1.877A1.877,1.877,0,0,1,123.992,282.714Z" fill="#fff" fill-rule="evenodd"/>
      <path id="Path_358" data-name="Path 358" d="M232.369,146.837a1.877,1.877,0,1,1-1.877-1.877A1.877,1.877,0,0,1,232.369,146.837Z" fill="#fff" fill-rule="evenodd"/>
      <path id="Path_359" data-name="Path 359" d="M209.61,192.451l2.5,1.43-2.554,1.335-1.43,2.5-1.335-2.554-2.5-1.43,2.554-1.335,1.43-2.5Z" fill="#fff" fill-rule="evenodd"/>
      <path id="Path_360" data-name="Path 360" d="M327.485,166.117l1.634.934-1.668.872-.934,1.634-.872-1.667-1.634-.934,1.668-.872.934-1.634Z" fill="#fff" fill-rule="evenodd"/>
      <path id="Path_361" data-name="Path 361" d="M134.649,244.533l1.634.934-1.667.872-.934,1.634-.872-1.667-1.634-.934,1.667-.872.934-1.634Z" fill="#fff" fill-rule="evenodd"/>
      <path id="Path_362" data-name="Path 362" d="M135.583,177.9l1.634.934-1.667.872-.934,1.634-.872-1.667-1.634-.934,1.668-.872.934-1.634Z" fill="#fff" fill-rule="evenodd"/>
      <path id="Path_363" data-name="Path 363" d="M85.615,277.337l1.634.934-1.668.872-.934,1.634-.872-1.668-1.634-.934,1.667-.872.934-1.634Z" fill="#fff" fill-rule="evenodd"/>
      <path id="Path_364" data-name="Path 364" d="M382.454,231.232l1.634.934-1.667.872-.934,1.634L380.615,233l-1.634-.934,1.667-.872.934-1.634Z" fill="#fff" fill-rule="evenodd"/>
      <path id="Path_365" data-name="Path 365" d="M402.615,297l1.634.934-1.668.872-.934,1.634-.872-1.667-1.634-.934,1.667-.872.934-1.634Z" fill="#fff" fill-rule="evenodd"/>
    </g>
    <text id="N" transform="matrix(0.974, -0.225, 0.225, 0.974, -11498.176, 7211.727)" fill="#fff" font-size="84" font-family="SegoeUI-Semibold, Segoe UI" font-weight="600"><tspan x="0" y="0">N</tspan></text>
    <text id="Items_to_View" data-name="Items to
View" transform="translate(-11434.218 7311.991)" fill="#494089" font-size="43" font-family="SegoeUI, Segoe UI"><tspan x="-77.665" y="0">Items to</tspan><tspan x="-45.341" y="40">View</tspan></text>
  </g>
</svg>
