<svg xmlns="http://www.w3.org/2000/svg" width="33.246" height="44.328" viewBox="0 0 33.246 44.328">
  <path id="audio_file" data-name="audio file" d="M19.394,11.775V0H2.078A2.073,2.073,0,0,0,0,2.078V42.25a2.073,2.073,0,0,0,2.078,2.078h29.09a2.073,2.073,0,0,0,2.078-2.078v-28.4H21.471A2.084,2.084,0,0,1,19.394,11.775Zm-5.541,23.2a1.041,1.041,0,0,1-1.775.736L9,32.553H6.58a1.042,1.042,0,0,1-1.039-1.039V26.666A1.042,1.042,0,0,1,6.58,25.627H9l3.074-3.16a1.039,1.039,0,0,1,1.775.736Zm2.874-4.121a2.064,2.064,0,0,0,0-2.892,2.079,2.079,0,0,1,2.978-2.9,6.231,6.231,0,0,1,0,8.692C17.818,35.688,14.779,32.856,16.727,30.857Zm7.446-10.138a12.461,12.461,0,0,1,0,17.385,2.079,2.079,0,0,1-2.978-2.9,8.3,8.3,0,0,0,0-11.584A2.079,2.079,0,0,1,24.173,20.718Zm9.073-10.164v.528H22.164V0h.528a2.076,2.076,0,0,1,1.472.606L32.64,9.091A2.071,2.071,0,0,1,33.246,10.554Z" fill="#444343"/>
</svg>
