<svg xmlns="http://www.w3.org/2000/svg" width="33.246" height="44.328" viewBox="0 0 33.246 44.328">
  <path id="default_file" data-name="default file" d="M-220.832-2459.672h-29.09a2.065,2.065,0,0,1-1.471-.607,2.065,2.065,0,0,1-.607-1.471v-40.172a2.065,2.065,0,0,1,.607-1.471,2.065,2.065,0,0,1,1.471-.607h17.316v11.774a2.08,2.08,0,0,0,2.078,2.078h11.775v28.4a2.065,2.065,0,0,1-.607,1.471A2.065,2.065,0,0,1-220.832-2459.672Zm-16.021-28.045a3.845,3.845,0,0,0-3.841,3.841v12a5.287,5.287,0,0,0,5.281,5.281,5.287,5.287,0,0,0,5.281-5.281v-11.043h-1.44v11.043a3.816,3.816,0,0,1-1.125,2.716,3.816,3.816,0,0,1-2.716,1.125,3.816,3.816,0,0,1-2.716-1.125,3.816,3.816,0,0,1-1.125-2.716v-12a2.4,2.4,0,0,1,2.4-2.4,2.4,2.4,0,0,1,2.4,2.4v10.083a.961.961,0,0,1-.96.96.961.961,0,0,1-.96-.96v-9.122h-1.44v9.122a2.4,2.4,0,0,0,2.4,2.4,2.4,2.4,0,0,0,2.4-2.4v-10.083A3.845,3.845,0,0,0-236.853-2487.717Zm18.1-5.2h-11.082V-2504h.528a2.065,2.065,0,0,1,1.472.606l8.476,8.485a2.084,2.084,0,0,1,.606,1.463v.528Z" transform="translate(252 2504)" fill="#9b9b9b"/>
</svg>
