<svg xmlns="http://www.w3.org/2000/svg" width="33.246" height="44.328" viewBox="0 0 33.246 44.328">
  <path id="exel" d="M19.394,11.775V0H2.078A2.073,2.073,0,0,0,0,2.078V42.25a2.073,2.073,0,0,0,2.078,2.078h29.09a2.073,2.073,0,0,0,2.078-2.078v-28.4H21.471A2.084,2.084,0,0,1,19.394,11.775ZM24.6,21l-5.2,8.1,5.2,8.1a1.04,1.04,0,0,1-.874,1.6H20.7a1.043,1.043,0,0,1-.918-.545c-1.7-3.134-3.16-5.948-3.16-5.948-.554,1.281-.866,1.732-3.169,5.957a1.029,1.029,0,0,1-.909.545H9.524a1.04,1.04,0,0,1-.874-1.6l5.221-8.1L8.649,21a1.038,1.038,0,0,1,.874-1.6h3.013a1.043,1.043,0,0,1,.918.545c2.26,4.225,1.732,2.909,3.169,5.931,0,0,.528-1.013,3.169-5.931a1.043,1.043,0,0,1,.918-.545h3.013A1.033,1.033,0,0,1,24.6,21Zm8.649-10.441v.528H22.164V0h.528a2.076,2.076,0,0,1,1.472.606L32.64,9.091A2.071,2.071,0,0,1,33.246,10.554Z" fill="#569164"/>
</svg>
