<svg xmlns="http://www.w3.org/2000/svg" width="33.246" height="44.328" viewBox="0 0 33.246 44.328">
  <path id="image_file" data-name="image file" d="M33.246,10.557v.525H22.164V0h.525a2.078,2.078,0,0,1,1.469.609l8.48,8.48A2.078,2.078,0,0,1,33.246,10.557Zm-11.775,3.3a2.084,2.084,0,0,1-2.078-2.078V0H2.078A2.078,2.078,0,0,0,0,2.078V42.25a2.078,2.078,0,0,0,2.078,2.078h29.09a2.078,2.078,0,0,0,2.078-2.078v-28.4ZM9.744,15.238a4.156,4.156,0,1,1-4.156,4.156A4.156,4.156,0,0,1,9.744,15.238ZM27.752,36.017H5.588l.042-4.2L9.051,28.4a.99.99,0,0,1,1.427.042L13.9,31.861,22.862,22.9a1.039,1.039,0,0,1,1.469,0l3.421,3.421Z" fill="#2d2a2a"/>
</svg>
