<svg xmlns="http://www.w3.org/2000/svg" width="33.246" height="44.328" viewBox="0 0 33.246 44.328">
  <path id="Icon_awesome-file-pdf" data-name="Icon awesome-file-pdf" d="M15.749,22.173c-.433-1.385-.424-4.061-.173-4.061C16.3,18.112,16.233,21.307,15.749,22.173ZM15.6,26.259a39.95,39.95,0,0,1-2.459,5.428,31.88,31.88,0,0,1,5.446-1.9A11.215,11.215,0,0,1,15.6,26.259Zm-8.147,10.8c0,.069,1.143-.468,3.022-3.48C9.9,34.129,7.957,35.7,7.454,37.064ZM21.471,13.853H33.246v28.4a2.073,2.073,0,0,1-2.078,2.078H2.078A2.073,2.073,0,0,1,0,42.25V2.078A2.073,2.073,0,0,1,2.078,0H19.394V11.775A2.084,2.084,0,0,0,21.471,13.853Zm-.693,14.874a8.69,8.69,0,0,1-3.7-4.658c.39-1.6,1-4.035.537-5.558a2.168,2.168,0,0,0-4.138-.589c-.433,1.584-.035,3.818.7,6.667a81.3,81.3,0,0,1-3.532,7.428c-.009,0-.009.009-.017.009-2.346,1.2-6.372,3.853-4.719,5.887a2.69,2.69,0,0,0,1.861.866c1.55,0,3.091-1.558,5.29-5.351a49.351,49.351,0,0,1,6.84-2.009,13.121,13.121,0,0,0,5.541,1.688,2.241,2.241,0,0,0,1.706-3.758C25.948,28.173,22.45,28.51,20.779,28.727ZM32.64,9.091,24.155.606A2.076,2.076,0,0,0,22.684,0h-.519V11.082H33.246v-.528A2.071,2.071,0,0,0,32.64,9.091Zm-6.415,22.1c.355-.234-.216-1.03-3.706-.779C25.731,31.783,26.225,31.194,26.225,31.194Z" fill="#a44141"/>
</svg>
