<svg width="16" height="20" viewBox="0 0 16 20" fill="none" xmlns="http://www.w3.org/2000/svg">
<path d="M2.37251 1C1.90333 1.06473 1.47785 1.30976 1.18637 1.68307C0.894893 2.05638 0.760375 2.52859 0.81137 2.99947V17.0005C0.760375 17.4714 0.894893 17.9436 1.18637 18.3169C1.47785 18.6902 1.90333 18.9353 2.37251 19H13.2561C13.7253 18.9353 14.1508 18.6902 14.4422 18.3169C14.7337 17.9436 14.8682 17.4714 14.8172 17.0005V2.99947C14.8682 2.52859 14.7337 2.05638 14.4422 1.68307C14.1508 1.30976 13.7253 1.06473 13.2561 1H2.37251ZM2.37251 1H2.13234" stroke="#1B4CCB" stroke-linecap="round" stroke-linejoin="round"/>
<path d="M6.9375 5.14355H12.1914" stroke="#1B4CCB" stroke-linecap="round"/>
<path d="M6.9375 15.0015H12.1914" stroke="#1B4CCB" stroke-linecap="round"/>
<path d="M4.25088 5.14535C4.25088 5.4864 4.02224 5.64569 3.87544 5.64569C3.72864 5.64569 3.5 5.4864 3.5 5.14535C3.5 4.80431 3.72864 4.64502 3.87544 4.64502C4.02224 4.64502 4.25088 4.80431 4.25088 5.14535Z" fill="#1B4CCB" stroke="#1B4CCB"/>
<path d="M6.94141 10.0005H12.1953" stroke="#1B4CCB" stroke-linecap="round"/>
<path d="M4.25479 10.0003C4.25479 10.3414 4.02615 10.5007 3.87935 10.5007C3.73255 10.5007 3.50391 10.3414 3.50391 10.0003C3.50391 9.65929 3.73255 9.5 3.87935 9.5C4.02615 9.5 4.25479 9.65929 4.25479 10.0003Z" fill="#1B4CCB" stroke="#1B4CCB"/>
<path d="M4.25088 15.0013C4.25088 15.3424 4.02224 15.5016 3.87544 15.5016C3.72864 15.5016 3.5 15.3424 3.5 15.0013C3.5 14.6603 3.72864 14.501 3.87544 14.501C4.02224 14.501 4.25088 14.6603 4.25088 15.0013Z" fill="#1B4CCB" stroke="#1B4CCB"/>
</svg>
