<svg xmlns="http://www.w3.org/2000/svg" width="33.246" height="31.501" viewBox="0 0 33.246 31.501">
  <path id="Icon_simple-microsoftpowerpoint" data-name="Icon simple-microsoftpowerpoint" d="M32.531,5.613H20.7v4.413a4.132,4.132,0,0,1,2.57-.815V13.5h4.258a4.3,4.3,0,0,1-4.279,4.307,4.445,4.445,0,0,1-2.534-.852v2.949h9.308v1.448h-9.31v1.791h9.3v1.43H20.705v3.241H32.54c.479,0,.706-.252.706-.744V6.32a.62.62,0,0,0-.706-.706ZM23.937,12.8V8.47A4.295,4.295,0,0,1,28.223,12.8Zm-12.5.072a1.331,1.331,0,0,0-.364-.654,1.521,1.521,0,0,0-.669-.341,3.65,3.65,0,0,0-.956-.125l-1,.019v4.154h.036a9.823,9.823,0,0,0,1.143,0,2.66,2.66,0,0,0,1.121-.312,1.845,1.845,0,0,0,.777-1.266,3.5,3.5,0,0,0-.089-1.539v.062ZM0,4.31V29.17l18.961,3.276V.945Zm14.148,11.2a3.82,3.82,0,0,1-2.333,2.306,9.152,9.152,0,0,1-3.365.386v4.74l-2.495-.29V9.632l3.96-.206a6.125,6.125,0,0,1,2.169.249,2.97,2.97,0,0,1,1.694,1.277,4.563,4.563,0,0,1,.706,2.223A5.449,5.449,0,0,1,14.148,15.512Z" transform="translate(0 -0.945)" fill="#ff8d0a"/>
</svg>
