<svg width="17" height="20" viewBox="0 0 17 20" fill="none" xmlns="http://www.w3.org/2000/svg">
<path d="M10.3984 1H3.19844C2.72105 1 2.26321 1.18964 1.92565 1.52721C1.58808 1.86477 1.39844 2.32261 1.39844 2.8V17.2C1.39844 17.6774 1.58808 18.1352 1.92565 18.4728C2.26321 18.8104 2.72105 19 3.19844 19H13.9984C14.4758 19 14.9337 18.8104 15.2712 18.4728C15.6088 18.1352 15.7984 17.6774 15.7984 17.2V6.4L10.3984 1Z" stroke="#1B4CCB" stroke-linecap="round" stroke-linejoin="round"/>
<path d="M10.3984 1V6.4H15.7984" stroke="#1B4CCB" stroke-linecap="round" stroke-linejoin="round"/>
<path d="M3.48704 15V10.6364H5.1234C5.45863 10.6364 5.73988 10.6989 5.96715 10.8239C6.19585 10.9489 6.36843 11.1207 6.48491 11.3395C6.60281 11.5568 6.66175 11.804 6.66175 12.081C6.66175 12.3608 6.60281 12.6094 6.48491 12.8267C6.36701 13.044 6.193 13.2152 5.96289 13.3402C5.73278 13.4638 5.4494 13.5256 5.11275 13.5256H4.02823V12.8757H5.00621C5.20224 12.8757 5.36275 12.8416 5.48775 12.7734C5.61275 12.7053 5.70508 12.6115 5.76474 12.4922C5.82582 12.3729 5.85636 12.2358 5.85636 12.081C5.85636 11.9261 5.82582 11.7898 5.76474 11.6719C5.70508 11.554 5.61204 11.4624 5.48562 11.397C5.36062 11.3303 5.1994 11.2969 5.00195 11.2969H4.27752V15H3.48704ZM7.34837 15V10.6364H8.98473C9.31996 10.6364 9.60121 10.6989 9.82848 10.8239C10.0572 10.9489 10.2298 11.1207 10.3462 11.3395C10.4641 11.5568 10.5231 11.804 10.5231 12.081C10.5231 12.3608 10.4641 12.6094 10.3462 12.8267C10.2283 13.044 10.0543 13.2152 9.82422 13.3402C9.59411 13.4638 9.31072 13.5256 8.97408 13.5256H7.88956V12.8757H8.86754C9.06357 12.8757 9.22408 12.8416 9.34908 12.7734C9.47408 12.7053 9.56641 12.6115 9.62607 12.4922C9.68714 12.3729 9.71768 12.2358 9.71768 12.081C9.71768 11.9261 9.68714 11.7898 9.62607 11.6719C9.56641 11.554 9.47337 11.4624 9.34695 11.397C9.22195 11.3303 9.06072 11.2969 8.86328 11.2969H8.13885V15H7.34837ZM11.0179 11.299V10.6364H14.4995V11.299H13.1507V15H12.3667V11.299H11.0179Z" fill="#1B4CCB"/>
</svg>
