<svg width="16" height="19" viewBox="0 0 16 19" fill="none" xmlns="http://www.w3.org/2000/svg">
<path d="M10.1626 2.49854C10.5142 2.54705 10.8331 2.73068 11.0515 3.01045C11.27 3.29023 11.3708 3.64412 11.3325 3.997V14.4899C11.3708 14.8428 11.27 15.1967 11.0515 15.4764C10.8331 15.7562 10.5142 15.9398 10.1626 15.9884H2.00604C1.65442 15.9398 1.33554 15.7562 1.1171 15.4764C0.898656 15.1967 0.797843 14.8428 0.83606 14.4899V3.997C0.797843 3.64412 0.898656 3.29023 1.1171 3.01045C1.33554 2.73068 1.65442 2.54705 2.00604 2.49854H1.82604" stroke="#1B4CCB" stroke-linecap="round" stroke-linejoin="round"/>
<path d="M5.42969 6.43652H9.36711" stroke="#1B4CCB" stroke-linecap="round"/>
<path d="M5.42969 9.71436H9.36711" stroke="#1B4CCB" stroke-linecap="round"/>
<path d="M5.42969 12.9917H9.36711" stroke="#1B4CCB" stroke-linecap="round"/>
<path d="M3.29264 6.43767C3.29264 6.52711 3.26087 6.59661 3.22422 6.6385C3.18842 6.6794 3.15628 6.68736 3.13656 6.68736C3.11683 6.68736 3.08469 6.6794 3.04889 6.6385C3.01224 6.59661 2.98047 6.52711 2.98047 6.43767C2.98047 6.34824 3.01224 6.27874 3.04889 6.23685C3.08469 6.19595 3.11683 6.18799 3.13656 6.18799C3.15628 6.18799 3.18842 6.19595 3.22422 6.23685C3.26087 6.27874 3.29264 6.34824 3.29264 6.43767Z" fill="#1B4CCB" stroke="#1B4CCB"/>
<path d="M3.29264 9.71453C3.29264 9.80396 3.26087 9.87346 3.22422 9.91535C3.18842 9.95625 3.15628 9.96421 3.13656 9.96421C3.11683 9.96421 3.08469 9.95625 3.04889 9.91535C3.01224 9.87346 2.98047 9.80396 2.98047 9.71453C2.98047 9.62509 3.01224 9.55559 3.04889 9.51371C3.08469 9.47281 3.11683 9.46484 3.13656 9.46484C3.15628 9.46484 3.18842 9.47281 3.22422 9.51371C3.26087 9.55559 3.29264 9.62509 3.29264 9.71453Z" fill="#1B4CCB" stroke="#1B4CCB"/>
<path d="M3.29264 12.9914C3.29264 13.0808 3.26087 13.1503 3.22422 13.1922C3.18842 13.2331 3.15628 13.2411 3.13656 13.2411C3.11683 13.2411 3.08469 13.2331 3.04889 13.1922C3.01224 13.1503 2.98047 13.0808 2.98047 12.9914C2.98047 12.9019 3.01224 12.8324 3.04889 12.7906C3.08469 12.7497 3.11683 12.7417 3.13656 12.7417C3.15628 12.7417 3.18842 12.7497 3.22422 12.7906C3.26087 12.8324 3.29264 12.9019 3.29264 12.9914Z" fill="#1B4CCB" stroke="#1B4CCB"/>
<path d="M8.74321 1H3.42342C2.92637 1 2.52344 1.40294 2.52344 1.89998V3.09786C2.52344 3.5949 2.92637 3.99784 3.42342 3.99784H8.74321C9.24026 3.99784 9.64319 3.5949 9.64319 3.09786V1.89998C9.64319 1.40294 9.24026 1 8.74321 1Z" stroke="#1B4CCB"/>
<path d="M15.2279 14.05C15.2279 16.5076 13.2356 18.4999 10.778 18.4999C8.32041 18.4999 6.32812 16.5076 6.32812 14.05C6.32812 11.5924 8.32041 9.6001 10.778 9.6001C13.2356 9.6001 15.2279 11.5924 15.2279 14.05Z" fill="white" stroke="#1B4CCB"/>
<path d="M10.7749 18.3247C13.1359 18.3247 15.0498 16.4108 15.0498 14.0498C15.0498 11.6888 13.1359 9.7749 10.7749 9.7749C8.41394 9.7749 6.5 11.6888 6.5 14.0498C6.5 16.4108 8.41394 18.3247 10.7749 18.3247Z" stroke="#1B4CCB"/>
<path d="M10.668 11.8286V13.9184L12.1079 15.4609" stroke="#1B4CCB" stroke-linecap="round"/>
</svg>
