<svg xmlns="http://www.w3.org/2000/svg" width="33.246" height="44.328" viewBox="0 0 33.246 44.328">
  <path id="text_file" data-name="text file" d="M-220.832-2459.672h-29.09a2.065,2.065,0,0,1-1.471-.607,2.065,2.065,0,0,1-.607-1.471v-40.172a2.065,2.065,0,0,1,.607-1.471,2.065,2.065,0,0,1,1.471-.607h17.316v11.774a2.08,2.08,0,0,0,2.078,2.078h11.775v28.4a2.065,2.065,0,0,1-.607,1.471A2.065,2.065,0,0,1-220.832-2459.672Zm-22.966-11.959v2.388h16.714v-2.388Zm5.373-5.014h5.969l1.074,2.626h2.507l-5.671-13.132h-1.791l-5.671,13.132h2.507l1.075-2.626Zm5.217-2.149h-4.465l2.233-5.993,2.232,5.993Zm14.454-14.124h-11.082V-2504h.528a2.065,2.065,0,0,1,1.472.606l8.476,8.485a2.084,2.084,0,0,1,.606,1.463v.528Z" transform="translate(252 2504)" fill="#52769f"/>
</svg>
