<svg xmlns="http://www.w3.org/2000/svg" width="33.246" height="44.328" viewBox="0 0 33.246 44.328">
  <path id="Icon_awesome-file-video" data-name="Icon awesome-file-video" d="M33.246,10.557v.525H22.164V0h.525a2.078,2.078,0,0,1,1.469.609l8.48,8.48a2.078,2.078,0,0,1,.609,1.469ZM19.394,11.775V0H2.078A2.078,2.078,0,0,0,0,2.078V42.25a2.078,2.078,0,0,0,2.078,2.078h29.09a2.078,2.078,0,0,0,2.078-2.078v-28.4H21.471A2.084,2.084,0,0,1,19.394,11.775Zm8.312,12.469v9.694a2.079,2.079,0,0,1-3.547,1.469l-4.764-4.763v3.3a2.078,2.078,0,0,1-2.078,2.078h-9.7a2.078,2.078,0,0,1-2.078-2.078v-9.7a2.078,2.078,0,0,1,2.078-2.078h9.7a2.078,2.078,0,0,1,2.078,2.078v3.3l4.764-4.763A2.079,2.079,0,0,1,27.705,24.243Z" fill="#534d4d"/>
</svg>
