<svg width="22" height="16" viewBox="0 0 22 16" fill="none" xmlns="http://www.w3.org/2000/svg">
<path d="M20.9798 3.17303C20.8718 2.74161 20.6519 2.34632 20.3422 2.0271C20.0326 1.70787 19.6442 1.47601 19.2162 1.35494C17.6527 0.973145 11.3984 0.973145 11.3984 0.973145C11.3984 0.973145 5.14422 0.973145 3.58066 1.3913C3.15273 1.51238 2.76432 1.74423 2.45467 2.06346C2.14502 2.38268 1.9251 2.77797 1.81712 3.20939C1.53096 4.79618 1.39099 6.40587 1.39896 8.01823C1.38876 9.64274 1.52874 11.2647 1.81712 12.8634C1.93616 13.2815 2.16101 13.6617 2.46994 13.9675C2.77887 14.2732 3.16143 14.4941 3.58066 14.6088C5.14422 15.027 11.3984 15.027 11.3984 15.027C11.3984 15.027 17.6527 15.027 19.2162 14.6088C19.6442 14.4877 20.0326 14.2559 20.3422 13.9366C20.6519 13.6174 20.8718 13.2221 20.9798 12.7907C21.2637 11.2159 21.4037 9.61845 21.3979 8.01823C21.4081 6.39373 21.2681 4.77176 20.9798 3.17303V3.17303Z" stroke="#1B4CCB" stroke-linecap="round" stroke-linejoin="round"/>
<path d="M9.35156 10.991L14.5786 8.01847L9.35156 5.0459V10.991Z" stroke="#1B4CCB" stroke-linecap="round" stroke-linejoin="round"/>
</svg>
