<svg width="22" height="21" viewBox="0 0 22 21" fill="none" xmlns="http://www.w3.org/2000/svg">
<path d="M13.952 2.61914H2.619C2.18961 2.61914 1.77782 2.78971 1.47419 3.09333C1.17057 3.39696 1 3.80876 1 4.23814V15.5711C1 15.7838 1.04188 15.9943 1.12324 16.1907C1.2046 16.3871 1.32386 16.5656 1.47419 16.7159C1.62453 16.8663 1.80301 16.9855 1.99944 17.0669C2.19586 17.1483 2.40639 17.1901 2.619 17.1901H13.952C14.3814 17.1901 14.7932 17.0196 15.0968 16.7159C15.4004 16.4123 15.571 16.0005 15.571 15.5711V4.23814C15.571 3.80876 15.4004 3.39696 15.0968 3.09333C14.7932 2.78971 14.3814 2.61914 13.952 2.61914V2.61914Z" stroke="#4E5879" stroke-linecap="round" stroke-linejoin="round"/>
<path d="M11.5234 1V4.238" stroke="#4E5879" stroke-linecap="round" stroke-linejoin="round"/>
<path d="M5.04883 1V4.238" stroke="#4E5879" stroke-linecap="round" stroke-linejoin="round"/>
<path d="M1 7.47559H15.571" stroke="#4E5879" stroke-linecap="round" stroke-linejoin="round"/>
<path d="M15.8008 21C18.8383 21 21.3008 18.5376 21.3008 15.5C21.3008 12.4624 18.8383 10 15.8008 10C12.7632 10 10.3008 12.4624 10.3008 15.5C10.3008 18.5376 12.7632 21 15.8008 21Z" fill="white"/>
<path d="M15.8008 20.25C18.4241 20.25 20.5508 18.1234 20.5508 15.5C20.5508 12.8766 18.4241 10.75 15.8008 10.75C13.1774 10.75 11.0508 12.8766 11.0508 15.5C11.0508 18.1234 13.1774 20.25 15.8008 20.25Z" stroke="#4E5879"/>
<path d="M15.8008 13.2021V15.4741L17.3628 17.1521" stroke="#4E5879" stroke-linecap="round"/>
</svg>
