<svg width="17" height="18" viewBox="0 0 17 18" fill="none" xmlns="http://www.w3.org/2000/svg">
<path d="M1 4.20001H15.4" stroke="#F8222F" stroke-width="1.5" stroke-linecap="round" stroke-linejoin="round"/>
<path d="M5.00156 4.2V2.6C5.00156 2.17565 5.17013 1.76869 5.47019 1.46863C5.77025 1.16857 6.17722 1 6.60156 1H9.80156C10.2259 1 10.6329 1.16857 10.9329 1.46863C11.233 1.76869 11.4016 2.17565 11.4016 2.6V4.2M13.8016 4.2V15.4C13.8016 15.8243 13.633 16.2313 13.3329 16.5314C13.0329 16.8314 12.6259 17 12.2016 17H4.20156C3.77722 17 3.37025 16.8314 3.07019 16.5314C2.77013 16.2313 2.60156 15.8243 2.60156 15.4V4.2H13.8016Z" stroke="#F8222F" stroke-width="1.5" stroke-linecap="round" stroke-linejoin="round"/>
<path d="M6.60156 8.20001V13" stroke="#F8222F" stroke-width="1.5" stroke-linecap="round" stroke-linejoin="round"/>
<path d="M9.80078 8.20001V13" stroke="#F8222F" stroke-width="1.5" stroke-linecap="round" stroke-linejoin="round"/>
</svg>
