<svg width="18" height="18" viewBox="0 0 18 18" fill="none" xmlns="http://www.w3.org/2000/svg">
<path d="M8.16982 2.66357H2.59329C2.17073 2.66357 1.76547 2.83144 1.46666 3.13024C1.16786 3.42904 1 3.8343 1 4.25687V15.4067C1 15.8293 1.16786 16.2345 1.46666 16.5333C1.76547 16.8321 2.17073 17 2.59329 17H13.7431C13.9526 17.0003 14.16 16.9593 14.3536 16.8794C14.5472 16.7995 14.7231 16.6822 14.8713 16.5342C15.0195 16.3862 15.1371 16.2105 15.2173 16.017C15.2975 15.8235 15.3388 15.6161 15.3388 15.4067V9.83339" stroke="#868686" stroke-width="1.5" stroke-linecap="round" stroke-linejoin="round"/>
<path d="M14.146 1.4718C14.465 1.1651 14.8916 0.995732 15.3341 1.00008C15.7766 1.00443 16.1998 1.18215 16.5127 1.49507C16.8256 1.80799 17.0033 2.23114 17.0077 2.67365C17.012 3.11616 16.8427 3.54273 16.536 3.86174L8.96784 11.4299L5.78125 12.2233L6.5779 9.03674L14.146 1.4718Z" stroke="#868686" stroke-width="1.5" stroke-linecap="round" stroke-linejoin="round"/>
</svg>
