<svg width="232" height="106" viewBox="0 0 232 106" fill="none" xmlns="http://www.w3.org/2000/svg">
<path d="M2.2 101C2.06667 101 1.95333 100.96 1.86 100.88C1.78 100.787 1.74 100.673 1.74 100.54V87.48C1.74 87.3333 1.78 87.22 1.86 87.14C1.95333 87.0467 2.06667 87 2.2 87H3.12C3.36 87 3.52667 87.0933 3.62 87.28L10.26 97.48V87.48C10.26 87.3333 10.3 87.22 10.38 87.14C10.4733 87.0467 10.5867 87 10.72 87H11.68C11.8267 87 11.94 87.0467 12.02 87.14C12.1133 87.22 12.16 87.3333 12.16 87.48V100.52C12.16 100.653 12.1133 100.767 12.02 100.86C11.94 100.953 11.8333 101 11.7 101H10.74C10.54 101 10.38 100.907 10.26 100.72L3.64 90.62V100.54C3.64 100.673 3.59333 100.787 3.5 100.88C3.40667 100.96 3.29333 101 3.16 101H2.2ZM19.6463 101.2C18.1796 101.2 17.0396 100.787 16.2263 99.96C15.4263 99.1333 14.9996 98.0333 14.9463 96.66L14.9263 95.8L14.9463 94.94C14.9996 93.58 15.4329 92.4867 16.2463 91.66C17.0596 90.82 18.1929 90.4 19.6463 90.4C21.0996 90.4 22.2329 90.82 23.0463 91.66C23.8596 92.4867 24.2929 93.58 24.3463 94.94C24.3596 95.0867 24.3663 95.3733 24.3663 95.8C24.3663 96.2267 24.3596 96.5133 24.3463 96.66C24.2929 98.0333 23.8596 99.1333 23.0463 99.96C22.2463 100.787 21.1129 101.2 19.6463 101.2ZM19.6463 99.66C20.4863 99.66 21.1463 99.3933 21.6263 98.86C22.1196 98.3267 22.3863 97.56 22.4263 96.56C22.4396 96.4267 22.4463 96.1733 22.4463 95.8C22.4463 95.4267 22.4396 95.1733 22.4263 95.04C22.3863 94.04 22.1196 93.2733 21.6263 92.74C21.1463 92.2067 20.4863 91.94 19.6463 91.94C18.8063 91.94 18.1396 92.2067 17.6463 92.74C17.1529 93.2733 16.8929 94.04 16.8663 95.04L16.8462 95.8L16.8663 96.56C16.8929 97.56 17.1529 98.3267 17.6463 98.86C18.1396 99.3933 18.8063 99.66 19.6463 99.66ZM34.673 101.2C34.0196 101.2 33.413 101.067 32.853 100.8C32.293 100.533 31.8463 100.173 31.513 99.72C31.193 99.2533 31.033 98.74 31.033 98.18C31.033 97.3 31.393 96.58 32.113 96.02C32.8463 95.4467 33.833 95.0733 35.073 94.9L38.053 94.48V93.9C38.053 92.54 37.273 91.86 35.713 91.86C35.1263 91.86 34.6463 91.9867 34.273 92.24C33.8996 92.48 33.6196 92.7667 33.433 93.1C33.393 93.22 33.3396 93.3067 33.273 93.36C33.2196 93.4133 33.1396 93.44 33.033 93.44H32.173C32.053 93.44 31.9463 93.4 31.853 93.32C31.773 93.2267 31.733 93.12 31.733 93C31.7463 92.68 31.893 92.32 32.173 91.92C32.4663 91.5067 32.913 91.1533 33.513 90.86C34.113 90.5533 34.853 90.4 35.733 90.4C37.2263 90.4 38.2996 90.7533 38.953 91.46C39.6063 92.1533 39.933 93.02 39.933 94.06V100.54C39.933 100.673 39.8863 100.787 39.793 100.88C39.713 100.96 39.6063 101 39.473 101H38.553C38.4196 101 38.3063 100.96 38.213 100.88C38.133 100.787 38.093 100.673 38.093 100.54V99.68C37.7996 100.107 37.373 100.467 36.813 100.76C36.253 101.053 35.5396 101.2 34.673 101.2ZM35.093 99.7C35.9596 99.7 36.6663 99.42 37.213 98.86C37.773 98.2867 38.053 97.4667 38.053 96.4V95.84L35.733 96.18C34.7863 96.3133 34.073 96.54 33.593 96.86C33.113 97.1667 32.873 97.56 32.873 98.04C32.873 98.5733 33.093 98.9867 33.533 99.28C33.973 99.56 34.493 99.7 35.093 99.7ZM47.0081 101.2C45.5815 101.2 44.4615 100.8 43.6481 100C42.8481 99.1867 42.4215 98.0533 42.3681 96.6L42.3481 95.8L42.3681 95C42.4215 93.5467 42.8481 92.42 43.6481 91.62C44.4615 90.8067 45.5815 90.4 47.0081 90.4C47.9681 90.4 48.7815 90.5733 49.4481 90.92C50.1148 91.2667 50.6081 91.6933 50.9281 92.2C51.2615 92.7067 51.4415 93.2133 51.4681 93.72C51.4815 93.8533 51.4415 93.96 51.3481 94.04C51.2548 94.12 51.1415 94.16 51.0081 94.16H50.0481C49.9148 94.16 49.8148 94.1333 49.7481 94.08C49.6815 94.0267 49.6148 93.92 49.5481 93.76C49.3215 93.12 49.0015 92.6667 48.5881 92.4C48.1748 92.12 47.6548 91.98 47.0281 91.98C46.2015 91.98 45.5415 92.24 45.0481 92.76C44.5681 93.2667 44.3081 94.0467 44.2681 95.1L44.2481 95.82L44.2681 96.5C44.3081 97.5667 44.5681 98.3533 45.0481 98.86C45.5281 99.3667 46.1881 99.62 47.0281 99.62C47.6548 99.62 48.1748 99.4867 48.5881 99.22C49.0015 98.94 49.3215 98.48 49.5481 97.84C49.6148 97.68 49.6815 97.5733 49.7481 97.52C49.8148 97.4533 49.9148 97.42 50.0481 97.42H51.0081C51.1415 97.42 51.2548 97.4667 51.3481 97.56C51.4415 97.64 51.4815 97.7467 51.4681 97.88C51.4415 98.3733 51.2615 98.88 50.9281 99.4C50.6081 99.9067 50.1148 100.333 49.4481 100.68C48.7948 101.027 47.9815 101.2 47.0081 101.2ZM57.9033 101C55.7966 101 54.7433 99.8267 54.7433 97.48V92.2H53.1833C53.0499 92.2 52.9366 92.16 52.8433 92.08C52.7633 91.9867 52.7233 91.8733 52.7233 91.74V91.06C52.7233 90.9267 52.7633 90.82 52.8433 90.74C52.9366 90.6467 53.0499 90.6 53.1833 90.6H54.7433V87.26C54.7433 87.1267 54.7833 87.02 54.8633 86.94C54.9566 86.8467 55.0699 86.8 55.2033 86.8H56.1433C56.2766 86.8 56.3833 86.8467 56.4633 86.94C56.5566 87.02 56.6033 87.1267 56.6033 87.26V90.6H59.0833C59.2166 90.6 59.3233 90.6467 59.4033 90.74C59.4966 90.82 59.5433 90.9267 59.5433 91.06V91.74C59.5433 91.8733 59.4966 91.9867 59.4033 92.08C59.3233 92.16 59.2166 92.2 59.0833 92.2H56.6033V97.34C56.6033 98.0067 56.7166 98.5133 56.9433 98.86C57.1699 99.1933 57.5433 99.36 58.0633 99.36H59.2833C59.4166 99.36 59.5233 99.4067 59.6033 99.5C59.6966 99.58 59.7433 99.6867 59.7433 99.82V100.54C59.7433 100.673 59.6966 100.787 59.6033 100.88C59.5233 100.96 59.4166 101 59.2833 101H57.9033ZM61.9558 88.66C61.8224 88.66 61.7091 88.62 61.6158 88.54C61.5358 88.4467 61.4958 88.3333 61.4958 88.2V87.12C61.4958 86.9867 61.5358 86.8733 61.6158 86.78C61.7091 86.6867 61.8224 86.64 61.9558 86.64H63.2158C63.3491 86.64 63.4624 86.6867 63.5558 86.78C63.6491 86.8733 63.6958 86.9867 63.6958 87.12V88.2C63.6958 88.3333 63.6491 88.4467 63.5558 88.54C63.4624 88.62 63.3491 88.66 63.2158 88.66H61.9558ZM62.1158 101C61.9824 101 61.8691 100.96 61.7758 100.88C61.6958 100.787 61.6558 100.673 61.6558 100.54V91.06C61.6558 90.9267 61.6958 90.82 61.7758 90.74C61.8691 90.6467 61.9824 90.6 62.1158 90.6H63.0758C63.2091 90.6 63.3158 90.6467 63.3958 90.74C63.4891 90.82 63.5358 90.9267 63.5358 91.06V100.54C63.5358 100.673 63.4891 100.787 63.3958 100.88C63.3158 100.96 63.2091 101 63.0758 101H62.1158ZM70.1195 101C69.7729 101 69.5262 100.833 69.3795 100.5L65.6795 91.22L65.6395 91.02C65.6395 90.9 65.6795 90.8 65.7595 90.72C65.8395 90.64 65.9395 90.6 66.0595 90.6H67.0195C67.2462 90.6 67.4129 90.7133 67.5195 90.94L70.5595 98.82L73.5995 90.94C73.7195 90.7133 73.8795 90.6 74.0795 90.6H75.0595C75.1662 90.6 75.2595 90.64 75.3395 90.72C75.4329 90.8 75.4795 90.9 75.4795 91.02L75.4395 91.22L71.7195 100.5C71.5729 100.833 71.3262 101 70.9795 101H70.1195ZM77.8738 88.66C77.7404 88.66 77.6271 88.62 77.5338 88.54C77.4538 88.4467 77.4137 88.3333 77.4137 88.2V87.12C77.4137 86.9867 77.4538 86.8733 77.5338 86.78C77.6271 86.6867 77.7404 86.64 77.8738 86.64H79.1338C79.2671 86.64 79.3804 86.6867 79.4738 86.78C79.5671 86.8733 79.6138 86.9867 79.6138 87.12V88.2C79.6138 88.3333 79.5671 88.4467 79.4738 88.54C79.3804 88.62 79.2671 88.66 79.1338 88.66H77.8738ZM78.0338 101C77.9004 101 77.7871 100.96 77.6938 100.88C77.6138 100.787 77.5738 100.673 77.5738 100.54V91.06C77.5738 90.9267 77.6138 90.82 77.6938 90.74C77.7871 90.6467 77.9004 90.6 78.0338 90.6H78.9938C79.1271 90.6 79.2338 90.6467 79.3138 90.74C79.4071 90.82 79.4538 90.9267 79.4538 91.06V100.54C79.4538 100.673 79.4071 100.787 79.3138 100.88C79.2338 100.96 79.1271 101 78.9938 101H78.0338ZM86.4775 101C84.3708 101 83.3175 99.8267 83.3175 97.48V92.2H81.7575C81.6242 92.2 81.5108 92.16 81.4175 92.08C81.3375 91.9867 81.2975 91.8733 81.2975 91.74V91.06C81.2975 90.9267 81.3375 90.82 81.4175 90.74C81.5108 90.6467 81.6242 90.6 81.7575 90.6H83.3175V87.26C83.3175 87.1267 83.3575 87.02 83.4375 86.94C83.5308 86.8467 83.6442 86.8 83.7775 86.8H84.7175C84.8508 86.8 84.9575 86.8467 85.0375 86.94C85.1308 87.02 85.1775 87.1267 85.1775 87.26V90.6H87.6575C87.7908 90.6 87.8975 90.6467 87.9775 90.74C88.0708 90.82 88.1175 90.9267 88.1175 91.06V91.74C88.1175 91.8733 88.0708 91.9867 87.9775 92.08C87.8975 92.16 87.7908 92.2 87.6575 92.2H85.1775V97.34C85.1775 98.0067 85.2908 98.5133 85.5175 98.86C85.7442 99.1933 86.1175 99.36 86.6375 99.36H87.8575C87.9908 99.36 88.0975 99.4067 88.1775 99.5C88.2708 99.58 88.3175 99.6867 88.3175 99.82V100.54C88.3175 100.673 88.2708 100.787 88.1775 100.88C88.0975 100.96 87.9908 101 87.8575 101H86.4775ZM92.05 104.8C91.9433 104.8 91.85 104.76 91.77 104.68C91.69 104.6 91.65 104.507 91.65 104.4C91.65 104.307 91.6833 104.187 91.75 104.04L93.29 100.38L89.47 91.36C89.4033 91.1867 89.37 91.0733 89.37 91.02C89.37 90.9 89.41 90.8 89.49 90.72C89.57 90.64 89.67 90.6 89.79 90.6H90.77C90.9833 90.6 91.1433 90.7133 91.25 90.94L94.29 98.22L97.41 90.94C97.5167 90.7133 97.6833 90.6 97.91 90.6H98.85C98.97 90.6 99.07 90.64 99.15 90.72C99.23 90.8 99.27 90.8933 99.27 91C99.27 91.04 99.2367 91.16 99.17 91.36L93.49 104.46C93.3833 104.687 93.2167 104.8 92.99 104.8H92.05ZM108.54 101.2C107.887 101.2 107.28 101.067 106.72 100.8C106.16 100.533 105.713 100.173 105.38 99.72C105.06 99.2533 104.9 98.74 104.9 98.18C104.9 97.3 105.26 96.58 105.98 96.02C106.713 95.4467 107.7 95.0733 108.94 94.9L111.92 94.48V93.9C111.92 92.54 111.14 91.86 109.58 91.86C108.993 91.86 108.513 91.9867 108.14 92.24C107.767 92.48 107.487 92.7667 107.3 93.1C107.26 93.22 107.207 93.3067 107.14 93.36C107.087 93.4133 107.007 93.44 106.9 93.44H106.04C105.92 93.44 105.813 93.4 105.72 93.32C105.64 93.2267 105.6 93.12 105.6 93C105.613 92.68 105.76 92.32 106.04 91.92C106.333 91.5067 106.78 91.1533 107.38 90.86C107.98 90.5533 108.72 90.4 109.6 90.4C111.093 90.4 112.167 90.7533 112.82 91.46C113.473 92.1533 113.8 93.02 113.8 94.06V100.54C113.8 100.673 113.753 100.787 113.66 100.88C113.58 100.96 113.473 101 113.34 101H112.42C112.287 101 112.173 100.96 112.08 100.88C112 100.787 111.96 100.673 111.96 100.54V99.68C111.667 100.107 111.24 100.467 110.68 100.76C110.12 101.053 109.407 101.2 108.54 101.2ZM108.96 99.7C109.827 99.7 110.533 99.42 111.08 98.86C111.64 98.2867 111.92 97.4667 111.92 96.4V95.84L109.6 96.18C108.653 96.3133 107.94 96.54 107.46 96.86C106.98 97.1667 106.74 97.56 106.74 98.04C106.74 98.5733 106.96 98.9867 107.4 99.28C107.84 99.56 108.36 99.7 108.96 99.7ZM120.275 101.2C119.342 101.2 118.555 101.053 117.915 100.76C117.289 100.453 116.815 100.107 116.495 99.72C116.189 99.3333 116.035 99.0133 116.035 98.76C116.035 98.6267 116.082 98.5267 116.175 98.46C116.282 98.38 116.389 98.34 116.495 98.34H117.395C117.529 98.34 117.649 98.4067 117.755 98.54C118.075 98.9133 118.422 99.2067 118.795 99.42C119.169 99.6333 119.669 99.74 120.295 99.74C120.989 99.74 121.549 99.6067 121.975 99.34C122.415 99.06 122.635 98.68 122.635 98.2C122.635 97.88 122.542 97.62 122.355 97.42C122.182 97.2067 121.875 97.0267 121.435 96.88C121.009 96.72 120.369 96.5467 119.515 96.36C118.355 96.1067 117.529 95.74 117.035 95.26C116.555 94.78 116.315 94.16 116.315 93.4C116.315 92.8933 116.462 92.4133 116.755 91.96C117.062 91.4933 117.502 91.12 118.075 90.84C118.662 90.5467 119.362 90.4 120.175 90.4C121.029 90.4 121.755 90.54 122.355 90.82C122.955 91.1 123.402 91.4333 123.695 91.82C124.002 92.1933 124.155 92.5067 124.155 92.76C124.155 92.88 124.109 92.98 124.015 93.06C123.935 93.14 123.835 93.18 123.715 93.18H122.875C122.715 93.18 122.582 93.1133 122.475 92.98C122.262 92.7267 122.075 92.5333 121.915 92.4C121.769 92.2533 121.549 92.1267 121.255 92.02C120.975 91.9133 120.615 91.86 120.175 91.86C119.535 91.86 119.042 92 118.695 92.28C118.349 92.5467 118.175 92.9 118.175 93.34C118.175 93.62 118.249 93.86 118.395 94.06C118.542 94.2467 118.822 94.42 119.235 94.58C119.662 94.74 120.275 94.9067 121.075 95.08C122.342 95.3467 123.235 95.7333 123.755 96.24C124.289 96.7333 124.555 97.3667 124.555 98.14C124.555 98.7133 124.389 99.2333 124.055 99.7C123.722 100.167 123.229 100.533 122.575 100.8C121.935 101.067 121.169 101.2 120.275 101.2ZM130.471 101.2C129.537 101.2 128.751 101.053 128.111 100.76C127.484 100.453 127.011 100.107 126.691 99.72C126.384 99.3333 126.231 99.0133 126.231 98.76C126.231 98.6267 126.277 98.5267 126.371 98.46C126.477 98.38 126.584 98.34 126.691 98.34H127.591C127.724 98.34 127.844 98.4067 127.951 98.54C128.271 98.9133 128.617 99.2067 128.991 99.42C129.364 99.6333 129.864 99.74 130.491 99.74C131.184 99.74 131.744 99.6067 132.171 99.34C132.611 99.06 132.831 98.68 132.831 98.2C132.831 97.88 132.737 97.62 132.551 97.42C132.377 97.2067 132.071 97.0267 131.631 96.88C131.204 96.72 130.564 96.5467 129.711 96.36C128.551 96.1067 127.724 95.74 127.231 95.26C126.751 94.78 126.511 94.16 126.511 93.4C126.511 92.8933 126.657 92.4133 126.951 91.96C127.257 91.4933 127.697 91.12 128.271 90.84C128.857 90.5467 129.557 90.4 130.371 90.4C131.224 90.4 131.951 90.54 132.551 90.82C133.151 91.1 133.597 91.4333 133.891 91.82C134.197 92.1933 134.351 92.5067 134.351 92.76C134.351 92.88 134.304 92.98 134.211 93.06C134.131 93.14 134.031 93.18 133.911 93.18H133.071C132.911 93.18 132.777 93.1133 132.671 92.98C132.457 92.7267 132.271 92.5333 132.111 92.4C131.964 92.2533 131.744 92.1267 131.451 92.02C131.171 91.9133 130.811 91.86 130.371 91.86C129.731 91.86 129.237 92 128.891 92.28C128.544 92.5467 128.371 92.9 128.371 93.34C128.371 93.62 128.444 93.86 128.591 94.06C128.737 94.2467 129.017 94.42 129.431 94.58C129.857 94.74 130.471 94.9067 131.271 95.08C132.537 95.3467 133.431 95.7333 133.951 96.24C134.484 96.7333 134.751 97.3667 134.751 98.14C134.751 98.7133 134.584 99.2333 134.251 99.7C133.917 100.167 133.424 100.533 132.771 100.8C132.131 101.067 131.364 101.2 130.471 101.2ZM137.366 88.66C137.233 88.66 137.119 88.62 137.026 88.54C136.946 88.4467 136.906 88.3333 136.906 88.2V87.12C136.906 86.9867 136.946 86.8733 137.026 86.78C137.119 86.6867 137.233 86.64 137.366 86.64H138.626C138.759 86.64 138.873 86.6867 138.966 86.78C139.059 86.8733 139.106 86.9867 139.106 87.12V88.2C139.106 88.3333 139.059 88.4467 138.966 88.54C138.873 88.62 138.759 88.66 138.626 88.66H137.366ZM137.526 101C137.393 101 137.279 100.96 137.186 100.88C137.106 100.787 137.066 100.673 137.066 100.54V91.06C137.066 90.9267 137.106 90.82 137.186 90.74C137.279 90.6467 137.393 90.6 137.526 90.6H138.486C138.619 90.6 138.726 90.6467 138.806 90.74C138.899 90.82 138.946 90.9267 138.946 91.06V100.54C138.946 100.673 138.899 100.787 138.806 100.88C138.726 100.96 138.619 101 138.486 101H137.526ZM146.17 105.4C145.076 105.4 144.196 105.213 143.53 104.84C142.863 104.48 142.39 104.067 142.11 103.6C141.83 103.133 141.676 102.713 141.65 102.34C141.636 102.207 141.676 102.093 141.77 102C141.876 101.907 141.99 101.86 142.11 101.86H143.07C143.19 101.86 143.29 101.887 143.37 101.94C143.45 102.007 143.516 102.12 143.57 102.28C143.73 102.707 143.99 103.073 144.35 103.38C144.723 103.7 145.296 103.86 146.07 103.86C147.056 103.86 147.783 103.647 148.25 103.22C148.716 102.807 148.95 102.067 148.95 101V99.64C148.603 100.08 148.163 100.433 147.63 100.7C147.096 100.953 146.463 101.08 145.73 101.08C144.316 101.08 143.256 100.633 142.55 99.74C141.856 98.8333 141.49 97.6867 141.45 96.3L141.43 95.74L141.45 95.2C141.49 93.8267 141.863 92.6867 142.57 91.78C143.276 90.86 144.33 90.4 145.73 90.4C147.13 90.4 148.223 90.9133 149.01 91.94V91.08C149.01 90.9467 149.05 90.8333 149.13 90.74C149.223 90.6467 149.336 90.6 149.47 90.6H150.39C150.523 90.6 150.636 90.6467 150.73 90.74C150.823 90.8333 150.87 90.9467 150.87 91.08V100.78C150.87 103.86 149.303 105.4 146.17 105.4ZM146.13 99.48C147.036 99.48 147.723 99.18 148.19 98.58C148.656 97.98 148.91 97.2667 148.95 96.44C148.963 96.32 148.97 96.0867 148.97 95.74C148.97 95.4067 148.963 95.18 148.95 95.06C148.91 94.2333 148.656 93.52 148.19 92.92C147.736 92.32 147.05 92.02 146.13 92.02C145.183 92.02 144.496 92.3133 144.07 92.9C143.643 93.4867 143.41 94.26 143.37 95.22L143.35 95.74L143.37 96.28C143.41 97.2267 143.643 98 144.07 98.6C144.496 99.1867 145.183 99.48 146.13 99.48ZM154.303 101C154.17 101 154.057 100.96 153.963 100.88C153.883 100.787 153.843 100.673 153.843 100.54V91.06C153.843 90.9267 153.883 90.82 153.963 90.74C154.057 90.6467 154.17 90.6 154.303 90.6H155.243C155.377 90.6 155.483 90.6467 155.563 90.74C155.657 90.82 155.703 90.9267 155.703 91.06V91.94C156.09 91.4467 156.543 91.0667 157.063 90.8C157.597 90.5333 158.257 90.4 159.043 90.4C160.323 90.4 161.317 90.8133 162.023 91.64C162.743 92.4533 163.103 93.54 163.103 94.9V100.54C163.103 100.673 163.057 100.787 162.963 100.88C162.883 100.96 162.777 101 162.643 101H161.643C161.51 101 161.397 100.96 161.303 100.88C161.223 100.787 161.183 100.673 161.183 100.54V95C161.183 94.0533 160.95 93.32 160.483 92.8C160.03 92.28 159.37 92.02 158.503 92.02C157.663 92.02 156.997 92.2867 156.503 92.82C156.01 93.34 155.763 94.0667 155.763 95V100.54C155.763 100.673 155.717 100.787 155.623 100.88C155.543 100.96 155.437 101 155.303 101H154.303ZM170.132 101.2C168.759 101.2 167.659 100.78 166.832 99.94C166.019 99.0867 165.572 97.9267 165.492 96.46L165.472 95.78L165.492 95.12C165.586 93.68 166.039 92.5333 166.852 91.68C167.679 90.8267 168.766 90.4 170.112 90.4C171.592 90.4 172.739 90.8733 173.552 91.82C174.366 92.7533 174.772 94.02 174.772 95.62V95.96C174.772 96.0933 174.726 96.2067 174.632 96.3C174.552 96.38 174.446 96.42 174.312 96.42H167.392V96.6C167.432 97.4667 167.692 98.2067 168.172 98.82C168.666 99.42 169.312 99.72 170.112 99.72C170.726 99.72 171.226 99.6 171.612 99.36C172.012 99.1067 172.306 98.8467 172.492 98.58C172.612 98.42 172.699 98.3267 172.752 98.3C172.819 98.26 172.932 98.24 173.092 98.24H174.072C174.192 98.24 174.292 98.2733 174.372 98.34C174.452 98.4067 174.492 98.5 174.492 98.62C174.492 98.9133 174.306 99.2667 173.932 99.68C173.572 100.093 173.059 100.453 172.392 100.76C171.739 101.053 170.986 101.2 170.132 101.2ZM172.872 95.04V94.98C172.872 94.06 172.619 93.3133 172.112 92.74C171.619 92.1533 170.952 91.86 170.112 91.86C169.272 91.86 168.606 92.1533 168.112 92.74C167.632 93.3133 167.392 94.06 167.392 94.98V95.04H172.872ZM180.964 101.2C179.577 101.2 178.53 100.747 177.824 99.84C177.117 98.9333 176.744 97.7867 176.704 96.4L176.684 95.8L176.704 95.2C176.744 93.8267 177.117 92.6867 177.824 91.78C178.53 90.86 179.577 90.4 180.964 90.4C182.337 90.4 183.417 90.8867 184.204 91.86V87.26C184.204 87.1267 184.244 87.02 184.324 86.94C184.417 86.8467 184.53 86.8 184.664 86.8H185.624C185.757 86.8 185.864 86.8467 185.944 86.94C186.037 87.02 186.084 87.1267 186.084 87.26V100.54C186.084 100.673 186.037 100.787 185.944 100.88C185.864 100.96 185.757 101 185.624 101H184.724C184.59 101 184.477 100.96 184.384 100.88C184.304 100.787 184.264 100.673 184.264 100.54V99.7C183.49 100.7 182.39 101.2 180.964 101.2ZM181.384 99.58C182.304 99.58 182.99 99.28 183.444 98.68C183.91 98.0667 184.164 97.34 184.204 96.5C184.217 96.3533 184.224 96.1 184.224 95.74C184.224 95.3667 184.217 95.1067 184.204 94.96C184.177 94.1733 183.924 93.4867 183.444 92.9C182.964 92.3133 182.277 92.02 181.384 92.02C180.437 92.02 179.744 92.3133 179.304 92.9C178.877 93.4867 178.644 94.26 178.604 95.22L178.584 95.8C178.584 98.32 179.517 99.58 181.384 99.58ZM195.234 104.8C195.127 104.8 195.034 104.76 194.954 104.68C194.874 104.6 194.834 104.507 194.834 104.4C194.834 104.307 194.867 104.187 194.934 104.04L196.474 100.38L192.654 91.36C192.587 91.1867 192.554 91.0733 192.554 91.02C192.554 90.9 192.594 90.8 192.674 90.72C192.754 90.64 192.854 90.6 192.974 90.6H193.954C194.167 90.6 194.327 90.7133 194.434 90.94L197.474 98.22L200.594 90.94C200.7 90.7133 200.867 90.6 201.094 90.6H202.034C202.154 90.6 202.254 90.64 202.334 90.72C202.414 90.8 202.454 90.8933 202.454 91C202.454 91.04 202.42 91.16 202.354 91.36L196.674 104.46C196.567 104.687 196.4 104.8 196.174 104.8H195.234ZM208.257 101.2C206.884 101.2 205.784 100.78 204.957 99.94C204.144 99.0867 203.697 97.9267 203.617 96.46L203.597 95.78L203.617 95.12C203.711 93.68 204.164 92.5333 204.977 91.68C205.804 90.8267 206.891 90.4 208.237 90.4C209.717 90.4 210.864 90.8733 211.677 91.82C212.491 92.7533 212.897 94.02 212.897 95.62V95.96C212.897 96.0933 212.851 96.2067 212.757 96.3C212.677 96.38 212.571 96.42 212.437 96.42H205.517V96.6C205.557 97.4667 205.817 98.2067 206.297 98.82C206.791 99.42 207.437 99.72 208.237 99.72C208.851 99.72 209.351 99.6 209.737 99.36C210.137 99.1067 210.431 98.8467 210.617 98.58C210.737 98.42 210.824 98.3267 210.877 98.3C210.944 98.26 211.057 98.24 211.217 98.24H212.197C212.317 98.24 212.417 98.2733 212.497 98.34C212.577 98.4067 212.617 98.5 212.617 98.62C212.617 98.9133 212.431 99.2667 212.057 99.68C211.697 100.093 211.184 100.453 210.517 100.76C209.864 101.053 209.111 101.2 208.257 101.2ZM210.997 95.04V94.98C210.997 94.06 210.744 93.3133 210.237 92.74C209.744 92.1533 209.077 91.86 208.237 91.86C207.397 91.86 206.731 92.1533 206.237 92.74C205.757 93.3133 205.517 94.06 205.517 94.98V95.04H210.997ZM219.29 101C217.183 101 216.13 99.8267 216.13 97.48V92.2H214.57C214.437 92.2 214.323 92.16 214.23 92.08C214.15 91.9867 214.11 91.8733 214.11 91.74V91.06C214.11 90.9267 214.15 90.82 214.23 90.74C214.323 90.6467 214.437 90.6 214.57 90.6H216.13V87.26C216.13 87.1267 216.17 87.02 216.25 86.94C216.343 86.8467 216.457 86.8 216.59 86.8H217.53C217.663 86.8 217.77 86.8467 217.85 86.94C217.943 87.02 217.99 87.1267 217.99 87.26V90.6H220.47C220.603 90.6 220.71 90.6467 220.79 90.74C220.883 90.82 220.93 90.9267 220.93 91.06V91.74C220.93 91.8733 220.883 91.9867 220.79 92.08C220.71 92.16 220.603 92.2 220.47 92.2H217.99V97.34C217.99 98.0067 218.103 98.5133 218.33 98.86C218.557 99.1933 218.93 99.36 219.45 99.36H220.67C220.803 99.36 220.91 99.4067 220.99 99.5C221.083 99.58 221.13 99.6867 221.13 99.82V100.54C221.13 100.673 221.083 100.787 220.99 100.88C220.91 100.96 220.803 101 220.67 101H219.29ZM223.363 101C223.229 101 223.116 100.96 223.023 100.88C222.943 100.787 222.903 100.673 222.903 100.54V99.1C222.903 98.9667 222.943 98.86 223.023 98.78C223.116 98.6867 223.229 98.64 223.363 98.64H224.803C224.936 98.64 225.049 98.6867 225.143 98.78C225.236 98.86 225.283 98.9667 225.283 99.1V100.54C225.283 100.673 225.236 100.787 225.143 100.88C225.049 100.96 224.936 101 224.803 101H223.363ZM228.582 97.68C228.448 97.68 228.335 97.64 228.242 97.56C228.162 97.4667 228.122 97.3533 228.122 97.22V87.46C228.122 87.3267 228.162 87.22 228.242 87.14C228.335 87.0467 228.448 87 228.582 87H229.522C229.655 87 229.762 87.0467 229.842 87.14C229.935 87.22 229.982 87.3267 229.982 87.46V97.22C229.982 97.3533 229.935 97.4667 229.842 97.56C229.762 97.64 229.655 97.68 229.522 97.68H228.582ZM228.402 101C228.268 101 228.155 100.96 228.062 100.88C227.982 100.787 227.942 100.673 227.942 100.54V99.28C227.942 99.1467 227.982 99.0333 228.062 98.94C228.155 98.8467 228.268 98.8 228.402 98.8H229.682C229.815 98.8 229.922 98.8467 230.002 98.94C230.095 99.0333 230.142 99.1467 230.142 99.28V100.54C230.142 100.673 230.095 100.787 230.002 100.88C229.922 100.96 229.815 101 229.682 101H228.402Z" fill="#949EAA"/>
<path d="M111.31 66.1447C103.427 66.1447 97.0137 59.731 97.0137 51.8481C97.0137 48.0408 98.4961 44.4578 101.186 41.7591C101.615 41.328 102.314 41.3302 102.743 41.7569C103.172 42.1858 103.172 42.883 102.746 43.3119C100.467 45.595 99.2132 48.628 99.2132 51.8481C99.2132 58.5191 104.641 63.9452 111.31 63.9452C117.979 63.9452 123.407 58.5191 123.407 51.8481C123.407 45.1771 117.979 39.7509 111.31 39.7509C109.604 39.7509 107.956 40.0985 106.412 40.7847C105.856 41.0288 105.209 40.7825 104.96 40.226C104.714 39.6718 104.965 39.0207 105.519 38.7744C107.345 37.9628 109.293 37.5515 111.31 37.5515C119.193 37.5515 125.607 43.9651 125.607 51.8481C125.607 59.731 119.193 66.1447 111.31 66.1447Z" fill="#A1AAB5"/>
<path d="M148.703 66.1447C140.82 66.1447 134.406 59.731 134.406 51.8481C134.406 43.9651 140.82 37.5515 148.703 37.5515C151.501 37.5515 154.21 38.3587 156.54 39.8895C157.046 40.2216 157.188 40.9035 156.856 41.4115C156.522 41.9196 155.838 42.0582 155.334 41.7283C153.364 40.435 151.072 39.7531 148.705 39.7531C142.036 39.7531 136.608 45.1793 136.608 51.8503C136.608 58.5213 142.036 63.9474 148.705 63.9474C155.374 63.9474 160.802 58.5213 160.802 51.8503C160.802 51.0805 160.73 50.3107 160.584 49.5584C160.47 48.9624 160.862 48.3861 161.458 48.2717C162.045 48.1596 162.628 48.5489 162.744 49.1449C162.914 50.0313 163 50.9397 163 51.8481C163 59.731 156.586 66.1447 148.703 66.1447Z" fill="#A1AAB5"/>
<path d="M148.701 56.4692C148.408 56.4692 148.129 56.3527 147.922 56.1481L142.056 50.2821C141.627 49.8532 141.627 49.156 142.056 48.7271C142.485 48.2982 143.182 48.2982 143.611 48.7271L148.698 53.8145L159.65 42.861C160.079 42.4321 160.776 42.4321 161.205 42.861C161.634 43.2899 161.634 43.9872 161.205 44.4161L149.475 56.1481C149.273 56.3527 148.993 56.4692 148.701 56.4692Z" fill="#A1AAB5"/>
<path d="M111.308 61.7457C105.851 61.7457 101.41 57.305 101.41 51.8481C101.41 49.2021 102.44 46.7167 104.307 44.8471C104.736 44.4182 105.433 44.4182 105.862 44.8471C106.291 45.276 106.291 45.9732 105.862 46.4021C104.41 47.856 103.61 49.7915 103.61 51.8481C103.61 56.0931 107.063 59.5462 111.308 59.5462C115.553 59.5462 119.006 56.0931 119.006 51.8481C119.006 47.603 115.553 44.1499 111.308 44.1499C110.699 44.1499 110.089 44.2202 109.502 44.361C108.917 44.5018 108.319 44.1345 108.178 43.545C108.037 42.9533 108.402 42.3617 108.994 42.2209C109.748 42.0406 110.525 41.9504 111.308 41.9504C116.765 41.9504 121.206 46.3911 121.206 51.8481C121.206 57.305 116.765 61.7457 111.308 61.7457Z" fill="#A1AAB5"/>
<path d="M111.309 57.3468C108.276 57.3468 105.811 54.879 105.811 51.8481C105.811 50.3722 106.382 48.991 107.416 47.9528C107.845 47.5239 108.542 47.5239 108.971 47.9528C109.4 48.3817 109.4 49.0789 108.971 49.5078C108.351 50.1303 108.01 50.9595 108.01 51.8481C108.01 53.6671 109.49 55.1473 111.309 55.1473C113.128 55.1473 114.608 53.6671 114.608 51.8481C114.608 50.4954 113.806 49.2945 112.561 48.7908C111.998 48.5621 111.727 47.9198 111.958 47.3567C112.185 46.7959 112.829 46.5253 113.39 46.7519C115.466 47.5965 116.808 49.5958 116.808 51.8481C116.808 54.8812 114.342 57.3468 111.309 57.3468Z" fill="#A1AAB5"/>
<path d="M111.311 52.9478C111.029 52.9478 110.748 52.84 110.532 52.6267L99.5346 41.6293C99.1057 41.2004 99.1057 40.5031 99.5346 40.0742C99.9635 39.6453 100.661 39.6453 101.09 40.0742L112.087 51.0717C112.516 51.5006 112.516 52.1978 112.087 52.6267C111.874 52.84 111.592 52.9478 111.311 52.9478Z" fill="#A1AAB5"/>
<path d="M150.396 28.7469H147.009C146.495 28.7469 146.046 28.3884 145.936 27.8825L145.397 25.4301C144.673 25.2101 143.967 24.9154 143.281 24.5525L141.156 25.9118C140.721 26.1889 140.151 26.1273 139.786 25.7622L137.389 23.3626C137.021 22.9953 136.962 22.4234 137.244 21.9879L138.614 19.8742C138.244 19.1967 137.945 18.4907 137.723 17.7583L135.271 17.2172C134.765 17.1072 134.406 16.6607 134.406 16.1439V12.7567C134.406 12.2398 134.767 11.7933 135.273 11.6833L137.734 11.1466C137.95 10.4164 138.24 9.71478 138.609 9.04173L137.244 6.93243C136.962 6.49913 137.021 5.92727 137.384 5.55995L139.782 3.14052C140.149 2.77101 140.728 2.70942 141.161 2.99316L143.277 4.36343C143.963 3.98952 144.671 3.69479 145.397 3.48144L145.936 1.02022C146.046 0.516538 146.492 0.155823 147.009 0.155823H150.394C150.911 0.155823 151.358 0.516538 151.468 1.02022L152.007 3.48144C152.735 3.69479 153.445 3.98952 154.131 4.36563L156.247 3.01075C156.685 2.73362 157.252 2.793 157.617 3.16032L160.015 5.55775C160.382 5.92507 160.442 6.49693 160.16 6.93243L158.794 9.04173C159.159 9.70598 159.456 10.4098 159.681 11.1444L162.133 11.6833C162.641 11.7933 163 12.2398 163 12.7567V16.1439C163 16.6607 162.641 17.1072 162.135 17.2172L159.683 17.7583C159.458 18.4907 159.161 19.1989 158.792 19.8742L160.162 21.9879C160.444 22.4234 160.384 22.9953 160.017 23.3626L157.62 25.7622C157.254 26.1273 156.687 26.1889 156.249 25.9118L154.125 24.5525C153.438 24.9154 152.732 25.2101 152.009 25.4301L151.47 27.8825C151.358 28.3884 150.911 28.7469 150.396 28.7469ZM147.896 26.5474H149.51L150.005 24.3083C150.095 23.897 150.414 23.5737 150.821 23.4747C151.778 23.246 152.706 22.8589 153.592 22.3266C153.951 22.1111 154.4 22.1177 154.751 22.342L156.689 23.5803L157.833 22.4366L156.579 20.501C156.348 20.1425 156.344 19.6806 156.57 19.3177C157.107 18.4621 157.499 17.5361 157.73 16.5684C157.829 16.1593 158.15 15.8403 158.563 15.7502L160.8 15.2597V13.6409L158.561 13.1482C158.15 13.058 157.826 12.7413 157.727 12.33C157.494 11.3512 157.105 10.434 156.575 9.6092C156.344 9.24629 156.344 8.77999 156.577 8.41708L157.831 6.48154L156.687 5.3378L154.751 6.58051C154.391 6.80926 153.931 6.81146 153.575 6.58491C152.706 6.03944 151.787 5.65893 150.845 5.45218C150.425 5.3598 150.097 5.03428 150.005 4.61417L149.51 2.35311H147.896L147.401 4.61198C147.308 5.03208 146.983 5.3598 146.561 5.44998C145.617 5.65673 144.698 6.03724 143.831 6.58271C143.47 6.81366 143.006 6.80706 142.65 6.57391L140.717 5.32241L139.571 6.47714L140.827 8.41708C141.06 8.77999 141.06 9.24629 140.829 9.6092C140.292 10.445 139.912 11.3556 139.7 12.3124C139.608 12.7303 139.28 13.058 138.86 13.1482L136.606 13.6431V15.2597L138.845 15.7524C139.258 15.8425 139.579 16.1615 139.678 16.5706C139.909 17.5405 140.301 18.4643 140.838 19.3199C141.066 19.6828 141.062 20.1447 140.829 20.5032L139.575 22.4388L140.719 23.5825L142.657 22.3442C143.008 22.1199 143.459 22.1133 143.816 22.3288C144.7 22.8611 145.63 23.2482 146.587 23.4769C146.996 23.5759 147.313 23.8992 147.403 24.3105L147.896 26.5474Z" fill="#A1AAB5"/>
<path d="M148.702 21.2027C144.978 21.2027 141.949 18.174 141.949 14.4525C141.949 10.7288 144.978 7.70007 148.702 7.70007C152.425 7.70007 155.454 10.7288 155.454 14.4525C155.454 18.174 152.425 21.2027 148.702 21.2027ZM148.702 9.89736C146.19 9.89736 144.149 11.9407 144.149 14.4503C144.149 16.9599 146.192 19.001 148.702 19.001C151.211 19.001 153.255 16.9599 153.255 14.4503C153.255 11.9407 151.213 9.89736 148.702 9.89736Z" fill="#A1AAB5"/>
<path d="M116.897 27.1919C116.616 27.1919 116.334 27.0841 116.119 26.8708C115.69 26.4419 115.69 25.7446 116.119 25.3157L121.567 19.8698C119.809 17.9123 118.912 15.2839 119.009 12.3938C119.092 9.63562 118.065 7.04023 116.121 5.09369C114.005 2.97778 111.084 1.94843 108.108 2.25195C105.126 2.56208 102.453 4.21389 100.773 6.78729C98.5953 10.0931 98.6833 14.4921 100.991 17.7341C103.045 20.655 106.351 22.2343 109.839 21.9593C110.948 21.8801 112.065 22.0165 113.154 22.3662C113.732 22.551 114.051 23.169 113.866 23.7475C113.682 24.326 113.064 24.6493 112.483 24.4601C111.662 24.1962 110.822 24.0972 110.004 24.1522C105.682 24.4887 101.694 22.5598 99.1936 19.0032C96.3694 15.0331 96.2617 9.63782 98.9318 5.58197C100.977 2.45431 104.237 0.443979 107.879 0.0656681C111.526 -0.312643 115.087 0.956458 117.674 3.54085C120.056 5.91849 121.309 9.08795 121.208 12.4642C121.125 14.9122 121.91 17.1029 123.421 18.6337L123.883 19.0736C124.096 19.2782 124.217 19.5597 124.221 19.8544C124.226 20.1513 124.107 20.4351 123.9 20.644L117.676 26.8686C117.46 27.0841 117.179 27.1919 116.897 27.1919Z" fill="#A1AAB5"/>
<path d="M120.011 29.3914C119.131 29.3914 118.306 29.0483 117.682 28.4258L116.124 26.8906C115.915 26.686 115.799 26.4045 115.799 26.1119C115.799 25.8194 115.915 25.5379 116.12 25.3311L122.344 19.1066C122.773 18.6799 123.466 18.6777 123.895 19.1022L125.457 20.6418C126.75 21.9351 126.75 24.0334 125.463 25.3245L122.336 28.4302C121.713 29.0483 120.888 29.3914 120.011 29.3914ZM118.46 26.1031L119.234 26.8664C119.652 27.2887 120.372 27.2865 120.785 26.8708L123.911 23.7673C124.331 23.345 124.333 22.6258 123.908 22.2035L123.13 21.4358L118.46 26.1031Z" fill="#A1AAB5"/>
<path d="M109.122 16.311C108.84 16.311 108.559 16.2033 108.343 15.9899C107.914 15.561 107.914 14.8638 108.343 14.4349L111.453 11.3248C111.882 10.8959 112.579 10.8959 113.008 11.3248C113.437 11.7537 113.437 12.451 113.008 12.8799L109.898 15.9899C109.685 16.2033 109.403 16.311 109.122 16.311Z" fill="#A1AAB5"/>
<path d="M116.899 20.9762C116.618 20.9762 116.336 20.8684 116.121 20.655C112.182 16.7158 111.198 12.5192 111.161 12.3432C111.025 11.7515 111.396 11.1665 111.988 11.0301C112.584 10.8959 113.167 11.2655 113.305 11.8549C113.314 11.8923 114.209 15.6314 117.678 19.0978C118.107 19.5267 118.107 20.2239 117.678 20.6528C117.463 20.8684 117.181 20.9762 116.899 20.9762Z" fill="#A1AAB5"/>
<path d="M122.4 3.27251C121.902 3.27251 121.454 2.93599 121.333 2.43451C121.188 1.84285 121.551 1.24899 122.138 1.10382C126.528 0.0304759 131.228 -0.125687 135.693 0.646331C136.291 0.749707 136.694 1.31937 136.591 1.91763C136.485 2.51589 135.904 2.9096 135.319 2.81282C131.147 2.08919 126.757 2.23656 122.661 3.23952C122.573 3.26372 122.485 3.27251 122.4 3.27251Z" fill="#A1AAB5"/>
<path d="M98.2784 37.5492C97.7219 37.5492 97.2424 37.1269 97.1874 36.5594C97.0709 35.4223 97.0137 34.2764 97.0137 33.1524C97.0137 30.4889 97.3326 27.8385 97.9594 25.2805C98.1024 24.6932 98.6919 24.3325 99.2879 24.4733C99.8774 24.6184 100.24 25.2123 100.093 25.804C99.5101 28.1926 99.2132 30.6648 99.2132 33.1524C99.2132 34.2038 99.2659 35.2749 99.3737 36.3395C99.4353 36.9444 98.9954 37.4832 98.3905 37.5448C98.3532 37.547 98.318 37.5492 98.2784 37.5492Z" fill="#A1AAB5"/>
<path d="M130.007 66.1447C128.109 66.1447 126.196 65.9798 124.322 65.6564C123.724 65.5531 123.321 64.9834 123.424 64.3851C123.53 63.7869 124.108 63.3888 124.696 63.4899C128.197 64.0948 131.818 64.0948 135.319 63.4899C135.909 63.391 136.485 63.7869 136.59 64.3851C136.694 64.9834 136.291 65.5531 135.693 65.6564C133.819 65.982 131.906 66.1447 130.007 66.1447Z" fill="#A1AAB5"/>
<path d="M161.429 39.7487C161.366 39.7487 161.302 39.7443 161.238 39.7333C160.64 39.63 160.239 39.0581 160.345 38.4598C160.649 36.7266 160.8 34.9407 160.8 33.1525C160.8 31.3643 160.649 29.5783 160.345 27.8429C160.239 27.2447 160.64 26.675 161.238 26.5694C161.823 26.4682 162.406 26.862 162.509 27.4646C162.835 29.3254 163 31.2389 163 33.1525C163 35.066 162.835 36.9796 162.509 38.8381C162.417 39.3726 161.953 39.7487 161.429 39.7487Z" fill="#A1AAB5"/>
</svg>
