<svg width="217" height="108" viewBox="0 0 217 108" fill="none" xmlns="http://www.w3.org/2000/svg">
<path d="M2.2 103C2.06667 103 1.95333 102.96 1.86 102.88C1.78 102.787 1.74 102.673 1.74 102.54V89.48C1.74 89.3333 1.78 89.22 1.86 89.14C1.95333 89.0467 2.06667 89 2.2 89H3.12C3.36 89 3.52667 89.0933 3.62 89.28L10.26 99.48V89.48C10.26 89.3333 10.3 89.22 10.38 89.14C10.4733 89.0467 10.5867 89 10.72 89H11.68C11.8267 89 11.94 89.0467 12.02 89.14C12.1133 89.22 12.16 89.3333 12.16 89.48V102.52C12.16 102.653 12.1133 102.767 12.02 102.86C11.94 102.953 11.8333 103 11.7 103H10.74C10.54 103 10.38 102.907 10.26 102.72L3.64 92.62V102.54C3.64 102.673 3.59333 102.787 3.5 102.88C3.40667 102.96 3.29333 103 3.16 103H2.2ZM19.6463 103.2C18.1796 103.2 17.0396 102.787 16.2263 101.96C15.4263 101.133 14.9996 100.033 14.9463 98.66L14.9263 97.8L14.9463 96.94C14.9996 95.58 15.4329 94.4867 16.2463 93.66C17.0596 92.82 18.1929 92.4 19.6463 92.4C21.0996 92.4 22.2329 92.82 23.0463 93.66C23.8596 94.4867 24.2929 95.58 24.3463 96.94C24.3596 97.0867 24.3663 97.3733 24.3663 97.8C24.3663 98.2267 24.3596 98.5133 24.3463 98.66C24.2929 100.033 23.8596 101.133 23.0463 101.96C22.2463 102.787 21.1129 103.2 19.6463 103.2ZM19.6463 101.66C20.4863 101.66 21.1463 101.393 21.6263 100.86C22.1196 100.327 22.3863 99.56 22.4263 98.56C22.4396 98.4267 22.4463 98.1733 22.4463 97.8C22.4463 97.4267 22.4396 97.1733 22.4263 97.04C22.3863 96.04 22.1196 95.2733 21.6263 94.74C21.1463 94.2067 20.4863 93.94 19.6463 93.94C18.8063 93.94 18.1396 94.2067 17.6463 94.74C17.1529 95.2733 16.8929 96.04 16.8663 97.04L16.8462 97.8L16.8663 98.56C16.8929 99.56 17.1529 100.327 17.6463 100.86C18.1396 101.393 18.8063 101.66 19.6463 101.66ZM34.673 103.2C34.0196 103.2 33.413 103.067 32.853 102.8C32.293 102.533 31.8463 102.173 31.513 101.72C31.193 101.253 31.033 100.74 31.033 100.18C31.033 99.3 31.393 98.58 32.113 98.02C32.8463 97.4467 33.833 97.0733 35.073 96.9L38.053 96.48V95.9C38.053 94.54 37.273 93.86 35.713 93.86C35.1263 93.86 34.6463 93.9867 34.273 94.24C33.8996 94.48 33.6196 94.7667 33.433 95.1C33.393 95.22 33.3396 95.3067 33.273 95.36C33.2196 95.4133 33.1396 95.44 33.033 95.44H32.173C32.053 95.44 31.9463 95.4 31.853 95.32C31.773 95.2267 31.733 95.12 31.733 95C31.7463 94.68 31.893 94.32 32.173 93.92C32.4663 93.5067 32.913 93.1533 33.513 92.86C34.113 92.5533 34.853 92.4 35.733 92.4C37.2263 92.4 38.2996 92.7533 38.953 93.46C39.6063 94.1533 39.933 95.02 39.933 96.06V102.54C39.933 102.673 39.8863 102.787 39.793 102.88C39.713 102.96 39.6063 103 39.473 103H38.553C38.4196 103 38.3063 102.96 38.213 102.88C38.133 102.787 38.093 102.673 38.093 102.54V101.68C37.7996 102.107 37.373 102.467 36.813 102.76C36.253 103.053 35.5396 103.2 34.673 103.2ZM35.093 101.7C35.9596 101.7 36.6663 101.42 37.213 100.86C37.773 100.287 38.053 99.4667 38.053 98.4V97.84L35.733 98.18C34.7863 98.3133 34.073 98.54 33.593 98.86C33.113 99.1667 32.873 99.56 32.873 100.04C32.873 100.573 33.093 100.987 33.533 101.28C33.973 101.56 34.493 101.7 35.093 101.7ZM43.2681 103C43.1348 103 43.0215 102.96 42.9281 102.88C42.8481 102.787 42.8081 102.673 42.8081 102.54V93.06C42.8081 92.9267 42.8481 92.82 42.9281 92.74C43.0215 92.6467 43.1348 92.6 43.2681 92.6H44.2081C44.3415 92.6 44.4481 92.6467 44.5281 92.74C44.6215 92.82 44.6681 92.9267 44.6681 93.06V93.94C45.0548 93.4467 45.5081 93.0667 46.0281 92.8C46.5615 92.5333 47.2215 92.4 48.0081 92.4C49.2881 92.4 50.2815 92.8133 50.9881 93.64C51.7081 94.4533 52.0681 95.54 52.0681 96.9V102.54C52.0681 102.673 52.0215 102.787 51.9281 102.88C51.8481 102.96 51.7415 103 51.6081 103H50.6081C50.4748 103 50.3615 102.96 50.2681 102.88C50.1881 102.787 50.1481 102.673 50.1481 102.54V97C50.1481 96.0533 49.9148 95.32 49.4481 94.8C48.9948 94.28 48.3348 94.02 47.4681 94.02C46.6281 94.02 45.9615 94.2867 45.4681 94.82C44.9748 95.34 44.7281 96.0667 44.7281 97V102.54C44.7281 102.673 44.6815 102.787 44.5881 102.88C44.5081 102.96 44.4015 103 44.2681 103H43.2681ZM55.397 103C55.2637 103 55.1504 102.96 55.057 102.88C54.977 102.787 54.937 102.673 54.937 102.54V93.06C54.937 92.9267 54.977 92.82 55.057 92.74C55.1504 92.6467 55.2637 92.6 55.397 92.6H56.337C56.4704 92.6 56.577 92.6467 56.657 92.74C56.7504 92.82 56.797 92.9267 56.797 93.06V93.94C57.1837 93.4467 57.637 93.0667 58.157 92.8C58.6904 92.5333 59.3504 92.4 60.137 92.4C61.417 92.4 62.4104 92.8133 63.117 93.64C63.837 94.4533 64.197 95.54 64.197 96.9V102.54C64.197 102.673 64.1504 102.787 64.057 102.88C63.977 102.96 63.8704 103 63.737 103H62.737C62.6037 103 62.4904 102.96 62.397 102.88C62.317 102.787 62.277 102.673 62.277 102.54V97C62.277 96.0533 62.0437 95.32 61.577 94.8C61.1237 94.28 60.4637 94.02 59.597 94.02C58.757 94.02 58.0904 94.2867 57.597 94.82C57.1037 95.34 56.857 96.0667 56.857 97V102.54C56.857 102.673 56.8104 102.787 56.717 102.88C56.637 102.96 56.5304 103 56.397 103H55.397ZM71.3259 103.2C69.8593 103.2 68.7193 102.787 67.9059 101.96C67.1059 101.133 66.6793 100.033 66.6259 98.66L66.6059 97.8L66.6259 96.94C66.6793 95.58 67.1126 94.4867 67.9259 93.66C68.7393 92.82 69.8726 92.4 71.3259 92.4C72.7793 92.4 73.9126 92.82 74.7259 93.66C75.5393 94.4867 75.9726 95.58 76.0259 96.94C76.0393 97.0867 76.0459 97.3733 76.0459 97.8C76.0459 98.2267 76.0393 98.5133 76.0259 98.66C75.9726 100.033 75.5393 101.133 74.7259 101.96C73.9259 102.787 72.7926 103.2 71.3259 103.2ZM71.3259 101.66C72.1659 101.66 72.8259 101.393 73.3059 100.86C73.7993 100.327 74.0659 99.56 74.1059 98.56C74.1193 98.4267 74.1259 98.1733 74.1259 97.8C74.1259 97.4267 74.1193 97.1733 74.1059 97.04C74.0659 96.04 73.7993 95.2733 73.3059 94.74C72.8259 94.2067 72.1659 93.94 71.3259 93.94C70.4859 93.94 69.8193 94.2067 69.3259 94.74C68.8326 95.2733 68.5726 96.04 68.5459 97.04L68.5259 97.8L68.5459 98.56C68.5726 99.56 68.8326 100.327 69.3259 100.86C69.8193 101.393 70.4859 101.66 71.3259 101.66ZM82.4303 103.2C81.1636 103.2 80.1836 102.793 79.4903 101.98C78.797 101.153 78.4503 100.06 78.4503 98.7V93.06C78.4503 92.9267 78.4903 92.82 78.5703 92.74C78.6636 92.6467 78.777 92.6 78.9103 92.6H79.9103C80.0436 92.6 80.1503 92.6467 80.2303 92.74C80.3236 92.82 80.3703 92.9267 80.3703 93.06V98.6C80.3703 100.587 81.237 101.58 82.9703 101.58C83.8103 101.58 84.477 101.32 84.9703 100.8C85.4636 100.267 85.7103 99.5333 85.7103 98.6V93.06C85.7103 92.9267 85.7503 92.82 85.8303 92.74C85.9236 92.6467 86.037 92.6 86.1703 92.6H87.1703C87.3036 92.6 87.4103 92.6467 87.4903 92.74C87.5703 92.82 87.6103 92.9267 87.6103 93.06V102.54C87.6103 102.673 87.5703 102.787 87.4903 102.88C87.4103 102.96 87.3036 103 87.1703 103H86.2303C86.097 103 85.9836 102.96 85.8903 102.88C85.8103 102.787 85.7703 102.673 85.7703 102.54V101.66C85.397 102.167 84.9436 102.553 84.4103 102.82C83.877 103.073 83.217 103.2 82.4303 103.2ZM91.0416 103C90.9082 103 90.7949 102.96 90.7016 102.88C90.6216 102.787 90.5816 102.673 90.5816 102.54V93.06C90.5816 92.9267 90.6216 92.82 90.7016 92.74C90.7949 92.6467 90.9082 92.6 91.0416 92.6H91.9816C92.1149 92.6 92.2216 92.6467 92.3016 92.74C92.3949 92.82 92.4416 92.9267 92.4416 93.06V93.94C92.8282 93.4467 93.2816 93.0667 93.8016 92.8C94.3349 92.5333 94.9949 92.4 95.7816 92.4C97.0616 92.4 98.0549 92.8133 98.7616 93.64C99.4816 94.4533 99.8416 95.54 99.8416 96.9V102.54C99.8416 102.673 99.7949 102.787 99.7016 102.88C99.6216 102.96 99.5149 103 99.3816 103H98.3816C98.2482 103 98.1349 102.96 98.0416 102.88C97.9616 102.787 97.9216 102.673 97.9216 102.54V97C97.9216 96.0533 97.6882 95.32 97.2216 94.8C96.7682 94.28 96.1082 94.02 95.2416 94.02C94.4016 94.02 93.7349 94.2867 93.2416 94.82C92.7482 95.34 92.5016 96.0667 92.5016 97V102.54C92.5016 102.673 92.4549 102.787 92.3616 102.88C92.2816 102.96 92.1749 103 92.0416 103H91.0416ZM106.91 103.2C105.484 103.2 104.364 102.8 103.55 102C102.75 101.187 102.324 100.053 102.27 98.6L102.25 97.8L102.27 97C102.324 95.5467 102.75 94.42 103.55 93.62C104.364 92.8067 105.484 92.4 106.91 92.4C107.87 92.4 108.684 92.5733 109.35 92.92C110.017 93.2667 110.51 93.6933 110.83 94.2C111.164 94.7067 111.344 95.2133 111.37 95.72C111.384 95.8533 111.344 95.96 111.25 96.04C111.157 96.12 111.044 96.16 110.91 96.16H109.95C109.817 96.16 109.717 96.1333 109.65 96.08C109.584 96.0267 109.517 95.92 109.45 95.76C109.224 95.12 108.904 94.6667 108.49 94.4C108.077 94.12 107.557 93.98 106.93 93.98C106.104 93.98 105.444 94.24 104.95 94.76C104.47 95.2667 104.21 96.0467 104.17 97.1L104.15 97.82L104.17 98.5C104.21 99.5667 104.47 100.353 104.95 100.86C105.43 101.367 106.09 101.62 106.93 101.62C107.557 101.62 108.077 101.487 108.49 101.22C108.904 100.94 109.224 100.48 109.45 99.84C109.517 99.68 109.584 99.5733 109.65 99.52C109.717 99.4533 109.817 99.42 109.95 99.42H110.91C111.044 99.42 111.157 99.4667 111.25 99.56C111.344 99.64 111.384 99.7467 111.37 99.88C111.344 100.373 111.164 100.88 110.83 101.4C110.51 101.907 110.017 102.333 109.35 102.68C108.697 103.027 107.884 103.2 106.91 103.2ZM117.906 103.2C116.532 103.2 115.432 102.78 114.606 101.94C113.792 101.087 113.346 99.9267 113.266 98.46L113.246 97.78L113.266 97.12C113.359 95.68 113.812 94.5333 114.626 93.68C115.452 92.8267 116.539 92.4 117.886 92.4C119.366 92.4 120.512 92.8733 121.326 93.82C122.139 94.7533 122.546 96.02 122.546 97.62V97.96C122.546 98.0933 122.499 98.2067 122.406 98.3C122.326 98.38 122.219 98.42 122.086 98.42H115.166V98.6C115.206 99.4667 115.466 100.207 115.946 100.82C116.439 101.42 117.086 101.72 117.886 101.72C118.499 101.72 118.999 101.6 119.386 101.36C119.786 101.107 120.079 100.847 120.266 100.58C120.386 100.42 120.472 100.327 120.526 100.3C120.592 100.26 120.706 100.24 120.866 100.24H121.846C121.966 100.24 122.066 100.273 122.146 100.34C122.226 100.407 122.266 100.5 122.266 100.62C122.266 100.913 122.079 101.267 121.706 101.68C121.346 102.093 120.832 102.453 120.166 102.76C119.512 103.053 118.759 103.2 117.906 103.2ZM120.646 97.04V96.98C120.646 96.06 120.392 95.3133 119.886 94.74C119.392 94.1533 118.726 93.86 117.886 93.86C117.046 93.86 116.379 94.1533 115.886 94.74C115.406 95.3133 115.166 96.06 115.166 96.98V97.04H120.646ZM125.397 103C125.264 103 125.15 102.96 125.057 102.88C124.977 102.787 124.937 102.673 124.937 102.54V93.06C124.937 92.9267 124.977 92.82 125.057 92.74C125.15 92.6467 125.264 92.6 125.397 92.6H126.297C126.43 92.6 126.537 92.6467 126.617 92.74C126.71 92.82 126.757 92.9267 126.757 93.06V93.76C127.45 92.8533 128.417 92.4 129.657 92.4C131.137 92.4 132.184 93.0133 132.797 94.24C133.117 93.68 133.57 93.2333 134.157 92.9C134.744 92.5667 135.404 92.4 136.137 92.4C137.23 92.4 138.124 92.7733 138.817 93.52C139.51 94.2667 139.857 95.3467 139.857 96.76V102.54C139.857 102.673 139.81 102.787 139.717 102.88C139.637 102.96 139.53 103 139.397 103H138.457C138.324 103 138.21 102.96 138.117 102.88C138.037 102.787 137.997 102.673 137.997 102.54V96.94C137.997 95.9 137.777 95.1533 137.337 94.7C136.91 94.2467 136.344 94.02 135.637 94.02C135.01 94.02 134.47 94.2533 134.017 94.72C133.564 95.1733 133.337 95.9133 133.337 96.94V102.54C133.337 102.673 133.29 102.787 133.197 102.88C133.117 102.96 133.01 103 132.877 103H131.937C131.804 103 131.69 102.96 131.597 102.88C131.517 102.787 131.477 102.673 131.477 102.54V96.94C131.477 95.9 131.25 95.1533 130.797 94.7C130.357 94.2467 129.797 94.02 129.117 94.02C128.49 94.02 127.95 94.2533 127.497 94.72C127.044 95.1733 126.817 95.9067 126.817 96.92V102.54C126.817 102.673 126.77 102.787 126.677 102.88C126.597 102.96 126.49 103 126.357 103H125.397ZM146.87 103.2C145.497 103.2 144.397 102.78 143.57 101.94C142.757 101.087 142.31 99.9267 142.23 98.46L142.21 97.78L142.23 97.12C142.324 95.68 142.777 94.5333 143.59 93.68C144.417 92.8267 145.504 92.4 146.85 92.4C148.33 92.4 149.477 92.8733 150.29 93.82C151.104 94.7533 151.51 96.02 151.51 97.62V97.96C151.51 98.0933 151.464 98.2067 151.37 98.3C151.29 98.38 151.184 98.42 151.05 98.42H144.13V98.6C144.17 99.4667 144.43 100.207 144.91 100.82C145.404 101.42 146.05 101.72 146.85 101.72C147.464 101.72 147.964 101.6 148.35 101.36C148.75 101.107 149.044 100.847 149.23 100.58C149.35 100.42 149.437 100.327 149.49 100.3C149.557 100.26 149.67 100.24 149.83 100.24H150.81C150.93 100.24 151.03 100.273 151.11 100.34C151.19 100.407 151.23 100.5 151.23 100.62C151.23 100.913 151.044 101.267 150.67 101.68C150.31 102.093 149.797 102.453 149.13 102.76C148.477 103.053 147.724 103.2 146.87 103.2ZM149.61 97.04V96.98C149.61 96.06 149.357 95.3133 148.85 94.74C148.357 94.1533 147.69 93.86 146.85 93.86C146.01 93.86 145.344 94.1533 144.85 94.74C144.37 95.3133 144.13 96.06 144.13 96.98V97.04H149.61ZM154.362 103C154.229 103 154.115 102.96 154.022 102.88C153.942 102.787 153.902 102.673 153.902 102.54V93.06C153.902 92.9267 153.942 92.82 154.022 92.74C154.115 92.6467 154.229 92.6 154.362 92.6H155.302C155.435 92.6 155.542 92.6467 155.622 92.74C155.715 92.82 155.762 92.9267 155.762 93.06V93.94C156.149 93.4467 156.602 93.0667 157.122 92.8C157.655 92.5333 158.315 92.4 159.102 92.4C160.382 92.4 161.375 92.8133 162.082 93.64C162.802 94.4533 163.162 95.54 163.162 96.9V102.54C163.162 102.673 163.115 102.787 163.022 102.88C162.942 102.96 162.835 103 162.702 103H161.702C161.569 103 161.455 102.96 161.362 102.88C161.282 102.787 161.242 102.673 161.242 102.54V97C161.242 96.0533 161.009 95.32 160.542 94.8C160.089 94.28 159.429 94.02 158.562 94.02C157.722 94.02 157.055 94.2867 156.562 94.82C156.069 95.34 155.822 96.0667 155.822 97V102.54C155.822 102.673 155.775 102.787 155.682 102.88C155.602 102.96 155.495 103 155.362 103H154.362ZM169.954 103C167.847 103 166.794 101.827 166.794 99.48V94.2H165.234C165.101 94.2 164.987 94.16 164.894 94.08C164.814 93.9867 164.774 93.8733 164.774 93.74V93.06C164.774 92.9267 164.814 92.82 164.894 92.74C164.987 92.6467 165.101 92.6 165.234 92.6H166.794V89.26C166.794 89.1267 166.834 89.02 166.914 88.94C167.007 88.8467 167.121 88.8 167.254 88.8H168.194C168.327 88.8 168.434 88.8467 168.514 88.94C168.607 89.02 168.654 89.1267 168.654 89.26V92.6H171.134C171.267 92.6 171.374 92.6467 171.454 92.74C171.547 92.82 171.594 92.9267 171.594 93.06V93.74C171.594 93.8733 171.547 93.9867 171.454 94.08C171.374 94.16 171.267 94.2 171.134 94.2H168.654V99.34C168.654 100.007 168.767 100.513 168.994 100.86C169.221 101.193 169.594 101.36 170.114 101.36H171.334C171.467 101.36 171.574 101.407 171.654 101.5C171.747 101.58 171.794 101.687 171.794 101.82V102.54C171.794 102.673 171.747 102.787 171.654 102.88C171.574 102.96 171.467 103 171.334 103H169.954ZM179.882 106.8C179.775 106.8 179.682 106.76 179.602 106.68C179.522 106.6 179.482 106.507 179.482 106.4C179.482 106.307 179.515 106.187 179.582 106.04L181.122 102.38L177.302 93.36C177.235 93.1867 177.202 93.0733 177.202 93.02C177.202 92.9 177.242 92.8 177.322 92.72C177.402 92.64 177.502 92.6 177.622 92.6H178.602C178.815 92.6 178.975 92.7133 179.082 92.94L182.122 100.22L185.242 92.94C185.349 92.7133 185.515 92.6 185.742 92.6H186.682C186.802 92.6 186.902 92.64 186.982 92.72C187.062 92.8 187.102 92.8933 187.102 93C187.102 93.04 187.069 93.16 187.002 93.36L181.322 106.46C181.215 106.687 181.049 106.8 180.822 106.8H179.882ZM192.906 103.2C191.532 103.2 190.432 102.78 189.606 101.94C188.792 101.087 188.346 99.9267 188.266 98.46L188.246 97.78L188.266 97.12C188.359 95.68 188.812 94.5333 189.626 93.68C190.452 92.8267 191.539 92.4 192.886 92.4C194.366 92.4 195.512 92.8733 196.326 93.82C197.139 94.7533 197.546 96.02 197.546 97.62V97.96C197.546 98.0933 197.499 98.2067 197.406 98.3C197.326 98.38 197.219 98.42 197.086 98.42H190.166V98.6C190.206 99.4667 190.466 100.207 190.946 100.82C191.439 101.42 192.086 101.72 192.886 101.72C193.499 101.72 193.999 101.6 194.386 101.36C194.786 101.107 195.079 100.847 195.266 100.58C195.386 100.42 195.472 100.327 195.526 100.3C195.592 100.26 195.706 100.24 195.866 100.24H196.846C196.966 100.24 197.066 100.273 197.146 100.34C197.226 100.407 197.266 100.5 197.266 100.62C197.266 100.913 197.079 101.267 196.706 101.68C196.346 102.093 195.832 102.453 195.166 102.76C194.512 103.053 193.759 103.2 192.906 103.2ZM195.646 97.04V96.98C195.646 96.06 195.392 95.3133 194.886 94.74C194.392 94.1533 193.726 93.86 192.886 93.86C192.046 93.86 191.379 94.1533 190.886 94.74C190.406 95.3133 190.166 96.06 190.166 96.98V97.04H195.646ZM203.938 103C201.832 103 200.778 101.827 200.778 99.48V94.2H199.218C199.085 94.2 198.972 94.16 198.878 94.08C198.798 93.9867 198.758 93.8733 198.758 93.74V93.06C198.758 92.9267 198.798 92.82 198.878 92.74C198.972 92.6467 199.085 92.6 199.218 92.6H200.778V89.26C200.778 89.1267 200.818 89.02 200.898 88.94C200.992 88.8467 201.105 88.8 201.238 88.8H202.178C202.312 88.8 202.418 88.8467 202.498 88.94C202.592 89.02 202.638 89.1267 202.638 89.26V92.6H205.118C205.252 92.6 205.358 92.6467 205.438 92.74C205.532 92.82 205.578 92.9267 205.578 93.06V93.74C205.578 93.8733 205.532 93.9867 205.438 94.08C205.358 94.16 205.252 94.2 205.118 94.2H202.638V99.34C202.638 100.007 202.752 100.513 202.978 100.86C203.205 101.193 203.578 101.36 204.098 101.36H205.318C205.452 101.36 205.558 101.407 205.638 101.5C205.732 101.58 205.778 101.687 205.778 101.82V102.54C205.778 102.673 205.732 102.787 205.638 102.88C205.558 102.96 205.452 103 205.318 103H203.938ZM208.011 103C207.878 103 207.764 102.96 207.671 102.88C207.591 102.787 207.551 102.673 207.551 102.54V101.1C207.551 100.967 207.591 100.86 207.671 100.78C207.764 100.687 207.878 100.64 208.011 100.64H209.451C209.584 100.64 209.698 100.687 209.791 100.78C209.884 100.86 209.931 100.967 209.931 101.1V102.54C209.931 102.673 209.884 102.787 209.791 102.88C209.698 102.96 209.584 103 209.451 103H208.011ZM213.23 99.68C213.097 99.68 212.983 99.64 212.89 99.56C212.81 99.4667 212.77 99.3533 212.77 99.22V89.46C212.77 89.3267 212.81 89.22 212.89 89.14C212.983 89.0467 213.097 89 213.23 89H214.17C214.303 89 214.41 89.0467 214.49 89.14C214.583 89.22 214.63 89.3267 214.63 89.46V99.22C214.63 99.3533 214.583 99.4667 214.49 99.56C214.41 99.64 214.303 99.68 214.17 99.68H213.23ZM213.05 103C212.917 103 212.803 102.96 212.71 102.88C212.63 102.787 212.59 102.673 212.59 102.54V101.28C212.59 101.147 212.63 101.033 212.71 100.94C212.803 100.847 212.917 100.8 213.05 100.8H214.33C214.463 100.8 214.57 100.847 214.65 100.94C214.743 101.033 214.79 101.147 214.79 101.28V102.54C214.79 102.673 214.743 102.787 214.65 102.88C214.57 102.96 214.463 103 214.33 103H213.05Z" fill="#949EAA"/>
<path d="M103.26 43.3455C103.932 42.9576 104.162 42.0969 103.775 41.4245C103.386 40.7527 102.526 40.522 101.854 40.9098C101.181 41.2982 100.951 42.1589 101.339 42.8307C101.727 43.5031 102.588 43.7338 103.26 43.3455Z" fill="#A1AAB5"/>
<path d="M97.4978 53.0513L104.58 65.3181C106.108 67.968 109.545 68.949 112.264 67.3774C114.954 65.8229 115.878 62.3858 114.322 59.6936L110.103 52.3855L113.757 50.2761C114.429 49.8872 114.66 49.0275 114.272 48.3552L112.443 45.1878C112.661 45.1455 114.095 44.8643 139.378 39.9045C142.504 39.7347 144.376 36.3164 142.798 33.5835L138.124 25.4888L141.111 20.9652C141.404 20.5202 141.422 19.9484 141.155 19.4869L138.343 14.6156C138.076 14.1542 137.57 13.8839 137.04 13.9152L131.63 14.2399L126.442 5.25307C125.69 3.95119 124.344 3.16292 122.841 3.14424C122.823 3.14369 122.805 3.14369 122.787 3.14369C121.335 3.14369 120.016 3.86659 119.235 5.08882L100.865 28.4908L88.9224 35.3858C84.2252 38.0967 82.5981 44.1227 85.3194 48.8325C87.8056 53.1392 93.0472 54.8333 97.4978 53.0513ZM111.887 61.1004C112.664 62.444 112.204 64.1634 110.857 64.9418C109.505 65.7235 107.783 65.2434 107.015 63.9124L99.984 51.7324L104.855 48.9199C112.993 63.0164 111.756 60.8746 111.887 61.1004ZM108.697 49.9493L107.291 47.5136L109.727 46.1074L111.133 48.543L108.697 49.9493ZM136.342 16.7744L138.285 20.1406L136.552 22.7653L133.202 16.9628L136.342 16.7744ZM121.587 6.63075C121.965 6.01332 122.564 5.9496 122.806 5.95619C123.046 5.95894 123.645 6.03365 124.006 6.65877L140.362 34.9898C140.895 35.9121 140.247 37.0717 139.179 37.098C138.987 37.1024 138.899 37.137 138.408 37.2288L121.106 7.26082C121.469 6.7939 121.516 6.74885 121.587 6.63075ZM119.234 9.64485L135.49 37.8012L110.957 42.6132L103.497 29.6927L119.234 9.64485ZM87.7551 47.4263C87.1377 46.3579 86.8114 45.145 86.8114 43.9178C86.8114 41.4096 88.1594 39.0739 90.3286 37.8215L101.289 31.4934L108.32 43.6717L97.3599 50.0004C94.0019 51.9384 89.6936 50.7837 87.7551 47.4263Z" fill="#A1AAB5"/>
<path d="M98.9038 44.2368C98.5154 43.5644 97.6552 43.3337 96.9829 43.7221L94.5472 45.1283C93.8759 45.5162 93.014 45.2849 92.6262 44.6136C92.2379 43.9413 91.3776 43.7105 90.7053 44.0989C90.0329 44.4873 89.8022 45.3475 90.1906 46.0199C91.348 48.0249 93.9298 48.7318 95.9534 47.564L98.3891 46.1578C99.0615 45.7694 99.2922 44.9097 98.9038 44.2368Z" fill="#A1AAB5"/>
<path d="M153.91 6.15168L146.074 10.5122C145.396 10.8901 145.151 11.7465 145.529 12.4249C145.906 13.1027 146.762 13.3483 147.442 12.9698L155.278 8.60932C155.956 8.23139 156.2 7.37501 155.822 6.6966C155.445 6.01765 154.589 5.77375 153.91 6.15168Z" fill="#A1AAB5"/>
<path d="M153.089 20.7163L147.656 19.2606C146.905 19.0596 146.134 19.5045 145.933 20.2549C145.732 21.0053 146.177 21.7759 146.928 21.977L152.362 23.4327C153.116 23.6354 153.884 23.1833 154.084 22.4384C154.285 21.6881 153.839 20.9168 153.089 20.7163Z" fill="#A1AAB5"/>
<path d="M139.433 1.04256L137.976 6.4764C137.775 7.22676 138.22 7.99745 138.97 8.19905C139.72 8.39955 140.491 7.95571 140.693 7.20479L142.15 1.77095C142.351 1.02059 141.906 0.249348 141.155 0.0482982C140.406 -0.152752 139.634 0.292195 139.433 1.04256Z" fill="#A1AAB5"/>
</svg>
