<svg width="148" height="108" viewBox="0 0 148 108" fill="none" xmlns="http://www.w3.org/2000/svg">
<path d="M2.2 103C2.06667 103 1.95333 102.96 1.86 102.88C1.78 102.787 1.74 102.673 1.74 102.54V89.48C1.74 89.3333 1.78 89.22 1.86 89.14C1.95333 89.0467 2.06667 89 2.2 89H3.12C3.36 89 3.52667 89.0933 3.62 89.28L10.26 99.48V89.48C10.26 89.3333 10.3 89.22 10.38 89.14C10.4733 89.0467 10.5867 89 10.72 89H11.68C11.8267 89 11.94 89.0467 12.02 89.14C12.1133 89.22 12.16 89.3333 12.16 89.48V102.52C12.16 102.653 12.1133 102.767 12.02 102.86C11.94 102.953 11.8333 103 11.7 103H10.74C10.54 103 10.38 102.907 10.26 102.72L3.64 92.62V102.54C3.64 102.673 3.59333 102.787 3.5 102.88C3.40667 102.96 3.29333 103 3.16 103H2.2ZM19.6463 103.2C18.1796 103.2 17.0396 102.787 16.2263 101.96C15.4263 101.133 14.9996 100.033 14.9463 98.66L14.9263 97.8L14.9463 96.94C14.9996 95.58 15.4329 94.4867 16.2463 93.66C17.0596 92.82 18.1929 92.4 19.6463 92.4C21.0996 92.4 22.2329 92.82 23.0463 93.66C23.8596 94.4867 24.2929 95.58 24.3463 96.94C24.3596 97.0867 24.3663 97.3733 24.3663 97.8C24.3663 98.2267 24.3596 98.5133 24.3463 98.66C24.2929 100.033 23.8596 101.133 23.0463 101.96C22.2463 102.787 21.1129 103.2 19.6463 103.2ZM19.6463 101.66C20.4863 101.66 21.1463 101.393 21.6263 100.86C22.1196 100.327 22.3863 99.56 22.4263 98.56C22.4396 98.4267 22.4463 98.1733 22.4463 97.8C22.4463 97.4267 22.4396 97.1733 22.4263 97.04C22.3863 96.04 22.1196 95.2733 21.6263 94.74C21.1463 94.2067 20.4863 93.94 19.6463 93.94C18.8063 93.94 18.1396 94.2067 17.6463 94.74C17.1529 95.2733 16.8929 96.04 16.8663 97.04L16.8462 97.8L16.8663 98.56C16.8929 99.56 17.1529 100.327 17.6463 100.86C18.1396 101.393 18.8063 101.66 19.6463 101.66ZM34.673 103.2C34.0196 103.2 33.413 103.067 32.853 102.8C32.293 102.533 31.8463 102.173 31.513 101.72C31.193 101.253 31.033 100.74 31.033 100.18C31.033 99.3 31.393 98.58 32.113 98.02C32.8463 97.4467 33.833 97.0733 35.073 96.9L38.053 96.48V95.9C38.053 94.54 37.273 93.86 35.713 93.86C35.1263 93.86 34.6463 93.9867 34.273 94.24C33.8996 94.48 33.6196 94.7667 33.433 95.1C33.393 95.22 33.3396 95.3067 33.273 95.36C33.2196 95.4133 33.1396 95.44 33.033 95.44H32.173C32.053 95.44 31.9463 95.4 31.853 95.32C31.773 95.2267 31.733 95.12 31.733 95C31.7463 94.68 31.893 94.32 32.173 93.92C32.4663 93.5067 32.913 93.1533 33.513 92.86C34.113 92.5533 34.853 92.4 35.733 92.4C37.2263 92.4 38.2996 92.7533 38.953 93.46C39.6063 94.1533 39.933 95.02 39.933 96.06V102.54C39.933 102.673 39.8863 102.787 39.793 102.88C39.713 102.96 39.6063 103 39.473 103H38.553C38.4196 103 38.3063 102.96 38.213 102.88C38.133 102.787 38.093 102.673 38.093 102.54V101.68C37.7996 102.107 37.373 102.467 36.813 102.76C36.253 103.053 35.5396 103.2 34.673 103.2ZM35.093 101.7C35.9596 101.7 36.6663 101.42 37.213 100.86C37.773 100.287 38.053 99.4667 38.053 98.4V97.84L35.733 98.18C34.7863 98.3133 34.073 98.54 33.593 98.86C33.113 99.1667 32.873 99.56 32.873 100.04C32.873 100.573 33.093 100.987 33.533 101.28C33.973 101.56 34.493 101.7 35.093 101.7ZM46.7705 103C44.6638 103 43.6105 101.827 43.6105 99.48V94.2H42.0505C41.9171 94.2 41.8038 94.16 41.7105 94.08C41.6305 93.9867 41.5905 93.8733 41.5905 93.74V93.06C41.5905 92.9267 41.6305 92.82 41.7105 92.74C41.8038 92.6467 41.9171 92.6 42.0505 92.6H43.6105V89.26C43.6105 89.1267 43.6505 89.02 43.7305 88.94C43.8238 88.8467 43.9371 88.8 44.0705 88.8H45.0105C45.1438 88.8 45.2505 88.8467 45.3305 88.94C45.4238 89.02 45.4705 89.1267 45.4705 89.26V92.6H47.9505C48.0838 92.6 48.1905 92.6467 48.2705 92.74C48.3638 92.82 48.4105 92.9267 48.4105 93.06V93.74C48.4105 93.8733 48.3638 93.9867 48.2705 94.08C48.1905 94.16 48.0838 94.2 47.9505 94.2H45.4705V99.34C45.4705 100.007 45.5838 100.513 45.8105 100.86C46.0371 101.193 46.4105 101.36 46.9305 101.36H48.1505C48.2838 101.36 48.3905 101.407 48.4705 101.5C48.5638 101.58 48.6105 101.687 48.6105 101.82V102.54C48.6105 102.673 48.5638 102.787 48.4705 102.88C48.3905 102.96 48.2838 103 48.1505 103H46.7705ZM54.583 103C52.4763 103 51.423 101.827 51.423 99.48V94.2H49.863C49.7296 94.2 49.6163 94.16 49.523 94.08C49.443 93.9867 49.403 93.8733 49.403 93.74V93.06C49.403 92.9267 49.443 92.82 49.523 92.74C49.6163 92.6467 49.7296 92.6 49.863 92.6H51.423V89.26C51.423 89.1267 51.463 89.02 51.543 88.94C51.6363 88.8467 51.7496 88.8 51.883 88.8H52.823C52.9563 88.8 53.063 88.8467 53.143 88.94C53.2363 89.02 53.283 89.1267 53.283 89.26V92.6H55.763C55.8963 92.6 56.003 92.6467 56.083 92.74C56.1763 92.82 56.223 92.9267 56.223 93.06V93.74C56.223 93.8733 56.1763 93.9867 56.083 94.08C56.003 94.16 55.8963 94.2 55.763 94.2H53.283V99.34C53.283 100.007 53.3963 100.513 53.623 100.86C53.8496 101.193 54.223 101.36 54.743 101.36H55.963C56.0963 101.36 56.203 101.407 56.283 101.5C56.3763 101.58 56.423 101.687 56.423 101.82V102.54C56.423 102.673 56.3763 102.787 56.283 102.88C56.203 102.96 56.0963 103 55.963 103H54.583ZM62.4955 103.2C61.1221 103.2 60.0221 102.78 59.1955 101.94C58.3821 101.087 57.9355 99.9267 57.8555 98.46L57.8355 97.78L57.8555 97.12C57.9488 95.68 58.4021 94.5333 59.2155 93.68C60.0421 92.8267 61.1288 92.4 62.4755 92.4C63.9555 92.4 65.1021 92.8733 65.9155 93.82C66.7288 94.7533 67.1355 96.02 67.1355 97.62V97.96C67.1355 98.0933 67.0888 98.2067 66.9955 98.3C66.9155 98.38 66.8088 98.42 66.6755 98.42H59.7555V98.6C59.7955 99.4667 60.0555 100.207 60.5355 100.82C61.0288 101.42 61.6755 101.72 62.4755 101.72C63.0888 101.72 63.5888 101.6 63.9755 101.36C64.3755 101.107 64.6688 100.847 64.8555 100.58C64.9755 100.42 65.0621 100.327 65.1155 100.3C65.1821 100.26 65.2955 100.24 65.4555 100.24H66.4355C66.5555 100.24 66.6555 100.273 66.7355 100.34C66.8155 100.407 66.8555 100.5 66.8555 100.62C66.8555 100.913 66.6688 101.267 66.2955 101.68C65.9355 102.093 65.4221 102.453 64.7555 102.76C64.1021 103.053 63.3488 103.2 62.4955 103.2ZM65.2355 97.04V96.98C65.2355 96.06 64.9821 95.3133 64.4755 94.74C63.9821 94.1533 63.3155 93.86 62.4755 93.86C61.6355 93.86 60.9688 94.1533 60.4755 94.74C59.9955 95.3133 59.7555 96.06 59.7555 96.98V97.04H65.2355ZM69.9869 103C69.8535 103 69.7402 102.96 69.6469 102.88C69.5669 102.787 69.5269 102.673 69.5269 102.54V93.06C69.5269 92.9267 69.5669 92.82 69.6469 92.74C69.7402 92.6467 69.8535 92.6 69.9869 92.6H70.9269C71.0602 92.6 71.1669 92.6467 71.2469 92.74C71.3402 92.82 71.3869 92.9267 71.3869 93.06V93.94C71.7735 93.4467 72.2269 93.0667 72.7469 92.8C73.2802 92.5333 73.9402 92.4 74.7269 92.4C76.0069 92.4 77.0002 92.8133 77.7069 93.64C78.4269 94.4533 78.7869 95.54 78.7869 96.9V102.54C78.7869 102.673 78.7402 102.787 78.6469 102.88C78.5669 102.96 78.4602 103 78.3269 103H77.3269C77.1935 103 77.0802 102.96 76.9869 102.88C76.9069 102.787 76.8669 102.673 76.8669 102.54V97C76.8669 96.0533 76.6335 95.32 76.1669 94.8C75.7135 94.28 75.0535 94.02 74.1869 94.02C73.3469 94.02 72.6802 94.2867 72.1869 94.82C71.6935 95.34 71.4469 96.0667 71.4469 97V102.54C71.4469 102.673 71.4002 102.787 71.3069 102.88C71.2269 102.96 71.1202 103 70.9869 103H69.9869ZM85.4558 103.2C84.0691 103.2 83.0224 102.747 82.3158 101.84C81.6091 100.933 81.2358 99.7867 81.1958 98.4L81.1758 97.8L81.1958 97.2C81.2358 95.8267 81.6091 94.6867 82.3158 93.78C83.0224 92.86 84.0691 92.4 85.4558 92.4C86.8291 92.4 87.9091 92.8867 88.6958 93.86V89.26C88.6958 89.1267 88.7358 89.02 88.8158 88.94C88.9091 88.8467 89.0224 88.8 89.1558 88.8H90.1158C90.2491 88.8 90.3558 88.8467 90.4358 88.94C90.5291 89.02 90.5758 89.1267 90.5758 89.26V102.54C90.5758 102.673 90.5291 102.787 90.4358 102.88C90.3558 102.96 90.2491 103 90.1158 103H89.2158C89.0824 103 88.9691 102.96 88.8758 102.88C88.7958 102.787 88.7558 102.673 88.7558 102.54V101.7C87.9824 102.7 86.8824 103.2 85.4558 103.2ZM85.8758 101.58C86.7958 101.58 87.4824 101.28 87.9358 100.68C88.4024 100.067 88.6558 99.34 88.6958 98.5C88.7091 98.3533 88.7158 98.1 88.7158 97.74C88.7158 97.3667 88.7091 97.1067 88.6958 96.96C88.6691 96.1733 88.4158 95.4867 87.9358 94.9C87.4558 94.3133 86.7691 94.02 85.8758 94.02C84.9291 94.02 84.2358 94.3133 83.7958 94.9C83.3691 95.4867 83.1358 96.26 83.0958 97.22L83.0758 97.8C83.0758 100.32 84.0091 101.58 85.8758 101.58ZM96.4503 103.2C95.797 103.2 95.1903 103.067 94.6303 102.8C94.0703 102.533 93.6236 102.173 93.2903 101.72C92.9703 101.253 92.8103 100.74 92.8103 100.18C92.8103 99.3 93.1703 98.58 93.8903 98.02C94.6236 97.4467 95.6103 97.0733 96.8503 96.9L99.8303 96.48V95.9C99.8303 94.54 99.0503 93.86 97.4903 93.86C96.9036 93.86 96.4236 93.9867 96.0503 94.24C95.677 94.48 95.397 94.7667 95.2103 95.1C95.1703 95.22 95.117 95.3067 95.0503 95.36C94.997 95.4133 94.917 95.44 94.8103 95.44H93.9503C93.8303 95.44 93.7236 95.4 93.6303 95.32C93.5503 95.2267 93.5103 95.12 93.5103 95C93.5236 94.68 93.6703 94.32 93.9503 93.92C94.2436 93.5067 94.6903 93.1533 95.2903 92.86C95.8903 92.5533 96.6303 92.4 97.5103 92.4C99.0036 92.4 100.077 92.7533 100.73 93.46C101.384 94.1533 101.71 95.02 101.71 96.06V102.54C101.71 102.673 101.664 102.787 101.57 102.88C101.49 102.96 101.384 103 101.25 103H100.33C100.197 103 100.084 102.96 99.9903 102.88C99.9103 102.787 99.8703 102.673 99.8703 102.54V101.68C99.577 102.107 99.1503 102.467 98.5903 102.76C98.0303 103.053 97.317 103.2 96.4503 103.2ZM96.8703 101.7C97.737 101.7 98.4436 101.42 98.9903 100.86C99.5503 100.287 99.8303 99.4667 99.8303 98.4V97.84L97.5103 98.18C96.5636 98.3133 95.8503 98.54 95.3703 98.86C94.8903 99.1667 94.6503 99.56 94.6503 100.04C94.6503 100.573 94.8703 100.987 95.3103 101.28C95.7503 101.56 96.2703 101.7 96.8703 101.7ZM105.045 103C104.912 103 104.799 102.96 104.705 102.88C104.625 102.787 104.585 102.673 104.585 102.54V93.06C104.585 92.9267 104.625 92.82 104.705 92.74C104.799 92.6467 104.912 92.6 105.045 92.6H105.985C106.119 92.6 106.225 92.6467 106.305 92.74C106.399 92.82 106.445 92.9267 106.445 93.06V93.94C106.832 93.4467 107.285 93.0667 107.805 92.8C108.339 92.5333 108.999 92.4 109.785 92.4C111.065 92.4 112.059 92.8133 112.765 93.64C113.485 94.4533 113.845 95.54 113.845 96.9V102.54C113.845 102.673 113.799 102.787 113.705 102.88C113.625 102.96 113.519 103 113.385 103H112.385C112.252 103 112.139 102.96 112.045 102.88C111.965 102.787 111.925 102.673 111.925 102.54V97C111.925 96.0533 111.692 95.32 111.225 94.8C110.772 94.28 110.112 94.02 109.245 94.02C108.405 94.02 107.739 94.2867 107.245 94.82C106.752 95.34 106.505 96.0667 106.505 97V102.54C106.505 102.673 106.459 102.787 106.365 102.88C106.285 102.96 106.179 103 106.045 103H105.045ZM120.914 103.2C119.488 103.2 118.368 102.8 117.554 102C116.754 101.187 116.328 100.053 116.274 98.6L116.254 97.8L116.274 97C116.328 95.5467 116.754 94.42 117.554 93.62C118.368 92.8067 119.488 92.4 120.914 92.4C121.874 92.4 122.688 92.5733 123.354 92.92C124.021 93.2667 124.514 93.6933 124.834 94.2C125.168 94.7067 125.348 95.2133 125.374 95.72C125.388 95.8533 125.348 95.96 125.254 96.04C125.161 96.12 125.048 96.16 124.914 96.16H123.954C123.821 96.16 123.721 96.1333 123.654 96.08C123.588 96.0267 123.521 95.92 123.454 95.76C123.228 95.12 122.908 94.6667 122.494 94.4C122.081 94.12 121.561 93.98 120.934 93.98C120.108 93.98 119.448 94.24 118.954 94.76C118.474 95.2667 118.214 96.0467 118.174 97.1L118.154 97.82L118.174 98.5C118.214 99.5667 118.474 100.353 118.954 100.86C119.434 101.367 120.094 101.62 120.934 101.62C121.561 101.62 122.081 101.487 122.494 101.22C122.908 100.94 123.228 100.48 123.454 99.84C123.521 99.68 123.588 99.5733 123.654 99.52C123.721 99.4533 123.821 99.42 123.954 99.42H124.914C125.048 99.42 125.161 99.4667 125.254 99.56C125.348 99.64 125.388 99.7467 125.374 99.88C125.348 100.373 125.168 100.88 124.834 101.4C124.514 101.907 124.021 102.333 123.354 102.68C122.701 103.027 121.888 103.2 120.914 103.2ZM131.91 103.2C130.536 103.2 129.436 102.78 128.61 101.94C127.796 101.087 127.35 99.9267 127.27 98.46L127.25 97.78L127.27 97.12C127.363 95.68 127.816 94.5333 128.63 93.68C129.456 92.8267 130.543 92.4 131.89 92.4C133.37 92.4 134.516 92.8733 135.33 93.82C136.143 94.7533 136.55 96.02 136.55 97.62V97.96C136.55 98.0933 136.503 98.2067 136.41 98.3C136.33 98.38 136.223 98.42 136.09 98.42H129.17V98.6C129.21 99.4667 129.47 100.207 129.95 100.82C130.443 101.42 131.09 101.72 131.89 101.72C132.503 101.72 133.003 101.6 133.39 101.36C133.79 101.107 134.083 100.847 134.27 100.58C134.39 100.42 134.476 100.327 134.53 100.3C134.596 100.26 134.71 100.24 134.87 100.24H135.85C135.97 100.24 136.07 100.273 136.15 100.34C136.23 100.407 136.27 100.5 136.27 100.62C136.27 100.913 136.083 101.267 135.71 101.68C135.35 102.093 134.836 102.453 134.17 102.76C133.516 103.053 132.763 103.2 131.91 103.2ZM134.65 97.04V96.98C134.65 96.06 134.396 95.3133 133.89 94.74C133.396 94.1533 132.73 93.86 131.89 93.86C131.05 93.86 130.383 94.1533 129.89 94.74C129.41 95.3133 129.17 96.06 129.17 96.98V97.04H134.65ZM139.261 103C139.128 103 139.014 102.96 138.921 102.88C138.841 102.787 138.801 102.673 138.801 102.54V101.1C138.801 100.967 138.841 100.86 138.921 100.78C139.014 100.687 139.128 100.64 139.261 100.64H140.701C140.834 100.64 140.948 100.687 141.041 100.78C141.134 100.86 141.181 100.967 141.181 101.1V102.54C141.181 102.673 141.134 102.787 141.041 102.88C140.948 102.96 140.834 103 140.701 103H139.261ZM144.48 99.68C144.347 99.68 144.233 99.64 144.14 99.56C144.06 99.4667 144.02 99.3533 144.02 99.22V89.46C144.02 89.3267 144.06 89.22 144.14 89.14C144.233 89.0467 144.347 89 144.48 89H145.42C145.553 89 145.66 89.0467 145.74 89.14C145.833 89.22 145.88 89.3267 145.88 89.46V99.22C145.88 99.3533 145.833 99.4667 145.74 99.56C145.66 99.64 145.553 99.68 145.42 99.68H144.48ZM144.3 103C144.167 103 144.053 102.96 143.96 102.88C143.88 102.787 143.84 102.673 143.84 102.54V101.28C143.84 101.147 143.88 101.033 143.96 100.94C144.053 100.847 144.167 100.8 144.3 100.8H145.58C145.713 100.8 145.82 100.847 145.9 100.94C145.993 101.033 146.04 101.147 146.04 101.28V102.54C146.04 102.673 145.993 102.787 145.9 102.88C145.82 102.96 145.713 103 145.58 103H144.3Z" fill="#949EAA"/>
<path d="M65.9167 27.7123C65.9167 27.7123 62.5109 27.6937 59.0468 29.4181C55.6003 31.1414 52.0605 34.8966 52.0605 41.5859V66.2127C52.0621 66.6198 52.2245 67.0099 52.5124 67.2978C52.8003 67.5857 53.1904 67.7481 53.5975 67.7496H75.1968C75.604 67.7481 75.9941 67.5857 76.282 67.2978C76.5699 67.0099 76.7323 66.6198 76.7338 66.2127C76.7346 66.0101 76.6955 65.8093 76.6186 65.6218C76.5418 65.4343 76.4288 65.2638 76.2861 65.12C76.1434 64.9762 75.9737 64.8619 75.7868 64.7837C75.5999 64.7055 75.3995 64.6648 75.1968 64.664H55.1695V41.551C55.1695 35.9038 57.766 33.5168 60.479 32.1195C63.1921 30.763 65.9458 30.7455 65.9458 30.7455H81.3739C81.3739 30.7455 84.1277 30.7648 86.8407 32.1195C89.5537 33.476 92.1503 35.8746 92.1503 41.551V64.664H87.5218C87.3192 64.6648 87.1188 64.7055 86.9319 64.7837C86.745 64.8619 86.5753 64.9762 86.4326 65.12C86.2899 65.2638 86.1769 65.4343 86.1001 65.6218C86.0232 65.8093 85.9841 66.0101 85.9849 66.2127C85.9864 66.6198 86.1488 67.0099 86.4367 67.2978C86.7246 67.5857 87.1147 67.7481 87.5218 67.7496H93.6931C93.8957 67.7504 94.0965 67.7113 94.2839 67.6344C94.4714 67.5576 94.6419 67.4446 94.7857 67.3019C94.9295 67.1592 95.0438 66.9895 95.122 66.8026C95.2003 66.6157 95.2409 66.4153 95.2417 66.2127V41.5859C95.2417 34.8907 91.6729 31.1647 88.1972 29.4181C84.7506 27.6949 81.3273 27.7123 81.3273 27.7123H65.9167Z" fill="#A1AAB5"/>
<path d="M81.3455 64.9144C81.1419 64.9136 80.9402 64.9531 80.752 65.0307C80.5637 65.1082 80.3927 65.2223 80.2488 65.3662C80.1048 65.5102 79.9908 65.6812 79.9132 65.8694C79.8356 66.0577 79.7961 66.2594 79.7969 66.463C79.7976 66.6656 79.8383 66.8661 79.9165 67.053C79.9948 67.2398 80.1091 67.4095 80.2529 67.5522C80.3967 67.6949 80.5672 67.8079 80.7547 67.8848C80.9421 67.9616 81.1429 68.0007 81.3455 68C81.7527 67.9984 82.1427 67.836 82.4306 67.5481C82.7185 67.2602 82.881 66.8702 82.8825 66.463C82.8833 66.2604 82.8441 66.0596 82.7673 65.8721C82.6905 65.6847 82.5775 65.5142 82.4347 65.3704C82.292 65.2266 82.1224 65.1123 81.9355 65.034C81.7486 64.9558 81.5481 64.9151 81.3455 64.9144Z" fill="#A1AAB5"/>
<path d="M64.3443 46.2843C63.9553 46.2961 63.5851 46.4546 63.308 46.7279C63.1646 46.8712 63.0507 47.0413 62.9731 47.2286C62.8954 47.416 62.8555 47.6167 62.8555 47.8195C62.8555 48.0223 62.8954 48.223 62.9731 48.4103C63.0507 48.5977 63.1646 48.7678 63.308 48.9111L70.993 56.596C71.1362 56.7395 71.3064 56.8533 71.4937 56.931C71.681 57.0086 71.8818 57.0486 72.0846 57.0486C72.2873 57.0486 72.4881 57.0086 72.6754 56.931C72.8627 56.8533 73.0329 56.7395 73.1762 56.596C73.4624 56.3071 73.6229 55.9169 73.6229 55.5102C73.6229 55.1036 73.4624 54.7134 73.1762 54.4245L65.4912 46.7395C65.3421 46.5924 65.1645 46.4771 64.9693 46.4008C64.7741 46.3246 64.5654 46.2889 64.356 46.2959L64.3443 46.2843Z" fill="#A1AAB5"/>
<path d="M82.5677 41.5685C82.1756 41.6071 81.8132 41.7941 81.5546 42.0913L70.7841 54.4338C70.5167 54.7418 70.3821 55.1431 70.4098 55.5501C70.4375 55.957 70.6253 56.3365 70.932 56.6054C71.2385 56.8742 71.639 57.0108 72.0459 56.9852C72.4528 56.9597 72.833 56.7742 73.1036 56.4691L83.8741 44.1267C84.1415 43.8187 84.2761 43.4173 84.2484 43.0104C84.2207 42.6034 84.0329 42.224 83.7262 41.9551C83.5686 41.8173 83.3847 41.7129 83.1855 41.6485C82.9863 41.584 82.7761 41.5608 82.5677 41.5802V41.5685Z" fill="#A1AAB5"/>
<path d="M73.6589 0C66.789 0 61.3164 5.66473 61.3164 12.3425C61.3164 19.1541 66.8531 24.6849 73.6589 24.6849C80.4705 24.6849 86.0013 19.1483 86.0013 12.3425C86.0013 5.53082 80.4647 0 73.6589 0ZM73.6589 3.07979C78.7822 3.07979 82.9157 7.20171 82.9157 12.3366C82.9157 17.4599 78.7938 21.5935 73.6589 21.5935C68.5356 21.5935 64.402 17.4716 64.402 12.3366C64.402 7.35308 68.4424 3.07979 73.6589 3.07979Z" fill="#A1AAB5"/>
<path d="M39.7764 35.3973C39.7764 35.3973 37.1449 35.3775 34.4668 36.7188C31.7887 38.0579 29 41.0562 29 46.2086V61.5784C28.9968 62.4284 29.687 63.1212 30.537 63.1271H53.65C54.5058 63.1303 55.1986 62.4343 55.1986 61.5784V41.551C55.1986 40.0432 55.4059 38.7914 55.7442 37.6969C56.0079 36.8353 55.4839 35.9387 54.6089 35.7408C53.7938 35.523 53.6541 35.3926 52.1171 35.388L39.7764 35.3973ZM39.7764 38.4771H52.0606C52.0606 38.4771 52.4519 38.5382 52.5497 38.5452C52.3645 39.5116 52.1177 40.4198 52.1177 41.5609V60.0746H32.0903V46.2185C32.0903 42.1082 33.9125 40.4839 35.8512 39.5233C37.7899 38.5626 39.7869 38.5219 39.7869 38.5219L39.7764 38.4771Z" fill="#A1AAB5"/>
<path d="M45.8897 13.8562C40.8013 13.8562 36.6328 18.013 36.6328 23.113C36.6328 28.2014 40.7897 32.3699 45.8897 32.3699C50.9897 32.3699 55.1465 28.213 55.1465 23.113C55.1465 18.0247 50.9897 13.8562 45.8897 13.8562ZM45.8897 16.936C49.3129 16.936 52.0609 19.6781 52.0609 23.1072C52.0609 26.5305 49.3188 29.2784 45.8897 29.2784C42.4606 29.2784 39.7184 26.5363 39.7184 23.1072C39.7184 19.6839 42.4606 16.936 45.8897 16.936Z" fill="#A1AAB5"/>
<path d="M92.4652 35.7466C91.5861 35.9422 91.0622 36.8411 91.33 37.7027C91.6688 38.7973 91.8871 40.049 91.8871 41.5569V61.5842C91.8839 62.4342 92.5741 63.1271 93.4241 63.1329H116.537C117.393 63.1362 118.086 62.4401 118.086 61.5842V46.2144C118.086 41.0795 115.297 38.0637 112.619 36.7247C109.941 35.3856 107.309 35.4031 107.309 35.4031H94.9669C93.4241 35.4076 93.2669 35.5795 92.4635 35.7559L92.4652 35.7466ZM95.0211 38.4771H107.305C107.305 38.4771 109.285 38.5062 111.229 39.4784C113.174 40.4507 115.002 42.0808 115.002 46.1736V60.0298H94.9745V41.5161C94.9745 40.375 94.716 39.4726 94.5309 38.5003C94.6333 38.4928 95.031 38.4322 95.031 38.4322L95.0211 38.4771Z" fill="#A1AAB5"/>
<path d="M101.196 13.8562C96.1079 13.8562 91.9395 18.013 91.9395 23.113C91.9395 28.2014 96.0963 32.3699 101.196 32.3699C106.285 32.3699 110.453 28.213 110.453 23.113C110.453 18.0247 106.296 13.8562 101.196 13.8562ZM101.196 16.936C104.62 16.936 107.368 19.6781 107.368 23.1072C107.368 26.5305 104.625 29.2784 101.196 29.2784C97.773 29.2784 95.0251 26.5363 95.0251 23.1072C95.0251 19.6839 97.7672 16.936 101.196 16.936Z" fill="#A1AAB5"/>
</svg>
