<svg width="161" height="134" viewBox="0 0 161 134" fill="none" xmlns="http://www.w3.org/2000/svg">
<path d="M21.4205 125.636C21.4205 126.557 21.2543 127.352 20.9219 128.023C20.5895 128.693 20.1335 129.21 19.554 129.574C18.9744 129.938 18.3125 130.119 17.5682 130.119C16.8239 130.119 16.1619 129.938 15.5824 129.574C15.0028 129.21 14.5469 128.693 14.2145 128.023C13.8821 127.352 13.7159 126.557 13.7159 125.636C13.7159 124.716 13.8821 123.92 14.2145 123.25C14.5469 122.58 15.0028 122.062 15.5824 121.699C16.1619 121.335 16.8239 121.153 17.5682 121.153C18.3125 121.153 18.9744 121.335 19.554 121.699C20.1335 122.062 20.5895 122.58 20.9219 123.25C21.2543 123.92 21.4205 124.716 21.4205 125.636ZM20.3977 125.636C20.3977 124.881 20.2713 124.243 20.0185 123.723C19.7685 123.203 19.429 122.81 19 122.543C18.5739 122.276 18.0966 122.142 17.5682 122.142C17.0398 122.142 16.5611 122.276 16.1321 122.543C15.706 122.81 15.3665 123.203 15.1136 123.723C14.8636 124.243 14.7386 124.881 14.7386 125.636C14.7386 126.392 14.8636 127.03 15.1136 127.55C15.3665 128.07 15.706 128.463 16.1321 128.73C16.5611 128.997 17.0398 129.131 17.5682 129.131C18.0966 129.131 18.5739 128.997 19 128.73C19.429 128.463 19.7685 128.07 20.0185 127.55C20.2713 127.03 20.3977 126.392 20.3977 125.636ZM25.7202 130.136C25.1293 130.136 24.6108 129.996 24.1648 129.714C23.7216 129.433 23.375 129.04 23.125 128.534C22.8778 128.028 22.7543 127.437 22.7543 126.761C22.7543 126.08 22.8778 125.484 23.125 124.976C23.375 124.467 23.7216 124.072 24.1648 123.791C24.6108 123.51 25.1293 123.369 25.7202 123.369C26.3111 123.369 26.8281 123.51 27.2713 123.791C27.7173 124.072 28.0639 124.467 28.3111 124.976C28.5611 125.484 28.6861 126.08 28.6861 126.761C28.6861 127.437 28.5611 128.028 28.3111 128.534C28.0639 129.04 27.7173 129.433 27.2713 129.714C26.8281 129.996 26.3111 130.136 25.7202 130.136ZM25.7202 129.233C26.169 129.233 26.5384 129.118 26.8281 128.888C27.1179 128.658 27.3324 128.355 27.4716 127.98C27.6108 127.605 27.6804 127.199 27.6804 126.761C27.6804 126.324 27.6108 125.916 27.4716 125.538C27.3324 125.161 27.1179 124.855 26.8281 124.622C26.5384 124.389 26.169 124.273 25.7202 124.273C25.2713 124.273 24.902 124.389 24.6122 124.622C24.3224 124.855 24.108 125.161 23.9688 125.538C23.8295 125.916 23.7599 126.324 23.7599 126.761C23.7599 127.199 23.8295 127.605 23.9688 127.98C24.108 128.355 24.3224 128.658 24.6122 128.888C24.902 129.118 25.2713 129.233 25.7202 129.233ZM30.2212 132.455V123.455H31.1928V124.494H31.3121C31.386 124.381 31.4883 124.236 31.619 124.06C31.7525 123.881 31.9428 123.722 32.19 123.582C32.44 123.44 32.7781 123.369 33.2042 123.369C33.7553 123.369 34.2411 123.507 34.6616 123.783C35.082 124.058 35.4102 124.449 35.646 124.955C35.8817 125.46 35.9996 126.057 35.9996 126.744C35.9996 127.438 35.8817 128.038 35.646 128.547C35.4102 129.053 35.0835 129.445 34.6658 129.723C34.2482 129.999 33.7667 130.136 33.2212 130.136C32.8008 130.136 32.4641 130.067 32.2113 129.928C31.9585 129.786 31.7638 129.625 31.6275 129.446C31.4911 129.264 31.386 129.114 31.3121 128.994H31.2269V132.455H30.2212ZM31.2099 126.727C31.2099 127.222 31.2823 127.658 31.4272 128.036C31.5721 128.411 31.7837 128.705 32.0621 128.918C32.3406 129.128 32.6815 129.233 33.0849 129.233C33.5053 129.233 33.8562 129.122 34.1374 128.901C34.4215 128.676 34.6346 128.375 34.7766 127.997C34.9215 127.616 34.994 127.193 34.994 126.727C34.994 126.267 34.9229 125.852 34.7809 125.483C34.6417 125.111 34.43 124.817 34.146 124.601C33.8647 124.382 33.511 124.273 33.0849 124.273C32.6758 124.273 32.332 124.376 32.0536 124.584C31.7752 124.788 31.565 125.075 31.4229 125.445C31.2809 125.811 31.2099 126.239 31.2099 126.727ZM42.1701 124.92L41.2667 125.176C41.2099 125.026 41.1261 124.879 41.0153 124.737C40.9073 124.592 40.7596 124.473 40.5721 124.379C40.3846 124.286 40.1445 124.239 39.8519 124.239C39.4513 124.239 39.1175 124.331 38.8505 124.516C38.5863 124.697 38.4542 124.929 38.4542 125.21C38.4542 125.46 38.5451 125.658 38.7269 125.803C38.9087 125.947 39.1928 126.068 39.5792 126.165L40.5508 126.403C41.136 126.545 41.5721 126.763 41.859 127.055C42.146 127.345 42.2894 127.719 42.2894 128.176C42.2894 128.551 42.1815 128.886 41.9656 129.182C41.7525 129.477 41.4542 129.71 41.0707 129.881C40.6871 130.051 40.2411 130.136 39.7326 130.136C39.065 130.136 38.5124 129.991 38.0749 129.702C37.6374 129.412 37.3604 128.989 37.244 128.432L38.1985 128.193C38.2894 128.545 38.4613 128.81 38.7141 128.986C38.9698 129.162 39.3036 129.25 39.7156 129.25C40.1843 129.25 40.5565 129.151 40.832 128.952C41.1104 128.75 41.2496 128.509 41.2496 128.227C41.2496 128 41.1701 127.81 41.011 127.656C40.8519 127.5 40.6076 127.384 40.2781 127.307L39.1871 127.051C38.5877 126.909 38.1474 126.689 37.8661 126.391C37.5877 126.089 37.4485 125.713 37.4485 125.261C37.4485 124.892 37.5522 124.565 37.7596 124.281C37.9698 123.997 38.2553 123.774 38.6161 123.612C38.9798 123.45 39.3917 123.369 39.8519 123.369C40.4996 123.369 41.0082 123.511 41.3775 123.795C41.7496 124.08 42.0138 124.455 42.1701 124.92ZM45.3033 128.807L45.2351 129.267C45.1868 129.591 45.1129 129.938 45.0135 130.307C44.9169 130.676 44.8161 131.024 44.7109 131.351C44.6058 131.678 44.5192 131.938 44.451 132.131H43.6839C43.7209 131.949 43.7692 131.709 43.8288 131.411C43.8885 131.112 43.9482 130.778 44.0078 130.409C44.0703 130.043 44.1214 129.668 44.1612 129.284L44.2124 128.807H45.3033ZM57.5984 121.273V130H56.5756L51.82 123.148H51.7347V130H50.6779V121.273H51.7006L56.4734 128.142H56.5586V121.273H57.5984ZM62.2358 130.136C61.6449 130.136 61.1264 129.996 60.6804 129.714C60.2372 129.433 59.8906 129.04 59.6406 128.534C59.3935 128.028 59.2699 127.437 59.2699 126.761C59.2699 126.08 59.3935 125.484 59.6406 124.976C59.8906 124.467 60.2372 124.072 60.6804 123.791C61.1264 123.51 61.6449 123.369 62.2358 123.369C62.8267 123.369 63.3438 123.51 63.7869 123.791C64.233 124.072 64.5795 124.467 64.8267 124.976C65.0767 125.484 65.2017 126.08 65.2017 126.761C65.2017 127.437 65.0767 128.028 64.8267 128.534C64.5795 129.04 64.233 129.433 63.7869 129.714C63.3438 129.996 62.8267 130.136 62.2358 130.136ZM62.2358 129.233C62.6847 129.233 63.054 129.118 63.3438 128.888C63.6335 128.658 63.848 128.355 63.9872 127.98C64.1264 127.605 64.196 127.199 64.196 126.761C64.196 126.324 64.1264 125.916 63.9872 125.538C63.848 125.161 63.6335 124.855 63.3438 124.622C63.054 124.389 62.6847 124.273 62.2358 124.273C61.7869 124.273 61.4176 124.389 61.1278 124.622C60.8381 124.855 60.6236 125.161 60.4844 125.538C60.3452 125.916 60.2756 126.324 60.2756 126.761C60.2756 127.199 60.3452 127.605 60.4844 127.98C60.6236 128.355 60.8381 128.658 61.1278 128.888C61.4176 129.118 61.7869 129.233 62.2358 129.233ZM69.5835 123.455V124.307H66.1914V123.455H69.5835ZM67.18 121.886H68.1857V128.125C68.1857 128.409 68.2269 128.622 68.3093 128.764C68.3945 128.903 68.5025 128.997 68.6332 129.045C68.7667 129.091 68.9073 129.114 69.055 129.114C69.1658 129.114 69.2567 129.108 69.3278 129.097C69.3988 129.082 69.4556 129.071 69.4982 129.062L69.7028 129.966C69.6346 129.991 69.5394 130.017 69.4173 130.043C69.2951 130.071 69.1403 130.085 68.9528 130.085C68.6687 130.085 68.3903 130.024 68.1175 129.902C67.8477 129.78 67.6232 129.594 67.4442 129.344C67.2681 129.094 67.18 128.778 67.18 128.398V121.886ZM72.2425 126.062V130H71.2369V121.273H72.2425V124.477H72.3278C72.4812 124.139 72.7113 123.871 73.0181 123.672C73.3278 123.47 73.7397 123.369 74.2539 123.369C74.6999 123.369 75.0906 123.459 75.4258 123.638C75.761 123.814 76.021 124.085 76.2056 124.452C76.3931 124.815 76.4869 125.278 76.4869 125.841V130H75.4812V125.909C75.4812 125.389 75.3462 124.987 75.0763 124.703C74.8093 124.416 74.4386 124.273 73.9641 124.273C73.6346 124.273 73.3391 124.342 73.0778 124.482C72.8192 124.621 72.6147 124.824 72.4641 125.091C72.3164 125.358 72.2425 125.682 72.2425 126.062ZM78.3267 130V123.455H79.3324V130H78.3267ZM78.8381 122.364C78.642 122.364 78.473 122.297 78.331 122.163C78.1918 122.03 78.1222 121.869 78.1222 121.682C78.1222 121.494 78.1918 121.334 78.331 121.2C78.473 121.067 78.642 121 78.8381 121C79.0341 121 79.2017 121.067 79.3409 121.2C79.483 121.334 79.554 121.494 79.554 121.682C79.554 121.869 79.483 122.03 79.3409 122.163C79.2017 122.297 79.0341 122.364 78.8381 122.364ZM82.18 126.062V130H81.1744V123.455H82.146V124.477H82.2312C82.3846 124.145 82.6175 123.878 82.93 123.676C83.2425 123.472 83.646 123.369 84.1403 123.369C84.5835 123.369 84.9712 123.46 85.3036 123.642C85.636 123.821 85.8945 124.094 86.0792 124.46C86.2638 124.824 86.3562 125.284 86.3562 125.841V130H85.3505V125.909C85.3505 125.395 85.217 124.994 84.9499 124.707C84.6829 124.418 84.3164 124.273 83.8505 124.273C83.5295 124.273 83.2425 124.342 82.9897 124.482C82.7397 124.621 82.5423 124.824 82.3974 125.091C82.2525 125.358 82.18 125.682 82.18 126.062ZM90.8359 132.591C90.3501 132.591 89.9325 132.528 89.5831 132.403C89.2337 132.281 88.9425 132.119 88.7095 131.918C88.4794 131.719 88.2962 131.506 88.1598 131.278L88.9609 130.716C89.0518 130.835 89.1669 130.972 89.3061 131.125C89.4453 131.281 89.6357 131.416 89.8771 131.53C90.1214 131.646 90.4411 131.705 90.8359 131.705C91.3643 131.705 91.8004 131.577 92.1442 131.321C92.4879 131.065 92.6598 130.665 92.6598 130.119V128.79H92.5746C92.5007 128.909 92.3956 129.057 92.2592 129.233C92.1257 129.406 91.9325 129.561 91.6797 129.697C91.4297 129.831 91.0916 129.898 90.6655 129.898C90.1371 129.898 89.6626 129.773 89.2422 129.523C88.8246 129.273 88.4936 128.909 88.2493 128.432C88.0078 127.955 87.8871 127.375 87.8871 126.693C87.8871 126.023 88.005 125.439 88.2408 124.942C88.4766 124.442 88.8047 124.055 89.2251 123.783C89.6456 123.507 90.1314 123.369 90.6825 123.369C91.1087 123.369 91.4467 123.44 91.6967 123.582C91.9496 123.722 92.1428 123.881 92.2763 124.06C92.4126 124.236 92.5178 124.381 92.5916 124.494H92.6939V123.455H93.6655V130.188C93.6655 130.75 93.5376 131.207 93.282 131.56C93.0291 131.915 92.6882 132.175 92.2592 132.339C91.8331 132.507 91.3587 132.591 90.8359 132.591ZM90.8018 128.994C91.2053 128.994 91.5462 128.902 91.8246 128.717C92.103 128.533 92.3146 128.267 92.4595 127.92C92.6044 127.574 92.6768 127.159 92.6768 126.676C92.6768 126.205 92.6058 125.788 92.4638 125.428C92.3217 125.067 92.1115 124.784 91.8331 124.58C91.5547 124.375 91.2109 124.273 90.8018 124.273C90.3757 124.273 90.0206 124.381 89.7365 124.597C89.4553 124.812 89.2436 125.102 89.1016 125.466C88.9624 125.83 88.8928 126.233 88.8928 126.676C88.8928 127.131 88.9638 127.533 89.1058 127.882C89.2507 128.229 89.4638 128.501 89.745 128.7C90.0291 128.896 90.3814 128.994 90.8018 128.994ZM101.728 123.455V124.307H98.3359V123.455H101.728ZM99.3246 121.886H100.33V128.125C100.33 128.409 100.371 128.622 100.454 128.764C100.539 128.903 100.647 128.997 100.778 129.045C100.911 129.091 101.052 129.114 101.2 129.114C101.31 129.114 101.401 129.108 101.472 129.097C101.543 129.082 101.6 129.071 101.643 129.062L101.847 129.966C101.779 129.991 101.684 130.017 101.562 130.043C101.44 130.071 101.285 130.085 101.097 130.085C100.813 130.085 100.535 130.024 100.262 129.902C99.9922 129.78 99.7678 129.594 99.5888 129.344C99.4126 129.094 99.3246 128.778 99.3246 128.398V121.886ZM105.83 130.136C105.239 130.136 104.72 129.996 104.274 129.714C103.831 129.433 103.484 129.04 103.234 128.534C102.987 128.028 102.864 127.437 102.864 126.761C102.864 126.08 102.987 125.484 103.234 124.976C103.484 124.467 103.831 124.072 104.274 123.791C104.72 123.51 105.239 123.369 105.83 123.369C106.42 123.369 106.938 123.51 107.381 123.791C107.827 124.072 108.173 124.467 108.42 124.976C108.67 125.484 108.795 126.08 108.795 126.761C108.795 127.437 108.67 128.028 108.42 128.534C108.173 129.04 107.827 129.433 107.381 129.714C106.938 129.996 106.42 130.136 105.83 130.136ZM105.83 129.233C106.278 129.233 106.648 129.118 106.938 128.888C107.227 128.658 107.442 128.355 107.581 127.98C107.72 127.605 107.79 127.199 107.79 126.761C107.79 126.324 107.72 125.916 107.581 125.538C107.442 125.161 107.227 124.855 106.938 124.622C106.648 124.389 106.278 124.273 105.83 124.273C105.381 124.273 105.011 124.389 104.722 124.622C104.432 124.855 104.217 125.161 104.078 125.538C103.939 125.916 103.869 126.324 103.869 126.761C103.869 127.199 103.939 127.605 104.078 127.98C104.217 128.355 104.432 128.658 104.722 128.888C105.011 129.118 105.381 129.233 105.83 129.233ZM118.342 124.92L117.439 125.176C117.382 125.026 117.298 124.879 117.187 124.737C117.079 124.592 116.931 124.473 116.744 124.379C116.556 124.286 116.316 124.239 116.024 124.239C115.623 124.239 115.289 124.331 115.022 124.516C114.758 124.697 114.626 124.929 114.626 125.21C114.626 125.46 114.717 125.658 114.899 125.803C115.081 125.947 115.365 126.068 115.751 126.165L116.723 126.403C117.308 126.545 117.744 126.763 118.031 127.055C118.318 127.345 118.461 127.719 118.461 128.176C118.461 128.551 118.353 128.886 118.137 129.182C117.924 129.477 117.626 129.71 117.243 129.881C116.859 130.051 116.413 130.136 115.904 130.136C115.237 130.136 114.684 129.991 114.247 129.702C113.809 129.412 113.532 128.989 113.416 128.432L114.37 128.193C114.461 128.545 114.633 128.81 114.886 128.986C115.142 129.162 115.475 129.25 115.887 129.25C116.356 129.25 116.728 129.151 117.004 128.952C117.282 128.75 117.422 128.509 117.422 128.227C117.422 128 117.342 127.81 117.183 127.656C117.024 127.5 116.779 127.384 116.45 127.307L115.359 127.051C114.76 126.909 114.319 126.689 114.038 126.391C113.76 126.089 113.62 125.713 113.62 125.261C113.62 124.892 113.724 124.565 113.931 124.281C114.142 123.997 114.427 123.774 114.788 123.612C115.152 123.45 115.564 123.369 116.024 123.369C116.672 123.369 117.18 123.511 117.549 123.795C117.922 124.08 118.186 124.455 118.342 124.92ZM120.981 126.062V130H119.975V121.273H120.981V124.477H121.066C121.219 124.139 121.45 123.871 121.756 123.672C122.066 123.47 122.478 123.369 122.992 123.369C123.438 123.369 123.829 123.459 124.164 123.638C124.499 123.814 124.759 124.085 124.944 124.452C125.131 124.815 125.225 125.278 125.225 125.841V130H124.219V125.909C124.219 125.389 124.085 124.987 123.815 124.703C123.548 124.416 123.177 124.273 122.702 124.273C122.373 124.273 122.077 124.342 121.816 124.482C121.558 124.621 121.353 124.824 121.202 125.091C121.055 125.358 120.981 125.682 120.981 126.062ZM129.724 130.136C129.133 130.136 128.615 129.996 128.169 129.714C127.725 129.433 127.379 129.04 127.129 128.534C126.882 128.028 126.758 127.437 126.758 126.761C126.758 126.08 126.882 125.484 127.129 124.976C127.379 124.467 127.725 124.072 128.169 123.791C128.615 123.51 129.133 123.369 129.724 123.369C130.315 123.369 130.832 123.51 131.275 123.791C131.721 124.072 132.068 124.467 132.315 124.976C132.565 125.484 132.69 126.08 132.69 126.761C132.69 127.437 132.565 128.028 132.315 128.534C132.068 129.04 131.721 129.433 131.275 129.714C130.832 129.996 130.315 130.136 129.724 130.136ZM129.724 129.233C130.173 129.233 130.542 129.118 130.832 128.888C131.122 128.658 131.336 128.355 131.475 127.98C131.615 127.605 131.684 127.199 131.684 126.761C131.684 126.324 131.615 125.916 131.475 125.538C131.336 125.161 131.122 124.855 130.832 124.622C130.542 124.389 130.173 124.273 129.724 124.273C129.275 124.273 128.906 124.389 128.616 124.622C128.326 124.855 128.112 125.161 127.973 125.538C127.833 125.916 127.764 126.324 127.764 126.761C127.764 127.199 127.833 127.605 127.973 127.98C128.112 128.355 128.326 128.658 128.616 128.888C128.906 129.118 129.275 129.233 129.724 129.233ZM135.485 130L133.491 123.455H134.548L135.963 128.466H136.031L137.429 123.455H138.502L139.883 128.449H139.951L141.366 123.455H142.423L140.429 130H139.44L138.008 124.972H137.906L136.474 130H135.485ZM145.082 121.273L144.997 127.545H144.008L143.923 121.273H145.082ZM144.502 130.068C144.292 130.068 144.112 129.993 143.961 129.842C143.811 129.692 143.735 129.511 143.735 129.301C143.735 129.091 143.811 128.911 143.961 128.76C144.112 128.609 144.292 128.534 144.502 128.534C144.713 128.534 144.893 128.609 145.044 128.76C145.194 128.911 145.27 129.091 145.27 129.301C145.27 129.44 145.234 129.568 145.163 129.685C145.095 129.801 145.002 129.895 144.886 129.966C144.772 130.034 144.645 130.068 144.502 130.068Z" fill="#4E5879"/>
<g opacity="0.8">
<path d="M157.463 24.7563L154.957 36.8919L153.345 35.3192L150.6 37.2758L148.504 34.6727L143.799 38.0925L139.781 31.3704L135.297 33.9963L133.52 31.5445L127.826 34.7523L126.113 31.0855L130.104 11.7574L151.499 16.1747L157.463 24.7563Z" fill="#F8F8F8"/>
<path d="M151.498 16.175L157.463 24.7554L150.043 23.2235L151.498 16.175Z" fill="#D4D6D3"/>
<path d="M154.425 39.3172L150.749 57.1223L121.934 51.1742L125.581 33.511L127.294 37.1778L132.987 33.9701L134.765 36.4219L139.249 33.7959L143.266 40.5181L147.971 37.098L150.068 39.7011L152.813 37.7448L154.425 39.3172Z" fill="#F8F8F8"/>
<path d="M113.177 37.2308L83.8097 39.0483L81.4766 1.34932L103.282 -3.43323e-05L111.289 6.71507L113.177 37.2308Z" fill="#F8F8F8"/>
<path d="M103.285 3.95775e-05L111.292 6.71514L103.73 7.18335L103.285 3.95775e-05Z" fill="#D4D6D3"/>
<path d="M20.02 21.9413C20.8748 23.1343 20.6009 24.7934 19.4077 25.6481C18.2144 26.5034 16.5533 26.2305 15.6984 25.0372C14.8434 23.8442 15.1181 22.1817 16.3114 21.3267C17.5046 20.4717 19.165 20.748 20.02 21.9413ZM21.6964 18.9535L18.7412 17.6133L18.3313 18.5183C18.2107 18.7843 17.9497 18.9543 17.6577 18.9671C17.4964 18.9742 17.3352 18.9899 17.1747 19.0145C16.8867 19.0585 16.5982 18.9422 16.4285 18.7055L15.85 17.8982L13.2111 19.7888L13.7897 20.5961C13.9594 20.8331 13.9764 21.1434 13.8422 21.4018C13.7674 21.5461 13.7006 21.6938 13.642 21.8441C13.5359 22.1165 13.2912 22.3089 13.0005 22.3377L12.0117 22.4346L12.3305 25.6641L13.3225 25.5651C13.6135 25.5361 13.8887 25.6809 14.0466 25.927C14.0894 25.9938 14.1343 26.0595 14.1809 26.1247C14.2274 26.1897 14.2755 26.2533 14.3249 26.3154C14.5062 26.5427 14.5548 26.8482 14.4348 27.1135L14.022 28.025L16.9773 29.3652L17.3888 28.4584C17.5096 28.1924 17.7711 28.0229 18.0631 28.0104C18.2237 28.0036 18.3844 27.9879 18.5442 27.9638C18.832 27.9203 19.1202 28.0363 19.2896 28.2728L19.8684 29.0803L22.5071 27.19L21.9285 26.3821C21.7589 26.1457 21.7419 25.8354 21.8756 25.5769C21.95 25.4334 22.0162 25.2863 22.0745 25.1362C22.1802 24.8639 22.4249 24.6709 22.7157 24.6421L23.7066 24.5442L23.3879 21.3146L22.3966 21.4126C22.1066 21.4411 21.8323 21.2968 21.6749 21.0515C21.6319 20.9844 21.5866 20.9179 21.5396 20.8525C21.493 20.7875 21.445 20.7239 21.3955 20.6616C21.2133 20.433 21.1646 20.1258 21.2854 19.8595L21.6964 18.9535Z" fill="#F8F8F8"/>
<path d="M156.238 63.9667C157.267 63.9667 158.1 64.7999 158.1 65.8279C158.1 66.8563 157.267 67.6911 156.238 67.6911C155.21 67.6911 154.375 66.8563 154.375 65.8279C154.375 64.7999 155.21 63.9667 156.238 63.9667ZM155.221 61.793L153.252 62.9292L153.6 63.532C153.703 63.709 153.693 63.9269 153.581 64.0986C153.519 64.1932 153.462 64.2916 153.411 64.393C153.318 64.575 153.134 64.6917 152.93 64.6917H152.234V66.966H152.93C153.134 66.966 153.318 67.0828 153.411 67.265C153.462 67.3661 153.519 67.4646 153.581 67.5594C153.693 67.7309 153.703 67.9487 153.6 68.126L153.252 68.7286L155.221 69.8645L155.569 69.2593C155.672 69.0818 155.866 68.9841 156.071 68.9946C156.127 68.9975 156.182 68.9991 156.238 68.9991C156.294 68.9991 156.35 68.9975 156.406 68.9946C156.609 68.9841 156.803 69.0813 156.905 69.2578L157.256 69.8645L159.225 68.7286L158.876 68.1242C158.774 67.9469 158.784 67.7288 158.896 67.5575C158.958 67.463 159.015 67.3653 159.066 67.2645C159.159 67.0828 159.342 66.966 159.546 66.966H160.242V64.6917H159.546C159.342 64.6917 159.159 64.575 159.066 64.3935C159.015 64.2924 158.958 64.1947 158.896 64.1005C158.784 63.929 158.774 63.7108 158.876 63.5335L159.225 62.9292L157.256 61.793L156.907 62.3976C156.805 62.5744 156.611 62.6718 156.407 62.6613C156.351 62.6587 156.295 62.6571 156.238 62.6571C156.182 62.6571 156.127 62.6587 156.071 62.6613C155.866 62.672 155.672 62.5741 155.569 62.3968L155.221 61.793Z" fill="#F8F8F8"/>
<path d="M28.9627 11.3014C29.9824 11.1687 30.9159 11.8872 31.0486 12.9069C31.1814 13.9268 30.4631 14.8622 29.4435 14.9947C28.4235 15.1274 27.4881 14.4076 27.3554 13.3877C27.2226 12.368 27.943 11.4342 28.9627 11.3014ZM27.6733 9.27726L25.8674 10.658L26.2904 11.2106C26.4148 11.3732 26.4331 11.5908 26.3444 11.7751C26.2954 11.877 26.2517 11.9817 26.2137 12.0891C26.1454 12.2813 25.9784 12.4211 25.776 12.4476L25.0859 12.5374L25.3795 14.7923L26.0696 14.7027C26.2721 14.6763 26.4693 14.7687 26.5845 14.9368C26.6486 15.0308 26.7175 15.1212 26.7911 15.2071C26.9241 15.3626 26.9621 15.5773 26.8833 15.7664L26.6159 16.409L28.7152 17.2815L28.9826 16.6363C29.0609 16.447 29.2416 16.3249 29.4458 16.309C29.5011 16.3045 29.5566 16.2987 29.6121 16.2917C29.6676 16.2843 29.7229 16.2757 29.7776 16.2657C29.9782 16.2291 30.1829 16.3003 30.3068 16.4621L30.7328 17.0188L32.5389 15.6381L32.1152 15.0837C31.9908 14.9211 31.9727 14.7035 32.0618 14.5191C32.1107 14.4178 32.1542 14.3133 32.1922 14.2065C32.2608 14.0145 32.4276 13.875 32.63 13.8488L33.3203 13.759L33.0267 11.5038L32.3365 11.5937C32.1343 11.6201 31.9371 11.5277 31.8217 11.3598C31.7578 11.2663 31.6889 11.1765 31.6156 11.0909C31.4823 10.9353 31.4443 10.7206 31.5226 10.5316L31.7902 9.88739L29.6912 9.01462L29.4233 9.65931C29.345 9.84759 29.1648 9.96909 28.9614 9.98533C28.9059 9.98978 28.8498 9.99554 28.7935 10.0029C28.7383 10.0102 28.683 10.0186 28.6283 10.0285C28.4269 10.0655 28.2208 9.9937 28.0964 9.83109L27.6733 9.27726Z" fill="#F8F8F8"/>
<path d="M14.1914 68.358C14.2945 65.8242 14.253 63.2853 14.087 60.7549C13.7445 55.5361 12.8852 50.3576 11.7052 45.2652C11.0412 42.3986 10.2232 39.5805 9.37101 36.7658C9.34534 36.6807 9.2096 36.7048 9.23322 36.7933C11.8685 46.7164 14.0308 56.9572 13.8818 67.2726C13.8401 70.1596 13.506 72.995 13.2319 75.8636C13.2246 75.9404 13.3509 75.9713 13.3684 75.8925C13.9124 73.4375 14.0894 70.8653 14.1914 68.358Z" fill="#F8F8F8"/>
<path d="M9.23286 36.7932C9.23286 36.7932 5.24056 46.9266 6.13434 49.3085C7.02825 51.6903 8.87087 52.1983 8.87087 52.1983C8.87087 52.1983 6.42822 55.6858 8.13512 58.9567C9.84221 62.2275 13.6347 62.0728 13.8867 65.7817C13.8867 65.7817 14.098 50.2745 9.23286 36.7932Z" fill="#F8F8F8"/>
<path d="M13.4526 59.3786L13.4486 59.3252C12.8878 52.4352 11.6654 45.5663 9.57603 38.9403L9.54319 38.9473C10.3341 41.9116 11.038 44.8918 11.6395 47.8882C11.1211 47.3543 10.4429 47.0474 9.73375 46.8256L9.72649 46.846C10.4649 47.1653 11.1723 47.5353 11.6943 48.1608C11.8109 48.7479 11.925 49.3355 12.0334 49.9239C11.1412 48.927 9.90395 48.4321 8.66597 47.9621L8.65625 47.9891C9.94569 48.5141 11.2299 49.1905 12.1036 50.3015C12.4082 51.9832 12.6748 53.6709 12.9054 55.3635C12.2533 54.6822 11.4483 54.2242 10.5247 53.9992C10.497 53.9924 10.4816 54.0335 10.5097 54.0419C11.4584 54.3148 12.2744 54.8461 12.924 55.5882L12.9389 55.5995C13.0187 56.1949 13.0942 56.7914 13.1648 57.3882C12.6625 56.9598 12.1075 56.6338 11.4963 56.3816L11.4872 56.407C12.1081 56.6715 12.6667 57.0523 13.1584 57.5131L13.1796 57.5218C13.2461 58.0892 13.3123 58.6569 13.3698 59.2254C12.4544 58.1227 11.3227 57.3246 9.98374 56.8079C9.95756 56.7977 9.94415 56.8375 9.96931 56.8485C11.2711 57.4147 12.4188 58.3115 13.3063 59.4163C13.3306 59.4467 13.3623 59.4517 13.3904 59.4428C13.4767 60.315 13.554 61.1883 13.6181 62.0629L13.6379 62.064C13.5875 61.1687 13.5249 60.2734 13.4526 59.3786Z" fill="white"/>
<path d="M10.2485 45.8187C9.55607 45.3427 8.67631 45.1397 7.84991 45.0709L7.84766 45.1012C8.70729 45.229 9.42944 45.5401 10.2193 45.8758C10.2537 45.8905 10.2783 45.8392 10.2485 45.8187Z" fill="white"/>
<path d="M10.7326 56.5471C10.1849 56.2185 9.5598 56.0326 8.93215 55.9312L8.92969 55.9655C9.56705 56.081 10.1316 56.3081 10.7107 56.5903C10.7356 56.6024 10.7562 56.5615 10.7326 56.5471Z" fill="white"/>
<path d="M24.6871 49.474C23.0221 50.6443 21.4244 51.9944 20.0662 53.5132C18.6186 55.132 17.5628 56.9694 16.8255 59.0088C15.3149 63.187 14.4868 67.713 14.4113 72.1533C14.369 74.6423 14.5903 77.1121 15.1228 79.5451C15.1423 79.6336 15.2746 79.6084 15.261 79.5189C14.6102 75.2385 14.6339 70.8705 15.3335 66.598C16.0198 62.4059 17.0968 57.8451 19.7615 54.4383C21.2125 52.5831 23.0216 51.1237 24.8101 49.6154C24.9041 49.5361 24.7839 49.4057 24.6871 49.474Z" fill="#F8F8F8"/>
<path d="M15 69.1345C15 69.1345 16.3712 66.8257 18.3683 64.829C20.3655 62.8324 22.0477 61.4131 22.3072 60.0925C22.5669 58.7723 20.3066 57.7994 20.3066 57.7994C20.3066 57.7994 23.0705 58.2957 23.8266 57.1359C24.5828 55.9759 24.9479 49.2579 24.9479 49.2579C24.9479 49.2579 19.9199 52.8477 17.5772 57.8798C15.2347 62.912 15 69.1345 15 69.1345Z" fill="#F8F8F8"/>
<path d="M23.2078 50.9802C21.0923 53.058 18.963 55.2723 17.7172 58.0022C17.29 58.9381 16.9266 59.9088 16.6065 60.8975L16.605 60.9023C16.5409 61.1007 16.4757 61.2987 16.4151 61.4988L16.405 61.5312C15.7891 63.5701 15.3538 65.6783 14.9766 67.7381L14.9971 67.7446C15.2139 66.6964 15.4527 65.6382 15.7198 64.5827L15.7499 64.5769C16.1775 64.397 16.6075 64.2847 17.0693 64.242C17.0992 64.2391 17.0969 64.187 17.0664 64.1886C16.6209 64.2098 16.1847 64.2878 15.7613 64.4266C16.005 63.475 16.2696 62.526 16.5672 61.5909C17.538 61.3529 18.551 61.2249 19.5494 61.2008L19.5508 61.1848C18.5444 61.1379 17.5987 61.2246 16.6186 61.4336C16.6703 61.2731 16.7245 61.1136 16.778 60.9538C17.4335 60.8046 18.0917 60.6789 18.7626 60.6176L18.7613 60.5961C18.1046 60.6137 17.4575 60.6831 16.8183 60.8323C17.0919 60.0229 17.3875 59.2245 17.7155 58.4473C17.9868 57.8045 18.3094 57.1936 18.6648 56.6044C19.2024 56.4826 19.7236 56.3663 20.2745 56.3174L20.273 56.2904C19.773 56.2579 19.2519 56.2954 18.7682 56.4391C19.0327 56.012 19.3105 55.5936 19.6078 55.1882H19.6081C20.7356 54.9384 21.8784 54.7069 23.0318 54.9235L23.0393 54.8887C21.9413 54.5996 20.8515 54.7664 19.7589 54.9824C19.8781 54.824 20 54.6671 20.1232 54.5113C20.8154 54.2974 21.5038 54.1942 22.2299 54.1806L22.2319 54.1573C21.5691 54.0942 20.9082 54.1584 20.2676 54.3317C21.1999 53.1735 22.2294 52.086 23.2473 51.01C23.2947 50.96 23.2579 50.9309 23.2078 50.9802Z" fill="white"/>
<path d="M23.1535 55.5598C22.8226 55.5247 22.486 55.4875 22.1535 55.5252C22.1132 55.5294 22.1167 55.5951 22.1571 55.5962C22.4881 55.6059 22.8191 55.5813 23.1503 55.5993C23.1757 55.6009 23.1789 55.5624 23.1535 55.5598Z" fill="white"/>
<path d="M19.5341 62.0768C19.0057 62.0703 18.4779 62.2125 17.9844 62.3879L17.9917 62.4102C18.5034 62.2881 19.0211 62.2386 19.538 62.1533C19.5803 62.1465 19.5783 62.0773 19.5341 62.0768Z" fill="white"/>
<path d="M18.447 59.8252C18.2325 59.8139 18.0004 59.8516 17.7891 59.8846L17.7911 59.9239C18.0049 59.9275 18.2399 59.9336 18.4504 59.893C18.4877 59.8859 18.4861 59.8272 18.447 59.8252Z" fill="white"/>
<path d="M0.260761 56.6033C1.87866 57.1655 3.48368 57.8887 4.93393 58.8039C6.4796 59.7796 7.75881 61.0227 8.82693 62.5027C11.0151 65.5348 12.7314 69.006 13.8187 72.5819C14.4283 74.5867 14.82 76.6368 14.9513 78.7288C14.9562 78.8047 14.8432 78.8152 14.8335 78.7395C14.3708 75.1248 13.3421 71.5955 11.7884 68.2995C10.264 65.0655 8.33828 61.6236 5.39433 59.4824C3.79136 58.3164 1.98995 57.5536 0.193967 56.7463C0.0996566 56.7038 0.166655 56.5705 0.260761 56.6033Z" fill="#F8F8F8"/>
<path d="M12.6448 70.2754C12.6448 70.2754 11.0015 68.7236 8.92375 67.5693C6.84606 66.4151 5.15678 65.6554 4.64134 64.6467C4.126 63.6381 5.73052 62.3285 5.73052 62.3285C5.73052 62.3285 3.60833 63.3691 2.72833 62.605C1.84825 61.8412 0 56.4885 0 56.4885C0 56.4885 4.8988 58.2317 7.95783 61.7626C11.0168 65.2935 12.6448 70.2754 12.6448 70.2754Z" fill="#F8F8F8"/>
<path d="M12.3889 69.1713C9.93872 64.572 6.66939 60.4119 2.18965 57.6655L2.1875 57.6686C3.36688 58.4199 4.4537 59.2869 5.46646 60.2346C4.55978 60.2095 3.63651 60.3537 2.83263 60.7905L2.84594 60.818C3.74199 60.5148 4.60296 60.3158 5.55596 60.36L5.58665 60.3485C5.74571 60.4993 5.90251 60.6525 6.05779 60.807C5.58634 60.8275 5.10957 60.894 4.6503 60.994L4.6542 61.0136C5.1511 60.9173 5.63636 60.8838 6.14075 60.8908C6.96173 61.7157 7.72654 62.5981 8.45134 63.5144C8.12412 63.467 7.78106 63.4945 7.46732 63.5859C7.44412 63.5927 7.45004 63.6262 7.4745 63.6228C7.83146 63.578 8.17057 63.5838 8.525 63.6087C8.6592 63.7794 8.79474 63.9491 8.92596 64.1222C7.91864 64.0611 6.93174 64.1578 5.95273 64.411L5.95713 64.4338C6.96694 64.2355 7.98512 64.1724 9.01095 64.2355C9.13597 64.4013 9.2543 64.5718 9.37685 64.7394C8.77581 64.7213 8.19296 64.7962 7.60695 64.942L7.6137 64.9774C8.21661 64.8402 8.82962 64.8053 9.4459 64.8347C9.97289 65.5611 10.4779 66.3032 10.9629 67.0545C10.7061 67.0016 10.4365 67.0304 10.1862 67.1013L10.1903 67.1225C10.4786 67.0888 10.7477 67.1257 11.031 67.1623C11.4673 67.8416 11.889 68.5277 12.2932 69.2177C12.3274 69.2755 12.4214 69.2321 12.3889 69.1713Z" fill="white"/>
<path d="M8.5795 65.3567C8.10059 65.3155 7.6138 65.3907 7.15625 65.5308L7.16034 65.552C7.63129 65.4651 8.09823 65.4323 8.5756 65.4069C8.607 65.4051 8.61305 65.3593 8.5795 65.3567Z" fill="white"/>
<path d="M4.30485 59.7517C4.08832 59.7271 3.86236 59.7557 3.64847 59.79C3.62299 59.7939 3.63087 59.8316 3.65583 59.829C3.87165 59.8057 4.08452 59.8138 4.30045 59.8075C4.33564 59.8065 4.34127 59.7562 4.30485 59.7517Z" fill="white"/>
<path d="M18.9642 85.4829H7.90625L9.48293 73.9329L9.88595 70.9715H16.9846L17.3876 73.9329L18.9642 85.4829Z" fill="#D4D6D3"/>
<path d="M17.3851 73.9331H9.48047L9.8835 70.9717H16.9821L17.3851 73.9331Z" fill="#BEBFBD"/>
<path d="M18.0001 72.4524H8.87109V69.9443H18.0001V72.4524Z" fill="#D4D6D3"/>
<path d="M0.875 85.4831L20.7787 85.4194L40.6823 85.3962L80.4895 85.3524L120.297 85.3959L140.2 85.4189L160.104 85.4831L140.2 85.547L120.297 85.57L80.4895 85.6138L40.6823 85.5698L20.7787 85.5468L0.875 85.4831Z" fill="#4E5879"/>
<path d="M156.102 96.7724C156.102 101.317 122.484 105 81.0156 105C39.5469 105 5.92969 101.317 5.92969 96.7724C5.92969 92.2287 39.5469 88.545 81.0156 88.545C122.484 88.545 156.102 92.2287 156.102 96.7724Z" fill="#F8F8F8"/>
<path d="M63.5347 95.4092C62.9243 95.6158 45.4284 95.6774 44.7599 95.2579C44.5054 95.1003 44.3478 92.5526 44.2448 89.4692C44.2223 88.8033 44.2035 88.1154 44.1883 87.4168L42.7695 78.0852L54.4655 78.0103L55.5694 87.3437L55.5247 89.3967C55.5247 89.3967 62.2338 92.3693 62.9177 92.908C63.598 93.4466 64.1451 95.2027 63.5347 95.4092Z" fill="#F9D7AC"/>
<path d="M63.5339 95.4092C62.9235 95.6158 45.4277 95.6774 44.7591 95.2579C44.4499 95.0646 44.2812 91.3442 44.1875 87.4168L55.5687 87.3437L55.5239 89.3967C55.5239 89.3967 62.233 92.3693 62.9169 92.908C63.5973 93.4466 64.1443 95.2027 63.5339 95.4092Z" fill="white"/>
<path d="M63.5359 95.4092C62.9255 95.6158 45.4297 95.6774 44.7612 95.2579C44.5066 95.1003 44.349 92.5526 44.2461 89.4692L55.5259 89.3967C55.5259 89.3967 62.235 92.3693 62.919 92.908C63.5993 93.4466 64.1463 95.2027 63.5359 95.4092Z" fill="#999B9B"/>
<path d="M63.2806 94.71C60.3475 94.6485 48.5115 94.6763 45.6075 94.8381C45.584 94.8394 45.584 94.8557 45.6075 94.8567C48.5134 94.9813 60.3489 94.8577 63.2809 94.7582C63.3427 94.7562 63.3424 94.7114 63.2806 94.71Z" fill="#4E5879"/>
<path d="M61.7897 92.2828C61.0942 92.2569 60.4154 92.5895 60.0378 93.0049C59.6749 93.4043 59.3651 93.9649 59.3879 94.5732L59.4233 94.573C59.5867 93.4247 60.627 92.4129 61.7899 92.3194C61.8135 92.3176 61.8138 92.2836 61.7897 92.2828Z" fill="#4E5879"/>
<path d="M56.662 89.6845C55.4881 89.6724 54.1285 90.0914 53.4024 91.0539C53.3744 91.0915 53.4278 91.1308 53.4626 91.1126C54.5218 90.5617 55.5292 90.1508 56.6827 89.829C56.7641 89.8062 56.746 89.6855 56.662 89.6845Z" fill="#4E5879"/>
<path d="M57.572 90.0345C56.3981 90.0225 55.0388 90.4415 54.3127 91.4041C54.2844 91.4415 54.3378 91.4808 54.3726 91.4628C55.4318 90.9117 56.4392 90.501 57.593 90.1789C57.6741 90.1564 57.6561 90.0356 57.572 90.0345Z" fill="#4E5879"/>
<path d="M58.4784 90.3847C57.3045 90.3726 55.9449 90.7916 55.2188 91.7542C55.1908 91.7917 55.2442 91.8309 55.279 91.8128C56.3382 91.2619 57.3456 90.851 58.4991 90.529C58.5803 90.5062 58.5625 90.3857 58.4784 90.3847Z" fill="#4E5879"/>
<path d="M59.3845 90.7345C58.2106 90.7227 56.851 91.1417 56.1252 92.1043C56.0969 92.1418 56.1503 92.181 56.1851 92.1629C57.2443 91.6122 58.2517 91.2011 59.4052 90.879C59.4866 90.8563 59.4686 90.7356 59.3845 90.7345Z" fill="#4E5879"/>
<path d="M46.3454 92.0502C45.0283 92.0586 45.0393 94.1055 46.3585 94.0969C47.6754 94.0885 47.6646 92.0418 46.3454 92.0502Z" fill="#4E5879"/>
<path d="M56.4884 89.0476C56.0851 89.3432 55.6703 89.6173 55.2781 89.9279C55.4857 89.3422 55.6669 88.7506 55.9335 88.1863C56.0608 87.9171 56.1964 87.6426 56.3596 87.3929C56.6133 87.0041 57.7618 86.0191 57.8833 87.296C57.9501 87.9996 56.9689 88.6948 56.4884 89.0476ZM57.9197 86.5475C57.324 86.0569 56.5772 86.541 56.2124 87.054C55.6222 87.8847 55.2184 89.0473 55.1563 90.0594C55.155 90.0843 55.1739 90.0942 55.1932 90.0929C55.2184 90.177 55.3181 90.2471 55.4046 90.1869C56.2383 89.6059 57.2017 89.0879 57.8323 88.2686C58.2004 87.7899 58.4835 87.0116 57.9197 86.5475Z" fill="#4E5879"/>
<path d="M51.5325 89.8395C50.7346 88.8353 52.2453 88.7489 52.6978 88.8531C52.9882 88.9198 53.2762 89.0233 53.5546 89.1294C54.138 89.3511 54.679 89.652 55.2347 89.9301C54.7366 89.978 54.2474 90.0684 53.752 90.1346C53.1613 90.2136 51.9722 90.3931 51.5325 89.8395ZM52.2432 90.5052C53.266 90.6586 54.3192 90.3637 55.3229 90.2042C55.4271 90.1881 55.4499 90.0684 55.4101 89.99L55.4135 89.9403C54.6669 89.254 53.57 88.696 52.5684 88.5068C51.9502 88.3898 51.0763 88.559 50.987 89.3258C50.9027 90.0508 51.6464 90.4153 52.2432 90.5052Z" fill="#4E5879"/>
<path d="M25.582 34.9499C25.582 34.9499 39.1645 58.0563 39.5283 59.6785C40.0871 62.1711 43.0495 86.79 43.0495 86.79L57.1823 86.5355C57.1823 86.5355 54.7464 64.8298 52.4395 57.6787C50.7777 52.5279 38.7909 35.4445 38.7909 35.4445L25.582 34.9499Z" fill="#4E5879"/>
<path d="M55.8998 84.3688C53.8701 84.3539 46.6779 84.273 43.9766 84.5252L43.9771 84.5639C44.9067 84.6978 53.8719 84.4898 55.9006 84.4247C55.9388 84.4233 55.938 84.3691 55.8998 84.3688Z" fill="#4E5879"/>
<path d="M27.8999 37.0704C28.7899 38.4666 29.7289 39.8335 30.6389 41.2171C31.5494 42.6016 32.4567 43.9881 33.3518 45.3823C35.1413 48.1687 36.8837 50.984 38.5944 53.817C39.3968 55.1457 40.1609 56.4867 40.7118 57.936C41.2575 59.3716 41.6291 60.8652 41.9041 62.3709C42.1809 63.8878 42.3634 65.4192 42.5357 66.95C42.719 68.5801 42.8997 70.2107 43.0816 71.8407C43.454 75.1766 43.8264 78.5124 44.1987 81.8482C44.2446 82.2574 44.2893 82.6665 44.3302 83.0761C44.3362 83.136 44.2289 83.1481 44.2213 83.0878C43.8054 79.7733 43.46 76.4489 43.0822 73.1296C42.8942 71.4775 42.7061 69.825 42.5181 68.1726C42.3432 66.6363 42.1769 65.0981 41.9386 63.5697C41.7043 62.0684 41.4 60.5735 40.943 59.1202C40.4659 57.6019 39.7898 56.1764 38.9891 54.7958C37.3514 51.9714 35.6182 49.1949 33.8844 46.4258C32.1357 43.6325 30.3723 40.8471 28.5435 38.1031C28.3175 37.7643 28.09 37.4275 27.8559 37.0939C27.8375 37.0683 27.8826 37.0434 27.8999 37.0704Z" fill="#4E5879"/>
<path d="M30.0364 96.7722C29.392 96.7329 12.7549 89.9919 12.2911 89.3529C12.2758 89.3314 12.2665 89.2896 12.2656 89.2298C12.2687 88.6579 13.4209 86.6552 14.3839 84.0277C14.4443 83.8599 14.8735 83.08 15.4695 82.0284C17.1079 79.1407 20.0065 74.1934 20.0065 74.1934L30.8812 78.514L25.6762 86.3056L24.8659 88.1918C24.8659 88.1918 29.9697 93.4659 30.4007 94.2211C30.8291 94.9755 30.6785 96.8088 30.0364 96.7722Z" fill="#F9D7AC"/>
<path d="M30.0364 96.7722C29.392 96.7329 12.7549 89.9919 12.2911 89.3529C12.2758 89.3314 12.2665 89.2896 12.2656 89.2298C12.2687 88.6579 13.4209 86.6552 14.3839 84.0277C14.4443 83.8599 14.8735 83.08 15.4695 82.0284L25.6762 86.3056L24.8659 88.1918C24.8659 88.1918 29.9697 93.4659 30.4007 94.2211C30.8291 94.9755 30.6785 96.8088 30.0364 96.7722Z" fill="white"/>
<path d="M30.0352 96.7707C29.3916 96.7335 12.7539 89.9917 12.2911 89.3519C12.1146 89.1103 12.8584 86.8384 14.3824 84.0281L24.8655 88.1926C24.8655 88.1926 29.9695 93.4647 30.4016 94.2207C30.8302 94.9753 30.6784 96.8083 30.0352 96.7707Z" fill="#999B9B"/>
<path d="M30.0622 96.0277C27.3663 94.8703 16.3844 90.4561 13.6318 89.5166L13.625 89.5339C16.2718 90.7394 27.2891 95.0645 30.0444 96.0722C30.1025 96.0936 30.1192 96.052 30.0622 96.0277Z" fill="#4E5879"/>
<path d="M29.5897 93.2179C28.9546 92.9331 28.2008 92.987 27.6948 93.2305C27.2086 93.4641 26.711 93.8679 26.5039 94.4403L26.5369 94.4534C27.119 93.4502 28.4631 92.9027 29.5763 93.2523L29.5897 93.2179Z" fill="#4E5879"/>
<path d="M25.8109 88.8864C24.7272 88.4347 23.3098 88.3131 22.2757 88.9332C22.2355 88.957 22.2703 89.0136 22.3093 89.0102C23.4977 88.8968 24.5857 88.8936 25.7758 89.028C25.8599 89.0374 25.8885 88.9188 25.8109 88.8864Z" fill="#4E5879"/>
<path d="M26.5218 89.5513C25.4381 89.0994 24.0208 88.9781 22.9866 89.598C22.9465 89.622 22.9812 89.6786 23.0203 89.675C24.2087 89.5616 25.2967 89.5584 26.4867 89.6928C26.5708 89.7024 26.5993 89.5836 26.5218 89.5513Z" fill="#4E5879"/>
<path d="M27.2329 90.2162C26.1491 89.7645 24.7316 89.6433 23.6975 90.2631C23.6574 90.2869 23.6922 90.3434 23.7311 90.3397C24.9196 90.2266 26.0078 90.2232 27.1978 90.3579C27.2816 90.3673 27.3104 90.2484 27.2329 90.2162Z" fill="#4E5879"/>
<path d="M27.9436 90.8812C26.86 90.4295 25.4427 90.3083 24.4085 90.9281C24.3683 90.9522 24.403 91.0085 24.4421 91.0051C25.6306 90.8917 26.7186 90.8883 27.9087 91.0229C27.9925 91.0323 28.0211 90.9137 27.9436 90.8812Z" fill="#4E5879"/>
<path d="M15.3599 87.2088C14.1358 86.7223 13.3781 88.6237 14.6041 89.1108C15.828 89.5972 16.5859 87.6956 15.3599 87.2088Z" fill="#4E5879"/>
<path d="M25.8917 88.2309C25.407 88.3538 24.9194 88.4522 24.4395 88.5931C24.8516 88.1277 25.2415 87.6475 25.7003 87.2241C25.9193 87.0225 26.148 86.819 26.3928 86.6488C26.7738 86.3835 28.2083 85.9014 27.8417 87.1303C27.6395 87.8081 26.4693 88.0841 25.8917 88.2309ZM28.1564 86.4506C27.788 85.7721 26.9139 85.9407 26.3837 86.2796C25.5248 86.8279 24.7144 87.7544 24.2773 88.6694L24.2988 88.7141C24.2907 88.8015 24.3567 88.9039 24.4595 88.8804C25.4503 88.6546 26.5376 88.536 27.4295 88.0129C27.9504 87.7075 28.5047 87.0918 28.1564 86.4506Z" fill="#4E5879"/>
<path d="M20.9969 87.1045C20.634 85.8745 22.0669 86.3611 22.4472 86.6273C22.6915 86.7984 22.9196 87.0026 23.1379 87.2051C23.5954 87.6298 23.984 88.1114 24.3948 88.5775C23.9152 88.4352 23.4279 88.3353 22.9435 88.2111C22.3664 88.0626 21.1969 87.7829 20.9969 87.1045ZM21.4063 87.9883C22.2967 88.5141 23.3837 88.6361 24.3738 88.8649C24.4763 88.8887 24.5427 88.7863 24.535 88.6989L24.5565 88.6542C24.1222 87.7382 23.3147 86.8091 22.4575 86.2582C21.9281 85.918 21.0547 85.7467 20.6843 86.4239C20.334 87.0644 20.8865 87.6813 21.4063 87.9883Z" fill="#4E5879"/>
<path d="M26.5163 85.8696L14.3438 80.9545C14.3438 80.9545 29.4363 58.7633 29.5481 57.1115C29.6468 55.6485 23.0177 42.9167 22.7565 39.2061C22.4746 35.2018 24.4028 32.1024 26.5215 30.1791L39.079 35.5168C39.079 35.5168 37.7537 37.6374 35.6661 38.8173C35.6661 38.8173 42.1058 53.534 41.7405 58.0589C41.3731 62.6085 26.5163 85.8696 26.5163 85.8696Z" fill="#4E5879"/>
<path d="M27.0548 83.5547C25.2945 82.7979 25.8104 82.9901 24.0418 82.253C23.1761 81.8921 17.4864 79.527 16.6202 79.3325L16.6055 79.3684C17.3627 79.8321 23.0927 82.0977 23.9651 82.4418C25.7476 83.1446 25.2434 82.9233 27.0338 83.6066C27.0674 83.6194 27.0878 83.5688 27.0548 83.5547Z" fill="#4E5879"/>
<path d="M37.7301 38.548C36.4218 38.8292 35.1384 39.2914 33.9056 39.7882C33.8572 39.8075 33.8799 39.8796 33.9315 39.8644C35.2154 39.4896 36.5211 39.1395 37.7811 38.6967C37.8801 38.6622 37.8303 38.5265 37.7301 38.548Z" fill="#4E5879"/>
<path d="M36.2412 38.0311C36.1176 38.2471 36.0124 38.4741 35.9186 38.7041C35.8461 38.8824 35.7531 39.0733 35.7539 39.2678C35.7542 39.3055 35.805 39.3147 35.8283 39.2917C35.9739 39.1484 36.0516 38.9389 36.1438 38.7601C36.2507 38.5527 36.3622 38.3474 36.463 38.1374C36.5295 37.9978 36.3174 37.8981 36.2412 38.0311Z" fill="#4E5879"/>
<path d="M36.3934 36.8506C36.4704 36.6574 36.5479 36.4647 36.6291 36.273C36.7132 36.0747 36.8111 35.8794 36.8794 35.6754C36.8902 35.6432 36.941 35.6649 36.9282 35.6971C36.8517 35.8909 36.8014 36.0973 36.7399 36.296C36.6781 36.4961 36.6129 36.6946 36.5469 36.8931C36.4238 37.2625 36.2732 37.6294 36.1143 37.9858C36.3199 37.9832 36.5312 37.974 36.7179 37.881C36.9203 37.78 37.0434 37.5647 37.1431 37.3702C37.2539 37.1539 37.3555 36.9331 37.4697 36.7187C37.5956 36.4811 37.7349 36.2468 37.8179 35.9899C37.8284 35.9574 37.8784 35.9792 37.8669 36.0119C37.6779 36.5419 37.4919 37.0716 37.1979 37.5603C37.0821 37.7522 36.9886 37.9517 36.7755 38.0269C36.5469 38.1078 36.2968 38.0918 36.059 38.0748C36.0295 38.0829 35.9915 38.0641 36.0017 38.0285C36.1146 37.6331 36.241 37.2324 36.3934 36.8506Z" fill="#4E5879"/>
<path d="M35.8609 39.2963C36.3071 40.2427 36.6997 41.1851 37.1171 42.1278C37.5248 43.049 37.9063 43.981 38.2771 44.9174C39.026 46.8098 39.6969 48.7368 40.2853 50.6851C40.5767 51.6492 40.8449 52.6202 41.0871 53.5977C41.3301 54.5779 41.5676 55.5679 41.6684 56.5745C41.7692 57.5842 41.6975 58.5827 41.4163 59.5592C41.1308 60.5498 40.7545 61.415 40.3081 62.3417C40.0352 62.9081 39.9412 62.8316 40.0734 62.5457C40.4482 61.7344 41.4294 59.2764 41.3584 57.2095C41.3238 56.2124 41.119 55.2304 40.8941 54.2613C40.6642 53.2725 40.4044 52.2903 40.1214 51.3151C39.5636 49.3938 38.9011 47.5105 38.2195 45.6304C37.8377 44.5769 37.4279 43.5345 37.0403 42.4831C36.6502 41.4239 36.2474 40.4713 35.8143 39.3149C35.8031 39.2848 35.8473 39.2672 35.8609 39.2963Z" fill="#4E5879"/>
<path d="M26.6182 36.1715C26.836 36.0909 27.1388 36.2244 27.3611 36.2619C27.6462 36.3098 27.9345 36.3389 28.2236 36.3488C28.5085 36.3585 28.7955 36.3467 29.0794 36.3192C29.3627 36.2917 29.6521 36.2566 29.8987 36.1029C30.3141 35.8434 30.6615 35.387 30.943 34.9937C31.2523 34.5614 31.5733 34.0644 31.7577 33.5634C31.7689 33.5328 31.8129 33.5537 31.8035 33.5841C31.7119 33.8758 31.6438 34.1701 31.527 34.4556C31.4175 34.724 31.2759 34.9806 31.1253 35.2278C30.8446 35.69 30.5228 36.1828 30.0412 36.4575C29.5361 36.7458 28.8854 36.7285 28.3221 36.696C27.9963 36.6772 27.6719 36.634 27.3527 36.5669C27.122 36.5182 26.7344 36.4813 26.5873 36.2786C26.5614 36.2428 26.5752 36.1875 26.6182 36.1715Z" fill="#4E5879"/>
<path d="M17.8165 78.6345C19.8175 75.6064 21.781 72.5536 23.7092 69.4789C25.6428 66.3957 27.5401 63.2909 29.4114 60.1698C29.8589 59.4232 30.3761 58.6777 30.6644 57.8508C30.9776 56.9521 30.7998 56.0816 30.5159 55.2021C29.9953 53.5893 29.347 52.02 28.647 50.4774C27.9452 48.9303 27.1892 47.4086 26.4458 45.8812C25.7084 44.3666 24.9236 42.8468 24.3642 41.2547C23.8299 39.7341 23.6265 38.1572 24.0366 36.58C24.4435 35.0151 25.3237 33.61 26.2426 32.2986C26.4854 31.9529 26.732 31.6099 26.9756 31.2648C26.9939 31.2383 27.034 31.2703 27.0146 31.2962C26.0018 32.6634 25.0141 34.1104 24.42 35.7156C24.1266 36.5085 23.9364 37.3436 23.9178 38.1912C23.8988 39.0506 24.0601 39.9038 24.3135 40.7226C24.8058 42.3144 25.5832 43.8222 26.3076 45.3179C27.0484 46.8469 27.8088 48.3668 28.5229 49.9083C29.2412 51.4596 29.9134 53.0347 30.4656 54.6532C30.7115 55.3738 30.9857 56.1277 30.9694 56.9002C30.9516 57.746 30.5478 58.5075 30.1299 59.2205C28.3092 62.3249 26.4196 65.3905 24.5065 68.4388C22.5861 71.4986 20.6277 74.534 18.6388 77.5499C18.3881 77.9301 18.1368 78.31 17.8848 78.6895C17.8536 78.7369 17.7855 78.6811 17.8165 78.6345Z" fill="#4E5879"/>
<path d="M39.7732 21.403C40.9065 23.8907 46.6318 27.3192 49.3137 27.6874C51.2429 27.9524 57.1012 28.0435 59.1099 27.7369C61.4629 27.3776 59.6653 21.0252 58.274 21.1881C54.4512 21.635 51.2049 22.1326 50.1844 22.1326C48.9385 22.1326 42.1946 19.9678 41.382 19.6633C39.3935 18.9183 39.1303 19.9919 39.7732 21.403Z" fill="#F9D7AC"/>
<path d="M39.8105 22.0616C41.2452 24.185 46.0157 27.6562 46.0157 27.6562L46.6775 26.1893L48.8682 21.3413C48.8682 21.3413 44.4875 19.9589 41.6047 19.343C41.2153 19.2595 40.8723 19.2092 40.5733 19.1961C38.7329 19.0969 38.5732 20.2349 39.8105 22.0616Z" fill="#ABABAB"/>
<path d="M39.8105 22.0616C41.2452 24.185 46.0157 27.6562 46.0157 27.6562L46.6775 26.1893C44.8987 24.1246 42.1528 20.9951 40.5733 19.1961C38.7329 19.0969 38.5732 20.2349 39.8105 22.0616Z" fill="#4E5879"/>
<path d="M45.1562 26.6759C45.5197 25.7848 47.1393 22.1895 47.5413 21.4348C47.5693 21.3827 47.6088 21.3866 47.5868 21.4448C46.5614 24.1396 45.5925 25.8312 45.1916 26.6882L45.1562 26.6759Z" fill="#4E5879"/>
<path d="M57.5742 21.2577C59.9008 20.9526 62.7792 20.4305 65.2163 21.4654C65.6945 21.6683 65.8678 22.0247 65.8678 22.0247C66.9684 22.4691 67.0889 23.1221 67.0889 23.1221C67.9873 23.8499 68.019 24.5349 68.019 24.5349C68.019 24.5349 69.3055 25.0706 69.1107 25.902C68.8952 26.8348 67.1305 25.8997 65.8458 25.979C62.902 26.1605 58.7686 27.242 57.9249 27.3787L57.5742 21.2577Z" fill="#F9D7AC"/>
<path d="M62.6267 24.001C63.494 23.9649 64.3451 23.9068 65.2129 23.9885C66.165 24.0778 67.066 24.3234 67.9899 24.5507C68.0187 24.5577 68.0315 24.5185 68.004 24.5069C66.3973 23.8308 64.3367 23.6533 62.6244 23.9617C62.583 23.9691 62.5833 24.0029 62.6267 24.001Z" fill="#4E5879"/>
<path d="M62.2594 22.2403C63.1055 22.2521 64.5921 22.2819 67.08 23.1487L67.0868 23.1343C65.5465 22.3568 63.967 22.0803 62.2602 22.2C62.2071 22.2039 62.2031 22.2395 62.2594 22.2403Z" fill="#4E5879"/>
<path d="M62.0784 21.2906C63.516 21.365 64.4131 21.5941 65.8591 22.0288L65.8651 22.0139C64.2735 21.3475 63.6204 21.2859 62.0739 21.2406C62.021 21.239 62.0221 21.2875 62.0784 21.2906Z" fill="#4E5879"/>
<path d="M62.3135 26.4225C61.9396 26.598 62.0291 26.7954 62.7445 26.9612C63.468 27.1303 66.4323 27.1754 66.3278 28.2107C66.2246 29.2501 62.0304 29.1173 60.8604 28.7502C59.6891 28.3854 57.9258 27.3788 57.9258 27.3788C58.747 27.2403 60.7065 26.7147 62.3135 26.4225Z" fill="#F9D7AC"/>
<path d="M42.8865 25.369C42.8684 25.8165 42.8244 26.2719 42.7616 26.7231L42.7807 26.6749C42.8679 26.4392 42.953 26.1975 43.0585 25.9697L43.0826 25.9755C43.0365 26.2229 42.9499 26.4712 42.8559 26.7042C42.8108 26.8155 42.765 26.9268 42.7165 27.037C42.6841 27.2381 42.6482 27.4379 42.6074 27.6346C42.5301 28.009 42.1763 29.6019 42.0959 29.8711C42.0789 29.9279 42.0116 29.9149 42.0158 29.8517C42.0352 29.5585 42.3319 27.8996 42.3918 27.5238C42.5068 26.8027 42.6655 26.0668 42.8585 25.3624L42.8865 25.369Z" fill="#4E5879"/>
<path d="M40.1559 37.2733C39.4575 37.6336 38.5567 38.1914 34.4984 37.3922C34.2447 37.3409 33.9897 37.2783 33.7338 37.2023C29.928 36.0591 25.3629 31.5834 25.1055 31.2678C25.1055 31.2678 31.1503 21.4662 38.8833 18.3852C39.8388 18.0047 41.4215 18.7387 42.2974 19.6528C42.6103 19.9791 43.289 22.3843 43.0285 24.3333C42.7656 26.2792 40.8593 36.9169 40.1559 37.2733Z" fill="#ABABAB"/>
<path d="M39.6179 24.2436C39.6401 24.4541 39.6234 24.6594 39.5977 24.8631C39.5673 25.0663 39.5273 25.268 39.4479 25.4644C39.4257 25.2538 39.4422 25.0488 39.4683 24.8451C39.4992 24.6419 39.5393 24.4402 39.6179 24.2436Z" fill="white"/>
<path d="M36.9813 30.9184C37.0035 31.1289 36.9868 31.3339 36.9611 31.5379C36.9305 31.7409 36.8904 31.9428 36.8113 32.1392C36.7888 31.9286 36.8056 31.7236 36.8315 31.5199C36.8624 31.3167 36.9025 31.1148 36.9813 30.9184Z" fill="white"/>
<path d="M32.5008 25.8739C32.5231 26.0845 32.5066 26.2895 32.4806 26.4932C32.45 26.6964 32.4102 26.8983 32.3309 27.0947C32.3083 26.8842 32.3251 26.6792 32.351 26.4754C32.3822 26.2722 32.422 26.0703 32.5008 25.8739Z" fill="white"/>
<path d="M41.3446 30.5797C41.3669 30.7903 41.3501 30.9953 41.3244 31.1993C41.2938 31.4022 41.2537 31.6041 41.1747 31.8005C41.1521 31.59 41.1686 31.385 41.1948 31.1812C41.2257 30.978 41.2658 30.7761 41.3446 30.5797Z" fill="white"/>
<path d="M35.5898 25.0082C35.8001 24.986 36.0051 25.0027 36.2091 25.0284C36.4123 25.059 36.614 25.0991 36.8104 25.1782C36.5998 25.2007 36.3948 25.1839 36.1911 25.158C35.9881 25.1271 35.7862 25.087 35.5898 25.0082Z" fill="white"/>
<path d="M30.5039 29.8305C30.7142 29.8085 30.9195 29.825 31.1232 29.8507C31.3264 29.8813 31.5283 29.9214 31.7247 30.0004C31.5142 30.023 31.3089 30.0062 31.1051 29.9803C30.9022 29.9494 30.7003 29.9093 30.5039 29.8305Z" fill="white"/>
<path d="M36.4883 35.0502C36.6988 35.028 36.9041 35.0445 37.1078 35.0701C37.311 35.101 37.5127 35.1408 37.7091 35.2202C37.4988 35.2427 37.2935 35.2259 37.0898 35.1998C36.8866 35.1689 36.6849 35.1288 36.4883 35.0502Z" fill="white"/>
<path d="M28.9375 33.1537C29.148 33.1317 29.3531 33.1482 29.5571 33.1741C29.76 33.2048 29.9619 33.2448 30.1583 33.3239C29.9478 33.3464 29.7427 33.3297 29.539 33.3038C29.3358 33.2729 29.1339 33.2328 28.9375 33.1537Z" fill="white"/>
<path d="M39.5781 19.5522C39.7887 19.5302 39.9937 19.5467 40.1977 19.5726C40.4006 19.6032 40.6025 19.6433 40.7989 19.7224C40.5884 19.7449 40.3833 19.7281 40.1794 19.7022C39.9764 19.6713 39.7745 19.6312 39.5781 19.5522Z" fill="white"/>
<path d="M38.1007 21.2229C37.9674 21.3874 37.8106 21.5206 37.6482 21.6466C37.483 21.7686 37.312 21.8831 37.1172 21.9661C37.2502 21.8011 37.4068 21.6681 37.5694 21.5424C37.7349 21.4204 37.9059 21.3062 38.1007 21.2229Z" fill="white"/>
<path d="M30.038 25.9692C29.9049 26.1337 29.7481 26.267 29.5857 26.3929C29.4205 26.515 29.2495 26.6294 29.0547 26.7124C29.1874 26.5474 29.3443 26.4144 29.5069 26.2887C29.6724 26.1669 29.8434 26.0525 30.038 25.9692Z" fill="white"/>
<path d="M40.1044 28.1133C39.9714 28.2778 39.8145 28.411 39.6521 28.537C39.4869 28.6588 39.3159 28.7732 39.1211 28.8562C39.2541 28.6915 39.4107 28.5582 39.5733 28.4325C39.7388 28.3108 39.9098 28.1963 40.1044 28.1133Z" fill="white"/>
<path d="M33.5848 32.2188C33.4518 32.3832 33.295 32.5165 33.1326 32.6425C32.9674 32.7645 32.7964 32.8789 32.6016 32.9617C32.7346 32.797 32.8912 32.6637 33.0538 32.538C33.2193 32.4162 33.3903 32.3018 33.5848 32.2188Z" fill="white"/>
<path d="M42.6046 22.5029C42.4716 22.6674 42.3148 22.8007 42.1524 22.9266C41.9872 23.0487 41.8162 23.1631 41.6211 23.2461C41.7541 23.0811 41.911 22.9478 42.0736 22.8221C42.2391 22.7004 42.4101 22.5862 42.6046 22.5029Z" fill="white"/>
<path d="M42.4658 27.2615C42.3014 27.1285 42.1681 26.9716 42.0421 26.8092C41.9201 26.644 41.8057 26.473 41.7227 26.2782C41.8876 26.411 42.0209 26.5681 42.1466 26.7304C42.2681 26.8959 42.3825 27.0669 42.4658 27.2615Z" fill="white"/>
<path d="M27.9346 30.5388C27.7699 30.4055 27.6366 30.2489 27.5106 30.0866C27.3886 29.9214 27.2742 29.7501 27.1914 29.5553C27.3561 29.6883 27.4894 29.8452 27.6151 30.0078C27.7369 30.1733 27.8513 30.3443 27.9346 30.5388Z" fill="white"/>
<path d="M40.7002 34.4399C40.5357 34.3067 40.4025 34.1501 40.2765 33.9877C40.1545 33.8225 40.04 33.6512 39.957 33.4564C40.122 33.5894 40.255 33.7463 40.3807 33.9089C40.5025 34.0744 40.6169 34.2454 40.7002 34.4399Z" fill="white"/>
<path d="M34.3017 23.3235C34.137 23.1902 34.0038 23.0336 33.8778 22.871C33.756 22.7058 33.6416 22.5348 33.5586 22.3399C33.7233 22.473 33.8566 22.6298 33.9823 22.7924C34.104 22.9577 34.2185 23.1289 34.3017 23.3235Z" fill="white"/>
<path d="M34.415 36.6597C34.2503 36.5264 34.117 36.3698 33.9913 36.2074C33.8693 36.0419 33.7549 35.871 33.6719 35.6761C33.8366 35.8092 33.9699 35.966 34.0956 36.1284C34.2173 36.2941 34.3318 36.4648 34.415 36.6597Z" fill="white"/>
<path d="M35.5046 28.7927C35.3402 28.6594 35.2069 28.5028 35.0809 28.3405C34.9589 28.175 34.8445 28.004 34.7617 27.8092C34.9264 27.9422 35.0597 28.0991 35.1854 28.2614C35.3072 28.4272 35.4216 28.5982 35.5046 28.7927Z" fill="white"/>
<path d="M40.8785 22.2619C39.8934 22.0784 38.9643 20.0388 38.8477 18.6669C38.8402 18.5726 39.3089 17.8255 39.8357 16.8907C40.1531 16.3225 40.4933 15.6819 40.7614 15.075C40.8156 14.9501 41.1387 15.3664 41.1387 15.3664L41.8403 15.9032L44.159 17.6812C44.159 17.6812 43.2229 18.7881 42.7617 19.8489C42.7243 19.9379 42.6968 20.0241 42.678 20.1095L42.6654 20.1532C42.5334 20.6601 41.8311 22.4382 40.8785 22.2619Z" fill="#F9D7AC"/>
<path d="M42.6787 20.1096L42.6661 20.1533C42.5394 20.1174 42.4066 20.0674 42.2655 20.0012C39.7281 18.8118 40.8475 15.4118 40.8475 15.4118L41.841 15.9034L44.1598 17.6814C44.1598 17.6814 43.2236 18.7882 42.7625 19.849C42.7251 19.9381 42.6976 20.0242 42.6787 20.1096Z" fill="#4E5879"/>
<path d="M46.8203 10.4344C46.8203 10.4344 47.9796 11.1705 47.9872 12.4796C47.9948 13.7886 47.4734 15.0691 47.3524 15.1149C47.2312 15.161 46.8203 10.4344 46.8203 10.4344Z" fill="#4E5879"/>
<path d="M41.0652 11.1136C40.3682 12.4899 40.4033 16.8226 41.2739 17.9392C42.5358 19.5575 44.9669 20.1152 46.4341 18.5148C47.8565 16.9638 47.7107 11.3181 46.7044 10.2659C45.2222 8.71626 42.0949 9.08103 41.0652 11.1136Z" fill="#F9D7AC"/>
<path d="M44.7626 14.585L44.7406 14.6117C44.7568 14.9065 44.7257 15.2472 44.4609 15.3514L44.4636 15.3677C44.7888 15.3145 44.8254 14.8618 44.7626 14.585Z" fill="#4E5879"/>
<path d="M44.4902 14.2829C44.0144 14.2577 43.9995 15.2112 44.4402 15.2342C44.8741 15.257 44.889 14.3038 44.4902 14.2829Z" fill="#4E5879"/>
<path d="M46.3792 14.5741L46.4015 14.6006C46.3876 14.8957 46.4209 15.2361 46.6866 15.3385L46.6838 15.355C46.3588 15.3037 46.3185 14.8517 46.3792 14.5741Z" fill="#4E5879"/>
<path d="M46.6476 14.2698C47.1232 14.2413 47.1452 15.1945 46.7045 15.2209C46.2711 15.2471 46.2488 14.2937 46.6476 14.2698Z" fill="#4E5879"/>
<path d="M44.1932 13.5573C44.3233 13.5264 44.4385 13.4764 44.5645 13.4329C44.7064 13.3837 44.8245 13.3591 44.9188 13.2342C44.9693 13.1671 44.9507 13.0448 44.8902 12.9896C44.7494 12.8607 44.5605 12.8778 44.3872 12.9301C44.1992 12.9867 44.0688 13.0786 43.9591 13.241C43.8525 13.3983 44.0211 13.5974 44.1932 13.5573Z" fill="#4E5879"/>
<path d="M46.9759 13.9795C46.8439 13.956 46.7263 13.912 46.5986 13.875C46.4543 13.8337 46.3349 13.8153 46.2341 13.6954C46.1798 13.631 46.1919 13.5082 46.2495 13.4495C46.3836 13.3134 46.5729 13.3207 46.7486 13.3636C46.9395 13.4102 47.0746 13.4951 47.193 13.6514C47.3074 13.803 47.1498 14.0107 46.9759 13.9795Z" fill="#4E5879"/>
<path d="M44.091 17.3834C44.1607 17.4535 44.2298 17.5496 44.3367 17.5604C44.4393 17.5708 44.5606 17.5263 44.6553 17.4912L44.6679 17.5067C44.5894 17.6188 44.427 17.6871 44.2906 17.6609C44.157 17.6355 44.0929 17.519 44.0625 17.3962L44.091 17.3834Z" fill="#4E5879"/>
<path d="M45.8069 16.1205C45.8069 16.1205 45.8195 16.5625 45.7972 16.7678C45.7949 16.787 45.2159 16.6738 44.5916 16.811C44.4982 16.8315 44.5071 16.7555 44.6155 16.7058C44.8315 16.6063 45.1059 16.5125 45.6401 16.5699C45.6608 16.5146 45.6082 15.8898 45.6412 15.8909C45.7543 15.8935 45.9672 15.9943 46.0958 16.0475C46.0965 15.1262 45.9494 14.2121 45.9635 13.2945C45.9646 13.2618 46.0122 13.2574 46.0185 13.2872C46.2408 14.2344 46.2633 15.2946 46.2872 16.2462C46.2914 16.3648 45.8855 16.1645 45.8069 16.1205Z" fill="#4E5879"/>
<path d="M45.2148 16.6106C45.2148 16.6106 45.009 17.1286 44.6646 17.2676C44.2689 17.4279 44.133 17.0696 44.5371 16.7528C44.7492 16.5868 45.2148 16.6106 45.2148 16.6106Z" fill="#4E5879"/>
<path d="M44.8034 17.187C44.7588 17.221 44.7143 17.2498 44.6646 17.2681C44.3006 17.4148 44.1566 17.1241 44.4501 16.8308C44.6489 16.8465 44.8662 16.9199 44.8034 17.187Z" fill="#F577B8"/>
<path d="M40.8665 14.8203C41.3452 14.9673 41.8961 13.5276 42.0519 12.974C42.1892 12.4859 42.3473 10.9383 42.3709 10.8328C42.3942 10.7272 44.4584 12.2023 45.6653 11.8496C46.8722 11.4968 47.6788 10.4138 47.6953 9.90841C47.712 9.40276 46.2134 8.11939 44.9167 8.05392C43.62 7.9882 41.865 9.63633 41.865 9.63633C41.865 9.63633 42.461 8.92408 42.4408 8.86569C42.4206 8.80729 41.5827 9.14221 41.4287 9.73872C41.4287 9.73872 41.5945 8.98954 41.5311 8.97566C41.4677 8.96179 40.8168 9.6036 40.9637 10.0896C40.9637 10.0896 40.2106 10.7422 40.1409 11.457C40.0712 12.1722 40.304 14.6478 40.8665 14.8203Z" fill="#4E5879"/>
<path d="M46.5228 11.5976C46.156 11.7665 45.7883 11.9519 45.3827 12.0056C44.9444 12.0634 44.4895 11.9535 44.0815 11.7969C43.6641 11.6371 43.2847 11.4054 42.9404 11.1215C42.6384 10.873 42.3705 10.5732 42.0485 10.3519C41.9678 10.2964 41.8743 10.4127 41.9241 10.4868C42.4135 11.221 43.2792 11.8341 44.1137 12.0988C44.992 12.3772 45.8174 12.1813 46.5273 11.607L46.5228 11.5976Z" fill="#4E5879"/>
<path d="M41.3675 14.6922C41.3675 14.6922 40.6246 13.1834 39.9543 13.4282C39.2836 13.6728 39.6963 15.7574 40.3806 16.1395C41.0645 16.521 41.4303 15.8946 41.4303 15.8946L41.3675 14.6922Z" fill="#F9D7AC"/>
<path d="M40.0849 14.0228L40.0781 14.0416C40.5552 14.326 40.7506 14.839 40.8629 15.3569C40.7404 15.1454 40.5503 15.0105 40.2703 15.1519L40.28 15.1812C40.4953 15.1687 40.6401 15.2278 40.7553 15.4164C40.8367 15.5502 40.8818 15.7099 40.9323 15.8573C40.9491 15.9066 41.035 15.8948 41.0258 15.8398L41.0234 15.8272C41.136 15.1807 40.7715 14.1951 40.0849 14.0228Z" fill="#4E5879"/>
<path d="M36.457 21.4263C35.945 24.3927 39.1478 34.3883 41.21 36.2554C44.2766 39.0319 49.9466 40.8576 52.0012 41.4515C52.8965 41.7104 55.3739 35.4093 54.4679 34.9943C52.5278 34.1055 46.4998 32.2254 45.9323 31.7425C45.3649 31.2599 41.901 26.2762 40.361 23.4018C38.2952 19.5454 36.7159 19.9259 36.457 21.4263Z" fill="#F9D7AC"/>
<path d="M52.9395 34.4399C52.9395 34.4399 55.6131 35.1212 57.3409 35.6491C58.3048 35.9435 59.912 36.5958 60.5211 37.136C61.4321 37.9441 64.7266 41.9052 63.7834 42.7248C62.9297 43.4664 60.5313 39.704 60.5313 39.704C60.5313 39.704 63.2869 43.2868 62.0946 43.9909C60.9024 44.695 58.7583 40.0834 58.7583 40.0834C58.7583 40.0834 61.5068 43.8283 60.1624 44.3596C59.1464 44.7616 56.969 40.6941 56.969 40.6941C56.969 40.6941 59.3092 43.9291 58.2822 44.3874C57.1473 44.8935 54.9019 41.2655 54.9019 41.2655C52.0953 41.9906 50.4621 41.1877 49.3686 40.4783C49.1038 40.3065 52.9395 34.4399 52.9395 34.4399Z" fill="#F9D7AC"/>
<path d="M59.6576 38.4036C59.9965 38.8127 60.3424 39.2248 60.6438 39.6624C60.9452 40.1005 61.2314 40.5491 61.4909 41.0131C62.1267 42.1511 62.3469 42.9631 62.3278 42.9144C61.8769 41.7633 60.8221 40.179 60.5207 39.741C60.2201 39.3042 59.9412 38.8519 59.6406 38.4146L59.6576 38.4036Z" fill="#4E5879"/>
<path d="M58.0566 39.463C58.6374 39.9233 59.8561 41.6377 60.3259 42.7862C60.3455 42.8344 60.3196 42.8307 60.291 42.7867C59.9231 42.2193 58.4365 40.0189 58.043 39.4719L58.0566 39.463Z" fill="#4E5879"/>
<path d="M56.5199 40.1256C57.1924 40.791 57.757 41.6999 58.2011 42.7499C58.221 42.7976 58.183 42.7902 58.1555 42.7452C57.6132 41.8622 57.1937 41.1657 56.4922 40.1486L56.5199 40.1256Z" fill="#4E5879"/>
<path d="M39.3701 21.6445C36.9791 18.2628 35.5504 19.5164 36.0298 23.1868C36.4781 26.6195 37.6814 30.709 37.6814 30.709L43.7149 27.7866C43.7149 27.7866 40.9001 23.8085 39.3701 21.6445Z" fill="#ABABAB"/>
<path d="M40.8327 22.9742C40.9181 23.1677 40.965 23.3683 41.0027 23.5702C41.0354 23.7729 41.059 23.9774 41.0435 24.1887C40.9579 23.9949 40.9113 23.7946 40.8736 23.5925C40.8411 23.3898 40.8178 23.1853 40.8327 22.9742Z" fill="white"/>
<path d="M37.2617 25.0299C37.4555 24.9446 37.6558 24.898 37.8577 24.86C38.0606 24.8273 38.2649 24.8037 38.4762 24.8192C38.2824 24.905 38.0821 24.9517 37.88 24.9891C37.6773 25.0216 37.4728 25.0451 37.2617 25.0299Z" fill="white"/>
<path d="M37.4169 19.7717C37.3402 19.9691 37.2315 20.1438 37.1155 20.3132C36.9953 20.4797 36.8673 20.641 36.707 20.7793C36.7835 20.5819 36.8922 20.4072 37.0084 20.2378C37.1289 20.0715 37.2569 19.9102 37.4169 19.7717Z" fill="white"/>
<path d="M42.5068 26.6093C42.43 26.8068 42.3214 26.9814 42.2051 27.1508C42.0849 27.3174 41.9571 27.4787 41.7969 27.6169C41.8733 27.4198 41.982 27.2448 42.0983 27.0757C42.2187 26.9091 42.3468 26.7481 42.5068 26.6093Z" fill="white"/>
<path d="M38.3319 28.6604C38.1347 28.5837 37.9597 28.4753 37.7903 28.359C37.6238 28.2388 37.4625 28.111 37.3242 27.9508C37.5217 28.027 37.6963 28.1356 37.8657 28.2522C38.0323 28.3726 38.1933 28.5004 38.3319 28.6604Z" fill="white"/>
<path d="M40.1738 22.6623C40.4948 23.1041 40.8274 23.5372 41.1589 23.9711C41.0749 23.7516 41.0021 23.5301 40.9371 23.3036L40.9531 23.2984C41.0201 23.4722 41.0945 23.6432 41.1586 23.8182C41.1895 23.9019 41.221 23.9857 41.2532 24.0693L41.2744 24.123C41.5323 24.4615 41.7892 24.8009 42.0374 25.1466C42.3336 25.5587 42.6196 25.9785 42.9068 26.3972C43.2035 26.8298 43.485 27.337 43.7984 27.7576C43.8257 27.794 43.2645 28.0205 43.2121 28.0498C43.1585 28.0796 43.1221 28.0275 43.1791 28.0103C43.2315 27.9943 43.6762 27.7212 43.6817 27.7157C43.3947 27.2935 43.0611 26.9031 42.7604 26.4904C42.4614 26.0796 42.161 25.6698 41.8712 25.2524C41.282 24.4052 40.7407 23.5246 40.1562 22.6736L40.1738 22.6623Z" fill="#4E5879"/>
<path d="M36.1791 25.6154C36.2707 25.7939 36.3695 25.9707 36.4506 26.1545C36.4842 26.2302 36.5172 26.3064 36.5509 26.3823C36.4132 25.7285 36.2786 25.0744 36.1445 24.42L36.1566 24.4161C36.4328 25.4761 36.7122 26.5347 36.9691 27.5995C37.214 28.6144 37.5096 29.642 37.6497 30.6776C37.7332 30.6501 38.2027 30.4558 38.2164 30.4862C38.23 30.5168 37.6023 30.8122 37.5939 30.7873C37.2525 29.7755 37.0411 28.6257 36.8086 27.584C36.7431 27.2907 36.6821 26.9967 36.6195 26.7029C36.5517 26.5258 36.469 26.3554 36.3886 26.1833C36.3032 26.0013 36.2349 25.811 36.1602 25.6243L36.1791 25.6154Z" fill="#4E5879"/>
<path d="M37.7773 29.7C38.6156 29.2271 42.1174 27.4145 42.9011 27.0728C42.9556 27.0489 42.9839 27.0767 42.9307 27.1086C40.4535 28.5845 38.6438 29.3088 37.7975 29.7317L37.7773 29.7Z" fill="#4E5879"/>
<path d="M133.732 98.542H53.9492L65.4854 33.1163H145.268L133.732 98.542Z" fill="#ABABAB"/>
<path d="M92.79 26.3406H66.679L65.4844 33.1162H93.4276L92.79 26.3406Z" fill="#ABABAB"/>
<path d="M133.732 98.542H53.9492L65.4854 33.1163H145.268L144.065 39.938L141.376 55.1876L133.732 98.542Z" fill="#ABABAB"/>
<path d="M93.4276 33.1162H65.4844L66.679 26.3406H92.79L93.4276 33.1162Z" fill="#ABABAB"/>
<path d="M63.8614 29.1047C63.758 28.7248 63.7349 28.3451 63.7305 27.9651C63.7344 27.5854 63.7574 27.2057 63.8614 26.8258C63.9651 27.2057 63.9884 27.5854 63.9921 27.9651C63.9876 28.3451 63.9646 28.7248 63.8614 29.1047Z" fill="#4E5879"/>
<path d="M61.5417 29.7756C61.2623 29.4983 61.0523 29.181 60.8588 28.8544C60.6721 28.5234 60.5024 28.183 60.4023 27.802C60.682 28.079 60.892 28.3964 61.0853 28.7235C61.2715 29.0545 61.4411 29.3949 61.5417 29.7756Z" fill="#4E5879"/>
<path d="M59.8682 31.5168C59.4874 31.4166 59.147 31.2466 58.8157 31.0607C58.4889 30.8674 58.1716 30.6574 57.8945 30.3775C58.2755 30.4775 58.616 30.6475 58.9467 30.8339C59.2735 31.0277 59.5908 31.2377 59.8682 31.5168Z" fill="#4E5879"/>
<path d="M59.2868 33.8615C58.9068 33.9649 58.5271 33.988 58.1474 33.9924C57.7675 33.9885 57.3878 33.9655 57.0078 33.8615C57.3878 33.7578 57.7675 33.7345 58.1474 33.7308C58.5271 33.735 58.9068 33.7583 59.2868 33.8615Z" fill="#4E5879"/>
<path d="M59.958 36.1822C59.6807 36.4616 59.3633 36.6716 59.0368 36.8651C58.7058 37.0518 58.3654 37.2215 57.9844 37.3215C58.2614 37.0419 58.5788 36.8316 58.9059 36.6386C59.2369 36.4524 59.5773 36.2827 59.958 36.1822Z" fill="#4E5879"/>
<path d="M61.7021 37.856C61.6016 38.2367 61.4316 38.5771 61.2457 38.9084C61.0524 39.2352 60.8424 39.5525 60.5625 39.8296C60.6625 39.4488 60.8325 39.1082 61.0189 38.7774C61.2127 38.4506 61.4227 38.1333 61.7021 37.856Z" fill="#4E5879"/>
<path d="M64.0447 38.4347C64.1482 38.8146 64.1712 39.1943 64.1757 39.574C64.1717 39.954 64.1487 40.3337 64.0447 40.7136C63.941 40.3337 63.9177 39.954 63.9141 39.574C63.9183 39.1943 63.9416 38.8146 64.0447 38.4347Z" fill="#4E5879"/>
<path d="M66.3672 37.7639C66.6466 38.0412 66.8566 38.3586 67.0501 38.6851C67.2368 39.0161 67.4065 39.3565 67.5065 39.7375C67.2269 39.4605 67.0169 39.1431 66.8236 38.8161C66.6374 38.4851 66.4677 38.1444 66.3672 37.7639Z" fill="#4E5879"/>
<path d="M68.0391 36.0228C68.4198 36.1231 68.7602 36.293 69.0915 36.4789C69.4183 36.6722 69.7356 36.8822 70.0127 37.1621C69.6319 37.0621 69.2913 36.8921 68.9605 36.7057C68.6337 36.5119 68.3164 36.3019 68.0391 36.0228Z" fill="#4E5879"/>
<path d="M68.6172 33.6779C68.9971 33.5745 69.3768 33.5514 69.7568 33.547C70.1365 33.5509 70.5162 33.574 70.8961 33.6779C70.5162 33.7816 70.1365 33.8049 69.7568 33.8086C69.3768 33.8041 68.9971 33.7811 68.6172 33.6779Z" fill="#4E5879"/>
<path d="M67.9492 31.3577C68.2265 31.0783 68.5439 30.8683 68.8707 30.6747C69.2014 30.488 69.5418 30.3183 69.9228 30.2183C69.6458 30.498 69.3284 30.708 69.0014 30.9012C68.6704 31.0874 68.3297 31.2571 67.9492 31.3577Z" fill="#4E5879"/>
<path d="M66.207 29.6833C66.3073 29.3029 66.4773 28.9625 66.6632 28.6312C66.8567 28.3044 67.0665 27.987 67.3464 27.71C67.2463 28.0907 67.0764 28.4314 66.89 28.7621C66.6962 29.0889 66.4862 29.4063 66.207 29.6833Z" fill="#4E5879"/>
<path d="M133.615 98.542H53.6607L42.3086 35.4916H122.264L133.615 98.542Z" fill="#D9D9D9"/>
<path d="M73.3379 70.7114C73.3379 72.5468 71.85 74.0347 70.0147 74.0347C68.1793 74.0347 66.6914 72.5468 66.6914 70.7114C66.6914 68.8761 68.1793 67.3882 70.0147 67.3882C71.85 67.3882 73.3379 68.8761 73.3379 70.7114Z" fill="#4E5879"/>
<path d="M99.6077 70.7114C99.6077 72.5468 98.1196 74.0347 96.2842 74.0347C94.4491 74.0347 92.9609 72.5468 92.9609 70.7114C92.9609 68.8761 94.4491 67.3882 96.2842 67.3882C98.1196 67.3882 99.6077 68.8761 99.6077 70.7114Z" fill="#4E5879"/>
<path d="M87.9211 74.5652L87.7386 74.2172C87.7221 74.1858 86.0054 71.0125 82.5509 71.0125C79.4005 71.0125 78.6325 74.0004 78.6013 74.1276L78.5081 74.5084L77.7461 74.3243L77.8377 73.943C77.8466 73.9061 78.7739 70.227 82.5509 70.227C86.4885 70.227 88.3569 73.7045 88.4344 73.8527L88.6169 74.2004L87.9211 74.5652Z" fill="#4E5879"/>
<path d="M128.336 70.458C128.508 70.4211 128.68 70.3807 128.851 70.337L128.786 70.0833C128.618 70.1262 128.45 70.166 128.281 70.2022L128.336 70.4583" fill="#4E5879"/>
<path d="M129.866 70.0364C130.2 69.9233 130.531 69.7978 130.855 69.6606L130.753 69.4194C130.435 69.554 130.11 69.6771 129.782 69.7881L129.866 70.0364ZM131.814 69.212C132.13 69.0497 132.438 68.8763 132.737 68.6923L132.6 68.4692C132.306 68.6496 132.004 68.82 131.694 68.9793L131.814 69.212ZM133.616 68.102C133.903 67.892 134.18 67.6715 134.444 67.4414L134.272 67.2439C134.013 67.4689 133.743 67.6849 133.461 67.8907L133.616 68.102ZM135.211 66.7097C135.458 66.4513 135.69 66.1831 135.905 65.9066L135.698 65.7458C135.489 66.0153 135.263 66.2766 135.022 66.5288L135.211 66.7097ZM136.51 65.033C136.696 64.7275 136.863 64.4132 137.007 64.0917L136.768 63.9843C136.629 64.2954 136.468 64.5999 136.286 64.8966L136.51 65.033ZM137.376 63.0916C137.475 62.7502 137.549 62.4019 137.596 62.0484L137.336 62.0141C137.291 62.3542 137.22 62.6894 137.125 63.0188L137.376 63.0916ZM137.665 60.9868C137.665 60.9614 137.665 60.936 137.665 60.9106C137.665 60.5773 137.648 60.2499 137.614 59.9278L137.354 59.9548C137.386 60.268 137.403 60.5864 137.403 60.9106C137.403 60.9352 137.403 60.9598 137.403 60.9847L137.665 60.9868ZM137.449 58.8812C137.376 58.534 137.285 58.1928 137.178 57.8568L136.928 57.9359C137.032 58.2643 137.121 58.5971 137.193 58.9354L137.449 58.8812ZM136.816 56.8633C136.682 56.5386 136.536 56.2184 136.379 55.9012L136.144 56.0172C136.299 56.3296 136.443 56.6444 136.574 56.9628L136.816 56.8633ZM135.885 54.969C135.713 54.6647 135.533 54.3631 135.347 54.0627L135.125 54.2005C135.309 54.4982 135.487 54.797 135.657 55.0979L135.885 54.969ZM134.781 53.1758C134.589 52.8844 134.394 52.5934 134.197 52.3025L133.98 52.4497C134.177 52.7398 134.372 53.0297 134.562 53.3196L134.781 53.1758ZM133.606 51.4368C133.409 51.149 133.212 50.8607 133.017 50.5708L132.8 50.7172C132.996 51.0079 133.193 51.2967 133.39 51.5845L133.606 51.4368ZM132.439 49.6986C132.249 49.4064 132.063 49.112 131.882 48.8148L131.658 48.951C131.841 49.2508 132.029 49.5472 132.219 49.8413L132.439 49.6986ZM131.356 47.914C131.187 47.6105 131.024 47.3036 130.87 46.9925L130.636 47.1086C130.791 47.4241 130.956 47.7349 131.127 48.0416L131.356 47.914ZM130.437 46.048C130.303 45.7301 130.179 45.4075 130.067 45.0794L129.819 45.1642C129.933 45.4986 130.059 45.8268 130.196 46.1499L130.437 46.048ZM129.769 44.0864C129.684 43.7552 129.611 43.4179 129.553 43.0738L129.295 43.1176C129.354 43.469 129.428 43.8136 129.515 44.1516L129.769 44.0864ZM129.425 42.0471C129.4 41.7357 129.387 41.4186 129.387 41.0958C129.387 41.0677 129.387 41.0397 129.387 41.012L129.125 41.0101C129.125 41.0387 129.125 41.0672 129.125 41.0958C129.125 41.4257 129.138 41.7496 129.164 42.068L129.425 42.0471ZM129.438 39.976C129.445 39.9043 129.452 39.8323 129.46 39.7598C129.491 39.4814 129.529 39.2112 129.575 38.949L129.317 38.9035C129.27 39.1714 129.231 39.4474 129.2 39.7315C129.192 39.8053 129.184 39.8789 129.178 39.9522L129.438 39.976ZM129.802 37.9396C129.896 37.5971 130.005 37.2705 130.126 36.9589L129.883 36.8636C129.757 37.1838 129.646 37.519 129.549 37.8702L129.802 37.9396ZM130.555 36.0204C130.72 35.7096 130.899 35.4163 131.091 35.1395L130.876 34.9903C130.678 35.2754 130.493 35.5779 130.324 35.8981L130.555 36.0204ZM131.73 34.3309C131.962 34.0714 132.207 33.8302 132.463 33.6061L132.291 33.4092C132.027 33.6399 131.774 33.8886 131.535 34.1562L131.73 34.3309ZM133.279 32.9732C133.565 32.7768 133.86 32.5979 134.162 32.435L134.038 32.2046C133.728 32.3714 133.425 32.5555 133.131 32.7574L133.279 32.9732ZM135.097 31.9912C135.418 31.8579 135.743 31.7406 136.072 31.6382L135.994 31.3881C135.658 31.4929 135.325 31.6131 134.997 31.7495L135.097 31.9912ZM137.074 31.3711C137.415 31.2954 137.757 31.2339 138.096 31.186L138.059 30.9267C137.714 30.9757 137.365 31.0383 137.017 31.1155L137.074 31.3711ZM139.129 31.0794C139.441 31.0587 139.749 31.049 140.049 31.049C140.089 31.049 140.129 31.0493 140.168 31.0495L140.17 30.7877C140.13 30.7874 140.09 30.7872 140.049 30.7872C139.743 30.7872 139.43 30.7971 139.112 30.8181L139.129 31.0794ZM141.205 31.0983C141.565 31.1294 141.91 31.1744 142.233 31.2315L142.278 30.9736C141.947 30.9152 141.595 30.8691 141.227 30.8372L141.205 31.0983ZM143.238 31.4662C143.297 31.4837 143.355 31.5018 143.411 31.5204C143.699 31.6152 143.959 31.7225 144.192 31.8396L144.31 31.6057C144.064 31.4821 143.792 31.3701 143.493 31.2716C143.434 31.2525 143.375 31.2336 143.314 31.2153L143.238 31.4662ZM145.034 32.3992C145.312 32.6453 145.513 32.9098 145.645 33.179L145.88 33.0635C145.732 32.7611 145.509 32.4696 145.208 32.203L145.034 32.3992ZM145.841 34.1277C145.82 34.4503 145.711 34.7619 145.523 35.0413L145.74 35.1877C145.953 34.8722 146.078 34.5152 146.102 34.1447L145.841 34.1277ZM144.805 35.7132C144.539 35.874 144.227 35.9989 143.873 36.0744L143.927 36.3305C144.309 36.2493 144.649 36.1142 144.94 35.9374L144.805 35.7132ZM142.864 36.1506C142.726 36.144 142.584 36.1309 142.439 36.111C142.239 36.0835 142.041 36.0503 141.846 36.0112L141.794 36.2681C141.995 36.3082 142.198 36.3422 142.403 36.3705C142.556 36.3915 142.706 36.4051 142.851 36.4121L142.864 36.1506ZM140.845 35.7544C140.513 35.6501 140.191 35.5284 139.877 35.3901L139.772 35.6297C140.094 35.7719 140.426 35.8968 140.766 36.0042L140.845 35.7544ZM138.956 34.9216C138.658 34.7483 138.37 34.5587 138.093 34.3539L137.938 34.5645C138.222 34.775 138.518 34.9698 138.825 35.1479L138.956 34.9216ZM137.298 33.6954C137.045 33.462 136.805 33.2149 136.578 32.9543L136.381 33.1263C136.614 33.394 136.861 33.648 137.12 33.8876L137.298 33.6954ZM135.94 32.1404C135.743 31.8603 135.559 31.5683 135.389 31.265L135.161 31.3931C135.335 31.7039 135.524 32.0038 135.726 32.2913L135.94 32.1404ZM134.928 30.3386C134.791 30.0254 134.668 29.7028 134.559 29.3713L134.31 29.4533C134.421 29.7924 134.548 30.1228 134.688 30.4436L134.928 30.3386ZM134.28 28.3736C134.204 28.041 134.141 27.7009 134.093 27.3545L133.833 27.3906C133.883 27.7446 133.947 28.0921 134.025 28.4323L134.28 28.3736ZM133.993 26.3222C133.98 26.0902 133.974 25.8553 133.974 25.6183C133.974 25.5076 133.975 25.3965 133.978 25.285L133.716 25.2782C133.713 25.3921 133.712 25.5055 133.712 25.6183C133.712 25.8603 133.718 26.0996 133.731 26.3366L133.993 26.3222ZM134.044 24.2491C134.079 23.91 134.126 23.5669 134.187 23.2205L133.929 23.1749C133.867 23.5277 133.819 23.877 133.783 24.2226L134.044 24.2491ZM134.403 22.204C134.485 21.873 134.579 21.5394 134.686 21.2037L134.437 21.1241C134.328 21.4653 134.232 21.8041 134.149 22.1408L134.403 22.204ZM135.032 20.2227C135.16 19.8944 135.298 19.5772 135.445 19.2711L135.209 19.1578C135.059 19.4699 134.918 19.793 134.788 20.1279L135.032 20.2227ZM135.931 18.3549C136.108 18.0511 136.294 17.7594 136.488 17.4798L136.273 17.3305C136.075 17.6159 135.885 17.9134 135.705 18.2232L135.931 18.3549ZM137.112 16.6502C137.334 16.3779 137.563 16.1181 137.797 15.8704L137.607 15.6902C137.368 15.9426 137.135 16.2074 136.909 16.485L137.112 16.6502ZM138.539 15.1427C138.799 14.9049 139.063 14.6802 139.329 14.4684L139.166 14.2634C138.895 14.4791 138.627 14.7075 138.362 14.9494L138.539 15.1427ZM140.164 13.8478C140.456 13.6454 140.747 13.4566 141.037 13.2809L140.901 13.0572C140.607 13.2353 140.311 13.427 140.015 13.6328L140.164 13.8478ZM141.942 12.7671C142.261 12.5979 142.574 12.4447 142.876 12.3057L142.767 12.0679C142.46 12.2085 142.144 12.3641 141.82 12.5359L141.942 12.7671ZM143.834 11.8967C144.188 11.7568 144.518 11.6393 144.814 11.5411L144.732 11.2926C144.431 11.3921 144.097 11.5115 143.738 11.6531L143.834 11.8967Z" fill="#4E5879"/>
<path d="M145.862 11.2312C146.023 11.1898 146.148 11.1605 146.234 11.1416C146.276 11.1322 146.309 11.1257 146.331 11.1212L146.362 11.1149L146.314 10.8575C146.312 10.8581 146.124 10.8931 145.797 10.9775L145.862 11.2312Z" fill="#4E5879"/>
<path d="M150.49 9.53947C149.821 7.46974 145.349 8.21342 146.222 10.9174C147.095 13.6216 151.158 11.6092 150.49 9.53947Z" fill="#4E5879"/>
<path d="M143.79 8.70513C143.823 7.79727 145.086 7.09889 146.871 7.42124C148.656 7.74359 150.337 8.94578 150.337 8.94578C150.337 8.94578 148.572 10.0254 146.768 10.2158C144.965 10.4062 143.756 9.61692 143.79 8.70513Z" fill="#F8F8F8"/>
<path d="M150.337 8.94596C149.41 8.95225 148.485 8.92108 147.559 8.8928C146.634 8.85326 145.709 8.8166 144.785 8.74197C145.712 8.7349 146.637 8.76659 147.563 8.79487C148.488 8.83441 149.413 8.87133 150.337 8.94596Z" fill="#4E5879"/>
<path d="M145.582 7.9017C145.85 8.02163 146.098 8.17351 146.348 8.32303C146.591 8.48224 146.837 8.63884 147.061 8.82764C146.793 8.70771 146.545 8.55556 146.296 8.40604C146.052 8.24683 145.807 8.08998 145.582 7.9017Z" fill="#4E5879"/>
<path d="M148.008 8.8602C147.773 9.05922 147.518 9.22681 147.265 9.39675C147.005 9.55727 146.747 9.72014 146.469 9.85107C146.703 9.65154 146.958 9.48421 147.212 9.31426C147.472 9.15401 147.73 8.9914 148.008 8.8602Z" fill="#4E5879"/>
<path d="M148.281 8.34905C148.42 8.40849 148.534 8.49726 148.65 8.58367C148.76 8.67899 148.871 8.77221 148.958 8.89502C148.82 8.83584 148.705 8.74681 148.589 8.66013C148.48 8.56482 148.369 8.47134 148.281 8.34905Z" fill="#4E5879"/>
<path d="M145.492 14.0921C146.05 14.8088 147.483 14.6368 148.743 13.3314C150.002 12.0263 150.663 10.0678 150.663 10.0678C150.663 10.0678 148.599 10.2244 147.025 11.1247C145.45 12.0252 144.932 13.372 145.492 14.0921Z" fill="#F8F8F8"/>
<path d="M150.662 10.0679C149.906 10.6047 149.174 11.1714 148.439 11.7354C147.712 12.3087 146.983 12.8795 146.277 13.4805C147.033 12.9439 147.765 12.3773 148.499 11.813C149.227 11.2395 149.956 10.6686 150.662 10.0679Z" fill="#4E5879"/>
<path d="M147.414 13.6946C147.561 13.4406 147.674 13.1722 147.789 12.9051C147.893 12.6335 148.001 12.3633 148.073 12.0784C147.925 12.3324 147.813 12.6008 147.698 12.8682C147.593 13.1397 147.486 13.4102 147.414 13.6946Z" fill="#4E5879"/>
<path d="M148.824 11.4982C148.517 11.4738 148.213 11.4872 147.908 11.4974C147.603 11.5191 147.299 11.538 146.996 11.5948C147.303 11.6194 147.608 11.6058 147.913 11.5953C148.217 11.5736 148.522 11.5547 148.824 11.4982Z" fill="#4E5879"/>
<path d="M149.34 11.7554C149.417 11.626 149.458 11.4872 149.502 11.3487C149.535 11.2076 149.571 11.0669 149.57 10.9166C149.492 11.0455 149.451 11.1845 149.407 11.3228C149.374 11.4642 149.339 11.6048 149.34 11.7554Z" fill="#4E5879"/>
<path d="M150.491 9.53966C150.078 9.67295 149.636 9.44644 149.503 9.03427C149.37 8.62184 149.596 8.17957 150.008 8.04654C150.421 7.91326 150.863 8.13976 150.996 8.55193C151.129 8.96436 150.903 9.40664 150.491 9.53966Z" fill="#33535F"/>
<path d="M150.971 11.0327C150.559 11.1657 150.116 10.9395 149.984 10.527C149.85 10.1149 150.077 9.67259 150.489 9.5393C150.901 9.40628 151.343 9.63252 151.477 10.045C151.61 10.4571 151.383 10.8994 150.971 11.0327Z" fill="#33535F"/>
<path d="M65.1226 10.3662C64.7478 13.9505 61.5364 16.5539 57.9518 16.1789C56.5032 16.0273 55.2154 15.4125 54.2182 14.4941L50.9531 14.9736L52.5869 12.1507C52.1904 11.1863 52.0233 10.113 52.1391 9.00792C52.5138 5.42359 55.7255 2.82046 59.3098 3.19518C62.8944 3.57016 65.4975 6.7816 65.1226 10.3662Z" fill="white"/>
<path d="M65.1238 10.3663C65.3223 8.39917 64.5836 6.35667 63.1423 5.00548C62.4266 4.32962 61.5601 3.81768 60.6253 3.52047C59.6889 3.22745 58.687 3.1578 57.7226 3.30287C56.7587 3.45082 55.8252 3.81009 55.027 4.36785C54.231 4.92692 53.5593 5.65803 53.0743 6.49781C52.5797 7.3355 52.3236 8.29573 52.2458 9.25937C52.1848 10.2262 52.3427 11.2047 52.7054 12.1026L52.7287 12.161L52.6978 12.2142L51.0544 15.0315L50.9376 14.8592L54.2058 14.4015L54.2509 14.3952L54.2831 14.4253C55.147 15.2363 56.2402 15.8024 57.4084 16.035C57.7001 16.0939 57.996 16.1308 58.2937 16.1426C58.5912 16.1743 58.8887 16.152 59.1869 16.1413C59.7779 16.0805 60.3737 15.9805 60.9298 15.7577C61.4886 15.5484 62.0286 15.274 62.5041 14.909C62.7545 14.7427 62.9663 14.5288 63.1936 14.3337C63.3939 14.1114 63.6149 13.9061 63.787 13.6596C64.5362 12.7193 64.9795 11.5569 65.1238 10.3663ZM65.1238 10.3663C64.9876 11.5577 64.5519 12.7256 63.8066 13.6746C63.6354 13.9233 63.4149 14.131 63.2151 14.3557C62.9883 14.5531 62.7767 14.7699 62.5261 14.9388C62.049 15.3065 61.5125 15.5948 60.9518 15.8153C60.3938 16.0502 59.7934 16.1622 59.1948 16.2345C58.8928 16.2507 58.5904 16.2782 58.2879 16.2515C57.985 16.2447 57.6833 16.2125 57.3848 16.1578C56.1905 15.9415 55.0592 15.3824 54.1558 14.5633L54.2331 14.5871L50.9711 15.0878L50.7344 15.1242L50.8543 14.9155L52.4784 12.0872L52.4708 12.199C51.6797 10.3361 51.858 8.11767 52.8727 6.38207C53.3786 5.5127 54.0841 4.76378 54.9168 4.20524C55.7492 3.64512 56.7142 3.29397 57.7022 3.16016C58.6912 3.02896 59.7091 3.11905 60.6536 3.43275C61.5968 3.75039 62.4617 4.28458 63.1703 4.97615C64.6116 6.34593 65.3359 8.401 65.1238 10.3663Z" fill="#4E5879"/>
<path d="M55.7119 11.1824L55.5603 5.98738H56.5993L56.448 11.1824H55.7119ZM55.4414 12.7302C55.4414 12.3406 55.7119 12.0591 56.0798 12.0591C56.4697 12.0591 56.7185 12.3406 56.7185 12.7302C56.7185 13.1089 56.4697 13.4011 56.0798 13.4011C55.7012 13.4011 55.4414 13.1089 55.4414 12.7302Z" fill="#ABABAB"/>
<path d="M58.2002 11.1824L58.0488 5.98738H59.0876L58.9363 11.1824H58.2002ZM57.9297 12.7302C57.9297 12.3406 58.2002 12.0591 58.5684 12.0591C58.9577 12.0591 59.207 12.3406 59.207 12.7302C59.207 13.1089 58.9577 13.4011 58.5684 13.4011C58.1894 13.4011 57.9297 13.1089 57.9297 12.7302Z" fill="#ABABAB"/>
<path d="M60.6887 11.1824L60.5371 5.98738H61.5762L61.4246 11.1824H60.6887ZM60.418 12.7302C60.418 12.3406 60.6887 12.0591 61.0566 12.0591C61.4463 12.0591 61.6951 12.3406 61.6951 12.7302C61.6951 13.1089 61.4463 13.4011 61.0566 13.4011C60.6777 13.4011 60.418 13.1089 60.418 12.7302Z" fill="#ABABAB"/>
<path d="M98.0399 11.1055L98.6602 24.2955L95.7277 24.5006L94.5154 11.3519L98.0399 11.1055ZM97.5914 30.0809C97.0389 30.1196 96.5517 29.9584 96.1299 29.5974C95.7141 29.236 95.4867 28.776 95.4477 28.2174C95.4095 27.671 95.5711 27.1899 95.9325 26.7742C96.2999 26.358 96.7599 26.1306 97.3124 26.092C97.8528 26.0542 98.3339 26.2158 98.7557 26.5768C99.1836 26.9373 99.4166 27.3908 99.4548 27.9372C99.4807 28.3076 99.4102 28.6511 99.2432 28.9679C99.0823 29.2842 98.8564 29.544 98.5656 29.7474C98.2804 29.9443 97.9557 30.0555 97.5914 30.0809Z" fill="#4E5879"/>
</g>
</svg>
