<svg width="260" height="106" viewBox="0 0 260 106" fill="none" xmlns="http://www.w3.org/2000/svg">
<path d="M2.2 101C2.05333 101 1.94 100.96 1.86 100.88C1.78 100.787 1.74 100.673 1.74 100.54V87.48C1.74 87.3333 1.78 87.22 1.86 87.14C1.94 87.0467 2.05333 87 2.2 87H3.12C3.28 87 3.4 87.04 3.48 87.12C3.56 87.1867 3.60667 87.24 3.62 87.28L10.26 97.48V87.48C10.26 87.3333 10.3 87.22 10.38 87.14C10.46 87.0467 10.5733 87 10.72 87H11.68C11.8267 87 11.94 87.0467 12.02 87.14C12.1133 87.22 12.16 87.3333 12.16 87.48V100.52C12.16 100.653 12.1133 100.767 12.02 100.86C11.94 100.953 11.8333 101 11.7 101H10.74C10.5933 101 10.48 100.96 10.4 100.88C10.3333 100.8 10.2867 100.747 10.26 100.72L3.64 90.62V100.54C3.64 100.673 3.59333 100.787 3.5 100.88C3.42 100.96 3.30667 101 3.16 101H2.2ZM19.6267 101.2C18.6134 101.2 17.7667 101.007 17.0867 100.62C16.4067 100.233 15.8867 99.7 15.5267 99.02C15.1667 98.3267 14.9667 97.54 14.9267 96.66C14.9134 96.4333 14.9067 96.1467 14.9067 95.8C14.9067 95.44 14.9134 95.1533 14.9267 94.94C14.9667 94.0467 15.1667 93.26 15.5267 92.58C15.9001 91.9 16.4267 91.3667 17.1067 90.98C17.7867 90.5933 18.6267 90.4 19.6267 90.4C20.6267 90.4 21.4667 90.5933 22.1467 90.98C22.8267 91.3667 23.3467 91.9 23.7067 92.58C24.0801 93.26 24.2867 94.0467 24.3267 94.94C24.3401 95.1533 24.3467 95.44 24.3467 95.8C24.3467 96.1467 24.3401 96.4333 24.3267 96.66C24.2867 97.54 24.0867 98.3267 23.7267 99.02C23.3667 99.7 22.8467 100.233 22.1667 100.62C21.4867 101.007 20.6401 101.2 19.6267 101.2ZM19.6267 99.66C20.4534 99.66 21.1134 99.4 21.6067 98.88C22.1001 98.3467 22.3667 97.5733 22.4067 96.56C22.4201 96.36 22.4267 96.1067 22.4267 95.8C22.4267 95.4933 22.4201 95.24 22.4067 95.04C22.3667 94.0267 22.1001 93.26 21.6067 92.74C21.1134 92.2067 20.4534 91.94 19.6267 91.94C18.8001 91.94 18.1334 92.2067 17.6267 92.74C17.1334 93.26 16.8734 94.0267 16.8467 95.04C16.8334 95.24 16.8267 95.4933 16.8267 95.8C16.8267 96.1067 16.8334 96.36 16.8467 96.56C16.8734 97.5733 17.1334 98.3467 17.6267 98.88C18.1334 99.4 18.8001 99.66 19.6267 99.66ZM32.2334 101C32.1001 101 31.9868 100.96 31.8934 100.88C31.8134 100.787 31.7734 100.673 31.7734 100.54V87.26C31.7734 87.1267 31.8134 87.02 31.8934 86.94C31.9868 86.8467 32.1001 86.8 32.2334 86.8H33.2334C33.3801 86.8 33.4934 86.8467 33.5734 86.94C33.6534 87.02 33.6934 87.1267 33.6934 87.26V91.92C34.0534 91.4667 34.4934 91.1 35.0134 90.82C35.5334 90.54 36.1934 90.4 36.9934 90.4C37.8601 90.4 38.5934 90.5933 39.1934 90.98C39.8068 91.3533 40.2668 91.88 40.5734 92.56C40.8934 93.2267 41.0534 94.0067 41.0534 94.9V100.54C41.0534 100.673 41.0134 100.787 40.9334 100.88C40.8534 100.96 40.7401 101 40.5934 101H39.5934C39.4601 101 39.3468 100.96 39.2534 100.88C39.1734 100.787 39.1334 100.673 39.1334 100.54V95C39.1334 94.0667 38.9068 93.34 38.4534 92.82C38.0001 92.2867 37.3334 92.02 36.4534 92.02C35.6268 92.02 34.9601 92.2867 34.4534 92.82C33.9468 93.34 33.6934 94.0667 33.6934 95V100.54C33.6934 100.673 33.6534 100.787 33.5734 100.88C33.4934 100.96 33.3801 101 33.2334 101H32.2334ZM48.2009 101.2C47.1876 101.2 46.3409 101.007 45.6609 100.62C44.9809 100.233 44.4609 99.7 44.1009 99.02C43.7409 98.3267 43.5409 97.54 43.5009 96.66C43.4876 96.4333 43.4809 96.1467 43.4809 95.8C43.4809 95.44 43.4876 95.1533 43.5009 94.94C43.5409 94.0467 43.7409 93.26 44.1009 92.58C44.4743 91.9 45.0009 91.3667 45.6809 90.98C46.3609 90.5933 47.2009 90.4 48.2009 90.4C49.2009 90.4 50.0409 90.5933 50.7209 90.98C51.4009 91.3667 51.9209 91.9 52.2809 92.58C52.6543 93.26 52.8609 94.0467 52.9009 94.94C52.9143 95.1533 52.9209 95.44 52.9209 95.8C52.9209 96.1467 52.9143 96.4333 52.9009 96.66C52.8609 97.54 52.6609 98.3267 52.3009 99.02C51.9409 99.7 51.4209 100.233 50.7409 100.62C50.0609 101.007 49.2143 101.2 48.2009 101.2ZM48.2009 99.66C49.0276 99.66 49.6876 99.4 50.1809 98.88C50.6743 98.3467 50.9409 97.5733 50.9809 96.56C50.9943 96.36 51.0009 96.1067 51.0009 95.8C51.0009 95.4933 50.9943 95.24 50.9809 95.04C50.9409 94.0267 50.6743 93.26 50.1809 92.74C49.6876 92.2067 49.0276 91.94 48.2009 91.94C47.3743 91.94 46.7076 92.2067 46.2009 92.74C45.7076 93.26 45.4476 94.0267 45.4209 95.04C45.4076 95.24 45.4009 95.4933 45.4009 95.8C45.4009 96.1067 45.4076 96.36 45.4209 96.56C45.4476 97.5733 45.7076 98.3467 46.2009 98.88C46.7076 99.4 47.3743 99.66 48.2009 99.66ZM55.8853 101C55.752 101 55.6386 100.96 55.5453 100.88C55.4653 100.787 55.4253 100.673 55.4253 100.54V91.06C55.4253 90.9267 55.4653 90.82 55.5453 90.74C55.6386 90.6467 55.752 90.6 55.8853 90.6H56.7853C56.9186 90.6 57.0253 90.6467 57.1053 90.74C57.1986 90.82 57.2453 90.9267 57.2453 91.06V91.76C57.552 91.3467 57.9386 91.02 58.4053 90.78C58.872 90.5267 59.432 90.4 60.0853 90.4C61.592 90.3867 62.6586 91 63.2853 92.24C63.592 91.68 64.0386 91.2333 64.6253 90.9C65.212 90.5667 65.8786 90.4 66.6253 90.4C67.3186 90.4 67.9453 90.56 68.5053 90.88C69.0786 91.2 69.5253 91.6867 69.8453 92.34C70.1786 92.98 70.3453 93.7867 70.3453 94.76V100.54C70.3453 100.673 70.2986 100.787 70.2053 100.88C70.1253 100.96 70.0186 101 69.8853 101H68.9453C68.812 101 68.6986 100.96 68.6053 100.88C68.5253 100.787 68.4853 100.673 68.4853 100.54V94.94C68.4853 94.1933 68.3786 93.6067 68.1653 93.18C67.952 92.7533 67.6653 92.4533 67.3053 92.28C66.9453 92.1067 66.552 92.02 66.1253 92.02C65.7786 92.02 65.4253 92.1067 65.0653 92.28C64.7053 92.4533 64.4053 92.7533 64.1653 93.18C63.9386 93.6067 63.8253 94.1933 63.8253 94.94V100.54C63.8253 100.673 63.7786 100.787 63.6853 100.88C63.6053 100.96 63.4986 101 63.3653 101H62.4253C62.292 101 62.1786 100.96 62.0853 100.88C62.0053 100.787 61.9653 100.673 61.9653 100.54V94.94C61.9653 94.1933 61.852 93.6067 61.6253 93.18C61.3986 92.7533 61.1053 92.4533 60.7453 92.28C60.3853 92.1067 60.0053 92.02 59.6053 92.02C59.2586 92.02 58.9053 92.1067 58.5453 92.28C58.1853 92.4533 57.8853 92.7533 57.6453 93.18C57.4186 93.6067 57.3053 94.1867 57.3053 94.92V100.54C57.3053 100.673 57.2586 100.787 57.1653 100.88C57.0853 100.96 56.9786 101 56.8453 101H55.8853ZM77.3388 101.2C75.9654 101.2 74.8721 100.78 74.0588 99.94C73.2454 99.0867 72.7988 97.9267 72.7188 96.46C72.7054 96.2867 72.6988 96.0667 72.6988 95.8C72.6988 95.52 72.7054 95.2933 72.7188 95.12C72.7721 94.1733 72.9921 93.3467 73.3788 92.64C73.7654 91.92 74.2921 91.3667 74.9588 90.98C75.6388 90.5933 76.4321 90.4 77.3388 90.4C78.3521 90.4 79.1988 90.6133 79.8788 91.04C80.5721 91.4667 81.0988 92.0733 81.4588 92.86C81.8188 93.6467 81.9987 94.5667 81.9987 95.62V95.96C81.9987 96.1067 81.9521 96.22 81.8588 96.3C81.7788 96.38 81.6721 96.42 81.5388 96.42H74.6188C74.6188 96.4333 74.6188 96.46 74.6188 96.5C74.6188 96.54 74.6188 96.5733 74.6188 96.6C74.6454 97.1467 74.7654 97.66 74.9788 98.14C75.1921 98.6067 75.4988 98.9867 75.8988 99.28C76.2988 99.5733 76.7788 99.72 77.3388 99.72C77.8188 99.72 78.2188 99.6467 78.5388 99.5C78.8588 99.3533 79.1188 99.1933 79.3188 99.02C79.5188 98.8333 79.6521 98.6933 79.7188 98.6C79.8388 98.4267 79.9321 98.3267 79.9988 98.3C80.0654 98.26 80.1721 98.24 80.3188 98.24H81.2788C81.4121 98.24 81.5188 98.28 81.5988 98.36C81.6921 98.4267 81.7321 98.5267 81.7188 98.66C81.7054 98.86 81.5988 99.1067 81.3988 99.4C81.1988 99.68 80.9121 99.96 80.5388 100.24C80.1654 100.52 79.7121 100.753 79.1788 100.94C78.6454 101.113 78.0321 101.2 77.3388 101.2ZM74.6188 95.04H80.0988V94.98C80.0988 94.38 79.9854 93.8467 79.7588 93.38C79.5454 92.9133 79.2321 92.5467 78.8188 92.28C78.4054 92 77.9121 91.86 77.3388 91.86C76.7654 91.86 76.2721 92 75.8588 92.28C75.4588 92.5467 75.1521 92.9133 74.9388 93.38C74.7254 93.8467 74.6188 94.38 74.6188 94.98V95.04ZM86.8767 101C86.7034 101 86.5701 100.96 86.4767 100.88C86.3834 100.787 86.3034 100.66 86.2367 100.5L83.3967 91.22C83.3701 91.1533 83.3567 91.0867 83.3567 91.02C83.3567 90.9 83.3967 90.8 83.4767 90.72C83.5701 90.64 83.6701 90.6 83.7767 90.6H84.6567C84.8034 90.6 84.9167 90.64 84.9967 90.72C85.0767 90.8 85.1301 90.8733 85.1567 90.94L87.3767 98.48L89.7567 91.02C89.7834 90.9267 89.8367 90.8333 89.9167 90.74C90.0101 90.6467 90.1434 90.6 90.3167 90.6H90.9967C91.1701 90.6 91.3034 90.6467 91.3967 90.74C91.4901 90.8333 91.5434 90.9267 91.5567 91.02L93.9367 98.48L96.1567 90.94C96.1701 90.8733 96.2167 90.8 96.2967 90.72C96.3767 90.64 96.4901 90.6 96.6367 90.6H97.5167C97.6367 90.6 97.7367 90.64 97.8167 90.72C97.8967 90.8 97.9367 90.9 97.9367 91.02C97.9367 91.0867 97.9234 91.1533 97.8967 91.22L95.0567 100.5C95.0167 100.66 94.9434 100.787 94.8367 100.88C94.7434 100.96 94.6034 101 94.4167 101H93.6367C93.4634 101 93.3167 100.96 93.1967 100.88C93.0901 100.787 93.0167 100.66 92.9767 100.5L90.6567 93.34L88.3367 100.5C88.2834 100.66 88.2034 100.787 88.0967 100.88C87.9901 100.96 87.8434 101 87.6567 101H86.8767ZM104.138 101.2C103.125 101.2 102.278 101.007 101.598 100.62C100.918 100.233 100.398 99.7 100.038 99.02C99.6784 98.3267 99.4784 97.54 99.4384 96.66C99.4251 96.4333 99.4184 96.1467 99.4184 95.8C99.4184 95.44 99.4251 95.1533 99.4384 94.94C99.4784 94.0467 99.6784 93.26 100.038 92.58C100.412 91.9 100.938 91.3667 101.618 90.98C102.298 90.5933 103.138 90.4 104.138 90.4C105.138 90.4 105.978 90.5933 106.658 90.98C107.338 91.3667 107.858 91.9 108.218 92.58C108.592 93.26 108.798 94.0467 108.838 94.94C108.852 95.1533 108.858 95.44 108.858 95.8C108.858 96.1467 108.852 96.4333 108.838 96.66C108.798 97.54 108.598 98.3267 108.238 99.02C107.878 99.7 107.358 100.233 106.678 100.62C105.998 101.007 105.152 101.2 104.138 101.2ZM104.138 99.66C104.965 99.66 105.625 99.4 106.118 98.88C106.612 98.3467 106.878 97.5733 106.918 96.56C106.932 96.36 106.938 96.1067 106.938 95.8C106.938 95.4933 106.932 95.24 106.918 95.04C106.878 94.0267 106.612 93.26 106.118 92.74C105.625 92.2067 104.965 91.94 104.138 91.94C103.312 91.94 102.645 92.2067 102.138 92.74C101.645 93.26 101.385 94.0267 101.358 95.04C101.345 95.24 101.338 95.4933 101.338 95.8C101.338 96.1067 101.345 96.36 101.358 96.56C101.385 97.5733 101.645 98.3467 102.138 98.88C102.645 99.4 103.312 99.66 104.138 99.66ZM111.823 101C111.689 101 111.576 100.96 111.483 100.88C111.403 100.787 111.363 100.673 111.363 100.54V91.08C111.363 90.9467 111.403 90.8333 111.483 90.74C111.576 90.6467 111.689 90.6 111.823 90.6H112.743C112.876 90.6 112.989 90.6467 113.083 90.74C113.176 90.8333 113.223 90.9467 113.223 91.08V91.96C113.489 91.5067 113.856 91.1667 114.323 90.94C114.789 90.7133 115.349 90.6 116.003 90.6H116.803C116.936 90.6 117.043 90.6467 117.123 90.74C117.203 90.82 117.243 90.9267 117.243 91.06V91.88C117.243 92.0133 117.203 92.12 117.123 92.2C117.043 92.28 116.936 92.32 116.803 92.32H115.603C114.883 92.32 114.316 92.5333 113.903 92.96C113.489 93.3733 113.283 93.94 113.283 94.66V100.54C113.283 100.673 113.236 100.787 113.143 100.88C113.049 100.96 112.936 101 112.803 101H111.823ZM119.44 101C119.307 101 119.194 100.96 119.1 100.88C119.02 100.787 118.98 100.673 118.98 100.54V87.26C118.98 87.1267 119.02 87.02 119.1 86.94C119.194 86.8467 119.307 86.8 119.44 86.8H120.38C120.514 86.8 120.62 86.8467 120.7 86.94C120.794 87.02 120.84 87.1267 120.84 87.26V94.22L124.78 90.94C124.94 90.8067 125.06 90.72 125.14 90.68C125.234 90.6267 125.38 90.6 125.58 90.6H126.64C126.76 90.6 126.86 90.64 126.94 90.72C127.02 90.8 127.06 90.9 127.06 91.02C127.06 91.0733 127.04 91.1333 127 91.2C126.974 91.2667 126.914 91.3333 126.82 91.4L122.2 95.24L127.32 100.22C127.48 100.353 127.56 100.473 127.56 100.58C127.56 100.7 127.52 100.8 127.44 100.88C127.36 100.96 127.26 101 127.14 101H126.1C125.9 101 125.754 100.98 125.66 100.94C125.567 100.887 125.447 100.793 125.3 100.66L120.84 96.4V100.54C120.84 100.673 120.794 100.787 120.7 100.88C120.62 100.96 120.514 101 120.38 101H119.44ZM136.88 101.2C136.213 101.2 135.607 101.067 135.06 100.8C134.513 100.533 134.073 100.173 133.74 99.72C133.407 99.2667 133.24 98.7533 133.24 98.18C133.24 97.26 133.613 96.5267 134.36 95.98C135.107 95.4333 136.08 95.0733 137.28 94.9L140.26 94.48V93.9C140.26 93.26 140.073 92.76 139.7 92.4C139.34 92.04 138.747 91.86 137.92 91.86C137.32 91.86 136.833 91.98 136.46 92.22C136.1 92.46 135.847 92.7667 135.7 93.14C135.62 93.34 135.48 93.44 135.28 93.44H134.38C134.233 93.44 134.12 93.4 134.04 93.32C133.973 93.2267 133.94 93.12 133.94 93C133.94 92.8 134.013 92.5533 134.16 92.26C134.32 91.9667 134.56 91.68 134.88 91.4C135.2 91.12 135.607 90.8867 136.1 90.7C136.607 90.5 137.22 90.4 137.94 90.4C138.74 90.4 139.413 90.5067 139.96 90.72C140.507 90.92 140.933 91.1933 141.24 91.54C141.56 91.8867 141.787 92.28 141.92 92.72C142.067 93.16 142.14 93.6067 142.14 94.06V100.54C142.14 100.673 142.093 100.787 142 100.88C141.92 100.96 141.813 101 141.68 101H140.76C140.613 101 140.5 100.96 140.42 100.88C140.34 100.787 140.3 100.673 140.3 100.54V99.68C140.127 99.92 139.893 100.16 139.6 100.4C139.307 100.627 138.94 100.82 138.5 100.98C138.06 101.127 137.52 101.2 136.88 101.2ZM137.3 99.7C137.847 99.7 138.347 99.5867 138.8 99.36C139.253 99.12 139.607 98.7533 139.86 98.26C140.127 97.7667 140.26 97.1467 140.26 96.4V95.84L137.94 96.18C136.993 96.3133 136.28 96.54 135.8 96.86C135.32 97.1667 135.08 97.56 135.08 98.04C135.08 98.4133 135.187 98.7267 135.4 98.98C135.627 99.22 135.907 99.4 136.24 99.52C136.587 99.64 136.94 99.7 137.3 99.7ZM148.615 101.2C147.868 101.2 147.228 101.107 146.695 100.92C146.162 100.733 145.728 100.507 145.395 100.24C145.062 99.9733 144.808 99.7067 144.635 99.44C144.475 99.1733 144.388 98.96 144.375 98.8C144.362 98.6533 144.408 98.54 144.515 98.46C144.622 98.38 144.728 98.34 144.835 98.34H145.715C145.795 98.34 145.855 98.3533 145.895 98.38C145.948 98.3933 146.015 98.4467 146.095 98.54C146.268 98.7267 146.462 98.9133 146.675 99.1C146.888 99.2867 147.148 99.44 147.455 99.56C147.775 99.68 148.168 99.74 148.635 99.74C149.315 99.74 149.875 99.6133 150.315 99.36C150.755 99.0933 150.975 98.7067 150.975 98.2C150.975 97.8667 150.882 97.6 150.695 97.4C150.522 97.2 150.202 97.02 149.735 96.86C149.282 96.7 148.655 96.5333 147.855 96.36C147.055 96.1733 146.422 95.9467 145.955 95.68C145.488 95.4 145.155 95.0733 144.955 94.7C144.755 94.3133 144.655 93.88 144.655 93.4C144.655 92.9067 144.802 92.4333 145.095 91.98C145.388 91.5133 145.815 91.1333 146.375 90.84C146.948 90.5467 147.662 90.4 148.515 90.4C149.208 90.4 149.802 90.4867 150.295 90.66C150.788 90.8333 151.195 91.0533 151.515 91.32C151.835 91.5733 152.075 91.8267 152.235 92.08C152.395 92.3333 152.482 92.5467 152.495 92.72C152.508 92.8533 152.468 92.9667 152.375 93.06C152.282 93.14 152.175 93.18 152.055 93.18H151.215C151.122 93.18 151.042 93.16 150.975 93.12C150.922 93.08 150.868 93.0333 150.815 92.98C150.682 92.8067 150.522 92.6333 150.335 92.46C150.162 92.2867 149.928 92.1467 149.635 92.04C149.355 91.92 148.982 91.86 148.515 91.86C147.848 91.86 147.348 92 147.015 92.28C146.682 92.56 146.515 92.9133 146.515 93.34C146.515 93.5933 146.588 93.82 146.735 94.02C146.882 94.22 147.162 94.4 147.575 94.56C147.988 94.72 148.602 94.8933 149.415 95.08C150.295 95.2533 150.988 95.4867 151.495 95.78C152.002 96.0733 152.362 96.4133 152.575 96.8C152.788 97.1867 152.895 97.6333 152.895 98.14C152.895 98.7 152.728 99.2133 152.395 99.68C152.075 100.147 151.595 100.52 150.955 100.8C150.328 101.067 149.548 101.2 148.615 101.2ZM158.81 101.2C158.064 101.2 157.424 101.107 156.89 100.92C156.357 100.733 155.924 100.507 155.59 100.24C155.257 99.9733 155.004 99.7067 154.83 99.44C154.67 99.1733 154.584 98.96 154.57 98.8C154.557 98.6533 154.604 98.54 154.71 98.46C154.817 98.38 154.924 98.34 155.03 98.34H155.91C155.99 98.34 156.05 98.3533 156.09 98.38C156.144 98.3933 156.21 98.4467 156.29 98.54C156.464 98.7267 156.657 98.9133 156.87 99.1C157.084 99.2867 157.344 99.44 157.65 99.56C157.97 99.68 158.364 99.74 158.83 99.74C159.51 99.74 160.07 99.6133 160.51 99.36C160.95 99.0933 161.17 98.7067 161.17 98.2C161.17 97.8667 161.077 97.6 160.89 97.4C160.717 97.2 160.397 97.02 159.93 96.86C159.477 96.7 158.85 96.5333 158.05 96.36C157.25 96.1733 156.617 95.9467 156.15 95.68C155.684 95.4 155.35 95.0733 155.15 94.7C154.95 94.3133 154.85 93.88 154.85 93.4C154.85 92.9067 154.997 92.4333 155.29 91.98C155.584 91.5133 156.01 91.1333 156.57 90.84C157.144 90.5467 157.857 90.4 158.71 90.4C159.404 90.4 159.997 90.4867 160.49 90.66C160.984 90.8333 161.39 91.0533 161.71 91.32C162.03 91.5733 162.27 91.8267 162.43 92.08C162.59 92.3333 162.677 92.5467 162.69 92.72C162.704 92.8533 162.664 92.9667 162.57 93.06C162.477 93.14 162.37 93.18 162.25 93.18H161.41C161.317 93.18 161.237 93.16 161.17 93.12C161.117 93.08 161.064 93.0333 161.01 92.98C160.877 92.8067 160.717 92.6333 160.53 92.46C160.357 92.2867 160.124 92.1467 159.83 92.04C159.55 91.92 159.177 91.86 158.71 91.86C158.044 91.86 157.544 92 157.21 92.28C156.877 92.56 156.71 92.9133 156.71 93.34C156.71 93.5933 156.784 93.82 156.93 94.02C157.077 94.22 157.357 94.4 157.77 94.56C158.184 94.72 158.797 94.8933 159.61 95.08C160.49 95.2533 161.184 95.4867 161.69 95.78C162.197 96.0733 162.557 96.4133 162.77 96.8C162.984 97.1867 163.09 97.6333 163.09 98.14C163.09 98.7 162.924 99.2133 162.59 99.68C162.27 100.147 161.79 100.52 161.15 100.8C160.524 101.067 159.744 101.2 158.81 101.2ZM165.866 101C165.732 101 165.619 100.96 165.526 100.88C165.446 100.787 165.406 100.673 165.406 100.54V91.06C165.406 90.9267 165.446 90.82 165.526 90.74C165.619 90.6467 165.732 90.6 165.866 90.6H166.826C166.959 90.6 167.066 90.6467 167.146 90.74C167.226 90.82 167.266 90.9267 167.266 91.06V100.54C167.266 100.673 167.226 100.787 167.146 100.88C167.066 100.96 166.959 101 166.826 101H165.866ZM165.706 88.66C165.572 88.66 165.459 88.62 165.366 88.54C165.286 88.4467 165.246 88.3333 165.246 88.2V87.12C165.246 86.9867 165.286 86.88 165.366 86.8C165.459 86.7067 165.572 86.66 165.706 86.66H166.966C167.099 86.66 167.206 86.7067 167.286 86.8C167.379 86.88 167.426 86.9867 167.426 87.12V88.2C167.426 88.3333 167.379 88.4467 167.286 88.54C167.206 88.62 167.099 88.66 166.966 88.66H165.706ZM174.51 105.4C173.603 105.4 172.856 105.28 172.27 105.04C171.696 104.8 171.243 104.507 170.91 104.16C170.59 103.827 170.356 103.487 170.21 103.14C170.076 102.807 170.003 102.54 169.99 102.34C169.976 102.207 170.016 102.093 170.11 102C170.216 101.907 170.33 101.86 170.45 101.86H171.41C171.53 101.86 171.63 101.887 171.71 101.94C171.79 101.993 171.856 102.107 171.91 102.28C171.99 102.48 172.11 102.7 172.27 102.94C172.43 103.193 172.676 103.407 173.01 103.58C173.343 103.767 173.81 103.86 174.41 103.86C175.036 103.86 175.563 103.773 175.99 103.6C176.416 103.44 176.736 103.147 176.95 102.72C177.176 102.307 177.29 101.733 177.29 101V99.64C176.97 100.053 176.55 100.4 176.03 100.68C175.51 100.947 174.856 101.08 174.07 101.08C173.323 101.08 172.683 100.953 172.15 100.7C171.616 100.433 171.176 100.08 170.83 99.64C170.496 99.1867 170.243 98.6733 170.07 98.1C169.91 97.5267 169.816 96.9267 169.79 96.3C169.776 95.9267 169.776 95.56 169.79 95.2C169.816 94.5733 169.91 93.9733 170.07 93.4C170.243 92.8267 170.496 92.3133 170.83 91.86C171.176 91.4067 171.616 91.0533 172.15 90.8C172.683 90.5333 173.323 90.4 174.07 90.4C174.87 90.4 175.53 90.5533 176.05 90.86C176.583 91.1533 177.016 91.5133 177.35 91.94V91.08C177.35 90.9467 177.39 90.8333 177.47 90.74C177.563 90.6467 177.676 90.6 177.81 90.6H178.73C178.863 90.6 178.976 90.6467 179.07 90.74C179.163 90.8333 179.21 90.9467 179.21 91.08V100.78C179.21 101.673 179.056 102.467 178.75 103.16C178.456 103.853 177.963 104.4 177.27 104.8C176.59 105.2 175.67 105.4 174.51 105.4ZM174.47 99.48C175.136 99.48 175.67 99.3267 176.07 99.02C176.483 98.7133 176.783 98.3267 176.97 97.86C177.17 97.3933 177.276 96.92 177.29 96.44C177.303 96.2533 177.31 96.0267 177.31 95.76C177.31 95.48 177.303 95.2467 177.29 95.06C177.276 94.58 177.17 94.1067 176.97 93.64C176.783 93.1733 176.483 92.7867 176.07 92.48C175.67 92.1733 175.136 92.02 174.47 92.02C173.803 92.02 173.27 92.1733 172.87 92.48C172.47 92.7733 172.183 93.1667 172.01 93.66C171.836 94.14 171.736 94.66 171.71 95.22C171.696 95.5667 171.696 95.92 171.71 96.28C171.736 96.84 171.836 97.3667 172.01 97.86C172.183 98.34 172.47 98.7333 172.87 99.04C173.27 99.3333 173.803 99.48 174.47 99.48ZM182.643 101C182.51 101 182.396 100.96 182.303 100.88C182.223 100.787 182.183 100.673 182.183 100.54V91.06C182.183 90.9267 182.223 90.82 182.303 90.74C182.396 90.6467 182.51 90.6 182.643 90.6H183.583C183.716 90.6 183.823 90.6467 183.903 90.74C183.996 90.82 184.043 90.9267 184.043 91.06V91.94C184.39 91.4867 184.823 91.12 185.343 90.84C185.876 90.5467 186.556 90.4 187.383 90.4C188.25 90.4 188.983 90.5933 189.583 90.98C190.196 91.3533 190.656 91.88 190.963 92.56C191.27 93.2267 191.423 94.0067 191.423 94.9V100.54C191.423 100.673 191.383 100.787 191.303 100.88C191.223 100.96 191.116 101 190.983 101H189.983C189.85 101 189.736 100.96 189.643 100.88C189.563 100.787 189.523 100.673 189.523 100.54V95C189.523 94.0667 189.296 93.34 188.843 92.82C188.39 92.2867 187.723 92.02 186.843 92.02C186.016 92.02 185.35 92.2867 184.843 92.82C184.35 93.34 184.103 94.0667 184.103 95V100.54C184.103 100.673 184.056 100.787 183.963 100.88C183.883 100.96 183.776 101 183.643 101H182.643ZM198.452 101.2C197.079 101.2 195.985 100.78 195.172 99.94C194.359 99.0867 193.912 97.9267 193.832 96.46C193.819 96.2867 193.812 96.0667 193.812 95.8C193.812 95.52 193.819 95.2933 193.832 95.12C193.885 94.1733 194.105 93.3467 194.492 92.64C194.879 91.92 195.405 91.3667 196.072 90.98C196.752 90.5933 197.545 90.4 198.452 90.4C199.465 90.4 200.312 90.6133 200.992 91.04C201.685 91.4667 202.212 92.0733 202.572 92.86C202.932 93.6467 203.112 94.5667 203.112 95.62V95.96C203.112 96.1067 203.065 96.22 202.972 96.3C202.892 96.38 202.785 96.42 202.652 96.42H195.732C195.732 96.4333 195.732 96.46 195.732 96.5C195.732 96.54 195.732 96.5733 195.732 96.6C195.759 97.1467 195.879 97.66 196.092 98.14C196.305 98.6067 196.612 98.9867 197.012 99.28C197.412 99.5733 197.892 99.72 198.452 99.72C198.932 99.72 199.332 99.6467 199.652 99.5C199.972 99.3533 200.232 99.1933 200.432 99.02C200.632 98.8333 200.765 98.6933 200.832 98.6C200.952 98.4267 201.045 98.3267 201.112 98.3C201.179 98.26 201.285 98.24 201.432 98.24H202.392C202.525 98.24 202.632 98.28 202.712 98.36C202.805 98.4267 202.845 98.5267 202.832 98.66C202.819 98.86 202.712 99.1067 202.512 99.4C202.312 99.68 202.025 99.96 201.652 100.24C201.279 100.52 200.825 100.753 200.292 100.94C199.759 101.113 199.145 101.2 198.452 101.2ZM195.732 95.04H201.212V94.98C201.212 94.38 201.099 93.8467 200.872 93.38C200.659 92.9133 200.345 92.5467 199.932 92.28C199.519 92 199.025 91.86 198.452 91.86C197.879 91.86 197.385 92 196.972 92.28C196.572 92.5467 196.265 92.9133 196.052 93.38C195.839 93.8467 195.732 94.38 195.732 94.98V95.04ZM209.303 101.2C208.57 101.2 207.937 101.073 207.403 100.82C206.87 100.553 206.43 100.2 206.083 99.76C205.75 99.3067 205.497 98.7933 205.323 98.22C205.163 97.6467 205.07 97.04 205.043 96.4C205.03 96.1867 205.023 95.9867 205.023 95.8C205.023 95.6133 205.03 95.4133 205.043 95.2C205.07 94.5733 205.163 93.9733 205.323 93.4C205.497 92.8267 205.75 92.3133 206.083 91.86C206.43 91.4067 206.87 91.0533 207.403 90.8C207.937 90.5333 208.57 90.4 209.303 90.4C210.09 90.4 210.743 90.54 211.263 90.82C211.783 91.1 212.21 91.4467 212.543 91.86V87.26C212.543 87.1267 212.583 87.02 212.663 86.94C212.757 86.8467 212.87 86.8 213.003 86.8H213.963C214.097 86.8 214.203 86.8467 214.283 86.94C214.377 87.02 214.423 87.1267 214.423 87.26V100.54C214.423 100.673 214.377 100.787 214.283 100.88C214.203 100.96 214.097 101 213.963 101H213.063C212.917 101 212.803 100.96 212.723 100.88C212.643 100.787 212.603 100.673 212.603 100.54V99.7C212.27 100.127 211.837 100.487 211.303 100.78C210.77 101.06 210.103 101.2 209.303 101.2ZM209.723 99.58C210.39 99.58 210.923 99.4267 211.323 99.12C211.723 98.8133 212.023 98.4267 212.223 97.96C212.423 97.48 212.53 96.9933 212.543 96.5C212.557 96.2867 212.563 96.0333 212.563 95.74C212.563 95.4333 212.557 95.1733 212.543 94.96C212.53 94.4933 212.417 94.0333 212.203 93.58C212.003 93.1267 211.697 92.7533 211.283 92.46C210.883 92.1667 210.363 92.02 209.723 92.02C209.043 92.02 208.503 92.1733 208.103 92.48C207.703 92.7733 207.417 93.1667 207.243 93.66C207.07 94.14 206.97 94.66 206.943 95.22C206.93 95.6067 206.93 95.9933 206.943 96.38C206.97 96.94 207.07 97.4667 207.243 97.96C207.417 98.44 207.703 98.8333 208.103 99.14C208.503 99.4333 209.043 99.58 209.723 99.58ZM223.573 104.8C223.467 104.8 223.373 104.76 223.293 104.68C223.213 104.6 223.173 104.507 223.173 104.4C223.173 104.347 223.18 104.293 223.193 104.24C223.207 104.187 223.233 104.12 223.273 104.04L224.813 100.38L220.993 91.36C220.927 91.2 220.893 91.0867 220.893 91.02C220.893 90.9 220.933 90.8 221.013 90.72C221.093 90.64 221.193 90.6 221.313 90.6H222.293C222.427 90.6 222.533 90.6333 222.613 90.7C222.693 90.7667 222.747 90.8467 222.773 90.94L225.813 98.22L228.933 90.94C228.973 90.8467 229.027 90.7667 229.093 90.7C229.173 90.6333 229.287 90.6 229.433 90.6H230.373C230.493 90.6 230.593 90.64 230.673 90.72C230.753 90.8 230.793 90.8933 230.793 91C230.793 91.0667 230.76 91.1867 230.693 91.36L225.013 104.46C224.973 104.553 224.913 104.633 224.833 104.7C224.767 104.767 224.66 104.8 224.513 104.8H223.573ZM236.558 101.2C235.184 101.2 234.091 100.78 233.278 99.94C232.464 99.0867 232.018 97.9267 231.938 96.46C231.924 96.2867 231.918 96.0667 231.918 95.8C231.918 95.52 231.924 95.2933 231.938 95.12C231.991 94.1733 232.211 93.3467 232.598 92.64C232.984 91.92 233.511 91.3667 234.178 90.98C234.858 90.5933 235.651 90.4 236.558 90.4C237.571 90.4 238.418 90.6133 239.098 91.04C239.791 91.4667 240.318 92.0733 240.678 92.86C241.038 93.6467 241.217 94.5667 241.217 95.62V95.96C241.217 96.1067 241.171 96.22 241.078 96.3C240.998 96.38 240.891 96.42 240.758 96.42H233.838C233.838 96.4333 233.838 96.46 233.838 96.5C233.838 96.54 233.838 96.5733 233.838 96.6C233.864 97.1467 233.984 97.66 234.198 98.14C234.411 98.6067 234.718 98.9867 235.118 99.28C235.518 99.5733 235.998 99.72 236.558 99.72C237.038 99.72 237.438 99.6467 237.758 99.5C238.078 99.3533 238.338 99.1933 238.538 99.02C238.738 98.8333 238.871 98.6933 238.938 98.6C239.058 98.4267 239.151 98.3267 239.218 98.3C239.284 98.26 239.391 98.24 239.538 98.24H240.498C240.631 98.24 240.738 98.28 240.818 98.36C240.911 98.4267 240.951 98.5267 240.938 98.66C240.924 98.86 240.818 99.1067 240.618 99.4C240.418 99.68 240.131 99.96 239.758 100.24C239.384 100.52 238.931 100.753 238.398 100.94C237.864 101.113 237.251 101.2 236.558 101.2ZM233.838 95.04H239.318V94.98C239.318 94.38 239.204 93.8467 238.978 93.38C238.764 92.9133 238.451 92.5467 238.038 92.28C237.624 92 237.131 91.86 236.558 91.86C235.984 91.86 235.491 92 235.078 92.28C234.678 92.5467 234.371 92.9133 234.158 93.38C233.944 93.8467 233.838 94.38 233.838 94.98V95.04ZM247.61 101C246.864 101 246.257 100.86 245.79 100.58C245.324 100.287 244.984 99.88 244.77 99.36C244.557 98.8267 244.45 98.2 244.45 97.48V92.2H242.89C242.757 92.2 242.644 92.16 242.55 92.08C242.47 91.9867 242.43 91.8733 242.43 91.74V91.06C242.43 90.9267 242.47 90.82 242.55 90.74C242.644 90.6467 242.757 90.6 242.89 90.6H244.45V87.26C244.45 87.1267 244.49 87.02 244.57 86.94C244.664 86.8467 244.777 86.8 244.91 86.8H245.85C245.984 86.8 246.09 86.8467 246.17 86.94C246.264 87.02 246.31 87.1267 246.31 87.26V90.6H248.79C248.924 90.6 249.03 90.6467 249.11 90.74C249.204 90.82 249.25 90.9267 249.25 91.06V91.74C249.25 91.8733 249.204 91.9867 249.11 92.08C249.03 92.16 248.924 92.2 248.79 92.2H246.31V97.34C246.31 97.9667 246.417 98.46 246.63 98.82C246.844 99.18 247.224 99.36 247.77 99.36H248.99C249.124 99.36 249.23 99.4067 249.31 99.5C249.404 99.58 249.45 99.6867 249.45 99.82V100.54C249.45 100.673 249.404 100.787 249.31 100.88C249.23 100.96 249.124 101 248.99 101H247.61ZM251.683 101C251.549 101 251.436 100.96 251.343 100.88C251.263 100.787 251.223 100.673 251.223 100.54V99.1C251.223 98.9667 251.263 98.86 251.343 98.78C251.436 98.6867 251.549 98.64 251.683 98.64H253.123C253.256 98.64 253.363 98.6867 253.443 98.78C253.536 98.86 253.583 98.9667 253.583 99.1V100.54C253.583 100.673 253.536 100.787 253.443 100.88C253.363 100.96 253.256 101 253.123 101H251.683ZM256.902 97.68C256.769 97.68 256.655 97.64 256.562 97.56C256.482 97.4667 256.442 97.3533 256.442 97.22V87.46C256.442 87.3267 256.482 87.22 256.562 87.14C256.655 87.0467 256.769 87 256.902 87H257.842C257.975 87 258.082 87.0467 258.162 87.14C258.242 87.22 258.282 87.3267 258.282 87.46V97.22C258.282 97.3533 258.242 97.4667 258.162 97.56C258.082 97.64 257.975 97.68 257.842 97.68H256.902ZM256.722 101C256.589 101 256.475 100.96 256.382 100.88C256.302 100.787 256.262 100.673 256.262 100.54V99.28C256.262 99.1333 256.302 99.02 256.382 98.94C256.475 98.8467 256.589 98.8 256.722 98.8H258.002C258.135 98.8 258.242 98.8467 258.322 98.94C258.415 99.02 258.462 99.1333 258.462 99.28V100.54C258.462 100.673 258.415 100.787 258.322 100.88C258.242 100.96 258.135 101 258.002 101H256.722Z" fill="#949EAA"/>
<path d="M125.052 35.1567C125.5 35.1567 125.91 34.8599 126.035 34.4076C126.185 33.8646 125.866 33.3027 125.323 33.153C122.982 32.5068 120.24 32.1051 117.172 31.9594C116.607 31.9296 116.131 32.3671 116.105 32.9298C116.078 33.4925 116.512 33.9705 117.075 33.9971C122.346 34.2478 124.605 35.1567 125.052 35.1567Z" fill="#A1AAB5"/>
<path d="M117.075 39.5288C122.346 39.7794 124.605 40.6881 125.052 40.6881C125.5 40.6881 125.91 40.3913 126.035 39.9391C126.185 39.3959 125.866 38.8342 125.323 38.6844C122.982 38.0382 120.239 37.6367 117.172 37.491C116.607 37.4636 116.131 37.8988 116.105 38.4613C116.078 39.0243 116.512 39.5022 117.075 39.5288Z" fill="#A1AAB5"/>
<path d="M117.075 45.6241C122.346 45.8747 124.605 46.7836 125.052 46.7836C125.5 46.7836 125.91 46.4868 126.035 46.0345C126.185 45.4915 125.866 44.9296 125.323 44.7799C122.982 44.1336 120.24 43.732 117.172 43.5863C116.607 43.5594 116.131 43.9941 116.105 44.5567C116.078 45.1195 116.512 45.5973 117.075 45.6241Z" fill="#A1AAB5"/>
<path d="M134.537 35.1563C135.017 35.1563 137.219 34.2486 142.514 33.9969C143.077 33.9702 143.512 33.4922 143.485 32.9295C143.458 32.3668 142.98 31.9322 142.418 31.9592C139.35 32.1048 136.608 32.5065 134.267 33.1527C133.724 33.3026 133.405 33.8644 133.555 34.4074C133.679 34.8596 134.09 35.1563 134.537 35.1563Z" fill="#A1AAB5"/>
<path d="M134.537 40.6881C135.017 40.6881 137.219 39.7806 142.514 39.5288C143.077 39.5022 143.512 39.0242 143.485 38.4615C143.458 37.8988 142.98 37.462 142.418 37.4911C139.35 37.6368 136.608 38.0383 134.267 38.6846C133.723 38.8345 133.405 39.3961 133.555 39.9392C133.679 40.3915 134.09 40.6881 134.537 40.6881Z" fill="#A1AAB5"/>
<path d="M134.537 46.7836C134.943 46.7836 135.612 46.4233 138.302 46.0246C138.859 45.9422 139.244 45.4233 139.161 44.8662C139.079 44.3089 138.561 43.923 138.003 44.0065C136.665 44.2047 135.408 44.4649 134.267 44.7799C133.724 44.9298 133.405 45.4916 133.555 46.0346C133.68 46.487 134.09 46.7836 134.537 46.7836Z" fill="#A1AAB5"/>
<path d="M163.019 23.3097L157.728 19.4847V10.1412C158.776 9.84941 159.547 8.88926 159.547 7.75023V6.33196C159.547 4.96225 158.433 3.84784 157.063 3.84784H148.471C147.101 3.84784 145.987 4.96225 145.987 6.33196V7.75023C145.987 8.88926 146.759 9.84941 147.806 10.1412V12.3105L131.56 0.563935C130.52 -0.187978 129.122 -0.187978 128.081 0.563935L96.6232 23.3097C94.4589 24.8746 94.459 28.0913 96.6232 29.6562C97.9952 30.6482 99.8395 30.6485 101.212 29.6562L102.614 28.6422V59.2014H102.351C100.477 59.2014 98.9517 60.7263 98.9517 62.6006C98.9517 64.4751 100.477 66 102.351 66H157.291C159.165 66 160.69 64.4751 160.69 62.6006C160.69 60.7263 159.165 59.2014 157.291 59.2014H157.028V54.6265C157.028 54.0631 156.571 53.6063 156.007 53.6063C155.444 53.6063 154.987 54.063 154.987 54.6265V59.2014H104.654V27.1671L129.277 9.36396C129.602 9.12892 130.04 9.12879 130.365 9.3641L154.987 27.1671V49.7793C154.987 50.3427 155.444 50.7995 156.007 50.7995C156.571 50.7995 157.028 50.3428 157.028 49.7793V28.6424L158.43 29.6564C159.802 30.6486 161.646 30.6488 163.019 29.6562C165.183 28.0913 165.183 24.8745 163.019 23.3097ZM148.027 6.33196C148.027 6.08713 148.226 5.88799 148.471 5.88799H157.063C157.308 5.88799 157.507 6.08713 157.507 6.33196V7.75023C157.507 7.99507 157.308 8.1942 157.063 8.1942H148.471C148.226 8.1942 148.027 7.99507 148.027 7.75023V6.33196ZM155.688 10.2343V18.0096L149.846 13.7857V10.2343H155.688ZM157.291 61.2415C158.04 61.2415 158.65 61.8511 158.65 62.6006C158.65 63.3501 158.04 63.9599 157.291 63.9599H102.351C101.601 63.9599 100.992 63.3502 100.992 62.6006C100.992 61.8513 101.601 61.2415 102.351 61.2415H157.291ZM161.823 28.0029C161.166 28.4783 160.283 28.4783 159.625 28.0029L131.56 7.71092C130.52 6.95847 129.122 6.95887 128.081 7.71079L100.016 28.0029C99.3592 28.4786 98.4759 28.4782 97.8185 28.0031C96.7821 27.2536 96.7818 25.7126 97.8185 24.9633L129.277 2.21738C129.602 1.98221 130.039 1.98193 130.365 2.21738L161.823 24.9632C162.86 25.7126 162.86 27.2536 161.823 28.0029Z" fill="#A1AAB5"/>
<path d="M112.585 34.1111C112.021 34.1111 111.564 34.5677 111.564 35.1312V50.2874C111.564 51.6937 112.722 52.8021 114.084 52.7749C116.583 52.74 122.88 52.8718 127.375 54.8542C128.966 55.556 130.766 55.513 132.29 54.844C136.718 52.9 142.921 52.7469 145.383 52.7735C145.393 52.7735 145.402 52.7737 145.411 52.7737C146.879 52.7737 148.078 51.5877 148.078 50.1084V27.9729C148.078 26.6216 146.979 25.5055 145.629 25.4853C142.583 25.4401 134.968 25.6353 130.052 28.4346C129.911 28.5155 129.737 28.5184 129.59 28.4346C124.675 25.6352 117.059 25.4398 114.013 25.4853C112.663 25.5055 111.564 26.6216 111.564 27.9729V30.3202C111.564 30.8836 112.021 31.3403 112.585 31.3403C113.148 31.3403 113.605 30.8837 113.605 30.3202V27.9729C113.605 27.7297 113.802 27.529 114.044 27.5251C116.923 27.4816 124.102 27.6568 128.58 30.2076C128.652 30.2485 128.726 30.2844 128.801 30.3176V53.1966C128.596 53.1434 128.394 53.0739 128.198 52.9876C123.511 50.9203 117.326 50.6895 114.056 50.735C114.053 50.735 114.051 50.735 114.049 50.735C113.805 50.735 113.605 50.5362 113.605 50.2874V35.1312C113.605 34.5678 113.148 34.1111 112.585 34.1111ZM130.841 30.3176C130.916 30.2843 130.99 30.2485 131.062 30.2076C135.541 27.6567 142.721 27.4809 145.599 27.5251C145.841 27.5288 146.038 27.7297 146.038 27.9729V50.1085C146.038 50.4576 145.754 50.7335 145.41 50.7335C145.408 50.7335 145.406 50.7335 145.404 50.7334C142.182 50.7022 136.089 50.9486 131.47 52.9759C131.265 53.0659 131.055 53.1378 130.841 53.193V30.3176Z" fill="#A1AAB5"/>
</svg>
