<svg width="200" height="108" viewBox="0 0 200 108" fill="none" xmlns="http://www.w3.org/2000/svg">
<path d="M2.2 103C2.06667 103 1.95333 102.96 1.86 102.88C1.78 102.787 1.74 102.673 1.74 102.54V89.48C1.74 89.3333 1.78 89.22 1.86 89.14C1.95333 89.0467 2.06667 89 2.2 89H7.08C8.61333 89 9.81333 89.36 10.68 90.08C11.5467 90.8 11.98 91.84 11.98 93.2C11.98 94.2133 11.7267 95.0467 11.22 95.7C10.7267 96.3533 10.0267 96.8067 9.12 97.06L12.2 102.38C12.24 102.46 12.26 102.533 12.26 102.6C12.26 102.707 12.2133 102.8 12.12 102.88C12.04 102.96 11.9467 103 11.84 103H10.88C10.68 103 10.52 102.953 10.4 102.86C10.2933 102.767 10.1933 102.633 10.1 102.46L7.2 97.38H3.7V102.54C3.7 102.673 3.65333 102.787 3.56 102.88C3.46667 102.96 3.35333 103 3.22 103H2.2ZM7 95.68C8.98667 95.68 9.98 94.8467 9.98 93.18C9.98 91.5133 8.98667 90.68 7 90.68H3.7V95.68H7ZM18.6283 103.2C17.2549 103.2 16.1549 102.78 15.3283 101.94C14.5149 101.087 14.0683 99.9267 13.9883 98.46L13.9683 97.78L13.9883 97.12C14.0816 95.68 14.5349 94.5333 15.3483 93.68C16.1749 92.8267 17.2616 92.4 18.6083 92.4C20.0883 92.4 21.2349 92.8733 22.0483 93.82C22.8616 94.7533 23.2683 96.02 23.2683 97.62V97.96C23.2683 98.0933 23.2216 98.2067 23.1283 98.3C23.0483 98.38 22.9416 98.42 22.8083 98.42H15.8883V98.6C15.9283 99.4667 16.1883 100.207 16.6683 100.82C17.1616 101.42 17.8083 101.72 18.6083 101.72C19.2216 101.72 19.7216 101.6 20.1083 101.36C20.5083 101.107 20.8016 100.847 20.9883 100.58C21.1083 100.42 21.1949 100.327 21.2483 100.3C21.3149 100.26 21.4283 100.24 21.5883 100.24H22.5683C22.6883 100.24 22.7883 100.273 22.8683 100.34C22.9483 100.407 22.9883 100.5 22.9883 100.62C22.9883 100.913 22.8016 101.267 22.4283 101.68C22.0683 102.093 21.5549 102.453 20.8883 102.76C20.2349 103.053 19.4816 103.2 18.6283 103.2ZM21.3683 97.04V96.98C21.3683 96.06 21.1149 95.3133 20.6083 94.74C20.1149 94.1533 19.4483 93.86 18.6083 93.86C17.7683 93.86 17.1016 94.1533 16.6083 94.74C16.1283 95.3133 15.8883 96.06 15.8883 96.98V97.04H21.3683ZM26.1397 106.8C26.0064 106.8 25.893 106.753 25.7997 106.66C25.7197 106.58 25.6797 106.473 25.6797 106.34V93.06C25.6797 92.9267 25.7197 92.82 25.7997 92.74C25.893 92.6467 26.0064 92.6 26.1397 92.6H27.0597C27.193 92.6 27.2997 92.6467 27.3797 92.74C27.473 92.82 27.5197 92.9267 27.5197 93.06V93.94C28.2664 92.9133 29.3597 92.4 30.7997 92.4C32.1997 92.4 33.2464 92.84 33.9397 93.72C34.6464 94.6 35.0264 95.7333 35.0797 97.12C35.093 97.2667 35.0997 97.4933 35.0997 97.8C35.0997 98.1067 35.093 98.3333 35.0797 98.48C35.0264 99.8533 34.6464 100.987 33.9397 101.88C33.233 102.76 32.1864 103.2 30.7997 103.2C29.413 103.2 28.333 102.7 27.5597 101.7V106.34C27.5597 106.473 27.5197 106.58 27.4397 106.66C27.3597 106.753 27.253 106.8 27.1197 106.8H26.1397ZM30.3797 101.58C31.3264 101.58 32.013 101.287 32.4397 100.7C32.8797 100.113 33.1197 99.34 33.1597 98.38C33.173 98.2467 33.1797 98.0533 33.1797 97.8C33.1797 95.28 32.2464 94.02 30.3797 94.02C29.4597 94.02 28.7664 94.3267 28.2997 94.94C27.8464 95.54 27.5997 96.26 27.5597 97.1L27.5397 97.86L27.5597 98.64C27.5864 99.4267 27.8397 100.113 28.3197 100.7C28.7997 101.287 29.4864 101.58 30.3797 101.58ZM41.8338 103.2C40.3671 103.2 39.2271 102.787 38.4138 101.96C37.6138 101.133 37.1871 100.033 37.1338 98.66L37.1138 97.8L37.1338 96.94C37.1871 95.58 37.6204 94.4867 38.4338 93.66C39.2471 92.82 40.3804 92.4 41.8338 92.4C43.2871 92.4 44.4204 92.82 45.2338 93.66C46.0471 94.4867 46.4804 95.58 46.5338 96.94C46.5471 97.0867 46.5538 97.3733 46.5538 97.8C46.5538 98.2267 46.5471 98.5133 46.5338 98.66C46.4804 100.033 46.0471 101.133 45.2338 101.96C44.4338 102.787 43.3004 103.2 41.8338 103.2ZM41.8338 101.66C42.6738 101.66 43.3338 101.393 43.8138 100.86C44.3071 100.327 44.5738 99.56 44.6138 98.56C44.6271 98.4267 44.6338 98.1733 44.6338 97.8C44.6338 97.4267 44.6271 97.1733 44.6138 97.04C44.5738 96.04 44.3071 95.2733 43.8138 94.74C43.3338 94.2067 42.6738 93.94 41.8338 93.94C40.9938 93.94 40.3271 94.2067 39.8338 94.74C39.3404 95.2733 39.0804 96.04 39.0538 97.04L39.0337 97.8L39.0538 98.56C39.0804 99.56 39.3404 100.327 39.8338 100.86C40.3271 101.393 40.9938 101.66 41.8338 101.66ZM49.5181 103C49.3848 103 49.2715 102.96 49.1781 102.88C49.0981 102.787 49.0581 102.673 49.0581 102.54V93.08C49.0581 92.9467 49.0981 92.8333 49.1781 92.74C49.2715 92.6467 49.3848 92.6 49.5181 92.6H50.4381C50.5715 92.6 50.6848 92.6467 50.7781 92.74C50.8715 92.8333 50.9181 92.9467 50.9181 93.08V93.96C51.4648 93.0533 52.3981 92.6 53.7181 92.6H54.4981C54.6315 92.6 54.7381 92.6467 54.8181 92.74C54.9115 92.82 54.9581 92.9267 54.9581 93.06V93.88C54.9581 94.0133 54.9115 94.12 54.8181 94.2C54.7381 94.28 54.6315 94.32 54.4981 94.32H53.2981C52.5781 94.32 52.0115 94.5333 51.5981 94.96C51.1848 95.3733 50.9781 95.94 50.9781 96.66V102.54C50.9781 102.673 50.9315 102.787 50.8381 102.88C50.7448 102.96 50.6315 103 50.4981 103H49.5181ZM60.7158 103C58.6091 103 57.5558 101.827 57.5558 99.48V94.2H55.9958C55.8624 94.2 55.7491 94.16 55.6558 94.08C55.5758 93.9867 55.5358 93.8733 55.5358 93.74V93.06C55.5358 92.9267 55.5758 92.82 55.6558 92.74C55.7491 92.6467 55.8624 92.6 55.9958 92.6H57.5558V89.26C57.5558 89.1267 57.5958 89.02 57.6758 88.94C57.7691 88.8467 57.8824 88.8 58.0158 88.8H58.9558C59.0891 88.8 59.1958 88.8467 59.2758 88.94C59.3691 89.02 59.4158 89.1267 59.4158 89.26V92.6H61.8958C62.0291 92.6 62.1358 92.6467 62.2158 92.74C62.3091 92.82 62.3558 92.9267 62.3558 93.06V93.74C62.3558 93.8733 62.3091 93.9867 62.2158 94.08C62.1358 94.16 62.0291 94.2 61.8958 94.2H59.4158V99.34C59.4158 100.007 59.5291 100.513 59.7558 100.86C59.9824 101.193 60.3558 101.36 60.8758 101.36H62.0958C62.2291 101.36 62.3358 101.407 62.4158 101.5C62.5091 101.58 62.5558 101.687 62.5558 101.82V102.54C62.5558 102.673 62.5091 102.787 62.4158 102.88C62.3358 102.96 62.2291 103 62.0958 103H60.7158ZM69.8306 103C69.6973 103 69.584 102.96 69.4906 102.88C69.4106 102.787 69.3706 102.673 69.3706 102.54V93.06C69.3706 92.9267 69.4106 92.82 69.4906 92.74C69.584 92.6467 69.6973 92.6 69.8306 92.6H70.7706C70.904 92.6 71.0106 92.6467 71.0906 92.74C71.184 92.82 71.2306 92.9267 71.2306 93.06V93.94C71.6173 93.4467 72.0706 93.0667 72.5906 92.8C73.124 92.5333 73.784 92.4 74.5706 92.4C75.8506 92.4 76.844 92.8133 77.5506 93.64C78.2706 94.4533 78.6306 95.54 78.6306 96.9V102.54C78.6306 102.673 78.584 102.787 78.4906 102.88C78.4106 102.96 78.304 103 78.1706 103H77.1706C77.0373 103 76.924 102.96 76.8306 102.88C76.7506 102.787 76.7106 102.673 76.7106 102.54V97C76.7106 96.0533 76.4773 95.32 76.0106 94.8C75.5573 94.28 74.8973 94.02 74.0306 94.02C73.1906 94.02 72.524 94.2867 72.0306 94.82C71.5373 95.34 71.2906 96.0667 71.2906 97V102.54C71.2906 102.673 71.244 102.787 71.1506 102.88C71.0706 102.96 70.964 103 70.8306 103H69.8306ZM85.7595 103.2C84.2929 103.2 83.1529 102.787 82.3395 101.96C81.5395 101.133 81.1129 100.033 81.0595 98.66L81.0395 97.8L81.0595 96.94C81.1129 95.58 81.5462 94.4867 82.3595 93.66C83.1729 92.82 84.3062 92.4 85.7595 92.4C87.2129 92.4 88.3462 92.82 89.1595 93.66C89.9729 94.4867 90.4062 95.58 90.4595 96.94C90.4729 97.0867 90.4795 97.3733 90.4795 97.8C90.4795 98.2267 90.4729 98.5133 90.4595 98.66C90.4062 100.033 89.9729 101.133 89.1595 101.96C88.3595 102.787 87.2262 103.2 85.7595 103.2ZM85.7595 101.66C86.5995 101.66 87.2595 101.393 87.7395 100.86C88.2329 100.327 88.4995 99.56 88.5395 98.56C88.5529 98.4267 88.5595 98.1733 88.5595 97.8C88.5595 97.4267 88.5529 97.1733 88.5395 97.04C88.4995 96.04 88.2329 95.2733 87.7395 94.74C87.2595 94.2067 86.5995 93.94 85.7595 93.94C84.9195 93.94 84.2529 94.2067 83.7595 94.74C83.2662 95.2733 83.0062 96.04 82.9795 97.04L82.9595 97.8L82.9795 98.56C83.0062 99.56 83.2662 100.327 83.7595 100.86C84.2529 101.393 84.9195 101.66 85.7595 101.66ZM96.9463 103C94.8396 103 93.7863 101.827 93.7863 99.48V94.2H92.2263C92.0929 94.2 91.9796 94.16 91.8863 94.08C91.8063 93.9867 91.7663 93.8733 91.7663 93.74V93.06C91.7663 92.9267 91.8063 92.82 91.8863 92.74C91.9796 92.6467 92.0929 92.6 92.2263 92.6H93.7863V89.26C93.7863 89.1267 93.8263 89.02 93.9062 88.94C93.9996 88.8467 94.1129 88.8 94.2463 88.8H95.1863C95.3196 88.8 95.4263 88.8467 95.5063 88.94C95.5996 89.02 95.6463 89.1267 95.6463 89.26V92.6H98.1263C98.2596 92.6 98.3663 92.6467 98.4463 92.74C98.5396 92.82 98.5863 92.9267 98.5863 93.06V93.74C98.5863 93.8733 98.5396 93.9867 98.4463 94.08C98.3663 94.16 98.2596 94.2 98.1263 94.2H95.6463V99.34C95.6463 100.007 95.7596 100.513 95.9863 100.86C96.2129 101.193 96.5863 101.36 97.1063 101.36H98.3263C98.4596 101.36 98.5663 101.407 98.6463 101.5C98.7396 101.58 98.7863 101.687 98.7863 101.82V102.54C98.7863 102.673 98.7396 102.787 98.6463 102.88C98.5663 102.96 98.4596 103 98.3263 103H96.9463ZM106.874 106.8C106.768 106.8 106.674 106.76 106.594 106.68C106.514 106.6 106.474 106.507 106.474 106.4C106.474 106.307 106.508 106.187 106.574 106.04L108.114 102.38L104.294 93.36C104.228 93.1867 104.194 93.0733 104.194 93.02C104.194 92.9 104.234 92.8 104.314 92.72C104.394 92.64 104.494 92.6 104.614 92.6H105.594C105.808 92.6 105.968 92.7133 106.074 92.94L109.114 100.22L112.234 92.94C112.341 92.7133 112.508 92.6 112.734 92.6H113.674C113.794 92.6 113.894 92.64 113.974 92.72C114.054 92.8 114.094 92.8933 114.094 93C114.094 93.04 114.061 93.16 113.994 93.36L108.314 106.46C108.208 106.687 108.041 106.8 107.814 106.8H106.874ZM119.898 103.2C118.524 103.2 117.424 102.78 116.598 101.94C115.784 101.087 115.338 99.9267 115.258 98.46L115.238 97.78L115.258 97.12C115.351 95.68 115.804 94.5333 116.618 93.68C117.444 92.8267 118.531 92.4 119.878 92.4C121.358 92.4 122.504 92.8733 123.318 93.82C124.131 94.7533 124.538 96.02 124.538 97.62V97.96C124.538 98.0933 124.491 98.2067 124.398 98.3C124.318 98.38 124.211 98.42 124.078 98.42H117.158V98.6C117.198 99.4667 117.458 100.207 117.938 100.82C118.431 101.42 119.078 101.72 119.878 101.72C120.491 101.72 120.991 101.6 121.378 101.36C121.778 101.107 122.071 100.847 122.258 100.58C122.378 100.42 122.464 100.327 122.518 100.3C122.584 100.26 122.698 100.24 122.858 100.24H123.838C123.958 100.24 124.058 100.273 124.138 100.34C124.218 100.407 124.258 100.5 124.258 100.62C124.258 100.913 124.071 101.267 123.698 101.68C123.338 102.093 122.824 102.453 122.158 102.76C121.504 103.053 120.751 103.2 119.898 103.2ZM122.638 97.04V96.98C122.638 96.06 122.384 95.3133 121.878 94.74C121.384 94.1533 120.718 93.86 119.878 93.86C119.038 93.86 118.371 94.1533 117.878 94.74C117.398 95.3133 117.158 96.06 117.158 96.98V97.04H122.638ZM130.931 103C128.824 103 127.771 101.827 127.771 99.48V94.2H126.211C126.077 94.2 125.964 94.16 125.871 94.08C125.791 93.9867 125.751 93.8733 125.751 93.74V93.06C125.751 92.9267 125.791 92.82 125.871 92.74C125.964 92.6467 126.077 92.6 126.211 92.6H127.771V89.26C127.771 89.1267 127.811 89.02 127.891 88.94C127.984 88.8467 128.097 88.8 128.231 88.8H129.171C129.304 88.8 129.411 88.8467 129.491 88.94C129.584 89.02 129.631 89.1267 129.631 89.26V92.6H132.111C132.244 92.6 132.351 92.6467 132.431 92.74C132.524 92.82 132.571 92.9267 132.571 93.06V93.74C132.571 93.8733 132.524 93.9867 132.431 94.08C132.351 94.16 132.244 94.2 132.111 94.2H129.631V99.34C129.631 100.007 129.744 100.513 129.971 100.86C130.197 101.193 130.571 101.36 131.091 101.36H132.311C132.444 101.36 132.551 101.407 132.631 101.5C132.724 101.58 132.771 101.687 132.771 101.82V102.54C132.771 102.673 132.724 102.787 132.631 102.88C132.551 102.96 132.444 103 132.311 103H130.931ZM140.045 103C139.912 103 139.799 102.96 139.705 102.88C139.625 102.787 139.585 102.673 139.585 102.54V93.08C139.585 92.9467 139.625 92.8333 139.705 92.74C139.799 92.6467 139.912 92.6 140.045 92.6H140.965C141.099 92.6 141.212 92.6467 141.305 92.74C141.399 92.8333 141.445 92.9467 141.445 93.08V93.96C141.992 93.0533 142.925 92.6 144.245 92.6H145.025C145.159 92.6 145.265 92.6467 145.345 92.74C145.439 92.82 145.485 92.9267 145.485 93.06V93.88C145.485 94.0133 145.439 94.12 145.345 94.2C145.265 94.28 145.159 94.32 145.025 94.32H143.825C143.105 94.32 142.539 94.5333 142.125 94.96C141.712 95.3733 141.505 95.94 141.505 96.66V102.54C141.505 102.673 141.459 102.787 141.365 102.88C141.272 102.96 141.159 103 141.025 103H140.045ZM151.148 103.2C149.774 103.2 148.674 102.78 147.848 101.94C147.034 101.087 146.588 99.9267 146.508 98.46L146.488 97.78L146.508 97.12C146.601 95.68 147.054 94.5333 147.868 93.68C148.694 92.8267 149.781 92.4 151.128 92.4C152.608 92.4 153.754 92.8733 154.568 93.82C155.381 94.7533 155.788 96.02 155.788 97.62V97.96C155.788 98.0933 155.741 98.2067 155.648 98.3C155.568 98.38 155.461 98.42 155.328 98.42H148.408V98.6C148.448 99.4667 148.708 100.207 149.188 100.82C149.681 101.42 150.328 101.72 151.128 101.72C151.741 101.72 152.241 101.6 152.628 101.36C153.028 101.107 153.321 100.847 153.508 100.58C153.628 100.42 153.714 100.327 153.768 100.3C153.834 100.26 153.948 100.24 154.108 100.24H155.088C155.208 100.24 155.308 100.273 155.388 100.34C155.468 100.407 155.508 100.5 155.508 100.62C155.508 100.913 155.321 101.267 154.948 101.68C154.588 102.093 154.074 102.453 153.408 102.76C152.754 103.053 152.001 103.2 151.148 103.2ZM153.888 97.04V96.98C153.888 96.06 153.634 95.3133 153.128 94.74C152.634 94.1533 151.968 93.86 151.128 93.86C150.288 93.86 149.621 94.1533 149.128 94.74C148.648 95.3133 148.408 96.06 148.408 96.98V97.04H153.888ZM161.079 103.2C160.426 103.2 159.819 103.067 159.259 102.8C158.699 102.533 158.253 102.173 157.919 101.72C157.599 101.253 157.439 100.74 157.439 100.18C157.439 99.3 157.799 98.58 158.519 98.02C159.253 97.4467 160.239 97.0733 161.479 96.9L164.459 96.48V95.9C164.459 94.54 163.679 93.86 162.119 93.86C161.533 93.86 161.053 93.9867 160.679 94.24C160.306 94.48 160.026 94.7667 159.839 95.1C159.799 95.22 159.746 95.3067 159.679 95.36C159.626 95.4133 159.546 95.44 159.439 95.44H158.579C158.459 95.44 158.353 95.4 158.259 95.32C158.179 95.2267 158.139 95.12 158.139 95C158.153 94.68 158.299 94.32 158.579 93.92C158.873 93.5067 159.319 93.1533 159.919 92.86C160.519 92.5533 161.259 92.4 162.139 92.4C163.633 92.4 164.706 92.7533 165.359 93.46C166.013 94.1533 166.339 95.02 166.339 96.06V102.54C166.339 102.673 166.293 102.787 166.199 102.88C166.119 102.96 166.013 103 165.879 103H164.959C164.826 103 164.713 102.96 164.619 102.88C164.539 102.787 164.499 102.673 164.499 102.54V101.68C164.206 102.107 163.779 102.467 163.219 102.76C162.659 103.053 161.946 103.2 161.079 103.2ZM161.499 101.7C162.366 101.7 163.073 101.42 163.619 100.86C164.179 100.287 164.459 99.4667 164.459 98.4V97.84L162.139 98.18C161.193 98.3133 160.479 98.54 159.999 98.86C159.519 99.1667 159.279 99.56 159.279 100.04C159.279 100.573 159.499 100.987 159.939 101.28C160.379 101.56 160.899 101.7 161.499 101.7ZM173.014 103.2C171.628 103.2 170.581 102.747 169.874 101.84C169.168 100.933 168.794 99.7867 168.754 98.4L168.734 97.8L168.754 97.2C168.794 95.8267 169.168 94.6867 169.874 93.78C170.581 92.86 171.628 92.4 173.014 92.4C174.388 92.4 175.468 92.8867 176.254 93.86V89.26C176.254 89.1267 176.294 89.02 176.374 88.94C176.468 88.8467 176.581 88.8 176.714 88.8H177.674C177.808 88.8 177.914 88.8467 177.994 88.94C178.088 89.02 178.134 89.1267 178.134 89.26V102.54C178.134 102.673 178.088 102.787 177.994 102.88C177.914 102.96 177.808 103 177.674 103H176.774C176.641 103 176.528 102.96 176.434 102.88C176.354 102.787 176.314 102.673 176.314 102.54V101.7C175.541 102.7 174.441 103.2 173.014 103.2ZM173.434 101.58C174.354 101.58 175.041 101.28 175.494 100.68C175.961 100.067 176.214 99.34 176.254 98.5C176.268 98.3533 176.274 98.1 176.274 97.74C176.274 97.3667 176.268 97.1067 176.254 96.96C176.228 96.1733 175.974 95.4867 175.494 94.9C175.014 94.3133 174.328 94.02 173.434 94.02C172.488 94.02 171.794 94.3133 171.354 94.9C170.928 95.4867 170.694 96.26 170.654 97.22L170.634 97.8C170.634 100.32 171.568 101.58 173.434 101.58ZM182.929 106.8C182.822 106.8 182.729 106.76 182.649 106.68C182.569 106.6 182.529 106.507 182.529 106.4C182.529 106.307 182.562 106.187 182.629 106.04L184.169 102.38L180.349 93.36C180.282 93.1867 180.249 93.0733 180.249 93.02C180.249 92.9 180.289 92.8 180.369 92.72C180.449 92.64 180.549 92.6 180.669 92.6H181.649C181.862 92.6 182.022 92.7133 182.129 92.94L185.169 100.22L188.289 92.94C188.396 92.7133 188.562 92.6 188.789 92.6H189.729C189.849 92.6 189.949 92.64 190.029 92.72C190.109 92.8 190.149 92.8933 190.149 93C190.149 93.04 190.116 93.16 190.049 93.36L184.369 106.46C184.262 106.687 184.096 106.8 183.869 106.8H182.929ZM191.331 103C191.198 103 191.085 102.96 190.991 102.88C190.911 102.787 190.871 102.673 190.871 102.54V101.1C190.871 100.967 190.911 100.86 190.991 100.78C191.085 100.687 191.198 100.64 191.331 100.64H192.771C192.905 100.64 193.018 100.687 193.111 100.78C193.205 100.86 193.251 100.967 193.251 101.1V102.54C193.251 102.673 193.205 102.787 193.111 102.88C193.018 102.96 192.905 103 192.771 103H191.331ZM196.55 99.68C196.417 99.68 196.304 99.64 196.21 99.56C196.13 99.4667 196.09 99.3533 196.09 99.22V89.46C196.09 89.3267 196.13 89.22 196.21 89.14C196.304 89.0467 196.417 89 196.55 89H197.49C197.624 89 197.73 89.0467 197.81 89.14C197.904 89.22 197.95 89.3267 197.95 89.46V99.22C197.95 99.3533 197.904 99.4667 197.81 99.56C197.73 99.64 197.624 99.68 197.49 99.68H196.55ZM196.37 103C196.237 103 196.124 102.96 196.03 102.88C195.95 102.787 195.91 102.673 195.91 102.54V101.28C195.91 101.147 195.95 101.033 196.03 100.94C196.124 100.847 196.237 100.8 196.37 100.8H197.65C197.784 100.8 197.89 100.847 197.97 100.94C198.064 101.033 198.11 101.147 198.11 101.28V102.54C198.11 102.673 198.064 102.787 197.97 102.88C197.89 102.96 197.784 103 197.65 103H196.37Z" fill="#949EAA"/>
<path d="M133.671 12.7972L121.203 0.328716C120.987 0.119929 120.698 0.00223786 120.398 0H92.0604C91.1594 0.00269104 90.296 0.361822 89.6589 0.998958C89.0217 1.63609 88.6626 2.49946 88.6599 3.40051V10.2582C82.5543 10.5444 76.7936 13.1712 72.5739 17.5933C68.3543 22.0154 66 27.8928 66 34.0051C66 40.1174 68.3543 45.9948 72.5739 50.4169C76.7936 54.8389 82.5543 57.4658 88.6599 57.752V64.6096C88.6626 65.5107 89.0217 66.3741 89.6589 67.0112C90.296 67.6483 91.1594 68.0075 92.0604 68.0101H130.599C131.501 68.0075 132.364 67.6483 133.001 67.0112C133.638 66.3741 133.997 65.5107 134 64.6096V13.602C133.998 13.3015 133.88 13.0134 133.671 12.7972ZM121.531 3.86524L130.135 12.4685H122.665C122.364 12.4685 122.076 12.3491 121.863 12.1365C121.651 11.924 121.531 11.6356 121.531 11.335V3.86524ZM68.2569 34.0051C68.2642 28.492 70.383 23.1912 74.1777 19.192C77.9724 15.1928 83.1548 12.799 88.6599 12.5025V33.5403L73.811 48.3892C70.2365 44.4513 68.2565 39.3234 68.2569 34.0051ZM75.4093 49.9875L90.2581 35.1386H111.296C111.089 39.2002 109.735 43.1198 107.39 46.4424C105.045 49.7649 101.805 52.354 98.0472 53.9089C94.2893 55.4638 90.1675 55.9207 86.1603 55.2265C82.1532 54.5324 78.4252 52.7157 75.4093 49.9875ZM131.733 64.6096C131.733 64.9103 131.614 65.1986 131.401 65.4111C131.188 65.6237 130.9 65.7431 130.599 65.7431H92.0604C91.7598 65.7431 91.4715 65.6237 91.2589 65.4111C91.0463 65.1986 90.9269 64.9103 90.9269 64.6096V57.752C97.0304 57.4571 102.787 54.8279 107.007 50.408C111.226 45.9881 113.585 40.1157 113.597 34.0051C113.597 33.7045 113.478 33.4161 113.265 33.2036C113.052 32.991 112.764 32.8716 112.463 32.8716H90.9269V3.40051C90.9269 3.09988 91.0463 2.81157 91.2589 2.599C91.4715 2.38643 91.7598 2.267 92.0604 2.267H119.264V11.335C119.267 12.2361 119.626 13.0994 120.263 13.7366C120.901 14.3737 121.764 14.7328 122.665 14.7355H131.733V64.6096Z" fill="#A1AAB5"/>
<path d="M94.3269 5.66751C94.0262 5.66751 93.7379 5.78693 93.5254 5.99951C93.3128 6.21208 93.1934 6.50039 93.1934 6.80101V29.4711C93.1934 29.7717 93.3128 30.06 93.5254 30.2726C93.7379 30.4851 94.0262 30.6046 94.3269 30.6046H116.997C117.298 30.6046 117.586 30.4851 117.798 30.2726C118.011 30.06 118.13 29.7717 118.13 29.4711C118.124 23.1601 115.613 17.1096 111.151 12.647C106.688 8.18449 100.638 5.67441 94.3269 5.66751ZM95.4604 28.3376V7.96852C100.77 8.25362 105.787 10.4912 109.547 14.2511C113.307 18.011 115.544 23.0279 115.829 28.3376H95.4604Z" fill="#A1AAB5"/>
<path d="M119.264 43.0731C117.246 43.0731 115.274 43.6714 113.596 44.7923C111.919 45.9133 110.611 47.5065 109.839 49.3706C109.067 51.2347 108.865 53.2859 109.259 55.2648C109.652 57.2437 110.624 59.0614 112.05 60.4881C113.477 61.9149 115.295 62.8865 117.274 63.2801C119.253 63.6737 121.304 63.4717 123.168 62.6996C125.032 61.9274 126.625 60.6199 127.746 58.9422C128.867 57.2646 129.466 55.2923 129.466 53.2746C129.461 50.5703 128.385 47.9779 126.473 46.0657C124.561 44.1534 121.968 43.0773 119.264 43.0731ZM119.264 61.2091C117.695 61.2091 116.161 60.7437 114.856 59.8719C113.551 59 112.534 57.7608 111.933 56.311C111.333 54.8611 111.176 53.2658 111.482 51.7266C111.788 50.1875 112.544 48.7737 113.653 47.664C114.763 46.5544 116.177 45.7987 117.716 45.4925C119.255 45.1864 120.851 45.3435 122.3 45.944C123.75 46.5446 124.989 47.5616 125.861 48.8664C126.733 50.1712 127.199 51.7053 127.199 53.2746C127.196 55.3782 126.359 57.395 124.872 58.8825C123.384 60.37 121.368 61.2067 119.264 61.2091Z" fill="#A1AAB5"/>
<path d="M116.997 55.0724L114.398 52.4732L112.795 54.076L116.195 57.4765C116.408 57.689 116.696 57.8084 116.997 57.8084C117.297 57.8084 117.586 57.689 117.798 57.4765L124.599 50.6755L122.996 49.0727L116.997 55.0724Z" fill="#A1AAB5"/>
<path d="M120.398 19.2696H129.466V21.5366H120.398V19.2696Z" fill="#A1AAB5"/>
<path d="M120.398 26.0706H129.466V28.3376H120.398V26.0706Z" fill="#A1AAB5"/>
<path d="M120.398 32.8716H129.466V35.1386H120.398V32.8716Z" fill="#A1AAB5"/>
</svg>
