<svg xmlns="http://www.w3.org/2000/svg" width="56" height="56" viewBox="0 0 56 56">
  <g id="announcement" transform="translate(0 0)">
    <circle id="Ellipse_913" data-name="Ellipse 913" cx="28" cy="28" r="28" transform="translate(0 0)" fill="#4cb5f9"/>
    <path id="Path_78828" data-name="Path 78828" d="M69.833,146.789A28.139,28.139,0,0,0,92.3,172.45l25.7-25.73.277-1.835H94.564l-.882-13.731-7.869,6.632-.311-.346-5,3.982-.207-2.77,3.321-1.974-1.8-1.87L69.85,146.789h-.017Z" transform="translate(-69.763 -116.747)" fill="#2682bf"/>
    <path id="Path_78829" data-name="Path 78829" d="M327.916,167.265a11.627,11.627,0,0,0-2.874,4.156,11.987,11.987,0,0,0-.277,8.432,12.242,12.242,0,0,0,2.58,4.346l-1.714,1.662c-3.515-3.221-4.415-8.675-3.636-12.8a13.918,13.918,0,0,1,.779-2.563,14.085,14.085,0,0,1,3.446-4.987l1.68,1.749h.017Zm7.065,5.039c-2.2,2.216-2.026,5.7-.225,7.255l-1.732,1.7c-2.753-2.476-2.892-7.775.312-10.718l1.628,1.766h.017Zm-3.532-2.511a8.589,8.589,0,0,0-.381,12.121l-1.714,1.662c-1.957-1.558-3.1-5.35-3.013-7.861.1-2.563,1.247-5.939,3.48-7.688Z" transform="translate(-314.08 -147.335)" fill="#f7f7f8"/>
    <path id="Path_78830" data-name="Path 78830" d="M325.858,257.908a10.994,10.994,0,0,0,.641,4.156,12.241,12.241,0,0,0,2.58,4.346l-1.714,1.662c-2.805-2.563-3.948-6.562-3.9-10.164h2.389Zm9.281,0h-2.424a7.016,7.016,0,0,0,2.061,5.575l1.732-1.7A4.6,4.6,0,0,1,335.139,257.908Zm-4.641,0h-2.407v.017c-.1,2.511,1.039,6.3,3,7.861l1.714-1.662a9.212,9.212,0,0,1-2.32-6.233Z" transform="translate(-315.797 -229.563)" fill="#e6e6e6"/>
    <path id="Path_78831" data-name="Path 78831" d="M126.372,197.518h-6.095v11.618a1.234,1.234,0,0,0,1.229,1.229h4.866a1.234,1.234,0,0,0,1.229-1.229V198.747A1.234,1.234,0,0,0,126.372,197.518Z" transform="translate(-84.614 -175.822)" fill="#e84f4f"/>
    <path id="Path_78832" data-name="Path 78832" d="M69.833,218.607a5.437,5.437,0,0,0,5.541-5.264h0a5.437,5.437,0,0,0-5.541-5.264Z" transform="translate(-26.862 -185.223)" fill="#f9f9f9"/>
    <path id="Path_78833" data-name="Path 78833" d="M190.87,127.41l7.982,7.151v12.848l-7.982,7.151c-.693.623-3.757.9-3.757.138V127.254c0-.762,3.065-.485,3.757.139Z" transform="translate(-163.196 -112.865)" fill="#f7f7f8"/>
    <path id="Path_78834" data-name="Path 78834" d="M120.277,256v5.264a1.2,1.2,0,0,0,1.229,1.16h4.866a1.2,1.2,0,0,0,1.229-1.16V256Z" transform="translate(-84.614 -227.879)" fill="#ca4545"/>
    <g id="Group_51602" data-name="Group 51602" transform="translate(23.907 28.103)">
      <path id="Path_78835" data-name="Path 78835" d="M69.833,261.264A5.437,5.437,0,0,0,75.374,256H69.833Z" transform="translate(-50.769 -255.983)" fill="#e6e6e6"/>
      <path id="Path_78836" data-name="Path 78836" d="M198.538,255.859v6.424l-7.982,7.151c-.693.623-3.757.9-3.757.138V255.842h11.757Z" transform="translate(-186.798 -255.842)" fill="#e6e6e6"/>
    </g>
  </g>
</svg>
