<svg width="38" height="35" viewBox="0 0 38 35" fill="none" xmlns="http://www.w3.org/2000/svg">
<path d="M26 25L19.5 17L13 25" stroke="#ABABAB" stroke-width="2" stroke-linecap="round" stroke-linejoin="round"/>
<path d="M19 17V34" stroke="#ABABAB" stroke-width="2" stroke-linecap="round" stroke-linejoin="round"/>
<path d="M32.7336 29C34.3298 28.0328 35.5908 26.502 36.3176 24.6491C37.0444 22.7963 37.1956 20.727 36.7473 18.768C36.2989 16.809 35.2767 15.0718 33.8418 13.8308C32.4069 12.5898 30.6413 11.9156 28.8235 11.9147H26.7615C26.2665 9.78418 25.3436 7.80618 24.0622 6.12946C22.7808 4.45274 21.1742 3.12093 19.3633 2.23419C17.5524 1.34745 15.5842 0.928847 13.6069 1.00987C11.6295 1.0909 9.69444 1.66943 7.9471 2.70198C6.19977 3.73453 4.68568 5.19421 3.5187 6.97126C2.35172 8.7483 1.56221 10.7965 1.20956 12.9617C0.856903 15.127 0.950275 17.353 1.48265 19.4723C2.01503 21.5917 2.97256 23.5492 4.28323 25.1977" stroke="#ABABAB" stroke-width="2" stroke-linecap="round" stroke-linejoin="round"/>
</svg>
