<svg width="18" height="18" viewBox="0 0 18 18" fill="none" xmlns="http://www.w3.org/2000/svg">
<path d="M6.33333 1H2.77778C2.30628 1 1.8541 1.1873 1.5207 1.5207C1.1873 1.8541 1 2.30628 1 2.77778V6.33333M6.33333 1H15.2222C15.6937 1 16.1459 1.1873 16.4793 1.5207C16.8127 1.8541 17 2.30628 17 2.77778V6.33333M6.33333 1V17M1 6.33333V15.2222C1 15.6937 1.1873 16.1459 1.5207 16.4793C1.8541 16.8127 2.30628 17 2.77778 17H6.33333M1 6.33333H17M17 6.33333V15.2222C17 15.6937 16.8127 16.1459 16.4793 16.4793C16.1459 16.8127 15.6937 17 15.2222 17H6.33333" stroke="#868686" stroke-linecap="round" stroke-linejoin="round"/>
</svg>
