<svg width="16" height="16" viewBox="0 0 16 16" fill="none" xmlns="http://www.w3.org/2000/svg">
<path d="M15.5 7.55557L15.5 7.55687C15.5028 8.65134 15.2471 9.731 14.7537 10.7079L14.7527 10.7098C14.1671 11.8816 13.2667 12.8673 12.1525 13.5563C11.0383 14.2454 9.75428 14.6106 8.44424 14.6111L8.44313 14.6111C7.34866 14.614 6.269 14.3583 5.29209 13.8648C5.17309 13.8047 5.03502 13.7946 4.90854 13.8368L0.790569 15.2094L2.16323 11.0915C2.20539 10.965 2.19529 10.8269 2.13519 10.7079C1.64174 9.731 1.38603 8.65133 1.38889 7.55687L1.38889 7.55576C1.38939 6.24572 1.75462 4.96169 2.44367 3.84749C3.13271 2.7333 4.11835 1.83294 5.29019 1.24728L5.29019 1.24728L5.29209 1.24632C6.269 0.752879 7.34866 0.49717 8.44313 0.500025H8.44443H8.87486C10.5997 0.59851 12.2282 1.32804 13.4501 2.54989C14.672 3.77175 15.4015 5.4003 15.5 7.12514L15.5 7.55557Z" stroke="#868686" stroke-linecap="round" stroke-linejoin="round"/>
<path d="M5.95714 4.44534H6.8957M5.95714 4.44534C5.87028 4.44542 5.78438 4.46356 5.70492 4.49859C5.62546 4.53361 5.55418 4.58477 5.49562 4.6488C5.43705 4.71283 5.39249 4.78833 5.36476 4.87048C5.33703 4.95264 5.32675 5.03966 5.33457 5.12601L6.8957 4.44534M5.95714 4.44534L5.95772 5.0597M5.95714 4.44534V5.05976L5.95252 5.06025L5.95772 5.0597M6.8957 4.44534C7.04753 4.44385 7.19472 4.49751 7.30984 4.59632M6.8957 4.44534L7.30984 4.59632M5.95772 5.0597L6.32896 5.0202C6.34415 5.16301 6.36526 5.30484 6.39217 5.44534M5.95772 5.0597L6.39217 5.44534M5.95714 5.06963L5.95668 5.06968L5.95585 5.06975L5.95714 5.06963ZM5.95714 5.06963V5.0704M5.95714 5.06963V5.0704M5.95714 5.0704V5.07074V5.0704ZM6.39217 5.44534C6.4367 5.67789 6.4971 5.9068 6.57282 6.1305L6.72396 5.97967C6.66793 5.80422 6.62165 5.62584 6.58531 5.44534H6.39217ZM7.30984 4.59632C7.42496 4.69512 7.50015 4.83234 7.5214 4.98238L7.30984 4.59632ZM10.0154 9.26715C10.1923 9.32353 10.3721 9.37005 10.5541 9.40651V9.60672C10.3184 9.5612 10.0865 9.4995 9.86005 9.42219L10.0154 9.26715ZM6.90902 5.06331L7.25623 4.65877L6.90902 5.06331ZM5.95773 5.06958L6.3305 5.03583C6.33522 5.08804 6.329 5.14064 6.31226 5.19024C6.29552 5.23984 6.26866 5.28528 6.23351 5.32372C6.19836 5.36215 6.15569 5.39273 6.1083 5.41362C6.06091 5.43451 6.00976 5.44529 5.95808 5.44534L5.95773 5.07207L5.95773 5.07148L5.95773 5.0706L5.95773 5.06958Z" fill="#868686" stroke="#868686" stroke-width="2" stroke-linecap="round" stroke-linejoin="round"/>
</svg>
