<svg id="svg" version="1.1" xmlns="http://www.w3.org/2000/svg" xmlns:xlink="http://www.w3.org/1999/xlink" width="400" height="330.2957633892886" viewBox="0, 0, 400,330.2957633892886"><g id="svgg"><path id="path0" d="M187.050 69.712 C 179.689 70.189,170.961 71.008,169.686 71.340 C 165.774 72.360,163.871 77.412,166.102 80.857 C 168.400 84.408,169.263 84.665,176.554 83.975 C 193.243 82.395,205.270 82.423,221.822 84.081 C 225.194 84.418,228.096 84.562,228.697 84.420 C 230.203 84.066,231.501 83.402,231.306 83.087 C 231.213 82.937,231.289 82.814,231.475 82.814 C 231.661 82.814,232.243 82.130,232.767 81.295 C 234.860 77.961,233.706 73.733,230.216 71.952 C 227.068 70.346,199.405 68.910,187.050 69.712 M184.972 123.750 C 182.510 123.878,180.441 124.000,180.375 124.022 C 180.220 124.072,180.624 132.739,180.864 134.529 C 181.010 135.612,180.939 135.925,180.510 136.090 C 179.590 136.443,179.460 135.893,179.065 129.976 C 178.854 126.811,178.638 124.177,178.585 124.123 C 178.438 123.974,167.853 124.926,167.674 125.105 C 167.588 125.191,167.792 127.833,168.128 130.976 C 168.464 134.119,168.678 136.799,168.603 136.930 C 168.326 137.421,167.226 137.166,167.223 136.611 C 167.220 136.039,166.421 128.790,166.102 126.436 C 165.940 125.244,165.852 125.142,165.057 125.231 C 160.111 125.785,155.491 126.354,155.216 126.443 C 154.916 126.540,155.257 129.512,156.469 137.378 C 156.600 138.232,156.513 138.406,155.894 138.524 C 155.179 138.661,155.145 138.540,154.273 132.669 L 153.382 126.674 152.231 126.851 C 148.243 127.463,142.577 128.460,142.471 128.569 C 142.402 128.639,142.837 131.274,143.438 134.423 C 144.039 137.572,144.493 140.184,144.447 140.228 C 143.414 141.214,143.102 140.515,142.007 134.772 C 141.404 131.607,140.861 128.957,140.800 128.884 C 140.693 128.756,130.498 130.743,130.097 130.970 C 129.987 131.032,130.382 133.136,130.973 135.645 C 132.545 142.314,132.614 142.926,131.800 142.926 C 131.035 142.926,131.173 143.322,129.617 136.611 C 128.286 130.866,128.371 130.974,126.044 132.100 C 122.416 133.856,122.151 135.915,124.415 144.724 C 127.256 155.779,127.822 156.160,138.112 153.942 C 155.664 150.158,173.473 148.123,191.717 147.817 L 202.619 147.634 202.828 140.912 C 202.943 137.215,203.038 131.767,203.038 128.805 L 203.038 123.421 197.957 123.421 L 192.876 123.421 193.049 129.525 L 193.221 135.629 192.454 135.520 L 191.687 135.412 191.527 129.496 L 191.367 123.581 190.408 123.550 C 189.880 123.532,187.434 123.623,184.972 123.750 M206.111 131.054 C 206.005 135.209,205.842 140.638,205.749 143.117 L 205.579 147.625 210.943 147.847 C 227.414 148.531,246.033 150.928,260.812 154.267 C 267.337 155.742,270.388 154.712,271.426 150.684 C 271.597 150.022,272.394 146.931,273.198 143.816 C 275.308 135.642,274.975 133.869,270.983 132.021 C 268.548 130.894,268.889 130.179,266.119 142.223 C 265.950 142.957,264.535 143.161,264.629 142.438 C 264.651 142.267,265.218 139.647,265.888 136.618 C 266.558 133.588,267.044 131.046,266.967 130.970 C 266.722 130.726,256.487 128.698,256.325 128.861 C 256.240 128.947,255.676 131.607,255.073 134.772 C 253.980 140.512,253.679 141.192,252.661 140.213 C 252.607 140.162,253.051 137.500,253.647 134.298 C 254.373 130.401,254.616 128.440,254.384 128.364 C 253.748 128.158,243.853 126.624,243.760 126.717 C 243.654 126.823,242.046 137.453,242.046 138.050 C 242.046 138.269,241.680 138.449,241.233 138.449 C 240.491 138.449,240.435 138.357,240.599 137.410 C 240.981 135.203,242.046 127.514,242.046 126.963 C 242.046 126.244,234.506 125.252,221.227 124.224 L 218.474 124.011 218.281 125.874 C 218.175 126.899,217.991 129.576,217.873 131.823 C 217.652 136.021,217.550 136.361,216.622 136.005 C 216.158 135.827,216.107 135.473,216.268 133.526 C 216.370 132.277,216.547 129.646,216.660 127.680 L 216.866 124.105 215.787 123.938 C 215.194 123.846,212.817 123.710,210.506 123.635 L 206.304 123.499 206.111 131.054 M279.936 172.681 C 229.026 173.314,204.117 176.251,199.615 182.151 L 198.721 183.323 198.617 196.937 C 198.559 204.425,198.613 219.652,198.735 230.775 L 198.958 250.999 200.834 250.999 L 202.710 250.999 202.794 239.751 L 202.878 228.503 203.837 228.235 C 213.325 225.589,242.684 223.211,272.521 222.673 L 284.610 222.455 286.190 219.307 C 287.059 217.575,287.770 216.062,287.770 215.944 C 287.770 215.636,253.229 216.066,246.203 216.463 C 228.764 217.447,207.643 219.743,203.268 221.131 C 202.739 221.299,202.706 221.005,202.789 216.891 L 202.878 212.470 206.361 211.771 C 215.767 209.885,230.771 208.374,248.601 207.519 C 260.020 206.972,283.229 206.507,287.794 206.734 L 292.135 206.951 293.502 203.795 C 294.254 202.060,294.942 200.460,295.031 200.240 C 295.369 199.402,258.793 199.791,241.727 200.807 C 226.722 201.701,209.425 203.662,203.561 205.134 L 202.718 205.345 202.718 201.006 L 202.718 196.667 203.917 196.349 C 207.737 195.335,218.323 193.837,227.658 192.989 C 242.900 191.605,253.144 191.191,277.274 190.985 L 298.913 190.801 300.100 187.637 C 300.752 185.897,301.183 184.370,301.056 184.243 C 300.658 183.845,257.165 184.002,249.241 184.430 C 228.567 185.546,213.589 187.100,203.550 189.169 C 202.649 189.355,202.629 189.332,202.833 188.312 C 204.327 180.843,224.445 178.022,285.126 176.770 L 304.065 176.380 304.575 174.761 C 304.856 173.870,305.142 172.962,305.211 172.742 C 305.306 172.436,304.492 172.355,301.749 172.398 C 299.776 172.429,289.960 172.556,279.936 172.681 M149.398 223.901 C 149.221 224.121,148.683 225.092,148.201 226.059 C 145.412 231.661,140.300 236.053,136.005 236.537 C 134.164 236.744,134.070 237.570,135.888 237.570 C 139.800 237.570,145.565 233.236,148.800 227.863 L 149.870 226.086 150.084 228.710 C 150.749 236.850,152.329 239.048,155.017 235.572 C 157.307 232.611,158.911 231.204,158.920 232.149 C 158.947 235.211,161.466 237.019,162.437 234.675 C 162.990 233.340,163.187 233.296,164.530 234.207 C 166.510 235.550,177.962 236.219,178.363 235.015 C 178.603 234.294,176.665 234.051,172.326 234.258 C 167.593 234.484,165.516 234.094,164.588 232.806 C 163.670 231.533,162.172 232.028,161.613 233.789 C 161.201 235.088,160.560 234.359,160.028 231.986 C 159.428 229.307,158.589 229.519,155.537 233.115 C 152.231 237.012,151.799 236.520,151.371 228.364 C 151.181 224.747,151.062 224.068,150.575 223.808 C 149.843 223.416,149.783 223.421,149.398 223.901 M257.874 232.030 C 237.314 232.725,218.781 234.340,206.875 236.473 C 202.643 237.232,203.038 236.784,203.038 240.823 C 203.038 243.954,203.096 244.330,203.559 244.153 C 209.181 241.996,236.330 239.569,263.149 238.827 C 270.096 238.635,275.877 238.382,275.996 238.264 C 276.115 238.146,276.738 237.114,277.381 235.971 C 278.023 234.828,278.836 233.425,279.188 232.854 L 279.828 231.815 270.130 231.879 C 264.796 231.914,259.281 231.982,257.874 232.030 " stroke="none" fill="#eeeded" fill-rule="evenodd"></path><path id="path1" d="M32.507 60.325 C 32.390 60.442,32.294 68.646,32.294 78.557 L 32.294 96.575 31.415 96.329 C 26.454 94.942,20.492 99.383,20.471 104.481 C 20.446 110.421,29.603 110.048,33.180 103.963 L 34.053 102.478 34.213 85.691 L 34.373 68.905 36.131 68.536 C 41.532 67.403,48.290 69.042,51.916 72.363 C 53.969 74.244,54.614 73.355,53.278 70.486 C 51.753 67.212,47.841 64.924,40.703 63.130 C 34.809 61.649,34.307 61.467,34.116 60.738 C 33.959 60.136,32.954 59.879,32.507 60.325 M337.170 81.484 C 333.829 82.479,330.915 83.410,330.695 83.552 C 330.392 83.748,330.296 85.885,330.296 92.425 L 330.296 101.039 328.904 101.039 C 325.592 101.039,323.042 104.931,325.043 106.932 C 325.752 107.641,327.993 107.569,329.260 106.796 C 331.423 105.477,331.572 104.864,331.574 97.304 C 331.575 91.130,331.624 90.516,332.134 90.366 C 332.442 90.276,334.780 89.611,337.330 88.889 C 339.880 88.167,342.218 87.502,342.526 87.411 C 343.043 87.260,343.086 87.644,343.086 92.419 C 343.086 97.038,343.031 97.569,342.572 97.393 C 340.614 96.642,337.330 99.210,337.330 101.492 C 337.330 104.731,341.772 104.808,343.727 101.602 C 344.918 99.647,344.637 79.441,343.421 79.646 C 343.325 79.662,340.512 80.490,337.170 81.484 M190.088 107.151 C 174.095 107.797,151.819 109.817,141.406 111.565 C 108.854 117.029,92.271 124.037,88.562 133.895 C 83.157 148.262,91.773 180.760,111.471 220.304 C 122.099 241.640,124.429 244.869,130.136 246.168 C 135.706 247.435,137.853 247.848,141.807 248.414 C 152.433 249.936,165.638 250.720,188.419 251.182 L 198.580 251.388 198.551 217.642 C 198.520 180.760,198.404 183.081,200.371 181.249 C 206.521 175.526,237.802 172.512,292.712 172.353 C 299.739 172.333,305.527 172.278,305.574 172.231 C 305.621 172.184,306.160 170.320,306.771 168.090 C 311.147 152.121,311.637 139.503,308.151 132.545 C 304.050 124.359,288.422 117.242,266.027 113.359 C 263.477 112.917,259.376 112.203,256.914 111.773 C 254.452 111.343,250.855 110.826,248.921 110.626 C 246.986 110.425,243.605 110.046,241.407 109.784 C 229.290 108.340,202.426 106.552,197.282 106.846 C 196.843 106.872,193.605 107.009,190.088 107.151 M368.878 118.519 C 368.761 118.636,368.665 126.097,368.665 135.098 L 368.665 151.465 367.064 151.311 C 361.506 150.777,356.164 156.746,358.422 160.969 C 359.856 163.651,364.720 163.377,367.912 160.435 C 370.479 158.069,370.404 158.456,370.584 146.625 L 370.743 136.097 371.703 135.810 C 376.048 134.509,383.817 136.292,386.603 139.229 C 388.286 141.002,389.123 139.665,387.869 137.207 C 386.498 134.520,382.633 132.290,376.965 130.915 C 370.675 129.390,370.584 129.344,370.584 127.732 L 370.584 126.338 372.102 126.079 C 377.450 125.165,384.704 126.949,386.877 129.712 C 388.239 131.443,389.043 129.960,387.969 127.698 C 386.709 125.042,382.793 122.711,377.277 121.331 C 371.364 119.852,370.663 119.605,370.488 118.932 C 370.330 118.330,369.325 118.072,368.878 118.519 M203.247 126.539 C 203.134 128.253,203.040 133.721,203.039 138.689 L 203.038 147.722 197.362 147.726 C 178.505 147.741,157.380 150.019,137.810 154.150 C 127.555 156.314,127.139 156.000,124.045 143.803 C 121.245 132.763,121.595 132.391,137.810 129.202 C 149.683 126.866,162.493 125.133,174.580 124.227 C 183.495 123.559,183.717 123.550,194.213 123.482 L 203.454 123.421 203.247 126.539 M215.712 123.747 C 231.314 124.636,246.920 126.609,260.911 129.462 C 276.724 132.686,276.559 132.378,271.767 149.764 C 270.184 155.506,268.255 156.087,258.034 153.894 C 244.323 150.953,228.206 148.832,214.868 148.212 C 212.670 148.110,209.671 147.944,208.203 147.843 L 205.536 147.659 205.742 136.420 C 205.856 130.238,206.013 124.866,206.092 124.483 C 206.201 123.955,206.061 123.752,205.516 123.647 C 204.077 123.370,210.140 123.429,215.712 123.747 M54.797 189.585 C 47.741 191.660,41.806 193.457,41.608 193.580 C 41.347 193.741,41.247 198.752,41.247 211.682 L 41.247 229.561 40.427 229.249 C 36.020 227.573,29.095 232.551,29.097 237.393 C 29.100 243.832,38.732 243.465,42.375 236.887 L 43.325 235.172 43.428 221.747 C 43.484 214.363,43.559 208.293,43.594 208.258 C 43.628 208.224,48.942 206.698,55.401 204.867 L 67.146 201.538 67.146 211.846 L 67.146 222.154 65.811 221.854 C 59.919 220.530,53.217 227.787,55.770 232.726 C 57.819 236.688,66.152 234.499,68.592 229.357 C 69.296 227.873,69.348 186.469,68.646 186.023 C 68.079 185.663,68.560 185.539,54.797 189.585 M332.761 191.087 C 332.636 191.212,332.534 198.715,332.534 207.761 C 332.534 223.317,332.504 224.194,331.974 223.935 C 327.712 221.848,320.470 226.537,319.848 231.787 C 318.982 239.100,330.556 238.452,333.851 231.003 C 334.830 228.791,334.631 191.096,333.640 190.954 C 333.281 190.902,332.885 190.962,332.761 191.087 M67.146 193.845 L 67.146 195.204 55.715 198.529 C 49.428 200.358,44.105 201.920,43.885 202.000 C 43.600 202.105,43.485 201.701,43.485 200.593 L 43.485 199.040 54.916 195.785 C 68.396 191.946,67.146 192.144,67.146 193.845 M150.926 223.989 C 151.172 224.285,151.429 226.088,151.580 228.579 C 151.961 234.862,152.567 236.494,153.890 234.800 C 157.737 229.872,159.545 228.832,160.033 231.269 C 160.145 231.833,160.384 232.766,160.562 233.343 L 160.887 234.391 161.820 233.103 C 162.933 231.567,163.437 231.509,164.857 232.756 C 166.463 234.167,167.741 234.387,172.986 234.160 C 177.125 233.981,177.699 234.020,178.188 234.508 C 179.121 235.442,178.897 235.489,173.117 235.577 C 167.127 235.668,165.710 235.452,164.148 234.206 L 163.238 233.480 162.586 234.646 C 161.255 237.026,160.166 236.422,158.685 232.484 C 158.410 231.753,158.286 231.850,156.176 234.469 C 153.627 237.633,153.108 237.935,152.005 236.899 C 150.908 235.869,150.276 233.480,150.057 229.535 L 149.868 226.136 149.091 227.598 C 145.999 233.414,137.167 239.558,134.765 237.564 C 134.033 236.956,134.782 236.291,136.199 236.291 C 139.843 236.291,146.850 230.018,148.420 225.351 C 149.054 223.467,150.046 222.928,150.926 223.989 " stroke="none" fill="#b62b3a" fill-rule="evenodd"></path><path id="path2" d="M160.512 75.606 C 139.731 79.376,132.806 84.894,130.600 99.440 C 129.982 103.520,130.150 112.794,130.853 113.357 C 131.244 113.671,138.911 111.942,138.815 111.561 C 138.466 110.180,138.417 102.814,138.743 100.727 C 140.411 90.061,145.223 86.730,163.343 83.698 C 167.391 83.020,167.852 82.881,167.367 82.478 C 165.582 80.996,164.730 78.072,165.394 75.699 C 165.693 74.631,165.868 74.634,160.512 75.606 M233.677 77.343 C 233.808 79.660,232.873 82.047,231.543 82.794 C 230.859 83.178,231.025 83.228,235.332 83.932 C 255.596 87.244,260.262 92.726,258.584 111.248 C 258.523 111.914,265.990 113.907,266.575 113.380 C 267.055 112.950,267.370 105.259,267.045 101.915 C 265.473 85.713,258.882 79.829,237.794 75.800 C 233.162 74.915,233.532 74.776,233.677 77.343 M187.614 123.647 C 188.011 123.724,188.587 123.721,188.893 123.641 C 189.198 123.561,188.873 123.498,188.169 123.502 C 187.466 123.505,187.216 123.571,187.614 123.647 M191.527 129.416 C 191.685 135.335,191.696 135.413,192.406 135.514 C 193.119 135.615,193.125 135.580,193.123 131.677 C 193.120 125.422,192.857 123.421,192.040 123.421 C 191.374 123.420,191.369 123.483,191.527 129.416 M208.717 123.647 C 209.114 123.724,209.690 123.721,209.996 123.641 C 210.301 123.561,209.976 123.498,209.273 123.502 C 208.569 123.505,208.319 123.571,208.717 123.647 M178.893 124.067 C 178.619 124.510,179.382 135.660,179.711 136.014 C 180.388 136.743,181.048 135.893,180.864 134.529 C 180.764 133.783,180.586 131.135,180.469 128.645 L 180.257 124.116 181.016 123.972 C 181.477 123.884,181.249 123.811,180.435 123.785 C 179.698 123.761,179.004 123.888,178.893 124.067 M216.266 123.969 C 216.892 124.130,216.892 125.929,216.268 133.526 C 216.107 135.473,216.158 135.827,216.622 136.005 C 217.545 136.359,217.648 136.027,217.866 131.984 C 217.983 129.824,218.166 127.086,218.273 125.899 L 218.468 123.741 217.068 123.778 C 216.298 123.798,215.937 123.884,216.266 123.969 M166.651 124.964 C 165.982 125.059,165.932 125.190,166.097 126.403 C 166.418 128.766,167.220 136.033,167.223 136.611 C 167.226 137.166,168.325 137.421,168.603 136.930 C 168.722 136.722,167.690 126.037,167.469 125.180 C 167.423 125.004,167.055 124.907,166.651 124.964 M153.626 126.637 C 153.020 127.617,155.152 138.666,155.918 138.519 C 156.491 138.410,156.633 138.214,156.519 137.693 C 156.347 136.904,155.053 127.804,154.985 126.903 C 154.937 126.257,153.977 126.069,153.626 126.637 M241.448 131.641 C 241.045 134.594,240.639 137.334,240.546 137.730 C 240.407 138.326,240.513 138.449,241.164 138.449 C 241.932 138.449,241.964 138.344,242.663 133.573 C 243.632 126.950,243.643 126.481,242.833 126.366 C 242.224 126.278,242.134 126.619,241.448 131.641 M254.610 128.769 C 254.585 129.081,254.116 131.764,253.566 134.730 C 253.017 137.697,252.610 140.165,252.663 140.215 C 253.679 141.191,253.981 140.510,255.073 134.774 C 255.676 131.610,256.337 128.914,256.542 128.784 C 256.770 128.639,256.645 128.545,256.221 128.542 C 255.840 128.539,255.331 128.462,255.091 128.369 C 254.829 128.269,254.636 128.430,254.610 128.769 M141.866 134.213 C 142.461 137.334,143.006 140.057,143.077 140.263 C 143.183 140.571,144.524 140.511,144.524 140.198 C 144.524 140.029,142.615 129.998,142.442 129.257 C 142.327 128.765,142.039 128.537,141.529 128.537 L 140.785 128.537 141.866 134.213 M128.986 130.995 C 128.322 131.125,128.328 131.183,129.544 136.307 C 130.221 139.156,130.849 141.811,130.941 142.206 C 131.149 143.104,132.374 143.213,132.374 142.333 C 132.374 142.008,131.859 139.533,131.230 136.834 C 130.601 134.135,130.067 131.667,130.043 131.351 C 130.019 131.034,129.923 130.795,129.828 130.819 C 129.734 130.843,129.354 130.922,128.986 130.995 M265.906 136.452 C 264.499 142.886,264.513 142.733,265.326 142.862 C 265.850 142.945,266.045 142.459,266.801 139.185 C 267.280 137.109,267.926 134.451,268.237 133.277 C 268.824 131.060,268.731 130.810,267.306 130.781 C 267.218 130.779,266.588 133.331,265.906 136.452 M87.809 173.785 C 80.157 176.898,80.173 176.508,86.964 193.890 C 93.018 209.386,93.214 209.713,96.471 209.745 C 97.149 209.752,103.601 207.471,104.519 206.899 C 104.872 206.680,104.408 205.333,102.202 200.189 C 99.057 192.853,94.962 182.021,93.155 176.261 C 92.479 174.107,91.783 172.351,91.607 172.358 C 91.431 172.365,89.722 173.007,87.809 173.785 M285.452 172.581 C 287.782 172.636,291.595 172.636,293.925 172.581 C 296.255 172.526,294.349 172.482,289.688 172.482 C 285.028 172.482,283.122 172.526,285.452 172.581 M304.077 176.126 C 304.077 176.397,302.128 176.519,296.962 176.572 L 289.848 176.646 296.803 176.738 C 302.030 176.808,303.762 176.929,303.777 177.224 C 303.788 177.441,303.935 177.273,304.104 176.852 C 304.272 176.431,304.335 176.011,304.243 175.919 C 304.152 175.828,304.077 175.921,304.077 176.126 M276.179 177.050 C 276.751 177.121,277.686 177.121,278.257 177.050 C 278.829 176.979,278.361 176.921,277.218 176.921 C 276.075 176.921,275.608 176.979,276.179 177.050 M264.518 177.374 C 265.359 177.440,266.654 177.439,267.396 177.372 C 268.138 177.305,267.450 177.251,265.867 177.252 C 264.285 177.253,263.677 177.308,264.518 177.374 M255.396 177.689 C 255.967 177.760,256.902 177.760,257.474 177.689 C 258.046 177.618,257.578 177.560,256.435 177.560 C 255.292 177.560,254.824 177.618,255.396 177.689 M248.521 178.007 C 249.005 178.080,249.796 178.080,250.280 178.007 C 250.763 177.934,250.368 177.874,249.400 177.874 C 248.433 177.874,248.038 177.934,248.521 178.007 M242.926 178.323 C 243.321 178.399,243.969 178.399,244.365 178.323 C 244.760 178.247,244.436 178.185,243.645 178.185 C 242.854 178.185,242.530 178.247,242.926 178.323 M238.133 178.643 C 238.531 178.720,239.106 178.717,239.412 178.637 C 239.718 178.557,239.392 178.494,238.689 178.498 C 237.986 178.501,237.735 178.567,238.133 178.643 M234.133 178.957 C 234.440 179.038,234.944 179.038,235.252 178.957 C 235.560 178.877,235.308 178.811,234.692 178.811 C 234.077 178.811,233.825 178.877,234.133 178.957 M301.686 183.189 C 301.504 183.765,301.192 183.861,299.339 183.913 L 297.202 183.974 299.113 184.091 C 300.164 184.156,301.116 184.358,301.229 184.541 C 301.342 184.724,301.598 184.405,301.798 183.832 C 301.998 183.259,302.102 182.731,302.029 182.658 C 301.956 182.585,301.802 182.824,301.686 183.189 M272.335 183.764 C 272.903 183.835,273.910 183.836,274.573 183.767 C 275.237 183.697,274.772 183.640,273.541 183.638 C 272.310 183.637,271.767 183.693,272.335 183.764 M258.114 184.088 C 258.949 184.154,260.316 184.154,261.151 184.088 C 261.986 184.022,261.303 183.968,259.632 183.968 C 257.962 183.968,257.278 184.022,258.114 184.088 M249.646 184.404 C 250.221 184.476,251.084 184.474,251.564 184.401 C 252.045 184.328,251.575 184.270,250.520 184.272 C 249.464 184.274,249.071 184.333,249.646 184.404 M243.086 184.721 C 243.569 184.795,244.361 184.795,244.844 184.721 C 245.328 184.648,244.932 184.588,243.965 184.588 C 242.998 184.588,242.602 184.648,243.086 184.721 M237.810 185.038 C 238.205 185.114,238.853 185.114,239.249 185.038 C 239.644 184.962,239.321 184.899,238.529 184.899 C 237.738 184.899,237.414 184.962,237.810 185.038 M233.493 185.352 C 233.801 185.433,234.305 185.433,234.612 185.352 C 234.920 185.272,234.668 185.206,234.053 185.206 C 233.437 185.206,233.185 185.272,233.493 185.352 M298.961 190.514 C 298.961 190.719,298.565 190.902,298.082 190.919 L 297.202 190.951 298.002 191.182 C 298.775 191.406,299.608 190.788,299.150 190.330 C 299.046 190.226,298.961 190.309,298.961 190.514 M265.773 191.124 C 266.953 191.185,268.967 191.186,270.250 191.125 C 271.532 191.064,270.568 191.014,268.106 191.013 C 265.643 191.013,264.594 191.063,265.773 191.124 M254.596 191.440 C 255.256 191.509,256.335 191.509,256.994 191.440 C 257.654 191.371,257.114 191.315,255.795 191.315 C 254.476 191.315,253.937 191.371,254.596 191.440 M247.088 191.759 C 247.663 191.830,248.526 191.828,249.007 191.755 C 249.487 191.682,249.017 191.624,247.962 191.626 C 246.906 191.628,246.513 191.687,247.088 191.759 M241.171 192.076 C 241.657 192.149,242.377 192.147,242.770 192.072 C 243.163 191.996,242.766 191.936,241.886 191.938 C 241.007 191.940,240.685 192.002,241.171 192.076 M236.215 192.392 C 236.612 192.469,237.188 192.466,237.494 192.386 C 237.799 192.306,237.474 192.243,236.771 192.247 C 236.067 192.250,235.817 192.316,236.215 192.392 M231.894 192.706 C 232.202 192.787,232.706 192.787,233.014 192.706 C 233.321 192.626,233.070 192.560,232.454 192.560 C 231.839 192.560,231.587 192.626,231.894 192.706 M228.058 193.026 C 228.365 193.107,228.869 193.107,229.177 193.026 C 229.484 192.946,229.233 192.880,228.617 192.880 C 228.002 192.880,227.750 192.946,228.058 193.026 M202.787 200.879 C 202.724 204.881,202.768 205.275,203.277 205.271 C 203.665 205.267,203.717 205.190,203.447 205.018 C 203.183 204.850,203.025 203.440,202.957 200.627 L 202.857 196.483 202.787 200.879 M277.956 199.759 C 280.032 199.815,283.341 199.815,285.310 199.759 C 287.278 199.703,285.580 199.657,281.535 199.657 C 277.490 199.658,275.879 199.704,277.956 199.759 M256.675 200.074 C 257.422 200.142,258.645 200.142,259.392 200.074 C 260.140 200.007,259.528 199.952,258.034 199.952 C 256.539 199.952,255.927 200.007,256.675 200.074 M248.361 200.391 C 248.933 200.462,249.868 200.462,250.440 200.391 C 251.011 200.320,250.544 200.262,249.400 200.262 C 248.257 200.262,247.790 200.320,248.361 200.391 M242.450 200.709 C 242.936 200.783,243.656 200.781,244.049 200.705 C 244.442 200.629,244.045 200.569,243.165 200.571 C 242.286 200.573,241.964 200.636,242.450 200.709 M237.170 201.025 C 237.566 201.101,238.213 201.101,238.609 201.025 C 239.005 200.949,238.681 200.886,237.890 200.886 C 237.098 200.886,236.775 200.949,237.170 201.025 M232.854 201.340 C 233.161 201.420,233.665 201.420,233.973 201.340 C 234.281 201.259,234.029 201.193,233.413 201.193 C 232.798 201.193,232.546 201.259,232.854 201.340 M229.017 201.659 C 229.325 201.740,229.828 201.740,230.136 201.659 C 230.444 201.579,230.192 201.513,229.576 201.513 C 228.961 201.513,228.709 201.579,229.017 201.659 M291.978 207.048 C 291.443 208.224,291.545 208.475,292.124 207.406 C 292.395 206.907,292.556 206.438,292.483 206.365 C 292.410 206.292,292.183 206.599,291.978 207.048 M279.552 206.793 C 281.099 206.852,283.546 206.851,284.988 206.792 C 286.430 206.733,285.164 206.685,282.174 206.686 C 279.185 206.686,278.005 206.734,279.552 206.793 M262.756 207.106 C 263.330 207.177,264.194 207.176,264.674 207.103 C 265.154 207.030,264.684 206.972,263.629 206.974 C 262.574 206.975,262.181 207.035,262.756 207.106 M253.150 207.425 C 253.718 207.496,254.725 207.497,255.389 207.428 C 256.052 207.358,255.588 207.301,254.357 207.299 C 253.125 207.298,252.583 207.354,253.150 207.425 M245.963 207.743 C 246.447 207.816,247.238 207.816,247.722 207.743 C 248.205 207.670,247.810 207.610,246.843 207.610 C 245.875 207.610,245.480 207.670,245.963 207.743 M240.368 208.059 C 240.763 208.136,241.411 208.136,241.807 208.059 C 242.202 207.983,241.878 207.921,241.087 207.921 C 240.296 207.921,239.972 207.983,240.368 208.059 M235.575 208.380 C 235.973 208.456,236.549 208.453,236.854 208.373 C 237.160 208.293,236.835 208.231,236.131 208.234 C 235.428 208.238,235.178 208.303,235.575 208.380 M231.255 208.694 C 231.563 208.774,232.066 208.774,232.374 208.694 C 232.682 208.613,232.430 208.547,231.815 208.547 C 231.199 208.547,230.947 208.613,231.255 208.694 M290.225 210.886 C 289.474 212.461,289.580 212.729,290.365 211.241 C 290.722 210.565,290.957 209.955,290.888 209.886 C 290.819 209.817,290.520 210.267,290.225 210.886 M202.931 212.523 C 202.636 212.819,202.661 221.263,202.958 221.264 C 203.090 221.264,203.153 219.371,203.099 217.057 C 203.024 213.855,203.101 212.787,203.419 212.585 C 203.652 212.437,203.684 212.318,203.491 212.315 C 203.300 212.312,203.048 212.406,202.931 212.523 M288.299 215.014 C 288.135 215.440,286.876 215.518,279.067 215.582 L 270.024 215.657 278.897 215.747 C 283.777 215.797,287.770 215.910,287.770 215.998 C 287.770 216.086,287.049 217.595,286.168 219.350 L 284.567 222.542 278.095 222.615 L 271.623 222.688 277.938 222.781 C 281.411 222.833,284.253 222.948,284.253 223.037 C 284.253 223.127,283.819 224.059,283.289 225.109 C 282.759 226.159,282.398 227.018,282.488 227.018 C 282.730 227.018,288.790 214.822,288.627 214.660 C 288.551 214.583,288.403 214.743,288.299 215.014 M255.404 216.062 C 256.156 216.129,257.307 216.128,257.962 216.060 C 258.617 215.991,258.002 215.936,256.595 215.937 C 255.188 215.938,254.652 215.994,255.404 216.062 M260.196 216.053 C 260.593 216.130,261.169 216.127,261.475 216.047 C 261.780 215.967,261.455 215.904,260.751 215.908 C 260.048 215.912,259.798 215.977,260.196 216.053 M247.408 216.379 C 247.982 216.450,248.846 216.449,249.326 216.376 C 249.807 216.303,249.337 216.244,248.281 216.246 C 247.226 216.248,246.833 216.308,247.408 216.379 M241.491 216.696 C 241.977 216.770,242.697 216.768,243.090 216.692 C 243.483 216.616,243.086 216.556,242.206 216.558 C 241.327 216.561,241.005 216.623,241.491 216.696 M236.535 217.013 C 236.932 217.089,237.508 217.086,237.813 217.006 C 238.119 216.926,237.794 216.864,237.090 216.867 C 236.387 216.871,236.137 216.936,236.535 217.013 M232.214 217.327 C 232.522 217.407,233.026 217.407,233.333 217.327 C 233.641 217.246,233.389 217.180,232.774 217.180 C 232.158 217.180,231.906 217.246,232.214 217.327 M228.377 217.646 C 228.685 217.727,229.189 217.727,229.496 217.646 C 229.804 217.566,229.552 217.500,228.937 217.500 C 228.321 217.500,228.070 217.566,228.377 217.646 M258.753 223.097 C 259.588 223.163,260.955 223.163,261.791 223.097 C 262.626 223.031,261.942 222.977,260.272 222.977 C 258.601 222.977,257.918 223.031,258.753 223.097 M251.878 223.413 C 252.450 223.484,253.385 223.484,253.957 223.413 C 254.528 223.342,254.061 223.284,252.918 223.284 C 251.775 223.284,251.307 223.342,251.878 223.413 M245.004 223.730 C 245.488 223.803,246.279 223.803,246.763 223.730 C 247.246 223.657,246.851 223.597,245.883 223.597 C 244.916 223.597,244.520 223.657,245.004 223.730 M239.408 224.047 C 239.804 224.123,240.452 224.123,240.847 224.047 C 241.243 223.970,240.919 223.908,240.128 223.908 C 239.337 223.908,239.013 223.970,239.408 224.047 M234.936 224.367 C 235.334 224.443,235.909 224.440,236.215 224.360 C 236.520 224.280,236.195 224.218,235.492 224.221 C 234.788 224.225,234.538 224.290,234.936 224.367 M230.616 224.681 C 230.923 224.761,231.427 224.761,231.735 224.681 C 232.042 224.600,231.791 224.535,231.175 224.535 C 230.560 224.535,230.308 224.600,230.616 224.681 M227.098 225.001 C 227.406 225.081,227.910 225.081,228.217 225.001 C 228.525 224.920,228.273 224.854,227.658 224.854 C 227.042 224.854,226.791 224.920,227.098 225.001 M202.844 228.750 C 202.748 228.999,202.731 229.610,202.806 230.109 C 202.923 230.888,202.948 230.851,202.990 229.843 C 203.016 229.198,203.217 228.598,203.437 228.509 C 203.750 228.383,203.748 228.342,203.427 228.323 C 203.202 228.309,202.939 228.501,202.844 228.750 M150.034 230.216 C 150.034 230.831,150.100 231.083,150.180 230.775 C 150.261 230.468,150.261 229.964,150.180 229.656 C 150.100 229.349,150.034 229.600,150.034 230.216 M280.514 230.369 L 279.984 231.482 273.565 231.575 L 267.146 231.669 273.615 231.742 L 280.083 231.815 280.735 230.536 C 281.094 229.832,281.311 229.257,281.216 229.257 C 281.122 229.257,280.806 229.757,280.514 230.369 M198.636 241.007 L 198.561 251.319 200.879 251.256 L 203.197 251.194 201.044 251.082 L 198.890 250.970 198.801 240.833 L 198.712 230.695 198.636 241.007 M151.633 232.134 C 151.633 232.750,151.699 233.002,151.779 232.694 C 151.860 232.386,151.860 231.882,151.779 231.575 C 151.699 231.267,151.633 231.519,151.633 232.134 M256.355 232.049 C 257.102 232.116,258.325 232.116,259.073 232.049 C 259.820 231.981,259.209 231.926,257.714 231.926 C 256.219 231.926,255.608 231.981,256.355 232.049 M248.367 232.366 C 248.942 232.437,249.805 232.436,250.286 232.363 C 250.766 232.290,250.296 232.232,249.241 232.233 C 248.185 232.235,247.792 232.295,248.367 232.366 M242.131 232.683 C 242.617 232.757,243.336 232.755,243.729 232.679 C 244.123 232.603,243.725 232.543,242.846 232.545 C 241.966 232.548,241.645 232.610,242.131 232.683 M237.174 233.000 C 237.572 233.076,238.147 233.074,238.453 232.993 C 238.759 232.913,238.433 232.851,237.730 232.854 C 237.026 232.858,236.776 232.923,237.174 233.000 M278.412 234.133 C 277.288 236.076,276.771 237.141,277.131 236.771 C 277.566 236.323,279.537 232.774,279.350 232.774 C 279.266 232.774,278.844 233.385,278.412 234.133 M232.698 233.320 C 233.095 233.396,233.671 233.393,233.977 233.313 C 234.282 233.233,233.957 233.171,233.253 233.174 C 232.550 233.178,232.300 233.243,232.698 233.320 M229.017 233.634 C 229.325 233.714,229.828 233.714,230.136 233.634 C 230.444 233.553,230.192 233.487,229.576 233.487 C 228.961 233.487,228.709 233.553,229.017 233.634 M171.946 234.279 C 172.344 234.355,172.919 234.352,173.225 234.272 C 173.531 234.192,173.205 234.130,172.502 234.133 C 171.799 234.137,171.548 234.202,171.946 234.279 M172.266 235.558 C 172.664 235.634,173.239 235.631,173.545 235.551 C 173.851 235.471,173.525 235.409,172.822 235.412 C 172.118 235.416,171.868 235.481,172.266 235.558 M151.854 236.691 C 152.281 237.174,152.856 237.559,153.133 237.545 C 153.565 237.523,153.568 237.494,153.157 237.344 C 152.894 237.248,152.318 236.863,151.878 236.490 L 151.079 235.811 151.854 236.691 M135.332 236.511 C 135.639 236.592,136.143 236.592,136.451 236.511 C 136.759 236.431,136.507 236.365,135.891 236.365 C 135.276 236.365,135.024 236.431,135.332 236.511 M202.786 240.847 L 202.855 244.764 202.957 241.099 C 203.025 238.672,203.191 237.351,203.448 237.187 C 203.716 237.017,203.663 236.939,203.277 236.935 C 202.771 236.931,202.724 237.302,202.786 240.847 M276.259 237.890 C 275.950 238.467,275.551 238.536,272.171 238.598 L 268.425 238.666 272.042 238.768 L 275.658 238.870 274.981 240.059 C 274.532 240.846,274.499 240.986,274.882 240.475 C 275.750 239.316,276.958 237.250,276.768 237.250 C 276.676 237.250,276.447 237.538,276.259 237.890 M135.332 237.790 C 135.639 237.871,136.143 237.871,136.451 237.790 C 136.759 237.710,136.507 237.644,135.891 237.644 C 135.276 237.644,135.024 237.710,135.332 237.790 M257.314 239.083 C 258.062 239.150,259.285 239.150,260.032 239.083 C 260.779 239.016,260.168 238.961,258.673 238.961 C 257.178 238.961,256.567 239.016,257.314 239.083 M249.001 239.400 C 249.572 239.471,250.508 239.471,251.079 239.400 C 251.651 239.329,251.183 239.271,250.040 239.271 C 248.897 239.271,248.429 239.329,249.001 239.400 M242.770 239.718 C 243.256 239.791,243.976 239.789,244.369 239.713 C 244.762 239.638,244.365 239.577,243.485 239.580 C 242.606 239.582,242.284 239.644,242.770 239.718 M237.490 240.034 C 237.886 240.110,238.533 240.110,238.929 240.034 C 239.325 239.958,239.001 239.895,238.209 239.895 C 237.418 239.895,237.094 239.958,237.490 240.034 M233.017 240.354 C 233.415 240.431,233.991 240.428,234.296 240.348 C 234.602 240.268,234.277 240.205,233.573 240.209 C 232.870 240.212,232.620 240.278,233.017 240.354 M229.017 240.668 C 229.325 240.748,229.828 240.748,230.136 240.668 C 230.444 240.588,230.192 240.522,229.576 240.522 C 228.961 240.522,228.709 240.588,229.017 240.668 M225.500 240.988 C 225.807 241.068,226.311 241.068,226.619 240.988 C 226.926 240.907,226.675 240.842,226.059 240.842 C 225.444 240.842,225.192 240.907,225.500 240.988 M272.762 243.086 C 271.983 244.009,271.745 244.404,272.234 243.965 C 273.059 243.224,274.514 241.407,274.282 241.407 C 274.226 241.407,273.542 242.163,272.762 243.086 M231.255 250.589 C 231.739 250.662,232.530 250.662,233.014 250.589 C 233.497 250.515,233.102 250.456,232.134 250.456 C 231.167 250.456,230.771 250.515,231.255 250.589 M172.586 250.906 C 172.983 250.982,173.559 250.979,173.865 250.899 C 174.170 250.819,173.845 250.757,173.141 250.760 C 172.438 250.764,172.188 250.829,172.586 250.906 M223.749 250.914 C 224.502 250.982,225.653 250.981,226.307 250.912 C 226.962 250.843,226.347 250.788,224.940 250.789 C 223.533 250.790,222.997 250.846,223.749 250.914 M184.902 251.235 C 185.742 251.301,187.037 251.300,187.779 251.233 C 188.522 251.166,187.834 251.112,186.251 251.113 C 184.668 251.114,184.061 251.169,184.902 251.235 M210.007 251.237 C 211.466 251.297,213.769 251.296,215.123 251.237 C 216.478 251.177,215.284 251.128,212.470 251.129 C 209.656 251.129,208.548 251.178,210.007 251.237 " stroke="none" fill="#a99c87" fill-rule="evenodd"></path><path id="path3" d="M112.814 105.626 C 103.391 107.975,102.969 108.469,103.618 116.386 L 104.008 121.138 105.641 120.476 C 110.466 118.518,117.327 116.530,127.640 114.098 L 129.461 113.669 128.207 110.631 C 125.069 103.031,124.266 102.770,112.814 105.626 M266.986 177.317 C 221.356 178.829,204.534 181.732,202.875 188.382 C 202.664 189.226,202.673 189.231,203.889 188.950 C 217.843 185.720,246.911 183.788,280.941 183.830 C 300.198 183.853,301.464 183.820,301.678 183.294 C 302.144 182.152,303.757 177.329,303.757 177.078 C 303.757 176.698,281.242 176.844,266.986 177.317 M263.138 191.219 C 238.574 191.848,216.103 193.784,205.196 196.213 L 203.038 196.694 203.038 200.825 C 203.038 203.097,203.084 204.956,203.141 204.956 C 203.197 204.956,205.319 204.607,207.857 204.179 C 225.458 201.216,246.403 199.868,277.218 199.713 L 295.284 199.623 296.986 195.545 C 297.922 193.302,298.593 191.372,298.478 191.257 C 298.180 190.958,274.343 190.933,263.138 191.219 M263.629 207.086 C 262.574 207.136,257.754 207.331,252.918 207.518 C 232.203 208.320,209.906 210.574,203.597 212.502 C 203.088 212.658,202.661 220.943,203.162 220.943 C 203.231 220.943,204.418 220.730,205.800 220.470 C 220.971 217.611,242.430 216.058,272.697 215.629 L 288.160 215.409 289.856 211.799 C 290.789 209.814,291.646 207.894,291.761 207.532 C 291.960 206.905,273.594 206.614,263.629 207.086 M261.551 223.073 C 260.584 223.124,256.051 223.320,251.479 223.508 C 233.124 224.265,217.996 225.696,207.336 227.684 C 202.661 228.556,203.003 228.162,202.799 232.892 C 202.603 237.434,202.474 237.226,205.116 236.622 C 215.679 234.208,241.840 232.161,269.110 231.617 L 280.028 231.399 282.140 227.334 C 283.302 225.098,284.253 223.177,284.253 223.065 C 284.253 222.872,265.249 222.878,261.551 223.073 M254.676 239.201 C 234.674 239.958,214.880 241.844,205.436 243.893 L 202.878 244.448 202.878 247.933 L 202.878 251.419 187.628 251.206 C 179.241 251.089,172.191 250.934,171.961 250.861 C 171.731 250.789,169.241 250.649,166.427 250.551 C 156.174 250.193,143.073 248.839,135.470 247.352 C 133.268 246.921,131.203 246.626,130.881 246.695 C 130.559 246.764,128.210 247.192,125.661 247.646 C 119.820 248.686,119.836 248.658,124.071 250.510 C 129.315 252.802,128.559 254.126,121.982 254.164 C 117.964 254.188,116.371 253.766,112.942 251.769 L 111.895 251.159 110.064 252.142 C 100.943 257.040,111.585 262.236,137.490 265.534 C 196.996 273.110,291.926 267.113,291.926 255.778 C 291.926 252.434,284.911 249.578,270.858 247.201 L 265.867 246.357 268.685 245.437 C 271.713 244.448,272.949 243.400,274.847 240.208 L 275.656 238.849 268.523 238.898 C 264.600 238.925,258.369 239.061,254.676 239.201 M233.014 250.589 C 232.530 250.662,231.739 250.662,231.255 250.589 C 230.771 250.515,231.167 250.456,232.134 250.456 C 233.102 250.456,233.497 250.515,233.014 250.589 M226.307 250.912 C 225.653 250.981,224.502 250.982,223.749 250.914 C 222.997 250.846,223.533 250.790,224.940 250.789 C 226.347 250.788,226.962 250.843,226.307 250.912 M215.123 251.237 C 213.769 251.296,211.466 251.297,210.007 251.237 C 208.548 251.178,209.656 251.129,212.470 251.129 C 215.284 251.128,216.478 251.177,215.123 251.237 " stroke="none" fill="#8d8d8d" fill-rule="evenodd"></path><path id="path4" d="M301.199 112.357 C 301.199 112.603,302.674 113.783,304.476 114.979 C 319.890 125.208,324.274 139.587,318.279 160.244 C 314.614 172.872,305.822 200.071,300.835 214.213 C 298.470 220.918,298.325 221.583,299.224 221.583 C 301.621 221.583,319.325 178.847,324.844 159.740 C 330.101 141.542,326.592 126.827,314.864 117.881 C 309.893 114.089,301.199 110.574,301.199 112.357 M84.166 115.113 C 74.832 117.558,68.740 124.866,68.748 133.607 C 68.756 142.302,78.107 168.742,79.703 164.583 C 79.796 164.343,79.241 161.176,78.471 157.546 C 74.191 137.374,73.649 133.204,74.815 129.427 C 76.263 124.740,79.246 121.475,87.124 115.955 C 87.667 115.574,87.696 115.437,87.325 114.990 C 86.809 114.368,87.042 114.359,84.166 115.113 M185.375 123.647 C 185.773 123.724,186.349 123.721,186.654 123.641 C 186.960 123.561,186.635 123.498,185.931 123.502 C 185.228 123.505,184.978 123.571,185.375 123.647 M203.142 125.500 C 203.144 126.731,203.202 127.195,203.271 126.532 C 203.340 125.868,203.339 124.861,203.268 124.293 C 203.198 123.726,203.141 124.269,203.142 125.500 M210.791 123.642 C 211.099 123.722,211.603 123.722,211.910 123.642 C 212.218 123.561,211.966 123.495,211.351 123.495 C 210.735 123.495,210.484 123.561,210.791 123.642 M206.034 127.578 C 206.034 129.424,206.086 130.180,206.151 129.257 C 206.216 128.333,206.216 126.823,206.151 125.899 C 206.086 124.976,206.034 125.731,206.034 127.578 M122.536 137.170 C 122.536 137.786,122.602 138.038,122.682 137.730 C 122.763 137.422,122.763 136.918,122.682 136.611 C 122.602 136.303,122.536 136.555,122.536 137.170 M205.715 140.847 C 205.716 142.782,205.769 143.532,205.832 142.514 C 205.896 141.497,205.895 139.914,205.831 138.997 C 205.766 138.080,205.714 138.913,205.715 140.847 M202.845 143.245 C 202.845 145.795,202.895 146.839,202.955 145.564 C 203.016 144.289,203.016 142.202,202.955 140.927 C 202.895 139.652,202.845 140.695,202.845 143.245 M186.331 147.953 C 186.902 148.024,187.838 148.024,188.409 147.953 C 188.981 147.882,188.513 147.824,187.370 147.824 C 186.227 147.824,185.759 147.882,186.331 147.953 M209.033 147.953 C 209.604 148.024,210.540 148.024,211.111 147.953 C 211.683 147.882,211.215 147.824,210.072 147.824 C 208.929 147.824,208.461 147.882,209.033 147.953 M180.260 148.268 C 180.657 148.344,181.233 148.341,181.539 148.261 C 181.844 148.181,181.519 148.119,180.815 148.122 C 180.112 148.126,179.862 148.191,180.260 148.268 M215.747 148.267 C 216.143 148.343,216.791 148.343,217.186 148.267 C 217.582 148.191,217.258 148.129,216.467 148.129 C 215.675 148.129,215.352 148.191,215.747 148.267 M175.620 148.582 C 175.927 148.662,176.431 148.662,176.739 148.582 C 177.046 148.501,176.795 148.435,176.179 148.435 C 175.564 148.435,175.312 148.501,175.620 148.582 M220.703 148.582 C 221.011 148.662,221.515 148.662,221.823 148.582 C 222.130 148.501,221.878 148.435,221.263 148.435 C 220.647 148.435,220.396 148.501,220.703 148.582 M131.175 155.296 C 131.483 155.377,131.986 155.377,132.294 155.296 C 132.602 155.216,132.350 155.150,131.735 155.150 C 131.119 155.150,130.867 155.216,131.175 155.296 M264.992 155.302 C 265.389 155.379,265.965 155.376,266.271 155.296 C 266.576 155.216,266.251 155.153,265.548 155.157 C 264.844 155.160,264.594 155.226,264.992 155.302 M277.131 172.573 C 277.699 172.644,278.706 172.645,279.369 172.575 C 280.033 172.506,279.568 172.448,278.337 172.447 C 277.106 172.446,276.564 172.502,277.131 172.573 M263.869 172.897 C 264.704 172.963,266.071 172.963,266.906 172.897 C 267.742 172.831,267.058 172.777,265.388 172.777 C 263.717 172.777,263.034 172.831,263.869 172.897 M253.957 173.215 C 254.616 173.284,255.695 173.284,256.355 173.215 C 257.014 173.146,256.475 173.089,255.156 173.089 C 253.837 173.089,253.297 173.146,253.957 173.215 M246.603 173.530 C 247.086 173.604,247.878 173.604,248.361 173.530 C 248.845 173.457,248.449 173.397,247.482 173.397 C 246.515 173.397,246.119 173.457,246.603 173.530 M240.687 173.847 C 241.083 173.923,241.731 173.923,242.126 173.847 C 242.522 173.771,242.198 173.708,241.407 173.708 C 240.616 173.708,240.292 173.771,240.687 173.847 M235.731 174.161 C 236.039 174.242,236.543 174.242,236.851 174.161 C 237.158 174.081,236.906 174.015,236.291 174.015 C 235.675 174.015,235.424 174.081,235.731 174.161 M198.316 185.771 C 198.316 186.387,198.381 186.639,198.462 186.331 C 198.542 186.023,198.542 185.520,198.462 185.212 C 198.381 184.904,198.316 185.156,198.316 185.771 M96.133 217.252 C 95.457 219.013,105.718 242.128,109.907 248.281 C 113.014 252.846,118.453 254.931,124.562 253.900 C 128.641 253.212,128.513 252.641,123.808 250.545 C 121.925 249.706,120.312 248.919,120.224 248.795 C 120.136 248.672,119.374 248.172,118.532 247.685 C 116.736 246.647,116.062 245.765,112.158 239.342 C 102.864 224.049,96.756 215.629,96.133 217.252 M151.313 226.379 C 151.313 226.994,151.379 227.246,151.459 226.938 C 151.540 226.631,151.540 226.127,151.459 225.819 C 151.379 225.512,151.313 225.763,151.313 226.379 " stroke="none" fill="#dc3c54" fill-rule="evenodd"></path></g></svg>