<svg width="24" height="19" viewBox="0 0 24 19" fill="none" xmlns="http://www.w3.org/2000/svg">
<rect x="0.5" y="0.5" width="23" height="17.1622" rx="1.5" stroke="#4E5879"/>
<g opacity="0.8">
<path d="M11.5574 13.9792V12.8585C11.5574 12.2639 11.3212 11.6936 10.9007 11.2731C10.4802 10.8527 9.90997 10.6165 9.31534 10.6165H4.8319C4.23727 10.6165 3.66699 10.8527 3.24653 11.2731C2.82606 11.6936 2.58984 12.2639 2.58984 12.8585V13.9792" stroke="#4E5879" stroke-linecap="round" stroke-linejoin="round"/>
<path d="M7.30787 8.5303C8.58895 8.5303 9.62747 7.49178 9.62747 6.21071C9.62747 4.92963 8.58895 3.89111 7.30787 3.89111C6.0268 3.89111 4.98828 4.92963 4.98828 6.21071C4.98828 7.49178 6.0268 8.5303 7.30787 8.5303Z" stroke="#4E5879" stroke-linecap="round" stroke-linejoin="round"/>
<path d="M5.65039 10.8909L7.06255 12.6159L7.083 12.6434L8.39649 10.892" stroke="#4E5879" stroke-linecap="round" stroke-linejoin="round"/>
<path d="M7.02539 12.4045V14.0467" stroke="#4E5879" stroke-linecap="round"/>
</g>
<path d="M13.6191 4.21582H20.43" stroke="#4E5879"/>
<path d="M13.6191 7.13501H20.43" stroke="#4E5879"/>
<path d="M13.6191 10.3787H20.43" stroke="#4E5879"/>
<path d="M13.6191 13.6213H20.43" stroke="#4E5879"/>
</svg>
