<svg width="20" height="18" viewBox="0 0 20 18" fill="none" xmlns="http://www.w3.org/2000/svg">
<g opacity="0.8">
<path d="M19.0009 16.0224V13.9463C19.0009 12.0551 18.2918 10.4029 17.2793 9.93091" stroke="#4E5879" stroke-linecap="round" stroke-linejoin="round"/>
<path d="M15.3496 1C16.3652 1.40256 17.0763 2.81969 17.0763 4.44321C17.0763 6.06673 16.3611 7.48387 15.3496 7.88643" stroke="#4E5879" stroke-linecap="round" stroke-linejoin="round"/>
<path d="M14.825 17.4618V15.7341C14.825 14.8174 14.4608 13.9382 13.8126 13.29C13.1644 12.6418 12.2852 12.2776 11.3685 12.2776H4.4565C3.53978 12.2776 2.6606 12.6418 2.01238 13.29C1.36417 13.9382 1 14.8174 1 15.7341V17.4618" stroke="#4E5879" stroke-linecap="round" stroke-linejoin="round"/>
<path d="M8.27135 9.06125C10.2463 9.06125 11.8474 7.46021 11.8474 5.48522C11.8474 3.51023 10.2463 1.90918 8.27135 1.90918C6.29636 1.90918 4.69531 3.51023 4.69531 5.48522C4.69531 7.46021 6.29636 9.06125 8.27135 9.06125Z" stroke="#4E5879" stroke-linecap="round" stroke-linejoin="round"/>
</g>
</svg>
