<svg width="19" height="18" viewBox="0 0 19 18" fill="none" xmlns="http://www.w3.org/2000/svg">
<g opacity="0.8">
<path d="M0.5 6.3649L9.5288 2.08C9.59543 2.04833 9.6684 2.03228 9.74217 2.03306C9.81594 2.03384 9.88856 2.05143 9.9545 2.0845L11.9579 3.0889C12.0322 3.12586 12.1147 3.14322 12.1975 3.13935C12.2804 3.13547 12.3609 3.11049 12.4314 3.06676C12.5019 3.02303 12.5601 2.96201 12.6004 2.8895C12.6407 2.81698 12.6618 2.73536 12.6617 2.6524V1.2925C12.6617 1.21508 12.6924 1.14082 12.7471 1.08599C12.8017 1.03116 12.8759 1.00024 12.9533 1H14.3159C14.3933 1.00024 14.4675 1.03116 14.5221 1.08599C14.5768 1.14082 14.6075 1.21508 14.6075 1.2925V4.1122C14.6075 4.20286 14.6328 4.29173 14.6804 4.36883C14.7281 4.44593 14.7964 4.50822 14.8775 4.5487L18.5 6.3649" stroke="#4E5879" stroke-linecap="round"/>
<path d="M4.875 7.34058H7.8009C8.06259 7.34318 8.32078 7.40105 8.55855 7.5104C8.79632 7.61974 9.0083 7.77809 9.1806 7.97508C9.55219 8.39779 9.75557 8.94227 9.7521 9.50508V17.0912C9.75523 16.6685 9.60275 16.2594 9.3237 15.9419C9.19447 15.7941 9.03546 15.6752 8.85709 15.5932C8.67872 15.5112 8.48503 15.4677 8.2887 15.4658H4.875V7.34058Z" stroke="#4E5879" stroke-linecap="round" stroke-linejoin="round"/>
<path d="M14.6115 7.34058H11.6856C11.4239 7.34318 11.1657 7.40105 10.928 7.5104C10.6902 7.61974 10.4782 7.77809 10.3059 7.97508C9.93433 8.39779 9.73095 8.94227 9.73442 9.50508V17.0912C9.73129 16.6685 9.88378 16.2594 10.1628 15.9419C10.2921 15.7941 10.4511 15.6752 10.6294 15.5932C10.8078 15.5112 11.0015 15.4677 11.1978 15.4658H14.6115V7.34058Z" stroke="#4E5879" stroke-linecap="round" stroke-linejoin="round"/>
</g>
</svg>
