<svg width="19" height="17" viewBox="0 0 19 17" fill="none" xmlns="http://www.w3.org/2000/svg">
<g opacity="0.8">
<path d="M15.8012 0.768555H3.20117C2.57985 0.768555 2.07617 1.34219 2.07617 2.0498V11.2748C2.07617 11.9824 2.57985 12.5561 3.20117 12.5561H15.8012C16.4225 12.5561 16.9262 11.9824 16.9262 11.2748V2.0498C16.9262 1.34219 16.4225 0.768555 15.8012 0.768555Z" stroke="#4E5879"/>
<path d="M16.7008 13.0686H2.30078C1.67946 13.0686 1.17578 13.6422 1.17578 14.3499C1.17578 15.0575 1.67946 15.6311 2.30078 15.6311H16.7008C17.3221 15.6311 17.8258 15.0575 17.8258 14.3499C17.8258 13.6422 17.3221 13.0686 16.7008 13.0686Z" stroke="#4E5879"/>
<path d="M7.25034 10.134V9.16332C7.24289 8.6776 7.35682 8.19948 7.57884 7.78469C7.65819 7.62058 7.77263 7.48194 7.91155 7.3816C8.05046 7.28126 8.20937 7.22248 8.37354 7.21069H10.6136C10.7772 7.2225 10.9356 7.28097 11.0742 7.38074C11.2127 7.48051 11.327 7.61836 11.4065 7.78162C11.6288 8.1974 11.7424 8.67666 11.7341 9.16332V10.1381" stroke="#4E5879" stroke-linecap="round" stroke-linejoin="round"/>
<path d="M9.5531 4.92504C9.7716 4.91887 9.97901 4.81412 10.1297 4.63382C10.2804 4.45353 10.3621 4.21245 10.3568 3.96359C10.3604 3.84075 10.3423 3.71833 10.3035 3.60362C10.2647 3.48892 10.206 3.38428 10.131 3.29592C10.056 3.20756 9.96612 3.1373 9.86676 3.08932C9.7674 3.04133 9.66057 3.0166 9.55265 3.0166C9.44472 3.0166 9.3379 3.04133 9.23853 3.08932C9.13917 3.1373 9.0493 3.20756 8.97427 3.29592C8.89925 3.38428 8.84059 3.48892 8.8018 3.60362C8.76302 3.71833 8.74489 3.84075 8.7485 3.96359C8.74587 4.0869 8.76459 4.20959 8.80361 4.32465C8.84263 4.43971 8.90117 4.54489 8.97589 4.63418C9.05061 4.72347 9.14004 4.79511 9.23908 4.84502C9.33812 4.89493 9.44483 4.92212 9.5531 4.92504Z" fill="#4E5879" stroke="#4E5879" stroke-linecap="round" stroke-linejoin="round"/>
</g>
</svg>
