<svg id="XMLID_1055_" xmlns="http://www.w3.org/2000/svg" width="37" height="37" viewBox="0 0 37 37">
  <g id="Group_51682" data-name="Group 51682">
    <path id="Path_78909" data-name="Path 78909" d="M18.5,0A18.5,18.5,0,1,0,37,18.5,18.5,18.5,0,0,0,18.5,0Zm3.083,30.353a1.264,1.264,0,0,1-1.264,1.264H16.853a1.264,1.264,0,0,1-1.264-1.264V16.286a1.264,1.264,0,0,1,1.264-1.264H20.32a1.264,1.264,0,0,1,1.264,1.264ZM18.5,12.628a3.137,3.137,0,1,1,3.137-3.137A3.137,3.137,0,0,1,18.5,12.628Z" fill="#fff"/>
  </g>
</svg>
