<svg width="798" height="460" viewBox="0 0 798 460" fill="none" xmlns="http://www.w3.org/2000/svg">
<circle cx="96" cy="113" r="96" fill="#D2138D"/>
<circle cx="604" cy="125" r="96" fill="#47CDC6"/>
<path d="M92.5 58.5C112.1 20.1 72.3333 -11.5 50 -22.5L756.5 -41C784.5 -32.3333 826.3 -8.5 769.5 17.5C698.5 50 626.5 100.5 614.5 157.5C602.5 214.5 755 275 736 315.5C720.8 347.9 656.667 362.333 626.5 365.5C496 388.5 545 480.5 463 455C340.5 394 386.5 188.5 316 231.5C257.5 248.5 167.167 270.833 128 269C-4.5 254 66.5 126.5 92.5 58.5Z" fill="#486876"/>
</svg>
