<svg xmlns="http://www.w3.org/2000/svg" width="1291" height="742.202" viewBox="0 0 1291 742.202">
  <defs>
    <style>
      .cls-1 {
        fill: #154366;
      }

      .cls-1, .cls-2 {
        opacity: 0.85;
      }

      .cls-2 {
        fill: #022f4e;
      }

      .cls-10, .cls-11, .cls-12, .cls-13, .cls-3, .cls-6, .cls-7, .cls-9 {
        fill: none;
      }

      .cls-10, .cls-11, .cls-3 {
        stroke: #fff;
      }

      .cls-3 {
        stroke-width: 0.6px;
      }

      .cls-4 {
        fill: #fff;
      }

      .cls-5 {
        fill: #10203a;
      }

      .cls-6, .cls-9 {
        stroke: #dad7d7;
      }

      .cls-6 {
        stroke-width: 0.5px;
      }

      .cls-7 {
        stroke: #5c2b6c;
      }

      .cls-8 {
        fill: #072842;
      }

      .cls-10, .cls-9 {
        stroke-width: 0.4px;
      }

      .cls-11, .cls-13 {
        stroke-width: 2px;
      }

      .cls-12 {
        stroke: #ffc601;
        stroke-width: 3px;
      }

      .cls-13 {
        stroke: #ffe9b4;
      }
    </style>
  </defs>
  <g id="Group_35" data-name="Group 35" transform="translate(-17.564 -11.806)">
    <path id="Path_199" data-name="Path 199" class="cls-1" d="M32.211-.437,254.126-.664V47.82l-173.75-.092C80.376,44.682,29.45-.437,32.211-.437Z" transform="translate(397 31)"/>
    <path id="Path_107" data-name="Path 107" class="cls-2" d="M245.049-.787C486.81-.787,471.113.653,487.627.08,476.11,12.448,450.071,39.929,442,48l-196.951-.278Z" transform="translate(406 31)"/>
    <path id="Path_89" data-name="Path 89" class="cls-3" d="M4347.224,5741.568h96.906l17.187,17.187h232.939l47.764,47.764h371.673l45.345-47.764h222.7l18.284-18.65h99.466l38.652,38.652v201.966l33.2,33.2v430.48l-24.978,24.978H5171.836l-24.557-24.557H4925l-50.83,36.878h-50.464l-17.187-19.015H4598.082l-19.015-17.863H4392.2l-40.225,36.146h-69.114v-62.9l23.382-23.382V6294.113l-14.606-22.307v-174.8l22.861-22.861V5775.211Z" transform="translate(-4265 -5728)"/>
    <path id="Path_91" data-name="Path 91" class="cls-4" d="M4306.616,6394.036l-23.8,23.585v64.049H4352.7l39.814-36.785-48.9-50.663h-37.238" transform="translate(-4265 -5728)"/>
    <path id="Path_95" data-name="Path 95" class="cls-5" d="M-11.285-11.744h73.66L61.749,15H15.534Z" transform="translate(1246 24)"/>
    <path id="Path_92" data-name="Path 92" class="cls-6" d="M5499.73,5740.105h73.584v49.575l-29.309,18.309v159.622" transform="translate(-4265 -5728)"/>
    <path id="Path_96" data-name="Path 96" class="cls-7" d="M4304.236,6394.036l-21.422,21.227v57.644h62.9l35.833-33.106-44.014-45.6H4304.02" transform="translate(-4261.31 -5722.983)"/>
    <path id="Path_196" data-name="Path 196" class="cls-8" d="M16304.965,74l30.21-33.956h130.9V74Z" transform="translate(-15428 2)"/>
    <path id="Path_200" data-name="Path 200" class="cls-8" d="M16465.426,74l-33.742-33.956h-149.718V74Z" transform="translate(-16018.965 2)"/>
    <path id="Path_197" data-name="Path 197" class="cls-9" d="M5525.091,5717.077l28.714,25.071v50.508l-9.8,11.334,0,179.356" transform="translate(6861.478 -5463.462) rotate(90)"/>
    <line id="Line_37" data-name="Line 37" class="cls-10" x2="99" transform="translate(1144.5 61.5)"/>
    <g id="Group_16" data-name="Group 16" transform="translate(-1014.656 1)">
      <path id="Path_197-2" data-name="Path 197" class="cls-9" d="M0,320.293l28.714-30.158V229.38l-9.8-13.634L18.919,0" transform="translate(1460.87 61.629) rotate(90)"/>
    </g>
    <rect id="Rectangle_457" data-name="Rectangle 457" class="cls-8" width="38" height="34" transform="translate(104 26)"/>
    <line id="Line_43" data-name="Line 43" class="cls-11" x2="38" transform="translate(104.5 61.5)"/>
    <line id="Line_44" data-name="Line 44" class="cls-12" x2="67" transform="translate(1152.5 61.5)"/>
    <line id="Line_45" data-name="Line 45" class="cls-13" x2="60" transform="translate(910.5 80.5)"/>
  </g>
</svg>
