<svg xmlns="http://www.w3.org/2000/svg" width="25" height="25" viewBox="0 0 25 25">
  <g id="Group_36" data-name="Group 36" transform="translate(-692 -40)">
    <rect id="Rectangle_456" data-name="Rectangle 456" width="25" height="25" rx="5" transform="translate(692 40)" fill="#ffe9b4"/>
    <g id="Group_18" data-name="Group 18">
      <g id="Group_3" data-name="Group 3" transform="translate(91.421 15)">
        <g id="Ellipse_5" data-name="Ellipse 5" transform="translate(615.579 32)" fill="#154164" stroke="#154164" stroke-width="0.8">
          <circle cx="3.5" cy="3.5" r="3.5" stroke="none"/>
          <circle cx="3.5" cy="3.5" r="3.1" fill="none"/>
        </g>
        <g id="Ellipse_4" data-name="Ellipse 4" transform="translate(606.579 30)" fill="#1e4e75" stroke="#1e4e75" stroke-width="1">
          <circle cx="4.5" cy="4.5" r="4.5" stroke="none"/>
          <circle cx="4.5" cy="4.5" r="4" fill="none"/>
        </g>
        <path id="Path_79" data-name="Path 79" d="M3218.655,52.55s.092-5.6,5.693-5.631a5.8,5.8,0,0,1,5.542,5.631" transform="translate(-2605 -7.375)" fill="#154164" stroke="#154164" stroke-width="0.8"/>
        <path id="Path_78" data-name="Path 78" d="M3235.021,55.49h0c-.721-7.241-6.256-8.571-8.072-8.571-8.153.044-8.851,7.061-8.851,7.061s.223,1.545,3.621,1.51,13.869-.136,13.869-.136" transform="translate(-2615.557 -6.479)" fill="#1e4e75" stroke="#1e4e75" stroke-width="1"/>
      </g>
      <path id="Path_201" data-name="Path 201" d="M16121.719,58.1s-.758,4.591-5.281,4.263a21.208,21.208,0,0,0-1.3-4.741A32.252,32.252,0,0,1,16121.719,58.1Z" transform="translate(-15405 2)" fill="#154164"/>
    </g>
  </g>
</svg>
