<svg id="date-calendar-svgrepo-com" xmlns="http://www.w3.org/2000/svg" width="36" height="36" viewBox="0 0 36 36">
  <path id="Path_78855" data-name="Path 78855" d="M34.364,164.545H1.636A1.636,1.636,0,0,1,0,162.909v22.909a1.636,1.636,0,0,0,1.636,1.636H34.364A1.636,1.636,0,0,0,36,185.818V162.909A1.636,1.636,0,0,1,34.364,164.545Z" transform="translate(0 -151.454)" fill="#ffe477"/>
  <path id="Path_78856" data-name="Path 78856" d="M34.364,46.545H1.636A1.636,1.636,0,0,0,0,48.181v6.545a1.636,1.636,0,0,0,1.636,1.636H34.364A1.636,1.636,0,0,0,36,54.727V48.181A1.637,1.637,0,0,0,34.364,46.545Z" transform="translate(0 -43.272)" fill="#6e76e5"/>
  <path id="Path_78857" data-name="Path 78857" d="M313.576,3.273V1.636a1.636,1.636,0,1,0-3.273,0V3.273h3.273Z" transform="translate(-288.485)" fill="#a78966"/>
  <path id="Path_78858" data-name="Path 78858" d="M158.424,3.273V1.636a1.636,1.636,0,1,0-3.273,0V3.273h3.273Z" transform="translate(-144.242)" fill="#806749"/>
  <path id="Path_78859" data-name="Path 78859" d="M288.671,246.691a1.028,1.028,0,0,0-.858.463l-.01.013-1.059,1.5a1.314,1.314,0,0,0-.352.822,1.022,1.022,0,0,0,1,1.04.893.893,0,0,0,.13-.009v6.22a1.027,1.027,0,0,0,1.094,1,1.039,1.039,0,0,0,1.093-1v-9.06A1,1,0,0,0,288.671,246.691Z" transform="translate(-266.256 -229.346)" fill="#df6246"/>
  <path id="Path_78860" data-name="Path 78860" d="M183.867,247.406c-.058-.04-.119-.077-.182-.113l-.028-.016c-.062-.034-.126-.067-.192-.1l-.019-.008q-.1-.043-.2-.08l-.019-.007c-.07-.025-.142-.047-.215-.067l-.04-.011c-.074-.02-.15-.037-.228-.053l-.018,0c-.074-.014-.15-.026-.228-.036l-.041-.005q-.12-.014-.245-.022l-.051,0c-.086,0-.174-.008-.264-.008-2.581,0-3.263,1.829-3.263,2.8a1.095,1.095,0,1,0,2.187.08c0-.517.343-.769,1.049-.769.648,0,.956.159.956,1.061s-.252,1.048-1.009,1.048a.993.993,0,0,0-.987,1.04.981.981,0,0,0,1,1.027c1.088,0,1.235.564,1.235,1.115v.253c0,.965-.354,1.341-1.261,1.341-1.163,0-1.222-.685-1.222-.822a1.088,1.088,0,0,0-2.174.093c0,1.381,1.195,2.849,3.408,2.849.091,0,.179,0,.267-.008l.063,0c.087-.006.173-.013.256-.023h0c.083-.01.164-.023.243-.038l.052-.01c.081-.016.161-.033.239-.054h0c.078-.021.153-.044.227-.069l.039-.013a3.182,3.182,0,0,0,.428-.185l.028-.015c.068-.036.134-.075.2-.116V247.406Z" transform="translate(-165.867 -229.519)" fill="#dd512a"/>
  <path id="Path_78861" data-name="Path 78861" d="M256,264.436c.052-.033.1-.068.152-.1l.028-.021q.061-.046.12-.1l.029-.024q.063-.055.123-.113l.011-.011a2.758,2.758,0,0,0,.246-.28l.024-.032c.029-.039.057-.079.084-.119l.026-.039q.042-.064.08-.132l.017-.029c.031-.056.061-.113.089-.172v0c.027-.056.052-.113.075-.171.007-.016.013-.032.019-.049q.026-.067.049-.135l.019-.057c.015-.047.029-.095.043-.143,0-.017.01-.033.014-.05.017-.066.033-.132.047-.2l0-.01q.02-.1.035-.2c0-.022.006-.044.009-.065.007-.049.013-.1.018-.149,0-.025.005-.05.007-.076,0-.051.008-.1.011-.154,0-.023,0-.046,0-.069,0-.075.005-.151.005-.228v-.253a2.892,2.892,0,0,0-.907-2.233,3.511,3.511,0,0,0,.642-2.17c0-.066,0-.13,0-.194,0-.02,0-.04,0-.06,0-.043-.005-.086-.009-.128,0-.023,0-.045-.007-.068q-.006-.059-.014-.117,0-.033-.009-.066c-.006-.039-.013-.078-.02-.117,0-.019-.007-.039-.011-.058-.009-.046-.02-.092-.031-.137l-.007-.031q-.021-.083-.047-.164l-.01-.03q-.021-.064-.044-.126l-.019-.047c-.014-.035-.029-.07-.044-.1l-.022-.048q-.024-.051-.049-.1l-.023-.043c-.02-.036-.04-.071-.062-.106l-.017-.028a2.45,2.45,0,0,0-.184-.253l-.021-.024c-.026-.031-.053-.061-.081-.091l-.03-.03q-.04-.041-.081-.079l-.031-.029c-.03-.027-.06-.052-.092-.078l-.027-.022q-.061-.048-.125-.092v10.053h0Z" transform="translate(-238 -236.497)" fill="#df6246"/>
  <path id="Path_78862" data-name="Path 78862" d="M17.8,179.51l-.028.015a3.2,3.2,0,0,1-.428.185l-.039.013c-.074.025-.15.048-.227.069h0c-.078.02-.157.038-.239.054l-.052.01c-.08.014-.161.028-.243.038h0c-.084.01-.169.017-.256.023l-.063,0c-.088,0-.176.008-.267.008-2.214,0-3.408-1.468-3.408-2.849a1,1,0,0,1,1.067-1.12,1,1,0,0,1,1.107,1.027c0,.137.059.822,1.222.822.908,0,1.261-.376,1.261-1.341v-.253c0-.551-.147-1.115-1.235-1.115a.981.981,0,0,1-1-1.027.993.993,0,0,1,.987-1.04c.757,0,1.009-.152,1.009-1.048s-.308-1.061-.956-1.061c-.706,0-1.048.252-1.048.769a1.023,1.023,0,0,1-1.08,1.08,1.024,1.024,0,0,1-1.107-1.16c0-.967.682-2.8,3.263-2.8.09,0,.177,0,.264.008l.051,0q.125.008.245.022l.041.005c.078.01.154.022.228.036l.018,0c.078.015.154.033.228.053l.04.011c.073.02.145.042.215.067l.019.007q.1.037.2.08l.019.008c.066.03.13.062.192.1l.028.016c.063.036.123.073.182.113v-4.8H1.636A1.637,1.637,0,0,1,0,162.909v22.909a1.636,1.636,0,0,0,1.636,1.636H18v-8.06C17.936,179.435,17.87,179.473,17.8,179.51Z" transform="translate(0 -151.454)" fill="#eebf00"/>
  <g id="Group_51667" data-name="Group 51667" transform="translate(15.953 17.359)">
    <path id="Path_78863" data-name="Path 78863" d="M228.031,246.883c.09,0,.177,0,.264.008C228.208,246.886,228.121,246.883,228.031,246.883Z" transform="translate(-227.951 -246.883)" fill="#d6d5d8"/>
    <path id="Path_78864" data-name="Path 78864" d="M236.575,247.423c.078.01.154.022.228.036C236.729,247.445,236.652,247.433,236.575,247.423Z" transform="translate(-235.894 -247.385)" fill="#d6d5d8"/>
    <path id="Path_78865" data-name="Path 78865" d="M232.508,247.031c.083.005.165.012.245.022Q232.633,247.039,232.508,247.031Z" transform="translate(-232.113 -247.021)" fill="#d6d5d8"/>
    <path id="Path_78866" data-name="Path 78866" d="M227.159,404.84c-.088,0-.176.008-.267.008C226.983,404.848,227.071,404.845,227.159,404.84Z" transform="translate(-226.892 -393.734)" fill="#d6d5d8"/>
    <path id="Path_78867" data-name="Path 78867" d="M239.729,403.012c-.078.02-.157.038-.239.054C239.571,403.05,239.651,403.032,239.729,403.012Z" transform="translate(-238.604 -392.034)" fill="#d6d5d8"/>
    <path id="Path_78868" data-name="Path 78868" d="M231.834,404.461c-.084.01-.169.017-.256.023C231.665,404.478,231.751,404.471,231.834,404.461Z" transform="translate(-231.249 -393.381)" fill="#d6d5d8"/>
    <path id="Path_78869" data-name="Path 78869" d="M240.066,247.977c.078.015.154.033.228.053C240.22,248.01,240.144,247.992,240.066,247.977Z" transform="translate(-239.14 -247.9)" fill="#d6d5d8"/>
    <path id="Path_78870" data-name="Path 78870" d="M235.536,403.914c-.08.014-.161.028-.244.038C235.375,403.942,235.456,403.929,235.536,403.914Z" transform="translate(-234.701 -392.873)" fill="#d6d5d8"/>
    <path id="Path_78871" data-name="Path 78871" d="M243.873,248.875c.073.02.145.042.215.067C244.018,248.917,243.946,248.9,243.873,248.875Z" transform="translate(-242.679 -248.735)" fill="#d6d5d8"/>
    <path id="Path_78872" data-name="Path 78872" d="M247.116,399.22a3.206,3.206,0,0,1-.428.185A3.2,3.2,0,0,0,247.116,399.22Z" transform="translate(-245.296 -388.509)" fill="#d6d5d8"/>
    <path id="Path_78873" data-name="Path 78873" d="M253.6,252.893h0c-.058-.04-.119-.077-.182-.113C253.48,252.816,253.54,252.853,253.6,252.893Z" transform="translate(-251.552 -252.365)" fill="#d6d5d8"/>
    <path id="Path_78874" data-name="Path 78874" d="M243.137,402.03c-.074.025-.15.048-.227.069C242.987,402.078,243.063,402.055,243.137,402.03Z" transform="translate(-241.784 -391.121)" fill="#d6d5d8"/>
    <path id="Path_78875" data-name="Path 78875" d="M247.2,249.929q.1.037.2.08Q247.3,249.966,247.2,249.929Z" transform="translate(-245.772 -249.715)" fill="#d6d5d8"/>
    <path id="Path_78876" data-name="Path 78876" d="M250.3,251.184c.066.03.13.062.192.1C250.428,251.246,250.364,251.214,250.3,251.184Z" transform="translate(-248.652 -250.882)" fill="#d6d5d8"/>
    <path id="Path_78877" data-name="Path 78877" d="M253.176,397.477c.068-.036.134-.075.2-.116h0C253.31,397.4,253.244,397.44,253.176,397.477Z" transform="translate(-251.328 -386.781)" fill="#d6d5d8"/>
  </g>
  <g id="Group_51668" data-name="Group 51668" transform="translate(18 17.887)">
    <path id="Path_78878" data-name="Path 78878" d="M260.78,392.263c-.04.039-.081.077-.123.113Q260.72,392.321,260.78,392.263Z" transform="translate(-260.33 -382.569)" fill="#dedee0"/>
    <path id="Path_78879" data-name="Path 78879" d="M262.815,388.121a2.757,2.757,0,0,1-.246.28A2.764,2.764,0,0,0,262.815,388.121Z" transform="translate(-262.107 -378.718)" fill="#dedee0"/>
    <path id="Path_78880" data-name="Path 78880" d="M258.671,394.218q-.058.049-.12.1Q258.612,394.267,258.671,394.218Z" transform="translate(-258.372 -384.386)" fill="#dedee0"/>
    <path id="Path_78881" data-name="Path 78881" d="M266.5,385.966c-.027.041-.055.08-.084.119Q266.458,386.027,266.5,385.966Z" transform="translate(-265.683 -376.714)" fill="#dedee0"/>
    <path id="Path_78882" data-name="Path 78882" d="M256.125,254.478q-.061-.048-.125-.092h0C256.043,254.415,256.084,254.446,256.125,254.478Z" transform="translate(-256 -254.386)" fill="#dedee0"/>
    <path id="Path_78883" data-name="Path 78883" d="M256,395.978c.052-.033.1-.068.152-.1-.049.036-.1.071-.152.1Z" transform="translate(-256 -385.925)" fill="#dedee0"/>
    <path id="Path_78884" data-name="Path 78884" d="M275.111,363.219c-.005.05-.011.1-.018.149C275.1,363.319,275.106,363.269,275.111,363.219Z" transform="translate(-273.751 -355.567)" fill="#dedee0"/>
    <path id="Path_78885" data-name="Path 78885" d="M271.906,286.742c0,.064,0,.128,0,.194C271.91,286.87,271.909,286.806,271.906,286.742Z" transform="translate(-270.788 -284.467)" fill="#dedee0"/>
    <path id="Path_78886" data-name="Path 78886" d="M268.895,271.076c.016.041.03.083.044.126Q268.918,271.138,268.895,271.076Z" transform="translate(-267.988 -269.902)" fill="#dedee0"/>
    <path id="Path_78887" data-name="Path 78887" d="M270.435,276.061c.011.045.021.091.031.137C270.456,276.152,270.446,276.106,270.435,276.061Z" transform="translate(-269.42 -274.537)" fill="#dedee0"/>
    <path id="Path_78888" data-name="Path 78888" d="M269.667,273.293q.025.08.047.164Q269.692,273.373,269.667,273.293Z" transform="translate(-268.706 -271.964)" fill="#dedee0"/>
    <path id="Path_78889" data-name="Path 78889" d="M271.028,278.834c.007.039.014.077.02.117C271.042,278.911,271.035,278.872,271.028,278.834Z" transform="translate(-269.971 -277.115)" fill="#dedee0"/>
    <path id="Path_78890" data-name="Path 78890" d="M271.732,284.061c0,.042.006.085.009.128C271.738,284.146,271.736,284.1,271.732,284.061Z" transform="translate(-270.626 -281.974)" fill="#dedee0"/>
    <path id="Path_78891" data-name="Path 78891" d="M271.442,281.436q.008.058.014.117Q271.45,281.494,271.442,281.436Z" transform="translate(-270.356 -279.534)" fill="#dedee0"/>
    <path id="Path_78892" data-name="Path 78892" d="M268.059,383.539q-.038.067-.08.132Q268.021,383.606,268.059,383.539Z" transform="translate(-267.137 -374.458)" fill="#dedee0"/>
    <path id="Path_78893" data-name="Path 78893" d="M268.006,268.93c.015.034.03.069.044.1Q268.029,268.981,268.006,268.93Z" transform="translate(-267.162 -267.907)" fill="#dedee0"/>
    <path id="Path_78894" data-name="Path 78894" d="M265.79,264.713q.032.052.062.106C265.832,264.783,265.811,264.748,265.79,264.713Z" transform="translate(-265.102 -263.987)" fill="#dedee0"/>
    <path id="Path_78895" data-name="Path 78895" d="M262.935,260.709a2.42,2.42,0,0,1,.184.253A2.442,2.442,0,0,0,262.935,260.709Z" transform="translate(-262.447 -260.264)" fill="#dedee0"/>
    <path id="Path_78896" data-name="Path 78896" d="M259.9,257.516c.028.026.055.052.082.079C259.959,257.568,259.932,257.542,259.9,257.516Z" transform="translate(-259.629 -257.296)" fill="#dedee0"/>
    <path id="Path_78897" data-name="Path 78897" d="M266.991,266.834q.025.049.049.1C267.024,266.9,267.008,266.867,266.991,266.834Z" transform="translate(-266.218 -265.959)" fill="#dedee0"/>
    <path id="Path_78898" data-name="Path 78898" d="M258.152,256q.047.038.092.078Q258.2,256.04,258.152,256Z" transform="translate(-258.001 -255.888)" fill="#dedee0"/>
    <path id="Path_78899" data-name="Path 78899" d="M261.482,259.074c.028.029.055.06.081.091C261.537,259.134,261.51,259.1,261.482,259.074Z" transform="translate(-261.097 -258.744)" fill="#dedee0"/>
    <path id="Path_78900" data-name="Path 78900" d="M275.47,359.95c0,.052-.007.1-.011.154C275.464,360.053,275.467,360,275.47,359.95Z" transform="translate(-274.091 -352.528)" fill="#dedee0"/>
    <path id="Path_78901" data-name="Path 78901" d="M273.818,369.185c-.014.068-.03.135-.047.2C273.788,369.32,273.8,369.253,273.818,369.185Z" transform="translate(-272.521 -361.113)" fill="#dedee0"/>
    <path id="Path_78902" data-name="Path 78902" d="M273,372.747c-.013.048-.027.1-.043.143C272.976,372.843,272.99,372.8,273,372.747Z" transform="translate(-271.768 -364.425)" fill="#dedee0"/>
    <path id="Path_78903" data-name="Path 78903" d="M269.448,380.684c-.028.059-.058.116-.089.172C269.39,380.8,269.42,380.743,269.448,380.684Z" transform="translate(-268.42 -371.804)" fill="#dedee0"/>
    <path id="Path_78904" data-name="Path 78904" d="M275.678,355.722c0,.077,0,.153-.005.228C275.676,355.875,275.678,355.8,275.678,355.722Z" transform="translate(-274.29 -348.597)" fill="#dedee0"/>
    <path id="Path_78905" data-name="Path 78905" d="M274.506,366.269c-.01.066-.022.131-.035.2Q274.49,366.368,274.506,366.269Z" transform="translate(-273.172 -358.402)" fill="#dedee0"/>
    <path id="Path_78906" data-name="Path 78906" d="M272.035,375.6c-.016.046-.032.091-.049.135Q272.012,375.669,272.035,375.6Z" transform="translate(-270.862 -367.077)" fill="#dedee0"/>
    <path id="Path_78907" data-name="Path 78907" d="M270.721,378.216c-.024.058-.048.115-.075.171C270.673,378.331,270.7,378.274,270.721,378.216Z" transform="translate(-269.616 -369.509)" fill="#dedee0"/>
  </g>
  <path id="Path_78908" data-name="Path 78908" d="M1.636,56.363H18V46.545H1.636A1.636,1.636,0,0,0,0,48.181v6.545A1.636,1.636,0,0,0,1.636,56.363Z" transform="translate(0 -43.272)" fill="#424ede"/>
</svg>
