<svg width="27" height="27" viewBox="0 0 27 27" fill="none" xmlns="http://www.w3.org/2000/svg">
<path d="M9.25 21.625V3.75L25.75 1V18.875" stroke="#D9D9D9" stroke-width="2" stroke-linecap="round" stroke-linejoin="round"/>
<path d="M5.125 25.75C7.40317 25.75 9.25 23.9032 9.25 21.625C9.25 19.3468 7.40317 17.5 5.125 17.5C2.84683 17.5 1 19.3468 1 21.625C1 23.9032 2.84683 25.75 5.125 25.75Z" fill="#D9D9D9" stroke="#D9D9D9" stroke-width="2" stroke-linecap="round" stroke-linejoin="round"/>
<path d="M21.625 23C23.9032 23 25.75 21.1532 25.75 18.875C25.75 16.5968 23.9032 14.75 21.625 14.75C19.3468 14.75 17.5 16.5968 17.5 18.875C17.5 21.1532 19.3468 23 21.625 23Z" fill="#D9D9D9" stroke="#D9D9D9" stroke-width="2" stroke-linecap="round" stroke-linejoin="round"/>
</svg>
