<svg width="17" height="22" viewBox="0 0 17 22" fill="none" xmlns="http://www.w3.org/2000/svg">
<path d="M1 4.33301V19.889C1 20.1837 1.11705 20.4662 1.3254 20.6746C1.53376 20.883 1.81634 21 2.111 21H13.222" stroke="#868686" stroke-width="1.5" stroke-linecap="round"/>
<path d="M4.33203 16V2.111C4.33203 1.81634 4.44908 1.53376 4.65744 1.3254C4.86579 1.11705 5.14838 1 5.44303 1H14.887C15.1817 1 15.4643 1.11705 15.6726 1.3254C15.881 1.53376 15.998 1.81634 15.998 2.111V16C15.998 16.2947 15.881 16.5772 15.6726 16.7856C15.4643 16.9939 15.1817 17.111 14.887 17.111H5.44303C5.14838 17.111 4.86579 16.9939 4.65744 16.7856C4.44908 16.5772 4.33203 16.2947 4.33203 16V16Z" stroke="#868686" stroke-width="1.5" stroke-linecap="round"/>
<path d="M6.55664 5.44409H13.2236" stroke="#868686" stroke-width="1.5" stroke-linecap="round"/>
<path d="M6.55664 8.77808H13.2236" stroke="#868686" stroke-width="1.5" stroke-linecap="round"/>
<path d="M6.55664 12.1111H13.2236" stroke="#868686" stroke-width="1.5" stroke-linecap="round"/>
</svg>
