<svg width="22" height="22" viewBox="0 0 22 22" fill="none" xmlns="http://www.w3.org/2000/svg">
<path d="M1.00077 21V18.5935C0.980892 17.3769 1.34672 16.1853 2.0458 15.1895C2.32729 14.7712 2.70372 14.4254 3.14437 14.1803C3.58501 13.9353 4.07736 13.798 4.58121 13.7795H5.40941M11.7399 13.7795C12.2437 13.798 12.7361 13.9353 13.1767 14.1803C13.6174 14.4254 13.9938 14.7712 14.2753 15.1895C14.9756 16.1849 15.3426 17.3766 15.3236 18.5935V21L20.8464 5.38623M11.7399 13.7795H5.40941M11.7399 13.7795L8.71647 17.5353M5.40941 13.7795L8.71647 17.5353M8.71647 17.5353V21" stroke="#32334A" stroke-linecap="round" stroke-linejoin="round"/>
<path d="M8.52243 10.338C9.73098 10.308 10.8782 9.79943 11.712 8.92407C12.5458 8.04871 12.998 6.87815 12.9693 5.66957C12.9983 4.4608 12.5462 3.28996 11.7124 2.41436C10.8785 1.53876 9.73117 1.03004 8.52243 1C7.31368 1.03004 6.16631 1.53876 5.33246 2.41436C4.49862 3.28996 4.04652 4.4608 4.07553 5.66957C4.04682 6.87815 4.49905 8.04871 5.33286 8.92407C6.16668 9.79943 7.31388 10.308 8.52243 10.338Z" stroke="#32334A" stroke-linecap="round" stroke-linejoin="round"/>
</svg>
