<svg xmlns="http://www.w3.org/2000/svg" width="64" height="64" viewBox="0 0 64 64">
  <g id="Group_5" data-name="Group 5" transform="translate(-1833 -865)">
    <circle id="Ellipse_3" data-name="Ellipse 3" cx="32" cy="32" r="32" transform="translate(1833 865)" fill="#7dc37d"/>
    <g id="Group_2" data-name="Group 2" transform="translate(-117 -1377)">
      <path id="Path_1" data-name="Path 1" d="M1989.257,2260.111h-19.4s-3.035-.153-2.968,3.428,0,22.229,0,22.229.155,3.428,2.968,3.428h19.4s2.968.231,2.968-3.428V2270.7" transform="translate(3.928)" fill="none" stroke="#fff" stroke-width="2"/>
      <path id="Path_2" data-name="Path 2" d="M1991.322,2288.477l-18.089-6.024v3.436s.143,3.436-3.006,3.315" transform="translate(3.441)" fill="#fff" stroke="#fff" stroke-width="2"/>
      <g id="Group_1" data-name="Group 1" transform="translate(-46.819 6.103)">
        <path id="Path_3" data-name="Path 3" d="M2041.906,2255.223l-9.279,11.246-2.28,5.933s-.173.526.165.754a1.068,1.068,0,0,0,.871,0l5.134-3.187,9.363-11.56Z" transform="translate(0 -0.423)" fill="#fff"/>
        <path id="Path_4" data-name="Path 4" d="M2044.38,2253.886l4.047,3.171,1.088-1.34a1.3,1.3,0,0,0,0-1.831c-.9-.823-2.322-1.911-2.322-1.911a1.14,1.14,0,0,0-1.579.345C2044.844,2253.249,2044.38,2253.886,2044.38,2253.886Z" transform="translate(-1.737)" fill="#fff"/>
      </g>
    </g>
  </g>
</svg>
