<svg width="24" height="28" viewBox="0 0 24 28" fill="none" xmlns="http://www.w3.org/2000/svg">
<path d="M19.0032 10.2013C19.0032 8.29138 18.2445 6.45971 16.894 5.1092C15.5435 3.7587 13.7118 3 11.8019 3C9.89202 3 8.06034 3.7587 6.70984 5.1092C5.35934 6.45971 4.60064 8.29138 4.60064 10.2013C4.60064 18.6028 1 21.0032 1 21.0032H22.6038C22.6038 21.0032 19.0032 18.6028 19.0032 10.2013Z" fill="#1B4CCB" stroke="white" stroke-width="2" stroke-linecap="round" stroke-linejoin="round"/>
<path d="M13.8773 25.8041C13.6663 26.1678 13.3635 26.4698 12.9991 26.6797C12.6347 26.8896 12.2215 27 11.801 27C11.3804 27 10.9673 26.8896 10.6029 26.6797C10.2385 26.4698 9.93562 26.1678 9.72461 25.8041" fill="#1B4CCB"/>
<path d="M13.8773 25.8041C13.6663 26.1678 13.3635 26.4698 12.9991 26.6797C12.6347 26.8896 12.2215 27 11.801 27C11.3804 27 10.9673 26.8896 10.6029 26.6797C10.2385 26.4698 9.93562 26.1678 9.72461 25.8041" stroke="#1B4CCB" stroke-width="2" stroke-linecap="round" stroke-linejoin="round"/>
<circle cx="17.5" cy="4.5" r="3.5" fill="#1B4CCB" stroke="#F8F8F8" stroke-width="2"/>
</svg>
