<svg width="36" height="36" viewBox="0 0 36 36" fill="none" xmlns="http://www.w3.org/2000/svg">
<path fill-rule="evenodd" clip-rule="evenodd" d="M2.73272 2.52579C1.5466 3.66513 0.686719 4.96616 0.274229 6.17403C-0.126106 7.34624 -0.15848 8.62676 0.656625 9.47535C1.45472 10.3062 2.69925 10.3419 3.86541 10.0119L6.35223 12.6764C5.83565 13.7013 5.52362 14.7323 5.47341 15.6806C5.41917 16.7057 5.67167 17.6809 6.36109 18.3987C7.40678 19.4873 9.05847 19.5939 10.6862 19.1473C11.8575 18.8259 13.1051 18.2004 14.3009 17.318L18.1402 21.0512C18.9821 21.8698 20.3282 21.8509 21.1468 21.009C21.9655 20.1671 21.9466 18.821 21.1047 18.0024L17.3196 14.3219C18.0998 13.2767 18.6728 12.1929 19.0015 11.1601C19.5132 9.5516 19.4732 7.897 18.4274 6.80833C17.7421 6.0949 16.785 5.80249 15.7655 5.81184C14.8384 5.82038 13.822 6.07602 12.8014 6.52832L10.1598 3.98112C10.5437 2.82297 10.5635 1.56718 9.7602 0.730919C8.9451 -0.117667 7.66428 -0.136832 6.47693 0.216009C5.25346 0.579596 3.91886 1.38645 2.73272 2.52579ZM1.60028 8.56895C1.29842 8.25466 1.16813 7.60515 1.51245 6.59688C1.8446 5.62431 2.57197 4.49449 3.63915 3.46942C4.70632 2.44434 5.86447 1.76303 6.84964 1.47026C7.87092 1.16676 8.51468 1.32306 8.81657 1.63735C9.11843 1.95161 9.24872 2.60113 8.90437 3.60939C8.57222 4.582 7.84488 5.71178 6.77771 6.73686C5.71053 7.76193 4.55238 8.44328 3.56722 8.73604C2.5459 9.03954 1.90214 8.88321 1.60028 8.56895ZM9.59157 5.25088C9.12628 6.08224 8.47834 6.91762 7.68411 7.68051C6.88719 8.44599 6.02325 9.06139 5.17102 9.49312L7.6387 12.137C8.34608 12.8949 9.52091 12.972 10.3212 12.3129L11.2031 11.5866C11.4821 11.3569 11.8944 11.3969 12.1241 11.6757C12.3538 11.9547 12.3138 12.367 12.0349 12.5967L11.153 13.323C10.0528 14.229 8.5277 14.3003 7.36559 13.5885C7.00793 14.3744 6.81379 15.1123 6.78006 15.7498C6.73891 16.527 6.93521 17.1075 7.30472 17.4923C7.86117 18.0715 8.90493 18.2792 10.34 17.8854C11.7472 17.4994 13.3693 16.5663 14.842 15.1518C16.3147 13.7372 17.3122 12.1539 17.7546 10.7634C18.2057 9.34533 18.0402 8.29405 17.4838 7.71476C17.1164 7.33227 16.5488 7.11317 15.7775 7.12027C15.2019 7.12553 14.5386 7.25841 13.8261 7.52301C14.5208 8.29166 14.5002 9.4815 13.7563 10.2253L13.7172 10.2645C13.4617 10.52 13.0475 10.52 12.792 10.2645C12.5365 10.009 12.5365 9.59475 12.792 9.33924L12.8311 9.30009C13.0899 9.04131 13.0861 8.62057 12.8227 8.36654L9.59157 5.25088ZM19.0523 20.1131L15.3239 16.4878C15.4669 16.3607 15.6084 16.2299 15.7484 16.0954C16.0064 15.8476 16.2522 15.5939 16.4854 15.3358L20.1925 18.9405C20.5163 19.2553 20.5236 19.7731 20.2087 20.0969C19.8939 20.4207 19.3761 20.4279 19.0523 20.1131Z" fill="#2150C8"/>
<path d="M20.145 9.35081C20.053 9.00145 20.2615 8.64356 20.6109 8.55148L28.5678 6.45445C29.6158 6.1782 30.6894 6.80397 30.9658 7.85214L35.9344 26.7041C36.2104 27.7522 35.5847 28.8259 34.5366 29.1021L27.4835 30.961V34.0084C27.4835 35.0924 26.6047 35.9711 25.5208 35.9711H7.41731C6.89677 35.9711 6.39757 35.7643 6.02946 35.396L1.23503 30.6018C0.866957 30.2335 0.660156 29.7343 0.660156 29.2139V14.3815C0.660156 13.2975 1.53888 12.4188 2.62284 12.4188H3.76774C4.12907 12.4188 4.42196 12.7117 4.42196 13.073C4.42196 13.4344 4.12907 13.7273 3.76774 13.7273H2.62284C2.26154 13.7273 1.96861 14.0202 1.96861 14.3815V29.2139C1.96861 29.3874 2.03753 29.5537 2.16023 29.6764L6.95471 34.4709C7.07737 34.5936 7.24378 34.6626 7.41731 34.6626H25.5208C25.8821 34.6626 26.175 34.3695 26.175 34.0084V30.471C26.1748 30.4612 26.1748 30.4517 26.175 30.4419V14.3815C26.175 14.0202 25.8821 13.7273 25.5208 13.7273H20.1234C19.7621 13.7273 19.4692 13.4344 19.4692 13.073C19.4692 12.7117 19.7621 12.4188 20.1234 12.4188H25.5208C26.6047 12.4188 27.4835 13.2975 27.4835 14.3815V29.6077L34.2029 27.8369C34.5526 27.7448 34.761 27.3869 34.6691 27.0375L29.7006 8.1856C29.6086 7.83621 29.2506 7.62761 28.9012 7.71969L20.9444 9.81672C20.595 9.9088 20.2371 9.7002 20.145 9.35081Z" fill="#2150C8"/>
<path d="M3.6054 28.4473C3.2441 28.4473 2.95117 28.7402 2.95117 29.1015C2.95117 29.4627 3.2441 29.7558 3.6054 29.7558H7.20365V33.354C7.20365 33.7152 7.49658 34.0083 7.85788 34.0083C8.21921 34.0083 8.5121 33.7152 8.5121 33.354V29.1015C8.5121 28.7402 8.21921 28.4473 7.85788 28.4473H3.6054Z" fill="#2150C8"/>
</svg>
