<svg width="25" height="23" viewBox="0 0 25 23" fill="none" xmlns="http://www.w3.org/2000/svg">
<path d="M21.563 0H3.43704C1.5419 0 0 1.5416 0 3.43704V14.5297C0 16.4209 1.53519 17.9601 3.42484 17.9668V23.0005L10.6589 17.9668H21.563C23.4581 17.9668 25 16.4249 25 14.5297V3.43704C25 1.5416 23.4581 0 21.563 0ZM23.5352 14.5297C23.5352 15.6171 22.6505 16.5019 21.563 16.5019H10.1993L4.88968 20.1967V16.5019H3.43704C2.34955 16.5019 1.46484 15.6171 1.46484 14.5297V3.43704C1.46484 2.3494 2.34955 1.46484 3.43704 1.46484H21.563C22.6505 1.46484 23.5352 2.3494 23.5352 3.43704V14.5297Z" fill="#555555"/>
<path d="M6.69113 5.17578H18.3089V6.64062H6.69113V5.17578Z" fill="#555555"/>
<path d="M6.69113 8.30078H18.3089V9.76562H6.69113V8.30078Z" fill="#555555"/>
<path d="M6.69113 11.4258H18.3089V12.8906H6.69113V11.4258Z" fill="#555555"/>
</svg>
