<svg width="24" height="25" viewBox="0 0 24 25" fill="none" xmlns="http://www.w3.org/2000/svg">
<path d="M22.5286 8.52848C22.323 8.02574 21.9301 7.62291 21.4329 7.40586C20.9361 7.18905 20.3742 7.17463 19.8667 7.36583C19.3594 7.55728 18.9464 7.93944 18.7154 8.43097L18.5279 7.73475C18.2513 7.07462 17.6564 6.60271 16.952 6.48413C16.2477 6.36553 15.5318 6.6169 15.055 7.14999L13.0686 5.14497C12.6521 4.74988 12.1001 4.52958 11.5266 4.52958C10.9531 4.52958 10.4011 4.74988 9.98467 5.14497C9.96557 5.17406 9.94473 5.2019 9.92216 5.22851L9.06091 4.36527C8.6459 3.96695 8.09349 3.74467 7.51897 3.74467C6.94445 3.74467 6.39203 3.96695 5.97703 4.36527C5.71879 4.63579 5.53026 4.96573 5.42831 5.32602L5.35885 5.2564C4.94235 4.86132 4.39041 4.64102 3.81691 4.64102C3.2434 4.64102 2.69143 4.86131 2.27497 5.2564C1.86938 5.66815 1.64216 6.22333 1.64216 6.80192C1.64216 7.38051 1.86938 7.93568 2.27497 8.34744L2.35137 8.41706C1.99242 8.51553 1.66451 8.70474 1.39982 8.96705C0.988035 9.37407 0.756079 9.92953 0.756079 10.5091C0.756079 11.0887 0.988016 11.6442 1.39982 12.0512L1.62209 12.274C1.25198 12.359 0.911601 12.5415 0.635803 12.8031C0.228729 13.2139 0 13.7696 0 14.3486C0 14.9277 0.228716 15.4834 0.635803 15.8941L7.03257 22.3058C8.25255 23.5263 9.9069 24.2103 11.6307 24.2063C11.9095 24.2051 12.1878 24.1864 12.4641 24.1506C13.44 24.7071 14.5434 24.9997 15.6661 25C17.3463 24.9888 18.9669 24.3764 20.2365 23.2735L22.3966 21.157C23.3319 20.2167 23.8925 18.9665 23.9733 17.6413C24.1539 14.585 23.3899 11.4941 22.5286 8.52848ZM10.7766 5.96651C10.9792 5.77407 11.2476 5.6669 11.5267 5.6669C11.8057 5.6669 12.0742 5.77407 12.2768 5.96651L14.5273 8.22913C14.5206 8.33107 14.5206 8.43351 14.5273 8.53545V9.85819L10.7279 6.05005C10.7421 6.02121 10.7585 5.99311 10.7766 5.96651ZM7.82465 21.5401L1.42788 15.1285C1.22769 14.9298 1.11507 14.6591 1.11507 14.3766C1.11507 14.0942 1.22769 13.8234 1.42788 13.6248C1.62955 13.4309 1.89845 13.3225 2.17799 13.3225C2.45752 13.3225 2.72645 13.4309 2.9281 13.6248L6.40101 17.1058C6.62179 17.3199 6.97205 17.3199 7.19284 17.1058C7.4099 16.886 7.4099 16.5319 7.19284 16.3121L2.19882 11.3065C1.98251 11.1078 1.85922 10.8276 1.85847 10.5337C1.85698 10.2498 1.97258 9.97749 2.17797 9.78184C2.37717 9.58293 2.64681 9.47104 2.92809 9.47104C3.20936 9.47104 3.47903 9.58293 3.6782 9.78184L8.67222 14.7944C8.893 15.0085 9.24326 15.0085 9.46406 14.7944C9.68111 14.5746 9.68111 14.2205 9.46406 14.0007L3.0603 7.58211C2.85887 7.38419 2.74601 7.11293 2.74774 6.83026C2.74724 6.54581 2.85986 6.27281 3.0603 6.07141C3.26297 5.87896 3.53137 5.7718 3.81041 5.7718C4.08945 5.7718 4.35789 5.87896 4.56052 6.07141L5.94967 7.46378L10.9367 12.4694C11.1605 12.6534 11.4869 12.6372 11.6916 12.4324C11.896 12.2272 11.9121 11.9 11.7286 11.6757L6.73452 6.67011C6.53434 6.47145 6.42172 6.20068 6.42172 5.91826C6.42172 5.63584 6.53433 5.36504 6.73452 5.16641C6.9357 4.96874 7.20634 4.85785 7.48813 4.85785C7.76991 4.85785 8.04056 4.96874 8.24173 5.16641L14.6385 11.578C14.8007 11.7354 15.0406 11.7819 15.2497 11.6964C15.4554 11.6079 15.5888 11.4055 15.5901 11.1812V8.52871C15.5893 8.42453 15.6057 8.3211 15.6387 8.22239C15.6977 8.02372 15.8185 7.84893 15.9835 7.72387C16.1482 7.59855 16.3486 7.52943 16.5555 7.5262C16.7421 7.52545 16.9249 7.57717 17.0834 7.67563C17.2419 7.7741 17.3694 7.91532 17.4515 8.08315C17.8683 9.57998 18.2016 10.8679 18.4586 12.128C18.7747 13.6425 18.8982 15.191 18.8268 16.7368C18.7658 17.789 18.3178 18.7811 17.5696 19.5215L15.472 21.6936C14.634 22.4368 13.5989 22.9204 12.4922 23.086C10.7786 23.3568 9.03993 22.7808 7.82465 21.5401ZM22.8624 17.544C22.7957 18.5948 22.3487 19.5848 21.6052 20.3288L19.4798 22.48C18.048 23.7341 16.089 24.1956 14.2497 23.7122C14.9668 23.432 15.6348 23.0397 16.2292 22.5496L18.3824 20.3844C19.327 19.447 19.8914 18.1919 19.9661 16.8617C20.0437 15.2438 19.9152 13.6224 19.584 12.0371L19.6257 9.32196C19.6237 9.05915 19.7272 8.80678 19.9125 8.62078C20.098 8.43504 20.3498 8.33136 20.612 8.33335C20.7956 8.3331 20.9755 8.38557 21.1305 8.48403C21.2855 8.58274 21.4093 8.72371 21.4872 8.8903C22.3068 11.8213 23.036 14.6898 22.8624 17.544ZM8.59559 2.82652C8.81041 3.04756 9.1634 3.05228 9.38393 2.83696C9.60446 2.62164 9.60917 2.26783 9.39435 2.04679L8.22053 0.821502C8.00025 0.633037 7.67306 0.643227 7.46471 0.844874C7.25608 1.04652 7.23475 1.37398 7.41485 1.60124L8.59559 2.82652ZM11.3739 2.50628C11.5212 2.50628 11.6626 2.4476 11.7668 2.34317C11.871 2.23874 11.9296 2.09702 11.9296 1.94933V0.55695C11.9296 0.249386 11.6807 0 11.3739 0C11.067 0 10.8182 0.249386 10.8182 0.55695V1.94933C10.818 2.24893 11.0544 2.49509 11.3531 2.50628H11.3739ZM13.7216 2.99361C13.8669 2.99186 14.0061 2.93468 14.1105 2.83348L15.2705 1.66389C15.4717 1.44558 15.4665 1.10768 15.2588 0.895614C15.051 0.683776 14.7139 0.672586 14.4926 0.870253L13.3118 2.02591C13.2061 2.12934 13.1466 2.27132 13.1466 2.41926C13.1466 2.56719 13.2061 2.70917 13.3118 2.8126C13.411 2.92399 13.5517 2.98938 13.7008 2.99361H13.7216Z" fill="#1B4CCB"/>
</svg>
