<svg xmlns="http://www.w3.org/2000/svg" width="36.143" height="37" viewBox="0 0 36.143 37">
  <g id="announcement" transform="translate(-0.046 0.45)">
    <ellipse id="Ellipse_913" data-name="Ellipse 913" cx="18" cy="18.5" rx="18" ry="18.5" transform="translate(0.189 -0.45)" fill="#3a99d7"/>
    <path id="Path_78828" data-name="Path 78828" d="M69.833,141.335a18.324,18.324,0,0,0,14.63,16.711L101.2,141.29l.18-1.2H85.938l-.574-8.942-5.124,4.319-.2-.226-3.255,2.593-.135-1.8,2.162-1.285-1.171-1.218-7.793,7.8h-.011Z" transform="translate(-69.787 -121.772)" fill="#2682bf"/>
    <path id="Path_78829" data-name="Path 78829" d="M325.76,166.655a7.572,7.572,0,0,0-1.872,2.706,7.806,7.806,0,0,0-.18,5.491,7.972,7.972,0,0,0,1.68,2.83l-1.116,1.082c-2.289-2.1-2.875-5.649-2.368-8.333a9.067,9.067,0,0,1,.507-1.669,9.172,9.172,0,0,1,2.244-3.247l1.094,1.139h.011Zm4.6,3.281a3.348,3.348,0,0,0-.147,4.725l-1.128,1.105a4.921,4.921,0,0,1,.2-6.98l1.06,1.15h.011Zm-2.3-1.635a5.593,5.593,0,0,0-.248,7.893l-1.116,1.082c-1.274-1.015-2.018-3.484-1.962-5.119A7.07,7.07,0,0,1,327,167.151Z" transform="translate(-316.75 -153.677)" fill="#f7f7f8"/>
    <path id="Path_78830" data-name="Path 78830" d="M325.024,257.9a7.159,7.159,0,0,0,.417,2.706,7.971,7.971,0,0,0,1.68,2.83l-1.116,1.082a8.832,8.832,0,0,1-2.537-6.619h1.556Zm6.044,0h-1.579a4.569,4.569,0,0,0,1.342,3.631l1.128-1.1A3,3,0,0,1,331.068,257.9Zm-3.022,0h-1.567v.011c-.068,1.635.677,4.1,1.951,5.119l1.116-1.082a6,6,0,0,1-1.511-4.059Z" transform="translate(-318.472 -239.444)" fill="#e6e6e6"/>
    <path id="Path_78831" data-name="Path 78831" d="M124.246,197.518h-3.969v7.566a.8.8,0,0,0,.8.8h3.168a.8.8,0,0,0,.8-.8v-6.765A.8.8,0,0,0,124.246,197.518Z" transform="translate(-97.053 -183.39)" fill="#e84f4f"/>
    <path id="Path_78832" data-name="Path 78832" d="M69.833,214.935a3.541,3.541,0,0,0,3.608-3.428h0a3.541,3.541,0,0,0-3.608-3.428Z" transform="translate(-41.85 -193.195)" fill="#f9f9f9"/>
    <path id="Path_78833" data-name="Path 78833" d="M189.56,127.195l5.2,4.657v8.367l-5.2,4.657c-.451.406-2.447.586-2.447.09V127.093c0-.5,2-.316,2.447.09Z" transform="translate(-171.538 -117.723)" fill="#f7f7f8"/>
    <path id="Path_78834" data-name="Path 78834" d="M120.277,256v3.428a.78.78,0,0,0,.8.755h3.168a.781.781,0,0,0,.8-.755V256Z" transform="translate(-97.053 -237.687)" fill="#ca4545"/>
    <g id="Group_51602" data-name="Group 51602" transform="translate(15.568 18.3)">
      <path id="Path_78835" data-name="Path 78835" d="M69.833,259.428A3.541,3.541,0,0,0,73.441,256H69.833Z" transform="translate(-57.418 -255.989)" fill="#e6e6e6"/>
      <path id="Path_78836" data-name="Path 78836" d="M194.443,255.853v4.183l-5.2,4.657c-.451.406-2.447.586-2.447.09v-8.942h7.656Z" transform="translate(-186.798 -255.842)" fill="#e6e6e6"/>
    </g>
  </g>
</svg>
