<?xml version="1.0" encoding="utf-8"?>
<!-- Generator: Adobe Illustrator 21.0.0, SVG Export Plug-In . SVG Version: 6.00 Build 0)  -->
<svg version="1.1" id="Layer_1" xmlns="http://www.w3.org/2000/svg" xmlns:xlink="http://www.w3.org/1999/xlink" x="0px" y="0px"
	 viewBox="0 0 75 75" style="enable-background:new 0 0 75 75;" xml:space="preserve">
<style type="text/css">
	.st0{fill:none;stroke:#821C58;stroke-width:2.825;stroke-linecap:round;stroke-miterlimit:10;}
	.st1{fill:#821C58;}
</style>
<path class="st0" d="M68,34.1c0.2,1.4,0.3,2.8,0.3,4.2c0,15.6-12.7,28.3-28.3,28.3S11.6,53.9,11.6,38.3S24.3,10,40,10
	c7,0,13.3,2.5,18.3,6.7"/>
<polyline class="st0" points="36.4,24.6 36.4,41.2 55.7,50.4 "/>
<path class="st1" d="M50.6,18.1l5-3.5c0,0,0.1-0.1,0.1-0.1l3.4-5c0.2-0.4,0.8-0.2,0.9,0.2l1.7,10.4c0.1,0.3-0.2,0.6-0.5,0.6
	l-10.4-1.6C50.4,18.9,50.2,18.3,50.6,18.1z"/>
</svg>
