<?xml version="1.0" encoding="utf-8"?>
<!-- Generator: Adobe Illustrator 21.0.0, SVG Export Plug-In . SVG Version: 6.00 Build 0)  -->
<svg version="1.1" id="Layer_1" xmlns="http://www.w3.org/2000/svg" xmlns:xlink="http://www.w3.org/1999/xlink" x="0px" y="0px"
	 viewBox="0 0 75 75" style="enable-background:new 0 0 75 75;" xml:space="preserve">
<style type="text/css">
	.st0{fill:none;stroke:#821C58;stroke-width:2;stroke-miterlimit:10;}
	.st1{fill:#821C58;}
	.st2{fill:none;stroke:#FFFFFF;stroke-width:2;stroke-linecap:round;stroke-linejoin:round;stroke-miterlimit:10;}
	.st3{fill:none;stroke:#FFFFFF;stroke-linecap:round;stroke-linejoin:round;stroke-miterlimit:10;}
</style>
<circle class="st0" cx="37.2" cy="47.2" r="17.8"/>
<polygon class="st1" points="47.3,5.6 31.4,27.8 46.3,27.8 46.3,24.8 60.4,5.6 "/>
<polygon class="st1" points="27.6,5.6 36.3,17.3 31.9,22.9 27.6,22.9 14.6,5.6 "/>
<polygon class="st1" points="28.8,24.2 32.4,24.2 30.6,26.3 30.6,30.1 28.8,31.3 "/>
<polygon class="st1" points="44.1,27.8 44.1,30.8 46.4,32.1 46.3,24.8 "/>
<path class="st1" d="M35.3,58c-0.3,0.3-0.9,0.1-0.9-0.4V47.2V36.8c0-0.5,0.6-0.7,0.9-0.4l10.4,10.4c0.2,0.2,0.2,0.5,0,0.7L35.3,58z"
	/>
<path class="st2" d="M36.7,27.3"/>
<polygon class="st3" points="50.8,5.6 52.3,5.6 36.4,27.8 34.7,27.8 "/>
</svg>
