<?xml version="1.0" encoding="utf-8"?>
<!-- Generator: Adobe Illustrator 21.0.0, SVG Export Plug-In . SVG Version: 6.00 Build 0)  -->
<svg version="1.1" id="Layer_1" xmlns="http://www.w3.org/2000/svg" xmlns:xlink="http://www.w3.org/1999/xlink" x="0px" y="0px"
	 viewBox="0 0 90.2 75" style="enable-background:new 0 0 90.2 75;" xml:space="preserve">
<style type="text/css">
	.st0{fill:#821C58;}
	.st1{fill:#FFFFFF;}
</style>
<polygon class="st0" points="0.4,23.9 44.3,7.8 87.8,23.9 44.1,40.3 15.4,29.6 23.7,26.2 21,25.1 12.4,28.4 "/>
<path class="st0" d="M18.7,34v16.8c0,0,8,9.4,25.4,9.4c5.1,0,18-1.1,25-9.5c0-9.1,0-16.6,0-16.6l-25,9.4L18.7,34z"/>
<polygon class="st0" points="12.3,30.6 12.3,43.3 13.5,43.3 13.5,31.1 "/>
<circle class="st0" cx="12.9" cy="46.6" r="2.6"/>
<path class="st0" d="M11.9,50c0,0-0.9,0.8-1,3.3S9.8,67.7,9.8,67.7s3.3-3,5.9,0C15.4,63.3,15,53.9,15,53.9s-0.1-2.2-1-3.9
	C13.2,50.5,11.9,50,11.9,50z"/>
<path class="st1" d="M54.7,15.9L28.3,26.8c-0.7,0.3-0.5,1.3,0.3,1.3h24.7c0.3,0,0.6-0.2,0.7-0.6l1.7-10.9
	C55.7,16.1,55.2,15.7,54.7,15.9z"/>
</svg>
