<svg xmlns="http://www.w3.org/2000/svg" width="16.38" height="22.244" viewBox="0 0 16.38 22.244">
  <g id="Group_2" data-name="Group 2" transform="translate(-1061.083 -29.478)">
    <g id="VOTD" transform="translate(1061.083 29.478)">
      <ellipse id="Ellipse_54" data-name="Ellipse 54" cx="6.366" cy="6.366" rx="6.366" ry="6.366" transform="translate(1.717 8.512)" fill="none" stroke="#ffe9b4" stroke-miterlimit="10" stroke-width="2"/>
      <path id="Path_1" data-name="Path 1" d="M36.97,5.6l-5.952,8.362,5.595.316V12.467L41.655,5.6Z" transform="translate(-25.275 -5.6)" fill="#ffe9b4"/>
      <path id="Path_2" data-name="Path 2" d="M19.249,5.6l3.111,4.184-1.574,2H19.249L14.6,5.6Z" transform="translate(-14.6 -5.6)" fill="#ffe9b4"/>
      <path id="Path_3" data-name="Path 3" d="M28.8,24.2h1.287l-.644.751V26.31l-.644.429Z" transform="translate(-23.722 -17.548)" fill="#ffe9b4"/>
      <path id="Path_4" data-name="Path 4" d="M44.1,25.873v1.073l.823.465L44.887,24.8Z" transform="translate(-33.55 -17.933)" fill="#ffe9b4"/>
      <path id="Path_6" data-name="Path 6" d="M36.7,27.3" transform="translate(-28.796 -19.539)" fill="none" stroke="#ffe9b4" stroke-linecap="round" stroke-linejoin="round" stroke-miterlimit="10" stroke-width="2"/>
    </g>
    <path id="Path_81" data-name="Path 81" d="M3.649,0l3.89,6.447H-.45Z" transform="translate(1065.647 40.551)" fill="#ffe9b4"/>
    <path id="Path_80" data-name="Path 80" d="M4.162,0l3.6,6.928L0,7.208Z" transform="translate(1071.384 38.72) rotate(60)" fill="#ffe9b4"/>
  </g>
</svg>
