<svg width="24" height="24" viewBox="0 0 24 24" fill="none" xmlns="http://www.w3.org/2000/svg">
<path d="M5.694 9.094H8.1C8.1 9.094 11.339 6.626 13.923 5.46C14.089 5.439 14.427 5.361 14.458 5.752C14.489 6.143 14.458 17.924 14.458 17.924C14.458 17.924 14.442 18.471 13.833 18.143C13.225 17.815 9.583 15.971 8.114 14.565C7.63 14.565 5.692 14.565 5.692 14.565C5.692 14.565 4.99 14.455 4.99 13.861C4.99 13.267 4.99 9.815 4.99 9.815C4.99 9.815 5.022 9.094 5.694 9.094Z" fill="white"/>
<path d="M17.33 6.64899C18.904 7.79199 19.928 9.64499 19.928 11.737C19.928 13.781 18.95 15.598 17.439 16.742" stroke="white" stroke-miterlimit="10" stroke-linecap="round"/>
<path d="M16.178 8.737C17.102 9.407 17.7 10.495 17.7 11.721C17.7 12.918 17.127 13.986 16.24 14.658" stroke="white" stroke-miterlimit="10" stroke-linecap="round"/>
<line x1="19.031" y1="4.63725" x2="5.77065" y2="20.6735" stroke="white" stroke-width="2"/>
</svg>
