<?xml version="1.0" encoding="utf-8"?>
<!-- Generator: Adobe Illustrator 15.1.0, SVG Export Plug-In . SVG Version: 6.00 Build 0)  -->
<!DOCTYPE svg PUBLIC "-//W3C//DTD SVG 1.1//EN" "http://www.w3.org/Graphics/SVG/1.1/DTD/svg11.dtd">
<svg version="1.1" id="Layer_1" xmlns="http://www.w3.org/2000/svg" xmlns:xlink="http://www.w3.org/1999/xlink" x="0px" y="0px"
	 width="23.813px" height="23.688px" viewBox="0 0 23.813 23.688" enable-background="new 0 0 23.813 23.688" xml:space="preserve">
<g>
	<path fill="#FFFFFF" d="M5.694,9.094h2.406c0,0,3.239-2.468,5.823-3.634c0.166-0.021,0.504-0.099,0.535,0.292s0,12.172,0,12.172
		s-0.016,0.547-0.625,0.219c-0.608-0.328-4.25-2.172-5.719-3.578c-0.484,0-2.422,0-2.422,0S4.99,14.455,4.99,13.861s0-4.046,0-4.046
		S5.022,9.094,5.694,9.094z"/>
	<path fill="none" stroke="#FFFFFF" stroke-linecap="round" stroke-miterlimit="10" d="M17.33,6.649
		c1.574,1.143,2.598,2.996,2.598,5.088c0,2.044-0.978,3.861-2.489,5.005"/>
	<path fill="none" stroke="#FFFFFF" stroke-linecap="round" stroke-miterlimit="10" d="M16.178,8.737
		c0.924,0.67,1.522,1.758,1.522,2.984c0,1.197-0.573,2.265-1.46,2.937"/>
</g>
</svg>
