<svg width="22" height="18" viewBox="0 0 22 18" fill="none" xmlns="http://www.w3.org/2000/svg">
<path d="M21.6723 3.88984L19.8662 2.10693C19.6579 1.89858 19.4263 1.75968 19.1022 1.80587C18.8244 1.80587 18.5464 1.92168 18.3381 2.13002L16.5552 3.91294C16.1846 3.42662 15.6291 3.10246 14.9808 3.10246L9.97945 3.10262C9.16914 1.27336 7.33987 0 5.20969 0C2.33853 0 0 2.33853 0 5.20969C0 7.3166 1.27352 9.12262 3.07951 9.93314V15.4207C3.07951 16.5089 3.95941 17.4119 5.07077 17.4119H15.0039C16.0922 17.4119 16.9952 16.5089 16.9952 15.4207V10.1647L21.7186 5.39492C22.1124 4.97807 22.0891 4.30668 21.6724 3.88982L21.6723 3.88984ZM11.716 10.9519L12.8737 12.1096L11.1371 12.9201C11.0446 12.9664 10.975 12.9201 10.9288 12.897C10.8824 12.8506 10.8593 12.7812 10.8824 12.6886L11.716 10.9519ZM14.1472 11.2297C14.0778 11.2991 14.0083 11.3455 13.9389 11.4149L12.4106 9.90998C12.4801 9.84053 12.5264 9.74782 12.5959 9.70163L17.111 5.16341L18.6623 6.71474L14.1472 11.2297ZM1.25033 5.20958C1.25033 3.03304 3.03324 1.25013 5.20977 1.25013C7.38631 1.25013 9.16922 3.03304 9.16922 5.20958C9.16922 7.38595 7.38631 9.16886 5.20977 9.16886C3.01017 9.16886 1.25033 7.38595 1.25033 5.20958ZM15.7217 15.4206C15.7217 15.8373 15.3744 16.1847 14.9807 16.1847H5.04753C4.63084 16.1847 4.30651 15.8374 4.30651 15.4206L4.30667 10.3035C4.60773 10.3499 4.88553 10.396 5.20969 10.396C8.08084 10.396 10.4194 8.05751 10.4194 5.18635C10.4194 4.90855 10.373 4.63061 10.3268 4.3528H14.9808C15.2819 4.3528 15.5597 4.53806 15.6755 4.81585L11.7393 8.79837C11.2763 9.26141 10.9058 9.79391 10.628 10.3728L9.79424 12.179C9.53954 12.7347 9.65534 13.3598 10.072 13.7766C10.3498 14.0544 10.6972 14.1933 11.0676 14.1933C11.2759 14.1933 11.4843 14.147 11.6696 14.0544L13.4525 13.2209C14.0313 12.9431 14.5638 12.5726 15.0269 12.1095L15.7215 11.4149L15.7217 15.4206ZM19.5422 5.81159L17.9909 4.26026L19.1486 3.10255L20.6999 4.65388L19.5422 5.81159Z" fill="#497FB0"/>
<path d="M7.06056 3.86663C6.80586 3.63503 6.41225 3.65828 6.18066 3.88973L4.65245 5.53376L4.05048 4.90855C3.81887 4.65385 3.42528 4.65385 3.17058 4.88546C2.91588 5.11707 2.91588 5.51066 3.14748 5.76536L4.18938 6.89995C4.30519 7.01576 4.46718 7.1083 4.65242 7.1083C4.81458 7.1083 4.99967 7.03885 5.11547 6.89995L7.10673 4.76977C7.33833 4.49165 7.31524 4.09805 7.06053 3.86659L7.06056 3.86663Z" fill="#497FB0"/>
</svg>
