<svg xmlns="http://www.w3.org/2000/svg" width="41.015" height="41" viewBox="0 0 41.015 41">
  <g id="face-mask-mask-svgrepo-com" transform="translate(0 -0.207)">
    <circle id="Ellipse_935" data-name="Ellipse 935" cx="20.5" cy="20.5" r="20.5" transform="translate(0 0.207)" fill="#ff80aa"/>
    <path id="Path_78849" data-name="Path 78849" d="M193.576,114.342,180.394,101.16l-.084.4-2.679-2.679L165.914,108.8h0v13.074L175.98,131.94A20.614,20.614,0,0,0,193.576,114.342Z" transform="translate(-152.561 -90.926)" fill="#ff6472"/>
    <path id="Path_78850" data-name="Path 78850" d="M137.347,96.517l2.028-2.535a14.947,14.947,0,0,0-5.16-9.179l-1.335,3.338v-4.27a8.25,8.25,0,0,0-8.934,0v4.27L122.611,84.8a14.947,14.947,0,0,0-5.16,9.179l2.028,2.535L117.3,95.158q-.058.671-.059,1.359a15.183,15.183,0,0,0,5.365,11.714l1.335-.547v1.478a8.25,8.25,0,0,0,8.934,0v-1.478l1.336.547a15.183,15.183,0,0,0,5.365-11.714c0-.459-.021-.912-.059-1.359Zm-15.634-1.4a2.271,2.271,0,1,1,2.233,1.861A2.073,2.073,0,0,1,121.713,95.121Zm6.7,9.771c-2.467,0-4.467-.625-4.467-1.4s2-1.4,4.467-1.4,4.467.625,4.467,1.4S130.88,104.892,128.413,104.892Zm4.467-7.91a1.892,1.892,0,1,1,2.233-1.861A2.073,2.073,0,0,1,132.88,96.982Z" transform="translate(-107.81 -75.914)" fill="#fff"/>
    <path id="Path_78851" data-name="Path 78851" d="M266.58,95.158l-2.174,1.359,2.028-2.535a14.947,14.947,0,0,0-5.16-9.179l-1.335,3.338v-4.27a8.773,8.773,0,0,0-4.467-1.314h-.046V102.1h.046c2.467,0,4.467.625,4.467,1.4s-2,1.4-4.467,1.4h-.046v5.583h.046a8.774,8.774,0,0,0,4.467-1.314v-1.478l1.336.547a15.183,15.183,0,0,0,5.365-11.714C266.639,96.059,266.619,95.605,266.58,95.158Zm-6.641,1.824a1.892,1.892,0,1,1,2.233-1.861A2.073,2.073,0,0,1,259.939,96.982Z" transform="translate(-234.869 -75.914)" fill="#e6f3ff"/>
  </g>
</svg>
