<svg xmlns="http://www.w3.org/2000/svg" width="41.015" height="41.015" viewBox="0 0 41.015 41.015">
  <g id="XMLID_1124_" transform="translate(-0.001)">
    <path id="XMLID_1125_" d="M17.461,40.788,40.789,17.46c0,.032.01.065.015.1A20.508,20.508,0,1,0,17.632,40.814Z" fill="#1d54bd"/>
    <path id="XMLID_1126_" d="M99.186,122.514l8.616,8.616A20.509,20.509,0,0,0,131.13,107.8l-8.616-8.616Z" transform="translate(-90.341 -90.342)" fill="#071e61"/>
    <path id="XMLID_1127_" d="M56.831,52.5a16.465,16.465,0,0,0-6.137,3.36s-2.9,3.283-2.9,3.282a16.512,16.512,0,0,0-.549,17.492L56.5,84.054a16.483,16.483,0,0,0,4.993.769V54.9Z" transform="translate(-40.988 -47.821)" fill="#7be3ff"/>
    <path id="XMLID_1128_" d="M245.737,73.288l-5.281-17.72a16.454,16.454,0,0,0-5.789-3.067S232.376,54.9,230,54.9V84.823a16.441,16.441,0,0,0,6.766-1.447l5.358-3.862A16.468,16.468,0,0,0,245.737,73.288Z" transform="translate(-209.492 -47.82)" fill="#48d9ff"/>
    <path id="XMLID_1129_" d="M187.007,45.669a4.713,4.713,0,0,1-9.331,0,16.6,16.6,0,0,1,9.331,0Z" transform="translate(-161.833 -40.988)" fill="#fff"/>
    <rect id="XMLID_1130_" width="1.783" height="2.229" transform="translate(22.292 12.547)" fill="#487ed2"/>
    <path id="XMLID_1131_" d="M70.219,105.09a3.592,3.592,0,0,0-.589.049v-1.85h1.783v-2.354h2.481v1.783h1.783v-1.783h.011V93.9a1.918,1.918,0,0,0-.665-3.716H70.1A16.563,16.563,0,0,0,66.3,94.96v6.786a1.542,1.542,0,0,0,1.542,1.543v2.7a3.562,3.562,0,0,0-1.2,2.669v2.3a16.538,16.538,0,0,0,9.261,7.418v-5.286H76.3a2.424,2.424,0,0,0,1.924-2.371V105.09Z" transform="translate(-60.392 -82.142)" fill="#73a7e6"/>
    <path id="XMLID_1132_" d="M240.456,86.907l.025,2.02H237.15V90.71h1.671v1.521h-2.038a1.785,1.785,0,0,0-1.432,1.7v1.791h-3.567v4.117h1.5a2.33,2.33,0,0,0,2.258-1.751h2.812a3.22,3.22,0,0,0,2.941,1.91v1.541h-8.411A2.887,2.887,0,0,0,230,104.42V106.2a2.888,2.888,0,0,0,2.887,2.887h.547v4.48a4.154,4.154,0,0,0,.563,2.1,16.483,16.483,0,0,0,8.126-4.822v-6.224h3.613a16.516,16.516,0,0,0-5.281-17.719Z" transform="translate(-209.492 -79.158)" fill="#487ed2"/>
  </g>
</svg>
